<svg xmlns="http://www.w3.org/2000/svg" xmlns:xlink="http://www.w3.org/1999/xlink" x="0" y="0" width="32" height="32" viewBox="0 0 32 32" enable-background="new 0 0 32 32" xml:space="preserve"><path fill="#39B54A" d="M13.071,8.316H6.433L6.375,7.259V0.621l1.058-0.058h6.638l0.058,1.058v6.638L13.071,8.316z M8.375,6.316h3.753V2.563H8.375V6.316z"/><path fill="#39B54A" d="M21.497,19.274c-0.032,0-0.058-0.026-0.058-0.058v-5.638c0-0.032,0.026-0.058,0.058-0.058h5.638c0.032,0,0.058,0.026,0.058,0.058v5.638c0,0.032-0.026,0.058-0.058,0.058H21.497z"/><path fill="#39B54A" d="M27.135,20.274h-6.639l-0.057-1.058v-6.638l1.057-0.058h6.639l0.058,1.058v6.638L27.135,20.274zM22.439,18.274h3.753v-3.753h-3.753V18.274z"/><path fill="#39B54A" d="M7.433,30.609c-0.032,0-0.058-0.026-0.058-0.058v-5.638c0-0.032,0.026-0.058,0.058-0.058h5.638c0.032,0,0.058,0.026,0.058,0.058v5.638c0,0.032-0.026,0.058-0.058,0.058H7.433z"/><path fill="#39B54A" d="M13.071,31.608H6.433l-0.058-1.058v-6.638l1.058-0.058h6.638l0.058,1.058v6.638L13.071,31.608zM8.375,29.608h3.753v-3.753H8.375V29.608z"/><line fill="none" stroke="#39B54A" stroke-width="2" stroke-miterlimit="10" x1="16.724" y1="28.611" x2="22.922" y2="22.413"/><line fill="none" stroke="#39B54A" stroke-width="2" stroke-miterlimit="10" x1="16.724" y1="4.184" x2="22.922" y2="10.382"/></svg>
