<?xml version="1.0" encoding="UTF-8"?>
<svg xmlns="http://www.w3.org/2000/svg"
     viewBox="0 0 623 588"
     width="623" height="588"
     font-family="monospace, Consolas">
  <style>
    text { dominant-baseline: auto; }
  </style>
  <rect x="10" y="10" width="346" height="568" fill="#ffffff" stroke="#424242" stroke-width="1" rx="4" />
<rect x="20" y="4" width="69" height="12" fill="#ffffff" stroke="#424242" stroke-width="1" rx="3" />
<text x="24" y="13" font-size="9" fill="#212121" font-weight="normal"><tspan>&lt;</tspan><tspan font-weight="bold">ch-dialog</tspan><tspan>&gt;</tspan></text>
<rect x="12" y="26" width="342" height="550" fill="none" stroke="#9e9e9e" stroke-width="1.5" stroke-dasharray="6 3" rx="3" />
<rect x="16" y="20" width="66" height="12" fill="#ffffff" rx="2" />
<text x="20" y="28" font-size="8" fill="#9e9e9e" font-family="monospace">#shadow-root</text>
<rect x="22" y="40" width="322" height="528" fill="#fafafa" stroke="#bdbdbd" stroke-width="1" rx="4" />
<rect x="32" y="34" width="274" height="12" fill="#fafafa" stroke="#bdbdbd" stroke-width="1" rx="3" />
<text x="36" y="43" font-size="9" fill="#424242" font-weight="normal"><tspan>&lt;</tspan><tspan font-weight="bold">dialog</tspan><tspan> aria-labelledby=&quot;heading&quot; part=&quot;dialog&quot;</tspan><tspan>&gt;</tspan></text>
<line x1="40" y1="72" x2="40" y2="244" stroke="#7b1fa2" stroke-width="2" stroke-opacity="0.4" stroke-linecap="round" />
<line x1="40" y1="325" x2="40" y2="373" stroke="#7b1fa2" stroke-width="2" stroke-opacity="0.4" stroke-linecap="round" />
<line x1="40" y1="401" x2="40" y2="414" stroke="#7b1fa2" stroke-width="2" stroke-opacity="0.4" stroke-linecap="round" />
<rect x="32" y="56" width="107" height="16" fill="#7b1fa2" rx="3" />
<path d="M5 0.5 L9.5 5 L5 9.5 L0.5 5 Z" fill="none" stroke="#ffffff" stroke-width="1.2" stroke-linecap="round" stroke-linejoin="round" transform="translate(38,59) scale(1)" />
<text x="92.5" y="67.15" font-size="9" fill="#ffffff" font-family="monospace" text-anchor="middle">when showHeader</text>
<rect x="44" y="79" width="273" height="165" fill="#f3f0ff" stroke="#bdbdbd" stroke-width="1" rx="4" />
<rect x="54" y="73" width="113" height="12" fill="#f3f0ff" stroke="#bdbdbd" stroke-width="1" rx="3" />
<text x="58" y="82" font-size="9" fill="#424242" font-weight="normal"><tspan>&lt;</tspan><tspan font-weight="bold">div</tspan><tspan> part=&quot;header&quot;</tspan><tspan>&gt;</tspan></text>
<line x1="62" y1="111" x2="62" y2="155" stroke="#7b1fa2" stroke-width="2" stroke-opacity="0.4" stroke-linecap="round" />
<line x1="62" y1="183" x2="62" y2="234" stroke="#7b1fa2" stroke-width="2" stroke-opacity="0.4" stroke-linecap="round" />
<rect x="54" y="95" width="90.8" height="16" fill="#7b1fa2" rx="3" />
<path d="M5 0.5 L9.5 5 L5 9.5 L0.5 5 Z" fill="none" stroke="#ffffff" stroke-width="1.2" stroke-linecap="round" stroke-linejoin="round" transform="translate(60,98) scale(1)" />
<text x="106.4" y="106.15" font-size="9" fill="#ffffff" font-family="monospace" text-anchor="middle">when caption</text>
<rect x="66" y="118" width="205" height="37" fill="#f0f7f4" stroke="#bdbdbd" stroke-width="1" rx="4" />
<rect x="76" y="112" width="185" height="12" fill="#f0f7f4" stroke="#bdbdbd" stroke-width="1" rx="3" />
<text x="80" y="121" font-size="9" fill="#424242" font-weight="normal"><tspan>&lt;</tspan><tspan font-weight="bold">h2</tspan><tspan> id=&quot;heading&quot; part=&quot;caption&quot;</tspan><tspan>&gt;</tspan></text>
<text x="76" y="143" font-size="9" fill="#888" font-style="italic">&quot;Caption text&quot;</text>
<rect x="54" y="167" width="96.2" height="16" fill="#7b1fa2" rx="3" />
<path d="M5 0.5 L9.5 5 L5 9.5 L0.5 5 Z" fill="none" stroke="#ffffff" stroke-width="1.2" stroke-linecap="round" stroke-linejoin="round" transform="translate(60,170) scale(1)" />
<text x="109.1" y="178.15" font-size="9" fill="#ffffff" font-family="monospace" text-anchor="middle">when closable</text>
<rect x="66" y="184" width="241" height="50" fill="#e3f2fd" stroke="#1976d2" stroke-width="1" rx="3" />
<text x="70" y="195" font-size="9" fill="#0d47a1" font-weight="normal"><tspan>&lt;</tspan><tspan font-weight="bold">button</tspan></text>
<text x="81" y="207" font-size="9" fill="#0d47a1" font-weight="normal">aria-label=&quot;{closeButtonAccessibleName}&quot;</text>
<text x="81" y="219" font-size="9" fill="#0d47a1" font-weight="normal">part=&quot;close-button&quot;</text>
<text x="70" y="231" font-size="9" fill="#0d47a1" font-weight="normal">&gt;</text>
<rect x="32" y="256" width="139" height="41" fill="#f3f0ff" stroke="#bdbdbd" stroke-width="1" rx="4" />
<rect x="42" y="250" width="119" height="12" fill="#f3f0ff" stroke="#bdbdbd" stroke-width="1" rx="3" />
<text x="46" y="259" font-size="9" fill="#424242" font-weight="normal"><tspan>&lt;</tspan><tspan font-weight="bold">div</tspan><tspan> part=&quot;content&quot;</tspan><tspan>&gt;</tspan></text>
<rect x="42" y="272" width="64.19999999999999" height="15" fill="#fff8e1" stroke="#f57f17" stroke-width="1.5" stroke-dasharray="4 2" rx="4" />
<text x="48" y="283" font-size="9" fill="#e65100" font-weight="bold">&lt;slot /&gt;</text>
<rect x="32" y="309" width="107" height="16" fill="#7b1fa2" rx="3" />
<path d="M5 0.5 L9.5 5 L5 9.5 L0.5 5 Z" fill="none" stroke="#ffffff" stroke-width="1.2" stroke-linecap="round" stroke-linejoin="round" transform="translate(38,312) scale(1)" />
<text x="92.5" y="320.15" font-size="9" fill="#ffffff" font-family="monospace" text-anchor="middle">when showFooter</text>
<rect x="44" y="332" width="161.55" height="41" fill="#f3f0ff" stroke="#bdbdbd" stroke-width="1" rx="4" />
<rect x="54" y="326" width="113" height="12" fill="#f3f0ff" stroke="#bdbdbd" stroke-width="1" rx="3" />
<text x="58" y="335" font-size="9" fill="#424242" font-weight="normal"><tspan>&lt;</tspan><tspan font-weight="bold">div</tspan><tspan> part=&quot;footer&quot;</tspan><tspan>&gt;</tspan></text>
<rect x="54" y="348" width="141.55" height="15" fill="#fff8e1" stroke="#f57f17" stroke-width="1.5" stroke-dasharray="4 2" rx="4" />
<text x="60" y="359" font-size="9" fill="#e65100" font-weight="bold">&lt;slot name=&quot;footer&quot; /&gt;</text>
<rect x="32" y="385" width="144.8" height="16" fill="#7b1fa2" rx="3" />
<path d="M5 0.5 L9.5 5 L5 9.5 L0.5 5 Z" fill="none" stroke="#ffffff" stroke-width="1.2" stroke-linecap="round" stroke-linejoin="round" transform="translate(38,388) scale(1)" />
<text x="111.4" y="396.15" font-size="9" fill="#ffffff" font-family="monospace" text-anchor="middle">when resizable &amp;&amp; show</text>
<rect x="44" y="402" width="196" height="12" fill="#f3f0ff" stroke="#bdbdbd" stroke-width="1" rx="3" />
<text x="48" y="411" font-size="9" fill="#424242" font-weight="normal"><tspan>&lt;</tspan><tspan font-weight="bold">div</tspan><tspan> part=&quot;edge edge-block-start&quot;</tspan><tspan>&gt;</tspan></text>
<rect x="32" y="420" width="191" height="12" fill="#f3f0ff" stroke="#bdbdbd" stroke-width="1" rx="3" />
<text x="36" y="429" font-size="9" fill="#424242" font-weight="normal"><tspan>&lt;</tspan><tspan font-weight="bold">div</tspan><tspan> part=&quot;edge edge-inline-end&quot;</tspan><tspan>&gt;</tspan></text>
<rect x="32" y="438" width="185" height="12" fill="#f3f0ff" stroke="#bdbdbd" stroke-width="1" rx="3" />
<text x="36" y="447" font-size="9" fill="#424242" font-weight="normal"><tspan>&lt;</tspan><tspan font-weight="bold">div</tspan><tspan> part=&quot;edge edge-block-end&quot;</tspan><tspan>&gt;</tspan></text>
<rect x="32" y="456" width="202" height="12" fill="#f3f0ff" stroke="#bdbdbd" stroke-width="1" rx="3" />
<text x="36" y="465" font-size="9" fill="#424242" font-weight="normal"><tspan>&lt;</tspan><tspan font-weight="bold">div</tspan><tspan> part=&quot;edge edge-inline-start&quot;</tspan><tspan>&gt;</tspan></text>
<rect x="32" y="474" width="290" height="12" fill="#f3f0ff" stroke="#bdbdbd" stroke-width="1" rx="3" />
<text x="36" y="483" font-size="9" fill="#424242" font-weight="normal"><tspan>&lt;</tspan><tspan font-weight="bold">div</tspan><tspan> part=&quot;corner corner-block-start-inline-start&quot;</tspan><tspan>&gt;</tspan></text>
<rect x="32" y="492" width="279" height="12" fill="#f3f0ff" stroke="#bdbdbd" stroke-width="1" rx="3" />
<text x="36" y="501" font-size="9" fill="#424242" font-weight="normal"><tspan>&lt;</tspan><tspan font-weight="bold">div</tspan><tspan> part=&quot;corner corner-block-start-inline-end&quot;</tspan><tspan>&gt;</tspan></text>
<rect x="32" y="510" width="279" height="12" fill="#f3f0ff" stroke="#bdbdbd" stroke-width="1" rx="3" />
<text x="36" y="519" font-size="9" fill="#424242" font-weight="normal"><tspan>&lt;</tspan><tspan font-weight="bold">div</tspan><tspan> part=&quot;corner corner-block-end-inline-start&quot;</tspan><tspan>&gt;</tspan></text>
<rect x="32" y="528" width="268" height="12" fill="#f3f0ff" stroke="#bdbdbd" stroke-width="1" rx="3" />
<text x="36" y="537" font-size="9" fill="#424242" font-weight="normal"><tspan>&lt;</tspan><tspan font-weight="bold">div</tspan><tspan> part=&quot;corner corner-block-end-inline-end&quot;</tspan><tspan>&gt;</tspan></text>
<rect x="32" y="546" width="36" height="12" fill="#f3f0ff" stroke="#bdbdbd" stroke-width="1" rx="3" />
<text x="36" y="555" font-size="9" fill="#424242" font-weight="normal"><tspan>&lt;</tspan><tspan font-weight="bold">div</tspan><tspan>&gt;</tspan></text>
<rect x="382" y="10" width="231" height="206" fill="none" stroke="#bdbdbd" stroke-width="1" rx="4" />
<text x="392" y="24" font-size="10" fill="#424242" font-weight="bold">Legend</text>
<line x1="392" y1="38" x2="416" y2="38" stroke="#9e9e9e" stroke-width="1.5" stroke-dasharray="4 2" />
<text x="438" y="42" font-size="8" fill="#666">#shadow-root</text>
<rect x="392" y="48" width="12" height="12" fill="#7b1fa2" rx="2" />
<path d="M5 0.5 L9.5 5 L5 9.5 L0.5 5 Z" fill="none" stroke="#fff" stroke-width="1.2" stroke-linecap="round" stroke-linejoin="round" transform="translate(393,49) scale(1)" />
<text x="438" y="58" font-size="8" fill="#666">condition (when / else)</text>
<rect x="392" y="64" width="12" height="12" fill="#00695c" rx="2" />
<path d="M8 14.667a5.806 5.806 0 0 1-2.342-.475 6.1 6.1 0 0 1-1.9-1.284 6.097 6.097 0 0 1-1.283-1.9A5.804 5.804 0 0 1 2 8.667a5.8 5.8 0 0 1 .475-2.342 6.099 6.099 0 0 1 1.283-1.9 6.099 6.099 0 0 1 1.9-1.283A5.805 5.805 0 0 1 8 2.667h.1L7.533 2.1a.622.622 0 0 1-.183-.458.68.68 0 0 1 .183-.475.68.68 0 0 1 .475-.209.62.62 0 0 1 .475.192L10.2 2.867a.632.632 0 0 1 .183.466.632.632 0 0 1-.183.467L8.483 5.517a.62.62 0 0 1-.475.191.68.68 0 0 1-.475-.208.68.68 0 0 1-.183-.475c0-.183.061-.336.183-.458L8.1 4H8c-1.3 0-2.403.453-3.308 1.358-.906.906-1.359 2.009-1.359 3.309 0 1.3.453 2.402 1.359 3.308.905.906 2.008 1.358 3.308 1.358 1.178 0 2.206-.383 3.083-1.15.878-.766 1.395-1.733 1.55-2.9a.68.68 0 0 1 .234-.441.687.687 0 0 1 .466-.175c.178 0 .334.055.467.166a.44.44 0 0 1 .167.417c-.156 1.544-.8 2.833-1.934 3.867C10.9 14.15 9.556 14.667 8 14.667Z" fill="#fff" transform="translate(393,65) scale(0.625)" />
<text x="438" y="74" font-size="8" fill="#666">iteration (for each)</text>
<rect x="392" y="80" width="12" height="12" fill="#546e7a" rx="2" />
<text x="438" y="90" font-size="8" fill="#666">descriptive comment</text>
<rect x="392" y="96" width="20" height="12" fill="#fff8e1" stroke="#f57f17" stroke-width="1" stroke-dasharray="3 1.5" rx="2" />
<text x="438" y="106" font-size="8" fill="#666">slot</text>
<rect x="392" y="112" width="12" height="12" fill="#0277bd" rx="2" />
<path d="M10.817 8.664H3.642a.613.613 0 0 1-.457-.19.647.647 0 0 1-.185-.47c0-.187.062-.343.185-.47a.613.613 0 0 1 .457-.19h7.175l-3.146-3.23a.613.613 0 0 1-.185-.462.668.668 0 0 1 .65-.651.58.58 0 0 1 .45.189l4.237 4.353c.065.066.11.137.137.214a.75.75 0 0 1 .04.247.75.75 0 0 1-.04.248.581.581 0 0 1-.137.214l-4.237 4.353a.59.59 0 0 1-.442.181.645.645 0 0 1-.457-.181.65.65 0 0 1-.193-.47.65.65 0 0 1 .193-.47l3.13-3.215Z" fill="#fff" transform="translate(393,113) scale(0.625)" />
<text x="438" y="122" font-size="8" fill="#666">projected content (light DOM)</text>
<rect x="392" y="128" width="28" height="12" fill="#fafafa" stroke="#bdbdbd" stroke-width="1" rx="3" />
<text x="394" y="137" font-size="7" fill="#424242" font-weight="bold">&lt;tag&gt;</text>
<text x="438" y="138" font-size="8" fill="#666">tag pill (id, role, aria-*, part)</text>
<text x="392" y="154" font-size="9" fill="#424242">part</text>
<text x="438" y="154" font-size="8" fill="#666">part=&quot;name&quot;  (static)</text>
<text x="392" y="170" font-size="9" fill="#424242">[part]</text>
<text x="438" y="170" font-size="8" fill="#666">[part]  (conditional)</text>
<text x="392" y="186" font-size="9" fill="#424242">{part}</text>
<text x="438" y="186" font-size="8" fill="#666">{part}  (dynamic)</text>
<text x="392" y="202" font-size="9" fill="#424242">[{part}]</text>
<text x="438" y="202" font-size="8" fill="#666">[{part}]  (conditional dynamic)</text>

</svg>
