<?xml version="1.0" encoding="UTF-8"?>
<svg xmlns="http://www.w3.org/2000/svg"
     viewBox="0 0 580 903"
     width="580" height="903"
     font-family="monospace, Consolas">
  <style>
    text { dominant-baseline: auto; }
  </style>
  <rect x="10" y="10" width="323" height="883" fill="#ffffff" stroke="#424242" stroke-width="1" rx="4" />
<rect x="20" y="4" width="69" height="12" fill="#ffffff" stroke="#424242" stroke-width="1" rx="3" />
<text x="24" y="13" font-size="9" fill="#212121" font-weight="bold">&lt;ch-dialog&gt;</text>
<rect x="12" y="30" width="319" height="858" fill="none" stroke="#9e9e9e" stroke-width="1.5" stroke-dasharray="6 3" rx="3" />
<rect x="16" y="24" width="66" height="12" fill="#ffffff" rx="2" />
<text x="20" y="32" font-size="8" fill="#9e9e9e" font-family="monospace">#shadow-root</text>
<rect x="22" y="40" width="299" height="843" fill="#fafafa" stroke="#bdbdbd" stroke-width="1" rx="4" />
<rect x="32" y="34" width="53" height="12" fill="#fafafa" stroke="#bdbdbd" stroke-width="1" rx="3" />
<text x="36" y="43" font-size="9" fill="#424242" font-weight="bold">&lt;dialog&gt;</text>
<text x="32" y="59" font-size="9" fill="#666">dialog</text>
<line x1="40" y1="87" x2="40" y2="279" stroke="#7b1fa2" stroke-width="2" stroke-opacity="0.4" stroke-linecap="round" />
<line x1="40" y1="391" x2="40" y2="470" stroke="#7b1fa2" stroke-width="2" stroke-opacity="0.4" stroke-linecap="round" />
<line x1="40" y1="498" x2="40" y2="536" stroke="#7b1fa2" stroke-width="2" stroke-opacity="0.4" stroke-linecap="round" />
<rect x="32" y="71" width="107" height="16" fill="#7b1fa2" rx="3" />
<path d="M5 0.5 L9.5 5 L5 9.5 L0.5 5 Z" fill="none" stroke="#ffffff" stroke-width="1.2" stroke-linecap="round" stroke-linejoin="round" transform="translate(38,74) scale(1)" />
<text x="92.5" y="82.15" font-size="9" fill="#ffffff" font-family="monospace" text-anchor="middle">when showHeader</text>
<rect x="44" y="94" width="143" height="185" fill="#f3f0ff" stroke="#bdbdbd" stroke-width="1" rx="4" />
<rect x="54" y="88" width="36" height="12" fill="#f3f0ff" stroke="#bdbdbd" stroke-width="1" rx="3" />
<text x="58" y="97" font-size="9" fill="#424242" font-weight="bold">&lt;div&gt;</text>
<text x="54" y="113" font-size="9" fill="#666">header</text>
<line x1="62" y1="141" x2="62" y2="203" stroke="#7b1fa2" stroke-width="2" stroke-opacity="0.4" stroke-linecap="round" />
<line x1="62" y1="231" x2="62" y2="269" stroke="#7b1fa2" stroke-width="2" stroke-opacity="0.4" stroke-linecap="round" />
<rect x="54" y="125" width="90.8" height="16" fill="#7b1fa2" rx="3" />
<path d="M5 0.5 L9.5 5 L5 9.5 L0.5 5 Z" fill="none" stroke="#ffffff" stroke-width="1.2" stroke-linecap="round" stroke-linejoin="round" transform="translate(60,128) scale(1)" />
<text x="106.4" y="136.15" font-size="9" fill="#ffffff" font-family="monospace" text-anchor="middle">when caption</text>
<rect x="66" y="148" width="111" height="55" fill="#f0f7f4" stroke="#bdbdbd" stroke-width="1" rx="4" />
<rect x="76" y="142" width="31" height="12" fill="#f0f7f4" stroke="#bdbdbd" stroke-width="1" rx="3" />
<text x="80" y="151" font-size="9" fill="#424242" font-weight="bold">&lt;h2&gt;</text>
<text x="76" y="167" font-size="9" fill="#666">caption</text>
<text x="76" y="193" font-size="9" fill="#888" font-style="italic">&quot;Caption text&quot;</text>
<rect x="54" y="215" width="96.2" height="16" fill="#7b1fa2" rx="3" />
<path d="M5 0.5 L9.5 5 L5 9.5 L0.5 5 Z" fill="none" stroke="#ffffff" stroke-width="1.2" stroke-linecap="round" stroke-linejoin="round" transform="translate(60,218) scale(1)" />
<text x="109.1" y="226.15" font-size="9" fill="#ffffff" font-family="monospace" text-anchor="middle">when closable</text>
<rect x="66" y="238" width="98" height="31" fill="#e3f2fd" stroke="#1976d2" stroke-width="1" rx="4" />
<rect x="76" y="232" width="53" height="12" fill="#e3f2fd" stroke="#1976d2" stroke-width="1" rx="3" />
<text x="80" y="241" font-size="9" fill="#0d47a1" font-weight="bold">&lt;button&gt;</text>
<text x="76" y="257" font-size="9" fill="#666">close-button</text>
<rect x="32" y="291" width="73.15" height="72" fill="#f3f0ff" stroke="#bdbdbd" stroke-width="1" rx="4" />
<rect x="42" y="285" width="36" height="12" fill="#f3f0ff" stroke="#bdbdbd" stroke-width="1" rx="3" />
<text x="46" y="294" font-size="9" fill="#424242" font-weight="bold">&lt;div&gt;</text>
<text x="42" y="310" font-size="9" fill="#666">content</text>
<rect x="42" y="322" width="53.15" height="31" fill="#fff8e1" stroke="#f57f17" stroke-width="1.5" stroke-dasharray="4 2" rx="4" />
<text x="48" y="341" font-size="9" fill="#e65100" font-weight="bold">&lt;slot&gt;</text>
<rect x="32" y="375" width="107" height="16" fill="#7b1fa2" rx="3" />
<path d="M5 0.5 L9.5 5 L5 9.5 L0.5 5 Z" fill="none" stroke="#ffffff" stroke-width="1.2" stroke-linecap="round" stroke-linejoin="round" transform="translate(38,378) scale(1)" />
<text x="92.5" y="386.15" font-size="9" fill="#ffffff" font-family="monospace" text-anchor="middle">when showFooter</text>
<rect x="44" y="398" width="150.5" height="72" fill="#f3f0ff" stroke="#bdbdbd" stroke-width="1" rx="4" />
<rect x="54" y="392" width="36" height="12" fill="#f3f0ff" stroke="#bdbdbd" stroke-width="1" rx="3" />
<text x="58" y="401" font-size="9" fill="#424242" font-weight="bold">&lt;div&gt;</text>
<text x="54" y="417" font-size="9" fill="#666">footer</text>
<rect x="54" y="429" width="130.5" height="31" fill="#fff8e1" stroke="#f57f17" stroke-width="1.5" stroke-dasharray="4 2" rx="4" />
<text x="60" y="448" font-size="9" fill="#e65100" font-weight="bold">&lt;slot name=&quot;footer&quot;&gt;</text>
<rect x="32" y="482" width="144.8" height="16" fill="#7b1fa2" rx="3" />
<path d="M5 0.5 L9.5 5 L5 9.5 L0.5 5 Z" fill="none" stroke="#ffffff" stroke-width="1.2" stroke-linecap="round" stroke-linejoin="round" transform="translate(38,485) scale(1)" />
<text x="111.4" y="493.15" font-size="9" fill="#ffffff" font-family="monospace" text-anchor="middle">when resizable &amp;&amp; show</text>
<rect x="44" y="505" width="156.5" height="31" fill="#f3f0ff" stroke="#bdbdbd" stroke-width="1" rx="4" />
<rect x="54" y="499" width="36" height="12" fill="#f3f0ff" stroke="#bdbdbd" stroke-width="1" rx="3" />
<text x="58" y="508" font-size="9" fill="#424242" font-weight="bold">&lt;div&gt;</text>
<text x="54" y="524" font-size="9" fill="#666">edge edge-block-start</text>
<rect x="32" y="548" width="150" height="31" fill="#f3f0ff" stroke="#bdbdbd" stroke-width="1" rx="4" />
<rect x="42" y="542" width="36" height="12" fill="#f3f0ff" stroke="#bdbdbd" stroke-width="1" rx="3" />
<text x="46" y="551" font-size="9" fill="#424242" font-weight="bold">&lt;div&gt;</text>
<text x="42" y="567" font-size="9" fill="#666">edge edge-inline-end</text>
<rect x="32" y="591" width="143.5" height="31" fill="#f3f0ff" stroke="#bdbdbd" stroke-width="1" rx="4" />
<rect x="42" y="585" width="36" height="12" fill="#f3f0ff" stroke="#bdbdbd" stroke-width="1" rx="3" />
<text x="46" y="594" font-size="9" fill="#424242" font-weight="bold">&lt;div&gt;</text>
<text x="42" y="610" font-size="9" fill="#666">edge edge-block-end</text>
<rect x="32" y="634" width="163" height="31" fill="#f3f0ff" stroke="#bdbdbd" stroke-width="1" rx="4" />
<rect x="42" y="628" width="36" height="12" fill="#f3f0ff" stroke="#bdbdbd" stroke-width="1" rx="3" />
<text x="46" y="637" font-size="9" fill="#424242" font-weight="bold">&lt;div&gt;</text>
<text x="42" y="653" font-size="9" fill="#666">edge edge-inline-start</text>
<rect x="32" y="677" width="267" height="31" fill="#f3f0ff" stroke="#bdbdbd" stroke-width="1" rx="4" />
<rect x="42" y="671" width="36" height="12" fill="#f3f0ff" stroke="#bdbdbd" stroke-width="1" rx="3" />
<text x="46" y="680" font-size="9" fill="#424242" font-weight="bold">&lt;div&gt;</text>
<text x="42" y="696" font-size="9" fill="#666">corner corner-block-start-inline-start</text>
<rect x="32" y="720" width="254" height="31" fill="#f3f0ff" stroke="#bdbdbd" stroke-width="1" rx="4" />
<rect x="42" y="714" width="36" height="12" fill="#f3f0ff" stroke="#bdbdbd" stroke-width="1" rx="3" />
<text x="46" y="723" font-size="9" fill="#424242" font-weight="bold">&lt;div&gt;</text>
<text x="42" y="739" font-size="9" fill="#666">corner corner-block-start-inline-end</text>
<rect x="32" y="763" width="254" height="31" fill="#f3f0ff" stroke="#bdbdbd" stroke-width="1" rx="4" />
<rect x="42" y="757" width="36" height="12" fill="#f3f0ff" stroke="#bdbdbd" stroke-width="1" rx="3" />
<text x="46" y="766" font-size="9" fill="#424242" font-weight="bold">&lt;div&gt;</text>
<text x="42" y="782" font-size="9" fill="#666">corner corner-block-end-inline-start</text>
<rect x="32" y="806" width="241" height="31" fill="#f3f0ff" stroke="#bdbdbd" stroke-width="1" rx="4" />
<rect x="42" y="800" width="36" height="12" fill="#f3f0ff" stroke="#bdbdbd" stroke-width="1" rx="3" />
<text x="46" y="809" font-size="9" fill="#424242" font-weight="bold">&lt;div&gt;</text>
<text x="42" y="825" font-size="9" fill="#666">corner corner-block-end-inline-end</text>
<rect x="32" y="849" width="56" height="24" fill="#f3f0ff" stroke="#bdbdbd" stroke-width="1" rx="4" />
<rect x="42" y="843" width="36" height="12" fill="#f3f0ff" stroke="#bdbdbd" stroke-width="1" rx="3" />
<text x="46" y="852" font-size="9" fill="#424242" font-weight="bold">&lt;div&gt;</text>
<rect x="359" y="10" width="211" height="190" fill="none" stroke="#bdbdbd" stroke-width="1" rx="4" />
<text x="369" y="24" font-size="10" fill="#424242" font-weight="bold">Legend</text>
<line x1="369" y1="38" x2="393" y2="38" stroke="#9e9e9e" stroke-width="1.5" stroke-dasharray="4 2" />
<text x="415" y="42" font-size="8" fill="#666">#shadow-root</text>
<rect x="369" y="48" width="12" height="12" fill="#7b1fa2" rx="2" />
<path d="M5 0.5 L9.5 5 L5 9.5 L0.5 5 Z" fill="none" stroke="#fff" stroke-width="1.2" stroke-linecap="round" stroke-linejoin="round" transform="translate(370,49) scale(1)" />
<text x="415" y="58" font-size="8" fill="#666">condition (when / else)</text>
<rect x="369" y="64" width="12" height="12" fill="#00695c" rx="2" />
<path d="M8 14.667a5.806 5.806 0 0 1-2.342-.475 6.1 6.1 0 0 1-1.9-1.284 6.097 6.097 0 0 1-1.283-1.9A5.804 5.804 0 0 1 2 8.667a5.8 5.8 0 0 1 .475-2.342 6.099 6.099 0 0 1 1.283-1.9 6.099 6.099 0 0 1 1.9-1.283A5.805 5.805 0 0 1 8 2.667h.1L7.533 2.1a.622.622 0 0 1-.183-.458.68.68 0 0 1 .183-.475.68.68 0 0 1 .475-.209.62.62 0 0 1 .475.192L10.2 2.867a.632.632 0 0 1 .183.466.632.632 0 0 1-.183.467L8.483 5.517a.62.62 0 0 1-.475.191.68.68 0 0 1-.475-.208.68.68 0 0 1-.183-.475c0-.183.061-.336.183-.458L8.1 4H8c-1.3 0-2.403.453-3.308 1.358-.906.906-1.359 2.009-1.359 3.309 0 1.3.453 2.402 1.359 3.308.905.906 2.008 1.358 3.308 1.358 1.178 0 2.206-.383 3.083-1.15.878-.766 1.395-1.733 1.55-2.9a.68.68 0 0 1 .234-.441.687.687 0 0 1 .466-.175c.178 0 .334.055.467.166a.44.44 0 0 1 .167.417c-.156 1.544-.8 2.833-1.934 3.867C10.9 14.15 9.556 14.667 8 14.667Z" fill="#fff" transform="translate(370,65) scale(0.625)" />
<text x="415" y="74" font-size="8" fill="#666">iteration (for each)</text>
<rect x="369" y="80" width="12" height="12" fill="#546e7a" rx="2" />
<text x="415" y="90" font-size="8" fill="#666">descriptive comment</text>
<rect x="369" y="96" width="20" height="12" fill="#fff8e1" stroke="#f57f17" stroke-width="1" stroke-dasharray="3 1.5" rx="2" />
<text x="415" y="106" font-size="8" fill="#666">slot</text>
<rect x="369" y="112" width="12" height="12" fill="#0277bd" rx="2" />
<path d="M10.817 8.664H3.642a.613.613 0 0 1-.457-.19.647.647 0 0 1-.185-.47c0-.187.062-.343.185-.47a.613.613 0 0 1 .457-.19h7.175l-3.146-3.23a.613.613 0 0 1-.185-.462.668.668 0 0 1 .65-.651.58.58 0 0 1 .45.189l4.237 4.353c.065.066.11.137.137.214a.75.75 0 0 1 .04.247.75.75 0 0 1-.04.248.581.581 0 0 1-.137.214l-4.237 4.353a.59.59 0 0 1-.442.181.645.645 0 0 1-.457-.181.65.65 0 0 1-.193-.47.65.65 0 0 1 .193-.47l3.13-3.215Z" fill="#fff" transform="translate(370,113) scale(0.625)" />
<text x="415" y="122" font-size="8" fill="#666">projected content (light DOM)</text>
<text x="369" y="138" font-size="9" fill="#666">part</text>
<text x="415" y="138" font-size="8" fill="#666">static part</text>
<text x="369" y="154" font-size="9" fill="#666" font-style="italic">[part]</text>
<text x="415" y="154" font-size="8" fill="#666">conditional part</text>
<text x="369" y="170" font-size="9" fill="#666" font-style="italic">{part}</text>
<text x="415" y="170" font-size="8" fill="#666">dynamic part</text>
<text x="369" y="186" font-size="9" fill="#666" font-style="italic">[{part}]</text>
<text x="415" y="186" font-size="8" fill="#666">conditional dynamic part</text>

</svg>
