<?xml version="1.0" encoding="UTF-8"?>
<svg xmlns="http://www.w3.org/2000/svg"
     viewBox="0 0 845 859"
     width="845" height="859"
     font-family="monospace, Consolas">
  <style>
    text { dominant-baseline: auto; }
  </style>
  <rect x="10" y="10" width="568" height="839" fill="#ffffff" stroke="#424242" stroke-width="1" rx="4" />
<rect x="20" y="4" width="102" height="12" fill="#ffffff" stroke="#424242" stroke-width="1" rx="3" />
<text x="24" y="13" font-size="9" fill="#212121" font-weight="normal"><tspan>&lt;</tspan><tspan font-weight="bold">ch-tabular-grid</tspan><tspan>&gt;</tspan></text>
<rect x="12" y="26" width="564" height="821" fill="none" stroke="#9e9e9e" stroke-width="1.5" stroke-dasharray="6 3" rx="3" />
<rect x="16" y="20" width="66" height="12" fill="#ffffff" rx="2" />
<text x="20" y="28" font-size="8" fill="#9e9e9e" font-family="monospace">#shadow-root</text>
<rect x="22" y="40" width="161.55" height="41" fill="#fafafa" stroke="#bdbdbd" stroke-width="1" rx="4" />
<rect x="32" y="34" width="130" height="12" fill="#fafafa" stroke="#bdbdbd" stroke-width="1" rx="3" />
<text x="36" y="43" font-size="9" fill="#424242" font-weight="normal"><tspan>&lt;</tspan><tspan font-weight="bold">header</tspan><tspan> part=&quot;header&quot;</tspan><tspan>&gt;</tspan></text>
<rect x="32" y="56" width="141.55" height="15" fill="#fff8e1" stroke="#f57f17" stroke-width="1.5" stroke-dasharray="4 2" rx="4" />
<text x="38" y="67" font-size="9" fill="#e65100" font-weight="bold">&lt;slot name=&quot;header&quot; /&gt;</text>
<rect x="22" y="93" width="145" height="41" fill="#fafafa" stroke="#bdbdbd" stroke-width="1" rx="4" />
<rect x="32" y="87" width="125" height="12" fill="#fafafa" stroke="#bdbdbd" stroke-width="1" rx="3" />
<text x="36" y="96" font-size="9" fill="#424242" font-weight="normal"><tspan>&lt;</tspan><tspan font-weight="bold">section</tspan><tspan> part=&quot;main&quot;</tspan><tspan>&gt;</tspan></text>
<rect x="32" y="109" width="64.19999999999999" height="15" fill="#fff8e1" stroke="#f57f17" stroke-width="1.5" stroke-dasharray="4 2" rx="4" />
<text x="38" y="120" font-size="9" fill="#e65100" font-weight="bold">&lt;slot /&gt;</text>
<rect x="22" y="146" width="544" height="640" fill="#fafafa" stroke="#bdbdbd" stroke-width="1" rx="4" />
<rect x="32" y="140" width="47" height="12" fill="#fafafa" stroke="#bdbdbd" stroke-width="1" rx="3" />
<text x="36" y="149" font-size="9" fill="#424242" font-weight="normal"><tspan>&lt;</tspan><tspan font-weight="bold">aside</tspan><tspan>&gt;</tspan></text>
<rect x="32" y="168" width="524" height="566" fill="#f3f0ff" stroke="#bdbdbd" stroke-width="1" rx="4" />
<rect x="42" y="162" width="152" height="12" fill="#f3f0ff" stroke="#bdbdbd" stroke-width="1" rx="3" />
<text x="46" y="171" font-size="9" fill="#424242" font-weight="normal"><tspan>&lt;</tspan><tspan font-weight="bold">ch-tabular-grid-settings</tspan><tspan>&gt;</tspan></text>
<rect x="34" y="184" width="520" height="269" fill="none" stroke="#9e9e9e" stroke-width="1.5" stroke-dasharray="6 3" rx="3" />
<rect x="38" y="178" width="66" height="12" fill="#ffffff" rx="2" />
<text x="42" y="186" font-size="8" fill="#9e9e9e" font-family="monospace">#shadow-root</text>
<rect x="42" y="456" width="182.6" height="16" fill="#0277bd" rx="3" />
<path d="M10.817 8.664H3.642a.613.613 0 0 1-.457-.19.647.647 0 0 1-.185-.47c0-.187.062-.343.185-.47a.613.613 0 0 1 .457-.19h7.175l-3.146-3.23a.613.613 0 0 1-.185-.462.668.668 0 0 1 .65-.651.58.58 0 0 1 .45.189l4.237 4.353c.065.066.11.137.137.214a.75.75 0 0 1 .04.247.75.75 0 0 1-.04.248.581.581 0 0 1-.137.214l-4.237 4.353a.59.59 0 0 1-.442.181.645.645 0 0 1-.457-.181.65.65 0 0 1-.193-.47.65.65 0 0 1 .193-.47l3.13-3.215Z" fill="#ffffff" transform="translate(48,459) scale(0.625)" />
<text x="140.3" y="467.15" font-size="9" fill="#ffffff" font-family="monospace" text-anchor="middle">projected content (light DOM)</text>
<rect x="44" y="198" width="238" height="252" fill="#f0f7f4" stroke="#bdbdbd" stroke-width="1" rx="4" />
<rect x="54" y="192" width="69" height="12" fill="#f0f7f4" stroke="#bdbdbd" stroke-width="1" rx="3" />
<text x="58" y="201" font-size="9" fill="#424242" font-weight="normal"><tspan>&lt;</tspan><tspan font-weight="bold">ch-window</tspan><tspan>&gt;</tspan></text>
<rect x="46" y="214" width="234" height="234" fill="none" stroke="#9e9e9e" stroke-width="1.5" stroke-dasharray="6 3" rx="3" />
<rect x="50" y="208" width="66" height="12" fill="#ffffff" rx="2" />
<text x="54" y="216" font-size="8" fill="#9e9e9e" font-family="monospace">#shadow-root</text>
<rect x="56" y="222" width="152" height="12" fill="#fff8f0" stroke="#bdbdbd" stroke-width="1" rx="3" />
<text x="60" y="231" font-size="9" fill="#424242" font-weight="normal"><tspan>&lt;</tspan><tspan font-weight="bold">div</tspan><tspan> part=&quot;settings-mask&quot;</tspan><tspan>&gt;</tspan></text>
<rect x="56" y="246" width="214" height="194" fill="#fff8f0" stroke="#bdbdbd" stroke-width="1" rx="4" />
<rect x="66" y="240" width="163" height="12" fill="#fff8f0" stroke="#bdbdbd" stroke-width="1" rx="3" />
<text x="70" y="249" font-size="9" fill="#424242" font-weight="normal"><tspan>&lt;</tspan><tspan font-weight="bold">div</tspan><tspan> part=&quot;settings-window&quot;</tspan><tspan>&gt;</tspan></text>
<rect x="66" y="268" width="194" height="56" fill="#fafafa" stroke="#bdbdbd" stroke-width="1" rx="4" />
<rect x="76" y="262" width="163" height="12" fill="#fafafa" stroke="#bdbdbd" stroke-width="1" rx="3" />
<text x="80" y="271" font-size="9" fill="#424242" font-weight="normal"><tspan>&lt;</tspan><tspan font-weight="bold">div</tspan><tspan> part=&quot;settings-header&quot;</tspan><tspan>&gt;</tspan></text>
<rect x="76" y="284" width="174" height="12" fill="#f3f0ff" stroke="#bdbdbd" stroke-width="1" rx="3" />
<text x="80" y="293" font-size="9" fill="#424242" font-weight="normal"><tspan>&lt;</tspan><tspan font-weight="bold">span</tspan><tspan> part=&quot;settings-caption&quot;</tspan><tspan>&gt;</tspan></text>
<rect x="76" y="302" width="174" height="12" fill="#e3f2fd" stroke="#1976d2" stroke-width="1" rx="3" />
<text x="80" y="311" font-size="9" fill="#0d47a1" font-weight="normal"><tspan>&lt;</tspan><tspan font-weight="bold">button</tspan><tspan> part=&quot;settings-close&quot;</tspan><tspan>&gt;</tspan></text>
<rect x="66" y="336" width="172" height="41" fill="#fafafa" stroke="#bdbdbd" stroke-width="1" rx="4" />
<rect x="76" y="330" width="152" height="12" fill="#fafafa" stroke="#bdbdbd" stroke-width="1" rx="3" />
<text x="80" y="339" font-size="9" fill="#424242" font-weight="normal"><tspan>&lt;</tspan><tspan font-weight="bold">div</tspan><tspan> part=&quot;settings-main&quot;</tspan><tspan>&gt;</tspan></text>
<rect x="76" y="352" width="64.19999999999999" height="15" fill="#fff8e1" stroke="#f57f17" stroke-width="1.5" stroke-dasharray="4 2" rx="4" />
<text x="82" y="363" font-size="9" fill="#e65100" font-weight="bold">&lt;slot /&gt;</text>
<rect x="66" y="389" width="183" height="41" fill="#fafafa" stroke="#bdbdbd" stroke-width="1" rx="4" />
<rect x="76" y="383" width="163" height="12" fill="#fafafa" stroke="#bdbdbd" stroke-width="1" rx="3" />
<text x="80" y="392" font-size="9" fill="#424242" font-weight="normal"><tspan>&lt;</tspan><tspan font-weight="bold">div</tspan><tspan> part=&quot;settings-footer&quot;</tspan><tspan>&gt;</tspan></text>
<rect x="76" y="405" width="141.55" height="15" fill="#fff8e1" stroke="#f57f17" stroke-width="1.5" stroke-dasharray="4 2" rx="4" />
<text x="82" y="416" font-size="9" fill="#e65100" font-weight="bold">&lt;slot name=&quot;footer&quot; /&gt;</text>
<rect x="42" y="473" width="500" height="251" fill="#fff8e1" stroke="#f57f17" stroke-width="1.5" stroke-dasharray="4 2" rx="4" />
<text x="48" y="602" font-size="9" fill="#e65100" font-weight="bold">&lt;slot name=&quot;settings&quot; /&gt;</text>
<rect x="52" y="500" width="480" height="214" fill="#f0f7f4" stroke="#bdbdbd" stroke-width="1" rx="4" />
<rect x="62" y="494" width="329" height="12" fill="#f0f7f4" stroke="#bdbdbd" stroke-width="1" rx="3" />
<text x="66" y="503" font-size="9" fill="#424242" font-weight="normal"><tspan>&lt;</tspan><tspan font-weight="bold">ch-tabular-grid-settings-columns</tspan><tspan> part=&quot;settings-columns&quot;</tspan><tspan>&gt;</tspan></text>
<rect x="54" y="516" width="476" height="196" fill="none" stroke="#9e9e9e" stroke-width="1.5" stroke-dasharray="6 3" rx="3" />
<rect x="58" y="510" width="66" height="12" fill="#ffffff" rx="2" />
<text x="62" y="518" font-size="8" fill="#9e9e9e" font-family="monospace">#shadow-root</text>
<rect x="64" y="530" width="456" height="174" fill="#fff8f0" stroke="#bdbdbd" stroke-width="1" rx="4" />
<rect x="74" y="524" width="31" height="12" fill="#fff8f0" stroke="#bdbdbd" stroke-width="1" rx="3" />
<text x="78" y="533" font-size="9" fill="#424242" font-weight="normal"><tspan>&lt;</tspan><tspan font-weight="bold">ul</tspan><tspan>&gt;</tspan></text>
<line x1="82" y1="562" x2="82" y2="694" stroke="#00695c" stroke-width="2" stroke-opacity="0.4" stroke-linecap="round" />
<rect x="74" y="546" width="166.4" height="16" fill="#00695c" rx="3" />
<path d="M8 14.667a5.806 5.806 0 0 1-2.342-.475 6.1 6.1 0 0 1-1.9-1.284 6.097 6.097 0 0 1-1.283-1.9A5.804 5.804 0 0 1 2 8.667a5.8 5.8 0 0 1 .475-2.342 6.099 6.099 0 0 1 1.283-1.9 6.099 6.099 0 0 1 1.9-1.283A5.805 5.805 0 0 1 8 2.667h.1L7.533 2.1a.622.622 0 0 1-.183-.458.68.68 0 0 1 .183-.475.68.68 0 0 1 .475-.209.62.62 0 0 1 .475.192L10.2 2.867a.632.632 0 0 1 .183.466.632.632 0 0 1-.183.467L8.483 5.517a.62.62 0 0 1-.475.191.68.68 0 0 1-.475-.208.68.68 0 0 1-.183-.475c0-.183.061-.336.183-.458L8.1 4H8c-1.3 0-2.403.453-3.308 1.358-.906.906-1.359 2.009-1.359 3.309 0 1.3.453 2.402 1.359 3.308.905.906 2.008 1.358 3.308 1.358 1.178 0 2.206-.383 3.083-1.15.878-.766 1.395-1.733 1.55-2.9a.68.68 0 0 1 .234-.441.687.687 0 0 1 .466-.175c.178 0 .334.055.467.166a.44.44 0 0 1 .167.417c-.156 1.544-.8 2.833-1.934 3.867C10.9 14.15 9.556 14.667 8 14.667Z" fill="#ffffff" transform="translate(80,549) scale(0.625)" />
<text x="164.2" y="557.15" font-size="9" fill="#ffffff" font-family="monospace" text-anchor="middle">for each column in columns</text>
<rect x="86" y="569" width="424" height="125" fill="#fafafa" stroke="#bdbdbd" stroke-width="1" rx="4" />
<rect x="96" y="563" width="191" height="12" fill="#fafafa" stroke="#bdbdbd" stroke-width="1" rx="3" />
<text x="100" y="572" font-size="9" fill="#424242" font-weight="normal"><tspan>&lt;</tspan><tspan font-weight="bold">li</tspan><tspan> part=&quot;settings-columns-item&quot;</tspan><tspan>&gt;</tspan></text>
<rect x="96" y="591" width="404" height="93" fill="#f3f0ff" stroke="#bdbdbd" stroke-width="1" rx="4" />
<rect x="106" y="585" width="213" height="12" fill="#f3f0ff" stroke="#bdbdbd" stroke-width="1" rx="3" />
<text x="110" y="594" font-size="9" fill="#424242" font-weight="normal"><tspan>&lt;</tspan><tspan font-weight="bold">label</tspan><tspan> part=&quot;settings-columns-label&quot;</tspan><tspan>&gt;</tspan></text>
<rect x="106" y="607" width="384" height="50" fill="#e3f2fd" stroke="#1976d2" stroke-width="1" rx="3" />
<text x="110" y="618" font-size="9" fill="#0d47a1" font-weight="normal"><tspan>&lt;</tspan><tspan font-weight="bold">input</tspan></text>
<text x="121" y="630" font-size="9" fill="#0d47a1" font-weight="normal">part=&quot;settings-columns-visible [settings-columns-visible-checked]&quot;</text>
<text x="121" y="642" font-size="9" fill="#0d47a1" font-weight="normal">type=&quot;checkbox&quot;</text>
<text x="110" y="654" font-size="9" fill="#0d47a1" font-weight="normal"> /&gt;</text>
<text x="106" y="672" font-size="9" fill="#888" font-style="italic">&quot;Column name&quot;</text>
<rect x="32" y="740" width="185.75" height="15" fill="#fff8e1" stroke="#f57f17" stroke-width="1.5" stroke-dasharray="4 2" rx="4" />
<text x="38" y="751" font-size="9" fill="#e65100" font-weight="bold">&lt;slot name=&quot;column-display&quot; /&gt;</text>
<rect x="32" y="761" width="169.17499999999998" height="15" fill="#fff8e1" stroke="#f57f17" stroke-width="1.5" stroke-dasharray="4 2" rx="4" />
<text x="38" y="772" font-size="9" fill="#e65100" font-weight="bold">&lt;slot name=&quot;row-actions&quot; /&gt;</text>
<rect x="22" y="798" width="161.55" height="41" fill="#fafafa" stroke="#bdbdbd" stroke-width="1" rx="4" />
<rect x="32" y="792" width="130" height="12" fill="#fafafa" stroke="#bdbdbd" stroke-width="1" rx="3" />
<text x="36" y="801" font-size="9" fill="#424242" font-weight="normal"><tspan>&lt;</tspan><tspan font-weight="bold">footer</tspan><tspan> part=&quot;footer&quot;</tspan><tspan>&gt;</tspan></text>
<rect x="32" y="814" width="141.55" height="15" fill="#fff8e1" stroke="#f57f17" stroke-width="1.5" stroke-dasharray="4 2" rx="4" />
<text x="38" y="825" font-size="9" fill="#e65100" font-weight="bold">&lt;slot name=&quot;footer&quot; /&gt;</text>
<rect x="604" y="10" width="231" height="206" fill="none" stroke="#bdbdbd" stroke-width="1" rx="4" />
<text x="614" y="24" font-size="10" fill="#424242" font-weight="bold">Legend</text>
<line x1="614" y1="38" x2="638" y2="38" stroke="#9e9e9e" stroke-width="1.5" stroke-dasharray="4 2" />
<text x="660" y="42" font-size="8" fill="#666">#shadow-root</text>
<rect x="614" y="48" width="12" height="12" fill="#7b1fa2" rx="2" />
<path d="M5 0.5 L9.5 5 L5 9.5 L0.5 5 Z" fill="none" stroke="#fff" stroke-width="1.2" stroke-linecap="round" stroke-linejoin="round" transform="translate(615,49) scale(1)" />
<text x="660" y="58" font-size="8" fill="#666">condition (when / else)</text>
<rect x="614" y="64" width="12" height="12" fill="#00695c" rx="2" />
<path d="M8 14.667a5.806 5.806 0 0 1-2.342-.475 6.1 6.1 0 0 1-1.9-1.284 6.097 6.097 0 0 1-1.283-1.9A5.804 5.804 0 0 1 2 8.667a5.8 5.8 0 0 1 .475-2.342 6.099 6.099 0 0 1 1.283-1.9 6.099 6.099 0 0 1 1.9-1.283A5.805 5.805 0 0 1 8 2.667h.1L7.533 2.1a.622.622 0 0 1-.183-.458.68.68 0 0 1 .183-.475.68.68 0 0 1 .475-.209.62.62 0 0 1 .475.192L10.2 2.867a.632.632 0 0 1 .183.466.632.632 0 0 1-.183.467L8.483 5.517a.62.62 0 0 1-.475.191.68.68 0 0 1-.475-.208.68.68 0 0 1-.183-.475c0-.183.061-.336.183-.458L8.1 4H8c-1.3 0-2.403.453-3.308 1.358-.906.906-1.359 2.009-1.359 3.309 0 1.3.453 2.402 1.359 3.308.905.906 2.008 1.358 3.308 1.358 1.178 0 2.206-.383 3.083-1.15.878-.766 1.395-1.733 1.55-2.9a.68.68 0 0 1 .234-.441.687.687 0 0 1 .466-.175c.178 0 .334.055.467.166a.44.44 0 0 1 .167.417c-.156 1.544-.8 2.833-1.934 3.867C10.9 14.15 9.556 14.667 8 14.667Z" fill="#fff" transform="translate(615,65) scale(0.625)" />
<text x="660" y="74" font-size="8" fill="#666">iteration (for each)</text>
<rect x="614" y="80" width="12" height="12" fill="#546e7a" rx="2" />
<text x="660" y="90" font-size="8" fill="#666">descriptive comment</text>
<rect x="614" y="96" width="20" height="12" fill="#fff8e1" stroke="#f57f17" stroke-width="1" stroke-dasharray="3 1.5" rx="2" />
<text x="660" y="106" font-size="8" fill="#666">slot</text>
<rect x="614" y="112" width="12" height="12" fill="#0277bd" rx="2" />
<path d="M10.817 8.664H3.642a.613.613 0 0 1-.457-.19.647.647 0 0 1-.185-.47c0-.187.062-.343.185-.47a.613.613 0 0 1 .457-.19h7.175l-3.146-3.23a.613.613 0 0 1-.185-.462.668.668 0 0 1 .65-.651.58.58 0 0 1 .45.189l4.237 4.353c.065.066.11.137.137.214a.75.75 0 0 1 .04.247.75.75 0 0 1-.04.248.581.581 0 0 1-.137.214l-4.237 4.353a.59.59 0 0 1-.442.181.645.645 0 0 1-.457-.181.65.65 0 0 1-.193-.47.65.65 0 0 1 .193-.47l3.13-3.215Z" fill="#fff" transform="translate(615,113) scale(0.625)" />
<text x="660" y="122" font-size="8" fill="#666">projected content (light DOM)</text>
<rect x="614" y="128" width="28" height="12" fill="#fafafa" stroke="#bdbdbd" stroke-width="1" rx="3" />
<text x="616" y="137" font-size="7" fill="#424242" font-weight="bold">&lt;tag&gt;</text>
<text x="660" y="138" font-size="8" fill="#666">tag pill (id, role, aria-*, part)</text>
<text x="614" y="154" font-size="9" fill="#424242">part</text>
<text x="660" y="154" font-size="8" fill="#666">part=&quot;name&quot;  (static)</text>
<text x="614" y="170" font-size="9" fill="#424242">[part]</text>
<text x="660" y="170" font-size="8" fill="#666">[part]  (conditional)</text>
<text x="614" y="186" font-size="9" fill="#424242">{part}</text>
<text x="660" y="186" font-size="8" fill="#666">{part}  (dynamic)</text>
<text x="614" y="202" font-size="9" fill="#424242">[{part}]</text>
<text x="660" y="202" font-size="8" fill="#666">[{part}]  (conditional dynamic)</text>

</svg>
