<?xml version="1.0" encoding="UTF-8"?>
<svg xmlns="http://www.w3.org/2000/svg"
     viewBox="0 0 648.85 1201"
     width="648.85" height="1201"
     font-family="monospace, Consolas">
  <style>
    text { dominant-baseline: auto; }
  </style>
  <rect x="10" y="10" width="391.85" height="1181" fill="#ffffff" stroke="#424242" stroke-width="1" rx="4" />
<rect x="20" y="4" width="102" height="12" fill="#ffffff" stroke="#424242" stroke-width="1" rx="3" />
<text x="24" y="13" font-size="9" fill="#212121" font-weight="bold">&lt;ch-tabular-grid&gt;</text>
<rect x="12" y="30" width="387.85" height="1156" fill="none" stroke="#9e9e9e" stroke-width="1.5" stroke-dasharray="6 3" rx="3" />
<rect x="16" y="24" width="66" height="12" fill="#ffffff" rx="2" />
<text x="20" y="32" font-size="8" fill="#9e9e9e" font-family="monospace">#shadow-root</text>
<rect x="22" y="40" width="150.5" height="72" fill="#fafafa" stroke="#bdbdbd" stroke-width="1" rx="4" />
<rect x="32" y="34" width="53" height="12" fill="#fafafa" stroke="#bdbdbd" stroke-width="1" rx="3" />
<text x="36" y="43" font-size="9" fill="#424242" font-weight="bold">&lt;header&gt;</text>
<text x="32" y="59" font-size="9" fill="#666">header</text>
<rect x="32" y="71" width="130.5" height="31" fill="#fff8e1" stroke="#f57f17" stroke-width="1.5" stroke-dasharray="4 2" rx="4" />
<text x="38" y="90" font-size="9" fill="#e65100" font-weight="bold">&lt;slot name=&quot;header&quot;&gt;</text>
<rect x="22" y="124" width="78" height="72" fill="#fafafa" stroke="#bdbdbd" stroke-width="1" rx="4" />
<rect x="32" y="118" width="58" height="12" fill="#fafafa" stroke="#bdbdbd" stroke-width="1" rx="3" />
<text x="36" y="127" font-size="9" fill="#424242" font-weight="bold">&lt;section&gt;</text>
<text x="32" y="143" font-size="9" fill="#666">main</text>
<rect x="32" y="155" width="53.15" height="31" fill="#fff8e1" stroke="#f57f17" stroke-width="1.5" stroke-dasharray="4 2" rx="4" />
<text x="38" y="174" font-size="9" fill="#e65100" font-weight="bold">&lt;slot&gt;</text>
<rect x="22" y="208" width="367.85" height="889" fill="#fafafa" stroke="#bdbdbd" stroke-width="1" rx="4" />
<rect x="32" y="202" width="47" height="12" fill="#fafafa" stroke="#bdbdbd" stroke-width="1" rx="3" />
<text x="36" y="211" font-size="9" fill="#424242" font-weight="bold">&lt;aside&gt;</text>
<rect x="32" y="224" width="347.85" height="789" fill="#f3f0ff" stroke="#bdbdbd" stroke-width="1" rx="4" />
<rect x="42" y="218" width="152" height="12" fill="#f3f0ff" stroke="#bdbdbd" stroke-width="1" rx="3" />
<text x="46" y="227" font-size="9" fill="#424242" font-weight="bold">&lt;ch-tabular-grid-settings&gt;</text>
<rect x="34" y="244" width="343.85" height="432" fill="none" stroke="#9e9e9e" stroke-width="1.5" stroke-dasharray="6 3" rx="3" />
<rect x="38" y="238" width="66" height="12" fill="#ffffff" rx="2" />
<text x="42" y="246" font-size="8" fill="#9e9e9e" font-family="monospace">#shadow-root</text>
<rect x="42" y="679" width="182.6" height="16" fill="#0277bd" rx="3" />
<path d="M10.817 8.664H3.642a.613.613 0 0 1-.457-.19.647.647 0 0 1-.185-.47c0-.187.062-.343.185-.47a.613.613 0 0 1 .457-.19h7.175l-3.146-3.23a.613.613 0 0 1-.185-.462.668.668 0 0 1 .65-.651.58.58 0 0 1 .45.189l4.237 4.353c.065.066.11.137.137.214a.75.75 0 0 1 .04.247.75.75 0 0 1-.04.248.581.581 0 0 1-.137.214l-4.237 4.353a.59.59 0 0 1-.442.181.645.645 0 0 1-.457-.181.65.65 0 0 1-.193-.47.65.65 0 0 1 .193-.47l3.13-3.215Z" fill="#ffffff" transform="translate(48,682) scale(0.625)" />
<text x="140.3" y="690.15" font-size="9" fill="#ffffff" font-family="monospace" text-anchor="middle">projected content (light DOM)</text>
<rect x="44" y="254" width="194.5" height="419" fill="#f0f7f4" stroke="#bdbdbd" stroke-width="1" rx="4" />
<rect x="54" y="248" width="69" height="12" fill="#f0f7f4" stroke="#bdbdbd" stroke-width="1" rx="3" />
<text x="58" y="257" font-size="9" fill="#424242" font-weight="bold">&lt;ch-window&gt;</text>
<rect x="46" y="274" width="190.5" height="394" fill="none" stroke="#9e9e9e" stroke-width="1.5" stroke-dasharray="6 3" rx="3" />
<rect x="50" y="268" width="66" height="12" fill="#ffffff" rx="2" />
<text x="54" y="276" font-size="8" fill="#9e9e9e" font-family="monospace">#shadow-root</text>
<rect x="56" y="284" width="104.5" height="31" fill="#fff8f0" stroke="#bdbdbd" stroke-width="1" rx="4" />
<rect x="66" y="278" width="36" height="12" fill="#fff8f0" stroke="#bdbdbd" stroke-width="1" rx="3" />
<text x="70" y="287" font-size="9" fill="#424242" font-weight="bold">&lt;div&gt;</text>
<text x="66" y="303" font-size="9" fill="#666">settings-mask</text>
<rect x="56" y="327" width="170.5" height="336" fill="#fff8f0" stroke="#bdbdbd" stroke-width="1" rx="4" />
<rect x="66" y="321" width="36" height="12" fill="#fff8f0" stroke="#bdbdbd" stroke-width="1" rx="3" />
<text x="70" y="330" font-size="9" fill="#424242" font-weight="bold">&lt;div&gt;</text>
<text x="66" y="346" font-size="9" fill="#666">settings-window</text>
<rect x="66" y="364" width="144" height="121" fill="#fafafa" stroke="#bdbdbd" stroke-width="1" rx="4" />
<rect x="76" y="358" width="36" height="12" fill="#fafafa" stroke="#bdbdbd" stroke-width="1" rx="3" />
<text x="80" y="367" font-size="9" fill="#424242" font-weight="bold">&lt;div&gt;</text>
<text x="76" y="383" font-size="9" fill="#666">settings-header</text>
<rect x="76" y="401" width="124" height="31" fill="#f3f0ff" stroke="#bdbdbd" stroke-width="1" rx="4" />
<rect x="86" y="395" width="42" height="12" fill="#f3f0ff" stroke="#bdbdbd" stroke-width="1" rx="3" />
<text x="90" y="404" font-size="9" fill="#424242" font-weight="bold">&lt;span&gt;</text>
<text x="86" y="420" font-size="9" fill="#666">settings-caption</text>
<rect x="76" y="444" width="111" height="31" fill="#e3f2fd" stroke="#1976d2" stroke-width="1" rx="4" />
<rect x="86" y="438" width="53" height="12" fill="#e3f2fd" stroke="#1976d2" stroke-width="1" rx="3" />
<text x="90" y="447" font-size="9" fill="#0d47a1" font-weight="bold">&lt;button&gt;</text>
<text x="86" y="463" font-size="9" fill="#666">settings-close</text>
<rect x="66" y="497" width="104.5" height="72" fill="#fafafa" stroke="#bdbdbd" stroke-width="1" rx="4" />
<rect x="76" y="491" width="36" height="12" fill="#fafafa" stroke="#bdbdbd" stroke-width="1" rx="3" />
<text x="80" y="500" font-size="9" fill="#424242" font-weight="bold">&lt;div&gt;</text>
<text x="76" y="516" font-size="9" fill="#666">settings-main</text>
<rect x="76" y="528" width="53.15" height="31" fill="#fff8e1" stroke="#f57f17" stroke-width="1.5" stroke-dasharray="4 2" rx="4" />
<text x="82" y="547" font-size="9" fill="#e65100" font-weight="bold">&lt;slot&gt;</text>
<rect x="66" y="581" width="150.5" height="72" fill="#fafafa" stroke="#bdbdbd" stroke-width="1" rx="4" />
<rect x="76" y="575" width="36" height="12" fill="#fafafa" stroke="#bdbdbd" stroke-width="1" rx="3" />
<text x="80" y="584" font-size="9" fill="#424242" font-weight="bold">&lt;div&gt;</text>
<text x="76" y="600" font-size="9" fill="#666">settings-footer</text>
<rect x="76" y="612" width="130.5" height="31" fill="#fff8e1" stroke="#f57f17" stroke-width="1.5" stroke-dasharray="4 2" rx="4" />
<text x="82" y="631" font-size="9" fill="#e65100" font-weight="bold">&lt;slot name=&quot;footer&quot;&gt;</text>
<rect x="42" y="696" width="323.85" height="307" fill="#fff8e1" stroke="#f57f17" stroke-width="1.5" stroke-dasharray="4 2" rx="4" />
<text x="48" y="715" font-size="9" fill="#e65100" font-weight="bold">&lt;slot name=&quot;settings&quot;&gt;</text>
<rect x="52" y="733" width="303.85" height="260" fill="#f0f7f4" stroke="#bdbdbd" stroke-width="1" rx="4" />
<rect x="62" y="727" width="196" height="12" fill="#f0f7f4" stroke="#bdbdbd" stroke-width="1" rx="3" />
<text x="66" y="736" font-size="9" fill="#424242" font-weight="bold">&lt;ch-tabular-grid-settings-columns&gt;</text>
<rect x="54" y="764" width="299.85" height="224" fill="none" stroke="#9e9e9e" stroke-width="1.5" stroke-dasharray="6 3" rx="3" />
<rect x="58" y="758" width="66" height="12" fill="#ffffff" rx="2" />
<text x="62" y="766" font-size="8" fill="#9e9e9e" font-family="monospace">#shadow-root</text>
<text x="62" y="752" font-size="9" fill="#666">settings-columns</text>
<rect x="64" y="784" width="279.85" height="199" fill="#fff8f0" stroke="#bdbdbd" stroke-width="1" rx="4" />
<rect x="74" y="778" width="31" height="12" fill="#fff8f0" stroke="#bdbdbd" stroke-width="1" rx="3" />
<text x="78" y="787" font-size="9" fill="#424242" font-weight="bold">&lt;ul&gt;</text>
<line x1="82" y1="810" x2="82" y2="973" stroke="#00695c" stroke-width="2" stroke-opacity="0.4" stroke-linecap="round" />
<rect x="74" y="794" width="166.4" height="16" fill="#00695c" rx="3" />
<path d="M8 14.667a5.806 5.806 0 0 1-2.342-.475 6.1 6.1 0 0 1-1.9-1.284 6.097 6.097 0 0 1-1.283-1.9A5.804 5.804 0 0 1 2 8.667a5.8 5.8 0 0 1 .475-2.342 6.099 6.099 0 0 1 1.283-1.9 6.099 6.099 0 0 1 1.9-1.283A5.805 5.805 0 0 1 8 2.667h.1L7.533 2.1a.622.622 0 0 1-.183-.458.68.68 0 0 1 .183-.475.68.68 0 0 1 .475-.209.62.62 0 0 1 .475.192L10.2 2.867a.632.632 0 0 1 .183.466.632.632 0 0 1-.183.467L8.483 5.517a.62.62 0 0 1-.475.191.68.68 0 0 1-.475-.208.68.68 0 0 1-.183-.475c0-.183.061-.336.183-.458L8.1 4H8c-1.3 0-2.403.453-3.308 1.358-.906.906-1.359 2.009-1.359 3.309 0 1.3.453 2.402 1.359 3.308.905.906 2.008 1.358 3.308 1.358 1.178 0 2.206-.383 3.083-1.15.878-.766 1.395-1.733 1.55-2.9a.68.68 0 0 1 .234-.441.687.687 0 0 1 .466-.175c.178 0 .334.055.467.166a.44.44 0 0 1 .167.417c-.156 1.544-.8 2.833-1.934 3.867C10.9 14.15 9.556 14.667 8 14.667Z" fill="#ffffff" transform="translate(80,797) scale(0.625)" />
<text x="164.2" y="805.15" font-size="9" fill="#ffffff" font-family="monospace" text-anchor="middle">for each column in columns</text>
<rect x="86" y="817" width="247.85" height="156" fill="#fafafa" stroke="#bdbdbd" stroke-width="1" rx="4" />
<rect x="96" y="811" width="31" height="12" fill="#fafafa" stroke="#bdbdbd" stroke-width="1" rx="3" />
<text x="100" y="820" font-size="9" fill="#424242" font-weight="bold">&lt;li&gt;</text>
<text x="96" y="836" font-size="9" fill="#666">settings-columns-item</text>
<rect x="96" y="854" width="227.85" height="109" fill="#f3f0ff" stroke="#bdbdbd" stroke-width="1" rx="4" />
<rect x="106" y="848" width="47" height="12" fill="#f3f0ff" stroke="#bdbdbd" stroke-width="1" rx="3" />
<text x="110" y="857" font-size="9" fill="#424242" font-weight="bold">&lt;label&gt;</text>
<text x="106" y="873" font-size="9" fill="#666">settings-columns-label</text>
<rect x="106" y="891" width="207.85" height="42" fill="#e3f2fd" stroke="#1976d2" stroke-width="1" rx="4" />
<rect x="116" y="885" width="47" height="12" fill="#e3f2fd" stroke="#1976d2" stroke-width="1" rx="3" />
<text x="120" y="894" font-size="9" fill="#0d47a1" font-weight="bold">&lt;input&gt;</text>
<text x="116" y="910" font-size="9" fill="#666">settings-columns-visible</text>
<text x="116" y="921" font-size="9" fill="#666" font-style="italic">[settings-columns-visible-checked]</text>
<text x="106" y="953" font-size="9" fill="#888" font-style="italic">&quot;Column name&quot;</text>
<rect x="32" y="1019" width="174.7" height="31" fill="#fff8e1" stroke="#f57f17" stroke-width="1.5" stroke-dasharray="4 2" rx="4" />
<text x="38" y="1038" font-size="9" fill="#e65100" font-weight="bold">&lt;slot name=&quot;column-display&quot;&gt;</text>
<rect x="32" y="1056" width="158.125" height="31" fill="#fff8e1" stroke="#f57f17" stroke-width="1.5" stroke-dasharray="4 2" rx="4" />
<text x="38" y="1075" font-size="9" fill="#e65100" font-weight="bold">&lt;slot name=&quot;row-actions&quot;&gt;</text>
<rect x="22" y="1109" width="150.5" height="72" fill="#fafafa" stroke="#bdbdbd" stroke-width="1" rx="4" />
<rect x="32" y="1103" width="53" height="12" fill="#fafafa" stroke="#bdbdbd" stroke-width="1" rx="3" />
<text x="36" y="1112" font-size="9" fill="#424242" font-weight="bold">&lt;footer&gt;</text>
<text x="32" y="1128" font-size="9" fill="#666">footer</text>
<rect x="32" y="1140" width="130.5" height="31" fill="#fff8e1" stroke="#f57f17" stroke-width="1.5" stroke-dasharray="4 2" rx="4" />
<text x="38" y="1159" font-size="9" fill="#e65100" font-weight="bold">&lt;slot name=&quot;footer&quot;&gt;</text>
<rect x="427.85" y="10" width="211" height="222" fill="none" stroke="#bdbdbd" stroke-width="1" rx="4" />
<text x="437.85" y="24" font-size="10" fill="#424242" font-weight="bold">Legend</text>
<line x1="437.85" y1="38" x2="461.85" y2="38" stroke="#9e9e9e" stroke-width="1.5" stroke-dasharray="4 2" />
<text x="483.85" y="42" font-size="8" fill="#666">#shadow-root</text>
<rect x="437.85" y="48" width="12" height="12" fill="#7b1fa2" rx="2" />
<path d="M5 0.5 L9.5 5 L5 9.5 L0.5 5 Z" fill="none" stroke="#fff" stroke-width="1.2" stroke-linecap="round" stroke-linejoin="round" transform="translate(438.85,49) scale(1)" />
<text x="483.85" y="58" font-size="8" fill="#666">condition (when / else)</text>
<rect x="437.85" y="64" width="12" height="12" fill="#00695c" rx="2" />
<path d="M8 14.667a5.806 5.806 0 0 1-2.342-.475 6.1 6.1 0 0 1-1.9-1.284 6.097 6.097 0 0 1-1.283-1.9A5.804 5.804 0 0 1 2 8.667a5.8 5.8 0 0 1 .475-2.342 6.099 6.099 0 0 1 1.283-1.9 6.099 6.099 0 0 1 1.9-1.283A5.805 5.805 0 0 1 8 2.667h.1L7.533 2.1a.622.622 0 0 1-.183-.458.68.68 0 0 1 .183-.475.68.68 0 0 1 .475-.209.62.62 0 0 1 .475.192L10.2 2.867a.632.632 0 0 1 .183.466.632.632 0 0 1-.183.467L8.483 5.517a.62.62 0 0 1-.475.191.68.68 0 0 1-.475-.208.68.68 0 0 1-.183-.475c0-.183.061-.336.183-.458L8.1 4H8c-1.3 0-2.403.453-3.308 1.358-.906.906-1.359 2.009-1.359 3.309 0 1.3.453 2.402 1.359 3.308.905.906 2.008 1.358 3.308 1.358 1.178 0 2.206-.383 3.083-1.15.878-.766 1.395-1.733 1.55-2.9a.68.68 0 0 1 .234-.441.687.687 0 0 1 .466-.175c.178 0 .334.055.467.166a.44.44 0 0 1 .167.417c-.156 1.544-.8 2.833-1.934 3.867C10.9 14.15 9.556 14.667 8 14.667Z" fill="#fff" transform="translate(438.85,65) scale(0.625)" />
<text x="483.85" y="74" font-size="8" fill="#666">iteration (for each)</text>
<rect x="437.85" y="80" width="12" height="12" fill="#546e7a" rx="2" />
<text x="483.85" y="90" font-size="8" fill="#666">descriptive comment</text>
<rect x="437.85" y="96" width="20" height="12" fill="#fff8e1" stroke="#f57f17" stroke-width="1" stroke-dasharray="3 1.5" rx="2" />
<text x="483.85" y="106" font-size="8" fill="#666">slot</text>
<rect x="437.85" y="112" width="12" height="12" fill="#0277bd" rx="2" />
<path d="M10.817 8.664H3.642a.613.613 0 0 1-.457-.19.647.647 0 0 1-.185-.47c0-.187.062-.343.185-.47a.613.613 0 0 1 .457-.19h7.175l-3.146-3.23a.613.613 0 0 1-.185-.462.668.668 0 0 1 .65-.651.58.58 0 0 1 .45.189l4.237 4.353c.065.066.11.137.137.214a.75.75 0 0 1 .04.247.75.75 0 0 1-.04.248.581.581 0 0 1-.137.214l-4.237 4.353a.59.59 0 0 1-.442.181.645.645 0 0 1-.457-.181.65.65 0 0 1-.193-.47.65.65 0 0 1 .193-.47l3.13-3.215Z" fill="#fff" transform="translate(438.85,113) scale(0.625)" />
<text x="483.85" y="122" font-size="8" fill="#666">projected content (light DOM)</text>
<text x="437.85" y="138" font-size="9" fill="#666">part</text>
<text x="483.85" y="138" font-size="8" fill="#666">static part</text>
<text x="437.85" y="154" font-size="9" fill="#666" font-style="italic">[part]</text>
<text x="483.85" y="154" font-size="8" fill="#666">conditional part</text>
<text x="437.85" y="170" font-size="9" fill="#666" font-style="italic">{part}</text>
<text x="483.85" y="170" font-size="8" fill="#666">dynamic part</text>
<text x="437.85" y="186" font-size="9" fill="#666" font-style="italic">[{part}]</text>
<text x="483.85" y="186" font-size="8" fill="#666">conditional dynamic part</text>
<rect x="437.85" y="192" width="20" height="12" fill="#fafafa" stroke="#bdbdbd" stroke-width="1" rx="3" />
<text x="439.85" y="201" font-size="7" fill="#424242" font-weight="bold">id</text>
<text x="483.85" y="202" font-size="8" fill="#666">id, role (in tag pill)</text>
<text x="437.85" y="218" font-size="9" fill="#1565c0" font-style="italic">aria-*</text>
<text x="483.85" y="218" font-size="8" fill="#666">aria-* attribute</text>

</svg>
