<?xml version="1.0" encoding="UTF-8"?>
<svg xmlns="http://www.w3.org/2000/svg"
     viewBox="0 0 1338.35 980"
     width="1338.35" height="980"
     font-family="monospace, Consolas">
  <style>
    text { dominant-baseline: auto; }
  </style>
  <rect x="10" y="10" width="1081.35" height="960" fill="#ffffff" stroke="#424242" stroke-width="1" rx="4" />
<rect x="20" y="4" width="91" height="12" fill="#ffffff" stroke="#424242" stroke-width="1" rx="3" />
<text x="24" y="13" font-size="9" fill="#212121" font-weight="bold">&lt;ch-tab-render&gt;</text>
<rect x="12" y="30" width="1077.35" height="935" fill="none" stroke="#9e9e9e" stroke-width="1.5" stroke-dasharray="6 3" rx="3" />
<rect x="16" y="24" width="66" height="12" fill="#ffffff" rx="2" />
<text x="20" y="32" font-size="8" fill="#9e9e9e" font-family="monospace">#shadow-root</text>
<line x1="30" y1="50" x2="30" y2="140" stroke="#7b1fa2" stroke-width="2" stroke-opacity="0.4" stroke-linecap="round" />
<line x1="30" y1="586" x2="30" y2="676" stroke="#7b1fa2" stroke-width="2" stroke-opacity="0.4" stroke-linecap="round" />
<line x1="30" y1="885" x2="30" y2="960" stroke="#7b1fa2" stroke-width="2" stroke-opacity="0.4" stroke-linecap="round" />
<rect x="22" y="34" width="139.39999999999998" height="16" fill="#7b1fa2" rx="3" />
<path d="M5 0.5 L9.5 5 L5 9.5 L0.5 5 Z" fill="none" stroke="#ffffff" stroke-width="1.2" stroke-linecap="round" stroke-linejoin="round" transform="translate(28,37) scale(1)" />
<text x="98.69999999999999" y="45.15" font-size="9" fill="#ffffff" font-family="monospace" text-anchor="middle">when showTabListStart</text>
<rect x="34" y="57" width="263.1" height="83" fill="#fafafa" stroke="#bdbdbd" stroke-width="1" rx="4" />
<rect x="44" y="51" width="36" height="12" fill="#fafafa" stroke="#bdbdbd" stroke-width="1" rx="3" />
<text x="48" y="60" font-size="9" fill="#424242" font-weight="bold">&lt;div&gt;</text>
<text x="44" y="76" font-size="9" fill="#666">tab-list-start</text>
<text x="44" y="87" font-size="9" fill="#666" font-style="italic">[block|inline] [start|end] {tabListPosition}</text>
<rect x="44" y="99" width="191.275" height="31" fill="#fff8e1" stroke="#f57f17" stroke-width="1.5" stroke-dasharray="4 2" rx="4" />
<text x="50" y="118" font-size="9" fill="#e65100" font-weight="bold">&lt;slot name=&quot;{tabListPosition}&quot;&gt;</text>
<rect x="22" y="152" width="1045.35" height="406" fill="#fafafa" stroke="#bdbdbd" stroke-width="1" rx="4" />
<rect x="32" y="146" width="119" height="12" fill="#fafafa" stroke="#bdbdbd" stroke-width="1" rx="3" />
<text x="36" y="155" font-size="9" fill="#424242" font-weight="bold">&lt;div role=&quot;tablist&quot;&gt;</text>
<text x="32" y="171" font-size="9" fill="#666">tab-list</text>
<text x="32" y="182" font-size="9" fill="#666" font-style="italic">[block|inline] [start|end] {tabListPosition} [dragging]</text>
<text x="32" y="193" font-size="9" fill="#1565c0" font-style="italic">aria-label=&quot;{accessibleName}&quot;</text>
<line x1="40" y1="221" x2="40" y2="548" stroke="#00695c" stroke-width="2" stroke-opacity="0.4" stroke-linecap="round" />
<rect x="32" y="205" width="144.8" height="16" fill="#00695c" rx="3" />
<path d="M8 14.667a5.806 5.806 0 0 1-2.342-.475 6.1 6.1 0 0 1-1.9-1.284 6.097 6.097 0 0 1-1.283-1.9A5.804 5.804 0 0 1 2 8.667a5.8 5.8 0 0 1 .475-2.342 6.099 6.099 0 0 1 1.283-1.9 6.099 6.099 0 0 1 1.9-1.283A5.805 5.805 0 0 1 8 2.667h.1L7.533 2.1a.622.622 0 0 1-.183-.458.68.68 0 0 1 .183-.475.68.68 0 0 1 .475-.209.62.62 0 0 1 .475.192L10.2 2.867a.632.632 0 0 1 .183.466.632.632 0 0 1-.183.467L8.483 5.517a.62.62 0 0 1-.475.191.68.68 0 0 1-.475-.208.68.68 0 0 1-.183-.475c0-.183.061-.336.183-.458L8.1 4H8c-1.3 0-2.403.453-3.308 1.358-.906.906-1.359 2.009-1.359 3.309 0 1.3.453 2.402 1.359 3.308.905.906 2.008 1.358 3.308 1.358 1.178 0 2.206-.383 3.083-1.15.878-.766 1.395-1.733 1.55-2.9a.68.68 0 0 1 .234-.441.687.687 0 0 1 .466-.175c.178 0 .334.055.467.166a.44.44 0 0 1 .167.417c-.156 1.544-.8 2.833-1.934 3.867C10.9 14.15 9.556 14.667 8 14.667Z" fill="#ffffff" transform="translate(38,208) scale(0.625)" />
<text x="111.4" y="216.15" font-size="9" fill="#ffffff" font-family="monospace" text-anchor="middle">for each item in model</text>
<rect x="44" y="228" width="1013.35" height="320" fill="#e3f2fd" stroke="#1976d2" stroke-width="1" rx="4" />
<rect x="54" y="222" width="196" height="12" fill="#e3f2fd" stroke="#1976d2" stroke-width="1" rx="3" />
<text x="58" y="231" font-size="9" fill="#0d47a1" font-weight="bold">&lt;button id=&quot;{item.id}&quot; role=&quot;tab&quot;&gt;</text>
<text x="54" y="247" font-size="9" fill="#666">tab</text>
<text x="54" y="258" font-size="9" fill="#666" font-style="italic">{item.id} {tabListPosition} [block|inline] [start|end] [closable|not-closable] [selected|not-selected] [disabled] [dragging] [dragging-over-tab-list|dragging-out-of-tab-list]</text>
<text x="54" y="269" font-size="9" fill="#1565c0" font-style="italic">aria-selected=&quot;{selected}&quot;  aria-controls=&quot;panel-{item.id}&quot;</text>
<line x1="62" y1="297" x2="62" y2="346" stroke="#7b1fa2" stroke-width="2" stroke-opacity="0.4" stroke-linecap="round" />
<line x1="62" y1="374" x2="62" y2="461" stroke="#7b1fa2" stroke-width="2" stroke-opacity="0.4" stroke-linecap="round" />
<line x1="62" y1="489" x2="62" y2="538" stroke="#7b1fa2" stroke-width="2" stroke-opacity="0.4" stroke-linecap="round" />
<rect x="54" y="281" width="171.79999999999998" height="16" fill="#7b1fa2" rx="3" />
<path d="M5 0.5 L9.5 5 L5 9.5 L0.5 5 Z" fill="none" stroke="#ffffff" stroke-width="1.2" stroke-linecap="round" stroke-linejoin="round" transform="translate(60,284) scale(1)" />
<text x="146.89999999999998" y="292.15" font-size="9" fill="#ffffff" font-family="monospace" text-anchor="middle">when startImgType === &quot;img&quot;</text>
<rect x="66" y="304" width="107.75" height="42" fill="#e8f5e9" stroke="#388e3c" stroke-width="1" rx="4" />
<rect x="76" y="298" width="36" height="12" fill="#e8f5e9" stroke="#388e3c" stroke-width="1" rx="3" />
<text x="80" y="307" font-size="9" fill="#1b5e20" font-weight="bold">&lt;img&gt;</text>
<text x="76" y="323" font-size="9" fill="#666">img</text>
<text x="76" y="334" font-size="9" fill="#1565c0" font-style="italic">aria-hidden=&quot;true&quot;</text>
<rect x="54" y="358" width="117.8" height="16" fill="#7b1fa2" rx="3" />
<path d="M5 0.5 L9.5 5 L5 9.5 L0.5 5 Z" fill="none" stroke="#ffffff" stroke-width="1.2" stroke-linecap="round" stroke-linejoin="round" transform="translate(60,361) scale(1)" />
<text x="119.9" y="369.15" font-size="9" fill="#ffffff" font-family="monospace" text-anchor="middle">when showCaptions</text>
<rect x="66" y="381" width="981.35" height="80" fill="#f3f0ff" stroke="#bdbdbd" stroke-width="1" rx="4" />
<rect x="76" y="375" width="86" height="12" fill="#f3f0ff" stroke="#bdbdbd" stroke-width="1" rx="3" />
<text x="80" y="384" font-size="9" fill="#424242" font-weight="bold">&lt;ch-textblock&gt;</text>
<rect x="68" y="423" width="977.35" height="33" fill="none" stroke="#9e9e9e" stroke-width="1.5" stroke-dasharray="6 3" rx="3" />
<rect x="72" y="417" width="66" height="12" fill="#ffffff" rx="2" />
<text x="76" y="425" font-size="8" fill="#9e9e9e" font-family="monospace">#shadow-root</text>
<text x="76" y="400" font-size="9" fill="#666">tab-caption</text>
<text x="76" y="411" font-size="9" fill="#666" font-style="italic">{item.id} {tabListPosition} [block|inline] [start|end] [closable|not-closable] [selected|not-selected] [disabled] [dragging] [dragging-over-tab-list|dragging-out-of-tab-list]</text>
<text x="78" y="451" font-size="9" fill="#888" font-style="italic">&quot;Caption text&quot;</text>
<rect x="54" y="473" width="112.39999999999999" height="16" fill="#7b1fa2" rx="3" />
<path d="M5 0.5 L9.5 5 L5 9.5 L0.5 5 Z" fill="none" stroke="#ffffff" stroke-width="1.2" stroke-linecap="round" stroke-linejoin="round" transform="translate(60,476) scale(1)" />
<text x="117.19999999999999" y="484.15" font-size="9" fill="#ffffff" font-family="monospace" text-anchor="middle">when closeButton</text>
<rect x="66" y="496" width="848.75" height="42" fill="#e3f2fd" stroke="#1976d2" stroke-width="1" rx="4" />
<rect x="76" y="490" width="53" height="12" fill="#e3f2fd" stroke="#1976d2" stroke-width="1" rx="3" />
<text x="80" y="499" font-size="9" fill="#0d47a1" font-weight="bold">&lt;button&gt;</text>
<text x="76" y="515" font-size="9" fill="#666">close-button</text>
<text x="76" y="526" font-size="9" fill="#666" font-style="italic">{item.id} {tabListPosition} [block|inline] [start|end] [selected|not-selected] [disabled] [dragging] [dragging-over-tab-list|dragging-out-of-tab-list]</text>
<rect x="22" y="570" width="128.6" height="16" fill="#7b1fa2" rx="3" />
<path d="M5 0.5 L9.5 5 L5 9.5 L0.5 5 Z" fill="none" stroke="#ffffff" stroke-width="1.2" stroke-linecap="round" stroke-linejoin="round" transform="translate(28,573) scale(1)" />
<text x="93.3" y="581.15" font-size="9" fill="#ffffff" font-family="monospace" text-anchor="middle">when showTabListEnd</text>
<rect x="34" y="593" width="263.1" height="83" fill="#fafafa" stroke="#bdbdbd" stroke-width="1" rx="4" />
<rect x="44" y="587" width="36" height="12" fill="#fafafa" stroke="#bdbdbd" stroke-width="1" rx="3" />
<text x="48" y="596" font-size="9" fill="#424242" font-weight="bold">&lt;div&gt;</text>
<text x="44" y="612" font-size="9" fill="#666">tab-list-end</text>
<text x="44" y="623" font-size="9" fill="#666" font-style="italic">[block|inline] [start|end] {tabListPosition}</text>
<rect x="44" y="635" width="191.275" height="31" fill="#fff8e1" stroke="#f57f17" stroke-width="1.5" stroke-dasharray="4 2" rx="4" />
<text x="50" y="654" font-size="9" fill="#e65100" font-weight="bold">&lt;slot name=&quot;{tabListPosition}&quot;&gt;</text>
<rect x="22" y="688" width="543.7249999999999" height="169" fill="#fafafa" stroke="#bdbdbd" stroke-width="1" rx="4" />
<rect x="32" y="682" width="36" height="12" fill="#fafafa" stroke="#bdbdbd" stroke-width="1" rx="3" />
<text x="36" y="691" font-size="9" fill="#424242" font-weight="bold">&lt;div&gt;</text>
<text x="32" y="707" font-size="9" fill="#666">tab-panel-container</text>
<text x="32" y="718" font-size="9" fill="#666" font-style="italic">[block|inline] [start|end] {tabListPosition} [expanded|collapsed]</text>
<line x1="40" y1="746" x2="40" y2="847" stroke="#00695c" stroke-width="2" stroke-opacity="0.4" stroke-linecap="round" />
<rect x="32" y="730" width="144.8" height="16" fill="#00695c" rx="3" />
<path d="M8 14.667a5.806 5.806 0 0 1-2.342-.475 6.1 6.1 0 0 1-1.9-1.284 6.097 6.097 0 0 1-1.283-1.9A5.804 5.804 0 0 1 2 8.667a5.8 5.8 0 0 1 .475-2.342 6.099 6.099 0 0 1 1.283-1.9 6.099 6.099 0 0 1 1.9-1.283A5.805 5.805 0 0 1 8 2.667h.1L7.533 2.1a.622.622 0 0 1-.183-.458.68.68 0 0 1 .183-.475.68.68 0 0 1 .475-.209.62.62 0 0 1 .475.192L10.2 2.867a.632.632 0 0 1 .183.466.632.632 0 0 1-.183.467L8.483 5.517a.62.62 0 0 1-.475.191.68.68 0 0 1-.475-.208.68.68 0 0 1-.183-.475c0-.183.061-.336.183-.458L8.1 4H8c-1.3 0-2.403.453-3.308 1.358-.906.906-1.359 2.009-1.359 3.309 0 1.3.453 2.402 1.359 3.308.905.906 2.008 1.358 3.308 1.358 1.178 0 2.206-.383 3.083-1.15.878-.766 1.395-1.733 1.55-2.9a.68.68 0 0 1 .234-.441.687.687 0 0 1 .466-.175c.178 0 .334.055.467.166a.44.44 0 0 1 .167.417c-.156 1.544-.8 2.833-1.934 3.867C10.9 14.15 9.556 14.667 8 14.667Z" fill="#ffffff" transform="translate(38,733) scale(0.625)" />
<text x="111.4" y="741.15" font-size="9" fill="#ffffff" font-family="monospace" text-anchor="middle">for each item in model</text>
<rect x="44" y="753" width="511.72499999999997" height="94" fill="#f3f0ff" stroke="#bdbdbd" stroke-width="1" rx="4" />
<rect x="54" y="747" width="241" height="12" fill="#f3f0ff" stroke="#bdbdbd" stroke-width="1" rx="3" />
<text x="58" y="756" font-size="9" fill="#424242" font-weight="bold">&lt;div id=&quot;panel-{item.id}&quot; role=&quot;tabpanel&quot;&gt;</text>
<text x="54" y="772" font-size="9" fill="#666">tab-panel</text>
<text x="54" y="783" font-size="9" fill="#666" font-style="italic">{item.id} {tabListPosition} [block|inline] [start|end] [selected|not-selected] [disabled]</text>
<text x="54" y="794" font-size="9" fill="#1565c0" font-style="italic">aria-labelledby=&quot;{item.id}&quot;</text>
<rect x="54" y="806" width="147.075" height="31" fill="#fff8e1" stroke="#f57f17" stroke-width="1.5" stroke-dasharray="4 2" rx="4" />
<text x="60" y="825" font-size="9" fill="#e65100" font-weight="bold">&lt;slot name=&quot;{item.id}&quot;&gt;</text>
<rect x="22" y="869" width="96.2" height="16" fill="#7b1fa2" rx="3" />
<path d="M5 0.5 L9.5 5 L5 9.5 L0.5 5 Z" fill="none" stroke="#ffffff" stroke-width="1.2" stroke-linecap="round" stroke-linejoin="round" transform="translate(28,872) scale(1)" />
<text x="77.1" y="880.15" font-size="9" fill="#ffffff" font-family="monospace" text-anchor="middle">when dragging</text>
<rect x="34" y="892" width="821.125" height="68" fill="#e3f2fd" stroke="#1976d2" stroke-width="1" rx="4" />
<rect x="44" y="886" width="53" height="12" fill="#e3f2fd" stroke="#1976d2" stroke-width="1" rx="3" />
<text x="48" y="895" font-size="9" fill="#0d47a1" font-weight="bold">&lt;button&gt;</text>
<text x="44" y="911" font-size="9" fill="#666">tab dragging</text>
<text x="44" y="922" font-size="9" fill="#666" font-style="italic">{item.id} [block|inline] [start|end] [dragging-over-tab-list|dragging-out-of-tab-list] [closable|not-closable] [selected|not-selected] [disabled]</text>
<rect x="44" y="934" width="244.2" height="16" fill="#546e7a" rx="3" />
<text x="166.1" y="945.15" font-size="9" fill="#ffffff" font-family="monospace" text-anchor="middle">Drag preview (same structure as tab button)</text>
<rect x="1117.35" y="10" width="211" height="222" fill="none" stroke="#bdbdbd" stroke-width="1" rx="4" />
<text x="1127.35" y="24" font-size="10" fill="#424242" font-weight="bold">Legend</text>
<line x1="1127.35" y1="38" x2="1151.35" y2="38" stroke="#9e9e9e" stroke-width="1.5" stroke-dasharray="4 2" />
<text x="1173.35" y="42" font-size="8" fill="#666">#shadow-root</text>
<rect x="1127.35" y="48" width="12" height="12" fill="#7b1fa2" rx="2" />
<path d="M5 0.5 L9.5 5 L5 9.5 L0.5 5 Z" fill="none" stroke="#fff" stroke-width="1.2" stroke-linecap="round" stroke-linejoin="round" transform="translate(1128.35,49) scale(1)" />
<text x="1173.35" y="58" font-size="8" fill="#666">condition (when / else)</text>
<rect x="1127.35" y="64" width="12" height="12" fill="#00695c" rx="2" />
<path d="M8 14.667a5.806 5.806 0 0 1-2.342-.475 6.1 6.1 0 0 1-1.9-1.284 6.097 6.097 0 0 1-1.283-1.9A5.804 5.804 0 0 1 2 8.667a5.8 5.8 0 0 1 .475-2.342 6.099 6.099 0 0 1 1.283-1.9 6.099 6.099 0 0 1 1.9-1.283A5.805 5.805 0 0 1 8 2.667h.1L7.533 2.1a.622.622 0 0 1-.183-.458.68.68 0 0 1 .183-.475.68.68 0 0 1 .475-.209.62.62 0 0 1 .475.192L10.2 2.867a.632.632 0 0 1 .183.466.632.632 0 0 1-.183.467L8.483 5.517a.62.62 0 0 1-.475.191.68.68 0 0 1-.475-.208.68.68 0 0 1-.183-.475c0-.183.061-.336.183-.458L8.1 4H8c-1.3 0-2.403.453-3.308 1.358-.906.906-1.359 2.009-1.359 3.309 0 1.3.453 2.402 1.359 3.308.905.906 2.008 1.358 3.308 1.358 1.178 0 2.206-.383 3.083-1.15.878-.766 1.395-1.733 1.55-2.9a.68.68 0 0 1 .234-.441.687.687 0 0 1 .466-.175c.178 0 .334.055.467.166a.44.44 0 0 1 .167.417c-.156 1.544-.8 2.833-1.934 3.867C10.9 14.15 9.556 14.667 8 14.667Z" fill="#fff" transform="translate(1128.35,65) scale(0.625)" />
<text x="1173.35" y="74" font-size="8" fill="#666">iteration (for each)</text>
<rect x="1127.35" y="80" width="12" height="12" fill="#546e7a" rx="2" />
<text x="1173.35" y="90" font-size="8" fill="#666">descriptive comment</text>
<rect x="1127.35" y="96" width="20" height="12" fill="#fff8e1" stroke="#f57f17" stroke-width="1" stroke-dasharray="3 1.5" rx="2" />
<text x="1173.35" y="106" font-size="8" fill="#666">slot</text>
<rect x="1127.35" y="112" width="12" height="12" fill="#0277bd" rx="2" />
<path d="M10.817 8.664H3.642a.613.613 0 0 1-.457-.19.647.647 0 0 1-.185-.47c0-.187.062-.343.185-.47a.613.613 0 0 1 .457-.19h7.175l-3.146-3.23a.613.613 0 0 1-.185-.462.668.668 0 0 1 .65-.651.58.58 0 0 1 .45.189l4.237 4.353c.065.066.11.137.137.214a.75.75 0 0 1 .04.247.75.75 0 0 1-.04.248.581.581 0 0 1-.137.214l-4.237 4.353a.59.59 0 0 1-.442.181.645.645 0 0 1-.457-.181.65.65 0 0 1-.193-.47.65.65 0 0 1 .193-.47l3.13-3.215Z" fill="#fff" transform="translate(1128.35,113) scale(0.625)" />
<text x="1173.35" y="122" font-size="8" fill="#666">projected content (light DOM)</text>
<text x="1127.35" y="138" font-size="9" fill="#666">part</text>
<text x="1173.35" y="138" font-size="8" fill="#666">static part</text>
<text x="1127.35" y="154" font-size="9" fill="#666" font-style="italic">[part]</text>
<text x="1173.35" y="154" font-size="8" fill="#666">conditional part</text>
<text x="1127.35" y="170" font-size="9" fill="#666" font-style="italic">{part}</text>
<text x="1173.35" y="170" font-size="8" fill="#666">dynamic part</text>
<text x="1127.35" y="186" font-size="9" fill="#666" font-style="italic">[{part}]</text>
<text x="1173.35" y="186" font-size="8" fill="#666">conditional dynamic part</text>
<rect x="1127.35" y="192" width="20" height="12" fill="#fafafa" stroke="#bdbdbd" stroke-width="1" rx="3" />
<text x="1129.35" y="201" font-size="7" fill="#424242" font-weight="bold">id</text>
<text x="1173.35" y="202" font-size="8" fill="#666">id, role (in tag pill)</text>
<text x="1127.35" y="218" font-size="9" fill="#1565c0" font-style="italic">aria-*</text>
<text x="1173.35" y="218" font-size="8" fill="#666">aria-* attribute</text>

</svg>
