<svg xmlns="http://www.w3.org/2000/svg"  x="0" y="0" width="32" height="32" viewBox="0 0 32 32" enable-background="new 0 0 32 32" xml:space="preserve"><path fill="#00A99D" d="M30.488,0.272H1.664c-0.713,0-1.294,0.581-1.294,1.294v28.825c0,0.714,0.581,1.294,1.294,1.294h28.824c0.714,0,1.294-0.58,1.294-1.294V1.567C31.782,0.853,31.202,0.272,30.488,0.272z M2.37,29.686V10.888h27.412v18.797H2.37z"/><rect x="3.944" y="4.565" fill="#FFFFFF" width="17.004" height="2"/><rect x="20.275" y="11.268" fill="#EBEBEB" width="9.996" height="3.248"/><rect x="20.275" y="27.338" fill="#EBEBEB" width="9.996" height="3.248"/><path fill="#959595" d="M30.488,9.464H20.058c-0.714,0-1.294,0.581-1.294,1.294v19.627c0,0.714,0.58,1.294,1.294,1.294h10.431c0.714,0,1.294-0.58,1.294-1.294V10.758C31.782,10.044,31.202,9.464,30.488,9.464z M29.782,11.464v2.053h-9.019v-2.053H29.782zM20.764,26.239V15.517h9.019v10.723H20.764z M20.764,28.239h3.51v1.44h-3.51V28.239z M26.273,29.68v-1.44h3.509v1.44H26.273z"/></svg>
