<?xml version="1.0" encoding="UTF-8"?>
<svg xmlns="http://www.w3.org/2000/svg"
     viewBox="0 0 839 757"
     width="839" height="757"
     font-family="monospace, Consolas">
  <style>
    text { dominant-baseline: auto; }
  </style>
  <rect x="10" y="10" width="562" height="737" fill="#ffffff" stroke="#424242" stroke-width="1" rx="4" />
<rect x="20" y="4" width="323" height="38" fill="#ffffff" stroke="#424242" stroke-width="1" rx="3" />
<text x="24" y="15" font-size="9" fill="#212121" font-weight="normal"><tspan>&lt;</tspan><tspan font-weight="bold">ch-combo-box-render</tspan></text>
<text x="35" y="27" font-size="9" fill="#212121" font-weight="normal">part=&quot;[ch-combo-box-render--placeholder] [{hostParts}]&quot;</text>
<text x="24" y="39" font-size="9" fill="#212121" font-weight="normal">&gt;</text>
<rect x="12" y="52" width="558" height="693" fill="none" stroke="#9e9e9e" stroke-width="1.5" stroke-dasharray="6 3" rx="3" />
<rect x="16" y="46" width="66" height="12" fill="#ffffff" rx="2" />
<text x="20" y="54" font-size="8" fill="#9e9e9e" font-family="monospace">#shadow-root</text>
<rect x="22" y="60" width="42" height="12" fill="#fafafa" stroke="#bdbdbd" stroke-width="1" rx="3" />
<text x="26" y="69" font-size="9" fill="#424242" font-weight="normal"><tspan>&lt;</tspan><tspan font-weight="bold">span</tspan><tspan>&gt;</tspan></text>
<rect x="22" y="84" width="211" height="38" fill="#fafafa" stroke="#bdbdbd" stroke-width="1" rx="4" />
<rect x="32" y="78" width="125" height="12" fill="#fafafa" stroke="#bdbdbd" stroke-width="1" rx="3" />
<text x="36" y="87" font-size="9" fill="#424242" font-weight="normal"><tspan>&lt;</tspan><tspan font-weight="bold">div</tspan><tspan> role=&quot;combobox&quot;</tspan><tspan>&gt;</tspan></text>
<rect x="32" y="100" width="191" height="12" fill="#e3f2fd" stroke="#1976d2" stroke-width="1" rx="3" />
<text x="36" y="109" font-size="9" fill="#0d47a1" font-weight="normal"><tspan>&lt;</tspan><tspan font-weight="bold">input</tspan><tspan> aria-controls=&quot;popover&quot;</tspan><tspan> /&gt;</tspan></text>
<rect x="22" y="134" width="538" height="603" fill="#fafafa" stroke="#bdbdbd" stroke-width="1" rx="4" />
<rect x="32" y="128" width="307" height="12" fill="#fafafa" stroke="#bdbdbd" stroke-width="1" rx="3" />
<text x="36" y="137" font-size="9" fill="#424242" font-weight="normal"><tspan>&lt;</tspan><tspan font-weight="bold">ch-popover</tspan><tspan> id=&quot;popover&quot; role=&quot;listbox&quot; part=&quot;window&quot;</tspan><tspan>&gt;</tspan></text>
<rect x="24" y="150" width="534" height="26" fill="none" stroke="#9e9e9e" stroke-width="1.5" stroke-dasharray="6 3" rx="3" />
<rect x="28" y="144" width="66" height="12" fill="#ffffff" rx="2" />
<text x="32" y="152" font-size="8" fill="#9e9e9e" font-family="monospace">#shadow-root</text>
<rect x="32" y="179" width="182.6" height="16" fill="#0277bd" rx="3" />
<path d="M10.817 8.664H3.642a.613.613 0 0 1-.457-.19.647.647 0 0 1-.185-.47c0-.187.062-.343.185-.47a.613.613 0 0 1 .457-.19h7.175l-3.146-3.23a.613.613 0 0 1-.185-.462.668.668 0 0 1 .65-.651.58.58 0 0 1 .45.189l4.237 4.353c.065.066.11.137.137.214a.75.75 0 0 1 .04.247.75.75 0 0 1-.04.248.581.581 0 0 1-.137.214l-4.237 4.353a.59.59 0 0 1-.442.181.645.645 0 0 1-.457-.181.65.65 0 0 1-.193-.47.65.65 0 0 1 .193-.47l3.13-3.215Z" fill="#ffffff" transform="translate(38,182) scale(0.625)" />
<text x="130.3" y="190.15" font-size="9" fill="#ffffff" font-family="monospace" text-anchor="middle">projected content (light DOM)</text>
<line x1="40" y1="212" x2="40" y2="727" stroke="#00695c" stroke-width="2" stroke-opacity="0.4" stroke-linecap="round" />
<rect x="34" y="158" width="64.19999999999999" height="15" fill="#fff8e1" stroke="#f57f17" stroke-width="1.5" stroke-dasharray="4 2" rx="4" />
<text x="40" y="169" font-size="9" fill="#e65100" font-weight="bold">&lt;slot /&gt;</text>
<rect x="32" y="196" width="150.2" height="16" fill="#00695c" rx="3" />
<path d="M8 14.667a5.806 5.806 0 0 1-2.342-.475 6.1 6.1 0 0 1-1.9-1.284 6.097 6.097 0 0 1-1.283-1.9A5.804 5.804 0 0 1 2 8.667a5.8 5.8 0 0 1 .475-2.342 6.099 6.099 0 0 1 1.283-1.9 6.099 6.099 0 0 1 1.9-1.283A5.805 5.805 0 0 1 8 2.667h.1L7.533 2.1a.622.622 0 0 1-.183-.458.68.68 0 0 1 .183-.475.68.68 0 0 1 .475-.209.62.62 0 0 1 .475.192L10.2 2.867a.632.632 0 0 1 .183.466.632.632 0 0 1-.183.467L8.483 5.517a.62.62 0 0 1-.475.191.68.68 0 0 1-.475-.208.68.68 0 0 1-.183-.475c0-.183.061-.336.183-.458L8.1 4H8c-1.3 0-2.403.453-3.308 1.358-.906.906-1.359 2.009-1.359 3.309 0 1.3.453 2.402 1.359 3.308.905.906 2.008 1.358 3.308 1.358 1.178 0 2.206-.383 3.083-1.15.878-.766 1.395-1.733 1.55-2.9a.68.68 0 0 1 .234-.441.687.687 0 0 1 .466-.175c.178 0 .334.055.467.166a.44.44 0 0 1 .167.417c-.156 1.544-.8 2.833-1.934 3.867C10.9 14.15 9.556 14.667 8 14.667Z" fill="#ffffff" transform="translate(38,199) scale(0.625)" />
<text x="114.1" y="207.15" font-size="9" fill="#ffffff" font-family="monospace" text-anchor="middle">for each group in model</text>
<rect x="44" y="219" width="502" height="508" fill="#f3f0ff" stroke="#bdbdbd" stroke-width="1" rx="4" />
<rect x="54" y="213" width="218" height="62" fill="#f3f0ff" stroke="#bdbdbd" stroke-width="1" rx="3" />
<text x="58" y="224" font-size="9" fill="#424242" font-weight="normal"><tspan>&lt;</tspan><tspan font-weight="bold">div</tspan></text>
<text x="69" y="236" font-size="9" fill="#424242" font-weight="normal">role=&quot;group&quot;</text>
<text x="69" y="248" font-size="9" fill="#424242" font-weight="normal">aria-labelledby=&quot;{index}&quot;</text>
<text x="69" y="260" font-size="9" fill="#424242" font-weight="normal">part=&quot;{item.value} group [disabled]&quot;</text>
<text x="58" y="272" font-size="9" fill="#424242" font-weight="normal">&gt;</text>
<line x1="62" y1="301" x2="62" y2="444" stroke="#7b1fa2" stroke-width="2" stroke-opacity="0.4" stroke-linecap="round" />
<line x1="62" y1="461" x2="62" y2="543" stroke="#ad1457" stroke-width="2" stroke-opacity="0.4" stroke-linecap="round" />
<rect x="54" y="285" width="107" height="16" fill="#7b1fa2" rx="3" />
<path d="M5 0.5 L9.5 5 L5 9.5 L0.5 5 Z" fill="none" stroke="#ffffff" stroke-width="1.2" stroke-linecap="round" stroke-linejoin="round" transform="translate(60,288) scale(1)" />
<text x="114.5" y="296.15" font-size="9" fill="#ffffff" font-family="monospace" text-anchor="middle">when expandable</text>
<rect x="66" y="308" width="470" height="131" fill="#e3f2fd" stroke="#1976d2" stroke-width="1" rx="4" />
<rect x="76" y="302" width="450" height="74" fill="#e3f2fd" stroke="#1976d2" stroke-width="1" rx="3" />
<text x="80" y="313" font-size="9" fill="#0d47a1" font-weight="normal"><tspan>&lt;</tspan><tspan font-weight="bold">button</tspan></text>
<text x="91" y="325" font-size="9" fill="#0d47a1" font-weight="normal">id=&quot;{index}&quot;</text>
<text x="91" y="337" font-size="9" fill="#0d47a1" font-weight="normal">aria-controls=&quot;{index}__content&quot;</text>
<text x="91" y="349" font-size="9" fill="#0d47a1" font-weight="normal">aria-expanded=&quot;{expanded}&quot;</text>
<text x="91" y="361" font-size="9" fill="#0d47a1" font-weight="normal">part=&quot;{item.value} group__header expandable [disabled] [expanded | collapsed]&quot;</text>
<text x="80" y="373" font-size="9" fill="#0d47a1" font-weight="normal">&gt;</text>
<rect x="76" y="392" width="294" height="37" fill="#f0f7f4" stroke="#bdbdbd" stroke-width="1" rx="4" />
<rect x="86" y="386" width="274" height="12" fill="#f0f7f4" stroke="#bdbdbd" stroke-width="1" rx="3" />
<text x="90" y="395" font-size="9" fill="#424242" font-weight="normal"><tspan>&lt;</tspan><tspan font-weight="bold">span</tspan><tspan> part=&quot;group__header-caption {item.value}&quot;</tspan><tspan>&gt;</tspan></text>
<text x="86" y="417" font-size="9" fill="#888" font-style="italic">&quot;Caption text&quot;</text>
<rect x="54" y="445" width="139.39999999999998" height="16" fill="#ad1457" rx="3" />
<path d="M5 0.5 L9.5 5 L5 9.5 L0.5 5 Z" fill="none" stroke="#ffffff" stroke-width="1.2" stroke-linecap="round" stroke-linejoin="round" transform="translate(60,448) scale(1)" />
<text x="130.7" y="456.15" font-size="9" fill="#ffffff" font-family="monospace" text-anchor="middle">else (not expandable)</text>
<rect x="66" y="468" width="283" height="75" fill="#f0f7f4" stroke="#bdbdbd" stroke-width="1" rx="4" />
<rect x="76" y="462" width="263" height="50" fill="#f0f7f4" stroke="#bdbdbd" stroke-width="1" rx="3" />
<text x="80" y="473" font-size="9" fill="#424242" font-weight="normal"><tspan>&lt;</tspan><tspan font-weight="bold">span</tspan></text>
<text x="91" y="485" font-size="9" fill="#424242" font-weight="normal">id=&quot;{index}&quot;</text>
<text x="91" y="497" font-size="9" fill="#424242" font-weight="normal">part=&quot;{item.value} group__header [disabled]&quot;</text>
<text x="80" y="509" font-size="9" fill="#424242" font-weight="normal">&gt;</text>
<text x="76" y="531" font-size="9" fill="#888" font-style="italic">&quot;Caption text&quot;</text>
<rect x="54" y="555" width="364" height="162" fill="#f0f7f4" stroke="#bdbdbd" stroke-width="1" rx="4" />
<rect x="64" y="549" width="207" height="50" fill="#f0f7f4" stroke="#bdbdbd" stroke-width="1" rx="3" />
<text x="68" y="560" font-size="9" fill="#424242" font-weight="normal"><tspan>&lt;</tspan><tspan font-weight="bold">div</tspan></text>
<text x="79" y="572" font-size="9" fill="#424242" font-weight="normal">id=&quot;{index}__content&quot;</text>
<text x="79" y="584" font-size="9" fill="#424242" font-weight="normal">part=&quot;group__content {item.value}&quot;</text>
<text x="68" y="596" font-size="9" fill="#424242" font-weight="normal">&gt;</text>
<line x1="72" y1="625" x2="72" y2="707" stroke="#00695c" stroke-width="2" stroke-opacity="0.4" stroke-linecap="round" />
<rect x="64" y="609" width="177.2" height="16" fill="#00695c" rx="3" />
<path d="M8 14.667a5.806 5.806 0 0 1-2.342-.475 6.1 6.1 0 0 1-1.9-1.284 6.097 6.097 0 0 1-1.283-1.9A5.804 5.804 0 0 1 2 8.667a5.8 5.8 0 0 1 .475-2.342 6.099 6.099 0 0 1 1.283-1.9 6.099 6.099 0 0 1 1.9-1.283A5.805 5.805 0 0 1 8 2.667h.1L7.533 2.1a.622.622 0 0 1-.183-.458.68.68 0 0 1 .183-.475.68.68 0 0 1 .475-.209.62.62 0 0 1 .475.192L10.2 2.867a.632.632 0 0 1 .183.466.632.632 0 0 1-.183.467L8.483 5.517a.62.62 0 0 1-.475.191.68.68 0 0 1-.475-.208.68.68 0 0 1-.183-.475c0-.183.061-.336.183-.458L8.1 4H8c-1.3 0-2.403.453-3.308 1.358-.906.906-1.359 2.009-1.359 3.309 0 1.3.453 2.402 1.359 3.308.905.906 2.008 1.358 3.308 1.358 1.178 0 2.206-.383 3.083-1.15.878-.766 1.395-1.733 1.55-2.9a.68.68 0 0 1 .234-.441.687.687 0 0 1 .466-.175c.178 0 .334.055.467.166a.44.44 0 0 1 .167.417c-.156 1.544-.8 2.833-1.934 3.867C10.9 14.15 9.556 14.667 8 14.667Z" fill="#ffffff" transform="translate(70,612) scale(0.625)" />
<text x="159.6" y="620.15" font-size="9" fill="#ffffff" font-family="monospace" text-anchor="middle">for each item in group.items</text>
<rect x="76" y="632" width="332" height="75" fill="#e3f2fd" stroke="#1976d2" stroke-width="1" rx="4" />
<rect x="86" y="626" width="312" height="50" fill="#e3f2fd" stroke="#1976d2" stroke-width="1" rx="3" />
<text x="90" y="637" font-size="9" fill="#0d47a1" font-weight="normal"><tspan>&lt;</tspan><tspan font-weight="bold">button</tspan></text>
<text x="101" y="649" font-size="9" fill="#0d47a1" font-weight="normal">role=&quot;option&quot;</text>
<text x="101" y="661" font-size="9" fill="#0d47a1" font-weight="normal">part=&quot;{item.value} item nested [disabled] [selected]&quot;</text>
<text x="90" y="673" font-size="9" fill="#0d47a1" font-weight="normal">&gt;</text>
<text x="86" y="695" font-size="9" fill="#888" font-style="italic">&quot;Caption text&quot;</text>
<rect x="598" y="10" width="231" height="206" fill="none" stroke="#bdbdbd" stroke-width="1" rx="4" />
<text x="608" y="24" font-size="10" fill="#424242" font-weight="bold">Legend</text>
<line x1="608" y1="38" x2="632" y2="38" stroke="#9e9e9e" stroke-width="1.5" stroke-dasharray="4 2" />
<text x="654" y="42" font-size="8" fill="#666">#shadow-root</text>
<rect x="608" y="48" width="12" height="12" fill="#7b1fa2" rx="2" />
<path d="M5 0.5 L9.5 5 L5 9.5 L0.5 5 Z" fill="none" stroke="#fff" stroke-width="1.2" stroke-linecap="round" stroke-linejoin="round" transform="translate(609,49) scale(1)" />
<text x="654" y="58" font-size="8" fill="#666">condition (when / else)</text>
<rect x="608" y="64" width="12" height="12" fill="#00695c" rx="2" />
<path d="M8 14.667a5.806 5.806 0 0 1-2.342-.475 6.1 6.1 0 0 1-1.9-1.284 6.097 6.097 0 0 1-1.283-1.9A5.804 5.804 0 0 1 2 8.667a5.8 5.8 0 0 1 .475-2.342 6.099 6.099 0 0 1 1.283-1.9 6.099 6.099 0 0 1 1.9-1.283A5.805 5.805 0 0 1 8 2.667h.1L7.533 2.1a.622.622 0 0 1-.183-.458.68.68 0 0 1 .183-.475.68.68 0 0 1 .475-.209.62.62 0 0 1 .475.192L10.2 2.867a.632.632 0 0 1 .183.466.632.632 0 0 1-.183.467L8.483 5.517a.62.62 0 0 1-.475.191.68.68 0 0 1-.475-.208.68.68 0 0 1-.183-.475c0-.183.061-.336.183-.458L8.1 4H8c-1.3 0-2.403.453-3.308 1.358-.906.906-1.359 2.009-1.359 3.309 0 1.3.453 2.402 1.359 3.308.905.906 2.008 1.358 3.308 1.358 1.178 0 2.206-.383 3.083-1.15.878-.766 1.395-1.733 1.55-2.9a.68.68 0 0 1 .234-.441.687.687 0 0 1 .466-.175c.178 0 .334.055.467.166a.44.44 0 0 1 .167.417c-.156 1.544-.8 2.833-1.934 3.867C10.9 14.15 9.556 14.667 8 14.667Z" fill="#fff" transform="translate(609,65) scale(0.625)" />
<text x="654" y="74" font-size="8" fill="#666">iteration (for each)</text>
<rect x="608" y="80" width="12" height="12" fill="#546e7a" rx="2" />
<text x="654" y="90" font-size="8" fill="#666">descriptive comment</text>
<rect x="608" y="96" width="20" height="12" fill="#fff8e1" stroke="#f57f17" stroke-width="1" stroke-dasharray="3 1.5" rx="2" />
<text x="654" y="106" font-size="8" fill="#666">slot</text>
<rect x="608" y="112" width="12" height="12" fill="#0277bd" rx="2" />
<path d="M10.817 8.664H3.642a.613.613 0 0 1-.457-.19.647.647 0 0 1-.185-.47c0-.187.062-.343.185-.47a.613.613 0 0 1 .457-.19h7.175l-3.146-3.23a.613.613 0 0 1-.185-.462.668.668 0 0 1 .65-.651.58.58 0 0 1 .45.189l4.237 4.353c.065.066.11.137.137.214a.75.75 0 0 1 .04.247.75.75 0 0 1-.04.248.581.581 0 0 1-.137.214l-4.237 4.353a.59.59 0 0 1-.442.181.645.645 0 0 1-.457-.181.65.65 0 0 1-.193-.47.65.65 0 0 1 .193-.47l3.13-3.215Z" fill="#fff" transform="translate(609,113) scale(0.625)" />
<text x="654" y="122" font-size="8" fill="#666">projected content (light DOM)</text>
<rect x="608" y="128" width="28" height="12" fill="#fafafa" stroke="#bdbdbd" stroke-width="1" rx="3" />
<text x="610" y="137" font-size="7" fill="#424242" font-weight="bold">&lt;tag&gt;</text>
<text x="654" y="138" font-size="8" fill="#666">tag pill (id, role, aria-*, part)</text>
<text x="608" y="154" font-size="9" fill="#424242">part</text>
<text x="654" y="154" font-size="8" fill="#666">part=&quot;name&quot;  (static)</text>
<text x="608" y="170" font-size="9" fill="#424242">[part]</text>
<text x="654" y="170" font-size="8" fill="#666">[part]  (conditional)</text>
<text x="608" y="186" font-size="9" fill="#424242">{part}</text>
<text x="654" y="186" font-size="8" fill="#666">{part}  (dynamic)</text>
<text x="608" y="202" font-size="9" fill="#424242">[{part}]</text>
<text x="654" y="202" font-size="8" fill="#666">[{part}]  (conditional dynamic)</text>

</svg>
