<?xml version="1.0" encoding="UTF-8"?>
<svg xmlns="http://www.w3.org/2000/svg"
     viewBox="0 0 1012 1369"
     width="1012" height="1369"
     font-family="monospace, Consolas">
  <style>
    text { dominant-baseline: auto; }
  </style>
  <rect x="10" y="10" width="735" height="1349" fill="#ffffff" stroke="#424242" stroke-width="1" rx="4" />
<rect x="20" y="4" width="235" height="38" fill="#ffffff" stroke="#424242" stroke-width="1" rx="3" />
<text x="24" y="15" font-size="9" fill="#212121" font-weight="normal"><tspan>&lt;</tspan><tspan font-weight="bold">ch-action-list-render</tspan></text>
<text x="35" y="27" font-size="9" fill="#212121" font-weight="normal">aria-multiselectable=&quot;{multiSelection}&quot;</text>
<text x="24" y="39" font-size="9" fill="#212121" font-weight="normal">&gt;</text>
<rect x="12" y="52" width="731" height="1305" fill="none" stroke="#9e9e9e" stroke-width="1.5" stroke-dasharray="6 3" rx="3" />
<rect x="16" y="46" width="66" height="12" fill="#ffffff" rx="2" />
<text x="20" y="54" font-size="8" fill="#9e9e9e" font-family="monospace">#shadow-root</text>
<line x1="30" y1="93" x2="30" y2="967" stroke="#546e7a" stroke-width="2" stroke-opacity="0.4" stroke-linecap="round" />
<line x1="30" y1="1006" x2="30" y2="1349" stroke="#00695c" stroke-width="2" stroke-opacity="0.4" stroke-linecap="round" />
<rect x="22" y="60" width="144.8" height="16" fill="#00695c" rx="3" />
<path d="M8 14.667a5.806 5.806 0 0 1-2.342-.475 6.1 6.1 0 0 1-1.9-1.284 6.097 6.097 0 0 1-1.283-1.9A5.804 5.804 0 0 1 2 8.667a5.8 5.8 0 0 1 .475-2.342 6.099 6.099 0 0 1 1.283-1.9 6.099 6.099 0 0 1 1.9-1.283A5.805 5.805 0 0 1 8 2.667h.1L7.533 2.1a.622.622 0 0 1-.183-.458.68.68 0 0 1 .183-.475.68.68 0 0 1 .475-.209.62.62 0 0 1 .475.192L10.2 2.867a.632.632 0 0 1 .183.466.632.632 0 0 1-.183.467L8.483 5.517a.62.62 0 0 1-.475.191.68.68 0 0 1-.475-.208.68.68 0 0 1-.183-.475c0-.183.061-.336.183-.458L8.1 4H8c-1.3 0-2.403.453-3.308 1.358-.906.906-1.359 2.009-1.359 3.309 0 1.3.453 2.402 1.359 3.308.905.906 2.008 1.358 3.308 1.358 1.178 0 2.206-.383 3.083-1.15.878-.766 1.395-1.733 1.55-2.9a.68.68 0 0 1 .234-.441.687.687 0 0 1 .466-.175c.178 0 .334.055.467.166a.44.44 0 0 1 .167.417c-.156 1.544-.8 2.833-1.934 3.867C10.9 14.15 9.556 14.667 8 14.667Z" fill="#ffffff" transform="translate(28,63) scale(0.625)" />
<text x="101.4" y="71.15" font-size="9" fill="#ffffff" font-family="monospace" text-anchor="middle">for each item in model</text>
<rect x="22" y="77" width="33.599999999999994" height="16" fill="#546e7a" rx="3" />
<text x="38.8" y="88.15" font-size="9" fill="#ffffff" font-family="monospace" text-anchor="middle">Item</text>
<rect x="34" y="100" width="699" height="867" fill="#fafafa" stroke="#bdbdbd" stroke-width="1" rx="4" />
<rect x="44" y="94" width="274" height="12" fill="#fafafa" stroke="#bdbdbd" stroke-width="1" rx="3" />
<text x="48" y="103" font-size="9" fill="#424242" font-weight="normal"><tspan>&lt;</tspan><tspan font-weight="bold">ch-action-list-item</tspan><tspan> aria-selected=&quot;{selected}&quot;</tspan><tspan>&gt;</tspan></text>
<rect x="36" y="116" width="695" height="849" fill="none" stroke="#9e9e9e" stroke-width="1.5" stroke-dasharray="6 3" rx="3" />
<rect x="40" y="110" width="66" height="12" fill="#ffffff" rx="2" />
<text x="44" y="118" font-size="8" fill="#9e9e9e" font-family="monospace">#shadow-root</text>
<rect x="46" y="130" width="675" height="827" fill="#e3f2fd" stroke="#1976d2" stroke-width="1" rx="4" />
<rect x="56" y="124" width="655" height="38" fill="#e3f2fd" stroke="#1976d2" stroke-width="1" rx="3" />
<text x="60" y="135" font-size="9" fill="#0d47a1" font-weight="normal"><tspan>&lt;</tspan><tspan font-weight="bold">button</tspan></text>
<text x="71" y="147" font-size="9" fill="#0d47a1" font-weight="normal">part=&quot;item__action [nested] [nested-expandable] [selectable | not-selectable] [selected | not-selected] [disabled]&quot;</text>
<text x="60" y="159" font-size="9" fill="#0d47a1" font-weight="normal">&gt;</text>
<line x1="64" y1="188" x2="64" y2="269" stroke="#7b1fa2" stroke-width="2" stroke-opacity="0.4" stroke-linecap="round" />
<line x1="64" y1="297" x2="64" y2="378" stroke="#7b1fa2" stroke-width="2" stroke-opacity="0.4" stroke-linecap="round" />
<line x1="64" y1="757" x2="64" y2="838" stroke="#7b1fa2" stroke-width="2" stroke-opacity="0.4" stroke-linecap="round" />
<line x1="64" y1="866" x2="64" y2="947" stroke="#7b1fa2" stroke-width="2" stroke-opacity="0.4" stroke-linecap="round" />
<rect x="56" y="172" width="220.4" height="16" fill="#7b1fa2" rx="3" />
<path d="M5 0.5 L9.5 5 L5 9.5 L0.5 5 Z" fill="none" stroke="#ffffff" stroke-width="1.2" stroke-linecap="round" stroke-linejoin="round" transform="translate(62,175) scale(1)" />
<text x="173.2" y="183.15" font-size="9" fill="#ffffff" font-family="monospace" text-anchor="middle">when additionalInfo[&quot;stretch-start&quot;]</text>
<rect x="68" y="195" width="257.2" height="74" fill="#f3f0ff" stroke="#bdbdbd" stroke-width="1" rx="4" />
<rect x="78" y="189" width="185" height="12" fill="#f3f0ff" stroke="#bdbdbd" stroke-width="1" rx="3" />
<text x="82" y="198" font-size="9" fill="#424242" font-weight="normal"><tspan>&lt;</tspan><tspan font-weight="bold">div</tspan><tspan> part=&quot;item__stretch-start&quot;</tspan><tspan>&gt;</tspan></text>
<rect x="78" y="217" width="237.2" height="42" fill="#f0f7f4" stroke="#bdbdbd" stroke-width="1" rx="4" />
<rect x="88" y="211" width="196" height="12" fill="#f0f7f4" stroke="#bdbdbd" stroke-width="1" rx="3" />
<text x="92" y="220" font-size="9" fill="#424242" font-weight="normal"><tspan>&lt;</tspan><tspan font-weight="bold">div</tspan><tspan> part=&quot;item__additional-item&quot;</tspan><tspan>&gt;</tspan></text>
<rect x="88" y="233" width="217.2" height="16" fill="#546e7a" rx="3" />
<text x="196.6" y="244.15" font-size="9" fill="#ffffff" font-family="monospace" text-anchor="middle">Content depends on additionalItem type</text>
<rect x="56" y="281" width="209.6" height="16" fill="#7b1fa2" rx="3" />
<path d="M5 0.5 L9.5 5 L5 9.5 L0.5 5 Z" fill="none" stroke="#ffffff" stroke-width="1.2" stroke-linecap="round" stroke-linejoin="round" transform="translate(62,284) scale(1)" />
<text x="167.8" y="292.15" font-size="9" fill="#ffffff" font-family="monospace" text-anchor="middle">when additionalInfo[&quot;block-start&quot;]</text>
<rect x="68" y="304" width="257.2" height="74" fill="#f3f0ff" stroke="#bdbdbd" stroke-width="1" rx="4" />
<rect x="78" y="298" width="174" height="12" fill="#f3f0ff" stroke="#bdbdbd" stroke-width="1" rx="3" />
<text x="82" y="307" font-size="9" fill="#424242" font-weight="normal"><tspan>&lt;</tspan><tspan font-weight="bold">div</tspan><tspan> part=&quot;item__block-start&quot;</tspan><tspan>&gt;</tspan></text>
<rect x="78" y="326" width="237.2" height="42" fill="#f0f7f4" stroke="#bdbdbd" stroke-width="1" rx="4" />
<rect x="88" y="320" width="196" height="12" fill="#f0f7f4" stroke="#bdbdbd" stroke-width="1" rx="3" />
<text x="92" y="329" font-size="9" fill="#424242" font-weight="normal"><tspan>&lt;</tspan><tspan font-weight="bold">div</tspan><tspan> part=&quot;item__additional-item&quot;</tspan><tspan>&gt;</tspan></text>
<rect x="88" y="342" width="217.2" height="16" fill="#546e7a" rx="3" />
<text x="196.6" y="353.15" font-size="9" fill="#ffffff" font-family="monospace" text-anchor="middle">Content depends on additionalItem type</text>
<rect x="56" y="390" width="343" height="339" fill="#f3f0ff" stroke="#bdbdbd" stroke-width="1" rx="4" />
<rect x="66" y="384" width="323" height="12" fill="#f3f0ff" stroke="#bdbdbd" stroke-width="1" rx="3" />
<text x="70" y="393" font-size="9" fill="#424242" font-weight="normal"><tspan>&lt;</tspan><tspan font-weight="bold">div</tspan><tspan> part=&quot;item__inline-caption [editing | not-editing]&quot;</tspan><tspan>&gt;</tspan></text>
<line x1="74" y1="422" x2="74" y2="440" stroke="#7b1fa2" stroke-width="2" stroke-opacity="0.4" stroke-linecap="round" />
<line x1="74" y1="457" x2="74" y2="501" stroke="#7b1fa2" stroke-width="2" stroke-opacity="0.4" stroke-linecap="round" />
<line x1="74" y1="529" x2="74" y2="610" stroke="#7b1fa2" stroke-width="2" stroke-opacity="0.4" stroke-linecap="round" />
<line x1="74" y1="638" x2="74" y2="719" stroke="#7b1fa2" stroke-width="2" stroke-opacity="0.4" stroke-linecap="round" />
<rect x="66" y="406" width="90.8" height="16" fill="#7b1fa2" rx="3" />
<path d="M5 0.5 L9.5 5 L5 9.5 L0.5 5 Z" fill="none" stroke="#ffffff" stroke-width="1.2" stroke-linecap="round" stroke-linejoin="round" transform="translate(72,409) scale(1)" />
<text x="118.4" y="417.15" font-size="9" fill="#ffffff" font-family="monospace" text-anchor="middle">when editing</text>
<rect x="78" y="423" width="257" height="12" fill="#f0f7f4" stroke="#bdbdbd" stroke-width="1" rx="3" />
<text x="82" y="432" font-size="9" fill="#424242" font-weight="normal"><tspan>&lt;</tspan><tspan font-weight="bold">ch-edit</tspan><tspan> part=&quot;item__edit-caption [{parts}]&quot;</tspan><tspan>&gt;</tspan></text>
<rect x="66" y="441" width="117.8" height="16" fill="#ad1457" rx="3" />
<path d="M5 0.5 L9.5 5 L5 9.5 L0.5 5 Z" fill="none" stroke="#ffffff" stroke-width="1.2" stroke-linecap="round" stroke-linejoin="round" transform="translate(72,444) scale(1)" />
<text x="131.9" y="452.15" font-size="9" fill="#ffffff" font-family="monospace" text-anchor="middle">else when caption</text>
<rect x="78" y="464" width="178" height="37" fill="#f0f7f4" stroke="#bdbdbd" stroke-width="1" rx="4" />
<rect x="88" y="458" width="158" height="12" fill="#f0f7f4" stroke="#bdbdbd" stroke-width="1" rx="3" />
<text x="92" y="467" font-size="9" fill="#424242" font-weight="normal"><tspan>&lt;</tspan><tspan font-weight="bold">span</tspan><tspan> part=&quot;item__caption&quot;</tspan><tspan>&gt;</tspan></text>
<text x="88" y="489" font-size="9" fill="#888" font-style="italic">&quot;Caption text&quot;</text>
<rect x="66" y="513" width="161" height="16" fill="#7b1fa2" rx="3" />
<path d="M5 0.5 L9.5 5 L5 9.5 L0.5 5 Z" fill="none" stroke="#ffffff" stroke-width="1.2" stroke-linecap="round" stroke-linejoin="round" transform="translate(72,516) scale(1)" />
<text x="153.5" y="524.15" font-size="9" fill="#ffffff" font-family="monospace" text-anchor="middle">when inline-caption.start</text>
<rect x="78" y="536" width="257.2" height="74" fill="#f0f7f4" stroke="#bdbdbd" stroke-width="1" rx="4" />
<rect x="88" y="530" width="224" height="12" fill="#f0f7f4" stroke="#bdbdbd" stroke-width="1" rx="3" />
<text x="92" y="539" font-size="9" fill="#424242" font-weight="normal"><tspan>&lt;</tspan><tspan font-weight="bold">div</tspan><tspan> part=&quot;item__inline-caption start&quot;</tspan><tspan>&gt;</tspan></text>
<rect x="88" y="558" width="237.2" height="42" fill="#fff8f0" stroke="#bdbdbd" stroke-width="1" rx="4" />
<rect x="98" y="552" width="196" height="12" fill="#fff8f0" stroke="#bdbdbd" stroke-width="1" rx="3" />
<text x="102" y="561" font-size="9" fill="#424242" font-weight="normal"><tspan>&lt;</tspan><tspan font-weight="bold">div</tspan><tspan> part=&quot;item__additional-item&quot;</tspan><tspan>&gt;</tspan></text>
<rect x="98" y="574" width="217.2" height="16" fill="#546e7a" rx="3" />
<text x="206.6" y="585.15" font-size="9" fill="#ffffff" font-family="monospace" text-anchor="middle">Content depends on additionalItem type</text>
<rect x="66" y="622" width="150.2" height="16" fill="#7b1fa2" rx="3" />
<path d="M5 0.5 L9.5 5 L5 9.5 L0.5 5 Z" fill="none" stroke="#ffffff" stroke-width="1.2" stroke-linecap="round" stroke-linejoin="round" transform="translate(72,625) scale(1)" />
<text x="148.1" y="633.15" font-size="9" fill="#ffffff" font-family="monospace" text-anchor="middle">when inline-caption.end</text>
<rect x="78" y="645" width="257.2" height="74" fill="#f0f7f4" stroke="#bdbdbd" stroke-width="1" rx="4" />
<rect x="88" y="639" width="213" height="12" fill="#f0f7f4" stroke="#bdbdbd" stroke-width="1" rx="3" />
<text x="92" y="648" font-size="9" fill="#424242" font-weight="normal"><tspan>&lt;</tspan><tspan font-weight="bold">div</tspan><tspan> part=&quot;item__inline-caption end&quot;</tspan><tspan>&gt;</tspan></text>
<rect x="88" y="667" width="237.2" height="42" fill="#fff8f0" stroke="#bdbdbd" stroke-width="1" rx="4" />
<rect x="98" y="661" width="196" height="12" fill="#fff8f0" stroke="#bdbdbd" stroke-width="1" rx="3" />
<text x="102" y="670" font-size="9" fill="#424242" font-weight="normal"><tspan>&lt;</tspan><tspan font-weight="bold">div</tspan><tspan> part=&quot;item__additional-item&quot;</tspan><tspan>&gt;</tspan></text>
<rect x="98" y="683" width="217.2" height="16" fill="#546e7a" rx="3" />
<text x="206.6" y="694.15" font-size="9" fill="#ffffff" font-family="monospace" text-anchor="middle">Content depends on additionalItem type</text>
<rect x="56" y="741" width="198.79999999999998" height="16" fill="#7b1fa2" rx="3" />
<path d="M5 0.5 L9.5 5 L5 9.5 L0.5 5 Z" fill="none" stroke="#ffffff" stroke-width="1.2" stroke-linecap="round" stroke-linejoin="round" transform="translate(62,744) scale(1)" />
<text x="162.39999999999998" y="752.15" font-size="9" fill="#ffffff" font-family="monospace" text-anchor="middle">when additionalInfo[&quot;block-end&quot;]</text>
<rect x="68" y="764" width="257.2" height="74" fill="#f3f0ff" stroke="#bdbdbd" stroke-width="1" rx="4" />
<rect x="78" y="758" width="163" height="12" fill="#f3f0ff" stroke="#bdbdbd" stroke-width="1" rx="3" />
<text x="82" y="767" font-size="9" fill="#424242" font-weight="normal"><tspan>&lt;</tspan><tspan font-weight="bold">div</tspan><tspan> part=&quot;item__block-end&quot;</tspan><tspan>&gt;</tspan></text>
<rect x="78" y="786" width="237.2" height="42" fill="#f0f7f4" stroke="#bdbdbd" stroke-width="1" rx="4" />
<rect x="88" y="780" width="196" height="12" fill="#f0f7f4" stroke="#bdbdbd" stroke-width="1" rx="3" />
<text x="92" y="789" font-size="9" fill="#424242" font-weight="normal"><tspan>&lt;</tspan><tspan font-weight="bold">div</tspan><tspan> part=&quot;item__additional-item&quot;</tspan><tspan>&gt;</tspan></text>
<rect x="88" y="802" width="217.2" height="16" fill="#546e7a" rx="3" />
<text x="196.6" y="813.15" font-size="9" fill="#ffffff" font-family="monospace" text-anchor="middle">Content depends on additionalItem type</text>
<rect x="56" y="850" width="209.6" height="16" fill="#7b1fa2" rx="3" />
<path d="M5 0.5 L9.5 5 L5 9.5 L0.5 5 Z" fill="none" stroke="#ffffff" stroke-width="1.2" stroke-linecap="round" stroke-linejoin="round" transform="translate(62,853) scale(1)" />
<text x="167.8" y="861.15" font-size="9" fill="#ffffff" font-family="monospace" text-anchor="middle">when additionalInfo[&quot;stretch-end&quot;]</text>
<rect x="68" y="873" width="257.2" height="74" fill="#f3f0ff" stroke="#bdbdbd" stroke-width="1" rx="4" />
<rect x="78" y="867" width="174" height="12" fill="#f3f0ff" stroke="#bdbdbd" stroke-width="1" rx="3" />
<text x="82" y="876" font-size="9" fill="#424242" font-weight="normal"><tspan>&lt;</tspan><tspan font-weight="bold">div</tspan><tspan> part=&quot;item__stretch-end&quot;</tspan><tspan>&gt;</tspan></text>
<rect x="78" y="895" width="237.2" height="42" fill="#f0f7f4" stroke="#bdbdbd" stroke-width="1" rx="4" />
<rect x="88" y="889" width="196" height="12" fill="#f0f7f4" stroke="#bdbdbd" stroke-width="1" rx="3" />
<text x="92" y="898" font-size="9" fill="#424242" font-weight="normal"><tspan>&lt;</tspan><tspan font-weight="bold">div</tspan><tspan> part=&quot;item__additional-item&quot;</tspan><tspan>&gt;</tspan></text>
<rect x="88" y="911" width="217.2" height="16" fill="#546e7a" rx="3" />
<text x="196.6" y="922.15" font-size="9" fill="#ffffff" font-family="monospace" text-anchor="middle">Content depends on additionalItem type</text>
<rect x="22" y="973" width="39" height="16" fill="#546e7a" rx="3" />
<text x="41.5" y="984.15" font-size="9" fill="#ffffff" font-family="monospace" text-anchor="middle">Group</text>
<rect x="22" y="990" width="150.2" height="16" fill="#00695c" rx="3" />
<path d="M8 14.667a5.806 5.806 0 0 1-2.342-.475 6.1 6.1 0 0 1-1.9-1.284 6.097 6.097 0 0 1-1.283-1.9A5.804 5.804 0 0 1 2 8.667a5.8 5.8 0 0 1 .475-2.342 6.099 6.099 0 0 1 1.283-1.9 6.099 6.099 0 0 1 1.9-1.283A5.805 5.805 0 0 1 8 2.667h.1L7.533 2.1a.622.622 0 0 1-.183-.458.68.68 0 0 1 .183-.475.68.68 0 0 1 .475-.209.62.62 0 0 1 .475.192L10.2 2.867a.632.632 0 0 1 .183.466.632.632 0 0 1-.183.467L8.483 5.517a.62.62 0 0 1-.475.191.68.68 0 0 1-.475-.208.68.68 0 0 1-.183-.475c0-.183.061-.336.183-.458L8.1 4H8c-1.3 0-2.403.453-3.308 1.358-.906.906-1.359 2.009-1.359 3.309 0 1.3.453 2.402 1.359 3.308.905.906 2.008 1.358 3.308 1.358 1.178 0 2.206-.383 3.083-1.15.878-.766 1.395-1.733 1.55-2.9a.68.68 0 0 1 .234-.441.687.687 0 0 1 .466-.175c.178 0 .334.055.467.166a.44.44 0 0 1 .167.417c-.156 1.544-.8 2.833-1.934 3.867C10.9 14.15 9.556 14.667 8 14.667Z" fill="#ffffff" transform="translate(28,993) scale(0.625)" />
<text x="104.1" y="1001.15" font-size="9" fill="#ffffff" font-family="monospace" text-anchor="middle">for each group in model</text>
<rect x="34" y="1013" width="413" height="336" fill="#fafafa" stroke="#bdbdbd" stroke-width="1" rx="4" />
<rect x="44" y="1007" width="130" height="12" fill="#fafafa" stroke="#bdbdbd" stroke-width="1" rx="3" />
<text x="48" y="1016" font-size="9" fill="#424242" font-weight="normal"><tspan>&lt;</tspan><tspan font-weight="bold">ch-action-list-group</tspan><tspan>&gt;</tspan></text>
<rect x="36" y="1029" width="409" height="318" fill="none" stroke="#9e9e9e" stroke-width="1.5" stroke-dasharray="6 3" rx="3" />
<rect x="40" y="1023" width="66" height="12" fill="#ffffff" rx="2" />
<text x="44" y="1031" font-size="8" fill="#9e9e9e" font-family="monospace">#shadow-root</text>
<line x1="54" y1="1053" x2="54" y2="1152" stroke="#7b1fa2" stroke-width="2" stroke-opacity="0.4" stroke-linecap="round" />
<line x1="54" y1="1169" x2="54" y2="1213" stroke="#ad1457" stroke-width="2" stroke-opacity="0.4" stroke-linecap="round" />
<line x1="54" y1="1241" x2="54" y2="1339" stroke="#7b1fa2" stroke-width="2" stroke-opacity="0.4" stroke-linecap="round" />
<rect x="46" y="1037" width="107" height="16" fill="#7b1fa2" rx="3" />
<path d="M5 0.5 L9.5 5 L5 9.5 L0.5 5 Z" fill="none" stroke="#ffffff" stroke-width="1.2" stroke-linecap="round" stroke-linejoin="round" transform="translate(52,1040) scale(1)" />
<text x="106.5" y="1048.15" font-size="9" fill="#ffffff" font-family="monospace" text-anchor="middle">when expandable</text>
<rect x="58" y="1060" width="354" height="87" fill="#e3f2fd" stroke="#1976d2" stroke-width="1" rx="4" />
<rect x="68" y="1054" width="334" height="62" fill="#e3f2fd" stroke="#1976d2" stroke-width="1" rx="3" />
<text x="72" y="1065" font-size="9" fill="#0d47a1" font-weight="normal"><tspan>&lt;</tspan><tspan font-weight="bold">button</tspan></text>
<text x="83" y="1077" font-size="9" fill="#0d47a1" font-weight="normal">aria-controls=&quot;expandable&quot;</text>
<text x="83" y="1089" font-size="9" fill="#0d47a1" font-weight="normal">aria-expanded=&quot;{expanded}&quot;</text>
<text x="83" y="1101" font-size="9" fill="#0d47a1" font-weight="normal">part=&quot;group__action [selected | not-selected] [disabled]&quot;</text>
<text x="72" y="1113" font-size="9" fill="#0d47a1" font-weight="normal">&gt;</text>
<text x="68" y="1135" font-size="9" fill="#888" font-style="italic">&quot;Caption text&quot;</text>
<rect x="46" y="1153" width="139.39999999999998" height="16" fill="#ad1457" rx="3" />
<path d="M5 0.5 L9.5 5 L5 9.5 L0.5 5 Z" fill="none" stroke="#ffffff" stroke-width="1.2" stroke-linecap="round" stroke-linejoin="round" transform="translate(52,1156) scale(1)" />
<text x="122.69999999999999" y="1164.15" font-size="9" fill="#ffffff" font-family="monospace" text-anchor="middle">else (not expandable)</text>
<rect x="58" y="1176" width="244" height="37" fill="#f3f0ff" stroke="#bdbdbd" stroke-width="1" rx="4" />
<rect x="68" y="1170" width="224" height="12" fill="#f3f0ff" stroke="#bdbdbd" stroke-width="1" rx="3" />
<text x="72" y="1179" font-size="9" fill="#424242" font-weight="normal"><tspan>&lt;</tspan><tspan font-weight="bold">span</tspan><tspan> part=&quot;group__caption [disabled]&quot;</tspan><tspan>&gt;</tspan></text>
<text x="68" y="1201" font-size="9" fill="#888" font-style="italic">&quot;Caption text&quot;</text>
<rect x="46" y="1225" width="107" height="16" fill="#7b1fa2" rx="3" />
<path d="M5 0.5 L9.5 5 L5 9.5 L0.5 5 Z" fill="none" stroke="#ffffff" stroke-width="1.2" stroke-linecap="round" stroke-linejoin="round" transform="translate(52,1228) scale(1)" />
<text x="106.5" y="1236.15" font-size="9" fill="#ffffff" font-family="monospace" text-anchor="middle">when hasContent</text>
<rect x="58" y="1248" width="377" height="91" fill="#f3f0ff" stroke="#bdbdbd" stroke-width="1" rx="4" />
<rect x="68" y="1242" width="357" height="62" fill="#f3f0ff" stroke="#bdbdbd" stroke-width="1" rx="3" />
<text x="72" y="1253" font-size="9" fill="#424242" font-weight="normal"><tspan>&lt;</tspan><tspan font-weight="bold">ul</tspan></text>
<text x="83" y="1265" font-size="9" fill="#424242" font-weight="normal">id=&quot;expandable&quot;</text>
<text x="83" y="1277" font-size="9" fill="#424242" font-weight="normal">aria-busy=&quot;{downloading}&quot;</text>
<text x="83" y="1289" font-size="9" fill="#424242" font-weight="normal">part=&quot;group__expandable [expanded | collapsed] [lazy-loaded]&quot;</text>
<text x="72" y="1301" font-size="9" fill="#424242" font-weight="normal">&gt;</text>
<rect x="68" y="1314" width="64.19999999999999" height="15" fill="#fff8e1" stroke="#f57f17" stroke-width="1.5" stroke-dasharray="4 2" rx="4" />
<text x="74" y="1325" font-size="9" fill="#e65100" font-weight="bold">&lt;slot /&gt;</text>
<rect x="771" y="10" width="231" height="206" fill="none" stroke="#bdbdbd" stroke-width="1" rx="4" />
<text x="781" y="24" font-size="10" fill="#424242" font-weight="bold">Legend</text>
<line x1="781" y1="38" x2="805" y2="38" stroke="#9e9e9e" stroke-width="1.5" stroke-dasharray="4 2" />
<text x="827" y="42" font-size="8" fill="#666">#shadow-root</text>
<rect x="781" y="48" width="12" height="12" fill="#7b1fa2" rx="2" />
<path d="M5 0.5 L9.5 5 L5 9.5 L0.5 5 Z" fill="none" stroke="#fff" stroke-width="1.2" stroke-linecap="round" stroke-linejoin="round" transform="translate(782,49) scale(1)" />
<text x="827" y="58" font-size="8" fill="#666">condition (when / else)</text>
<rect x="781" y="64" width="12" height="12" fill="#00695c" rx="2" />
<path d="M8 14.667a5.806 5.806 0 0 1-2.342-.475 6.1 6.1 0 0 1-1.9-1.284 6.097 6.097 0 0 1-1.283-1.9A5.804 5.804 0 0 1 2 8.667a5.8 5.8 0 0 1 .475-2.342 6.099 6.099 0 0 1 1.283-1.9 6.099 6.099 0 0 1 1.9-1.283A5.805 5.805 0 0 1 8 2.667h.1L7.533 2.1a.622.622 0 0 1-.183-.458.68.68 0 0 1 .183-.475.68.68 0 0 1 .475-.209.62.62 0 0 1 .475.192L10.2 2.867a.632.632 0 0 1 .183.466.632.632 0 0 1-.183.467L8.483 5.517a.62.62 0 0 1-.475.191.68.68 0 0 1-.475-.208.68.68 0 0 1-.183-.475c0-.183.061-.336.183-.458L8.1 4H8c-1.3 0-2.403.453-3.308 1.358-.906.906-1.359 2.009-1.359 3.309 0 1.3.453 2.402 1.359 3.308.905.906 2.008 1.358 3.308 1.358 1.178 0 2.206-.383 3.083-1.15.878-.766 1.395-1.733 1.55-2.9a.68.68 0 0 1 .234-.441.687.687 0 0 1 .466-.175c.178 0 .334.055.467.166a.44.44 0 0 1 .167.417c-.156 1.544-.8 2.833-1.934 3.867C10.9 14.15 9.556 14.667 8 14.667Z" fill="#fff" transform="translate(782,65) scale(0.625)" />
<text x="827" y="74" font-size="8" fill="#666">iteration (for each)</text>
<rect x="781" y="80" width="12" height="12" fill="#546e7a" rx="2" />
<text x="827" y="90" font-size="8" fill="#666">descriptive comment</text>
<rect x="781" y="96" width="20" height="12" fill="#fff8e1" stroke="#f57f17" stroke-width="1" stroke-dasharray="3 1.5" rx="2" />
<text x="827" y="106" font-size="8" fill="#666">slot</text>
<rect x="781" y="112" width="12" height="12" fill="#0277bd" rx="2" />
<path d="M10.817 8.664H3.642a.613.613 0 0 1-.457-.19.647.647 0 0 1-.185-.47c0-.187.062-.343.185-.47a.613.613 0 0 1 .457-.19h7.175l-3.146-3.23a.613.613 0 0 1-.185-.462.668.668 0 0 1 .65-.651.58.58 0 0 1 .45.189l4.237 4.353c.065.066.11.137.137.214a.75.75 0 0 1 .04.247.75.75 0 0 1-.04.248.581.581 0 0 1-.137.214l-4.237 4.353a.59.59 0 0 1-.442.181.645.645 0 0 1-.457-.181.65.65 0 0 1-.193-.47.65.65 0 0 1 .193-.47l3.13-3.215Z" fill="#fff" transform="translate(782,113) scale(0.625)" />
<text x="827" y="122" font-size="8" fill="#666">projected content (light DOM)</text>
<rect x="781" y="128" width="28" height="12" fill="#fafafa" stroke="#bdbdbd" stroke-width="1" rx="3" />
<text x="783" y="137" font-size="7" fill="#424242" font-weight="bold">&lt;tag&gt;</text>
<text x="827" y="138" font-size="8" fill="#666">tag pill (id, role, aria-*, part)</text>
<text x="781" y="154" font-size="9" fill="#424242">part</text>
<text x="827" y="154" font-size="8" fill="#666">part=&quot;name&quot;  (static)</text>
<text x="781" y="170" font-size="9" fill="#424242">[part]</text>
<text x="827" y="170" font-size="8" fill="#666">[part]  (conditional)</text>
<text x="781" y="186" font-size="9" fill="#424242">{part}</text>
<text x="827" y="186" font-size="8" fill="#666">{part}  (dynamic)</text>
<text x="781" y="202" font-size="9" fill="#424242">[{part}]</text>
<text x="827" y="202" font-size="8" fill="#666">[{part}]  (conditional dynamic)</text>

</svg>
