<?xml version="1.0" encoding="UTF-8"?>
<svg xmlns="http://www.w3.org/2000/svg"
     viewBox="0 0 684.8 1034"
     width="684.8" height="1034"
     font-family="monospace, Consolas">
  <style>
    text { dominant-baseline: auto; }
  </style>
  <rect x="10" y="10" width="407.8" height="1014" fill="#ffffff" stroke="#424242" stroke-width="1" rx="4" />
<rect x="20" y="4" width="58" height="12" fill="#ffffff" stroke="#424242" stroke-width="1" rx="3" />
<text x="24" y="13" font-size="9" fill="#212121" font-weight="normal"><tspan>&lt;</tspan><tspan font-weight="bold">ch-chat</tspan><tspan>&gt;</tspan></text>
<rect x="12" y="26" width="403.8" height="996" fill="none" stroke="#9e9e9e" stroke-width="1.5" stroke-dasharray="6 3" rx="3" />
<rect x="16" y="20" width="66" height="12" fill="#ffffff" rx="2" />
<text x="20" y="28" font-size="8" fill="#9e9e9e" font-family="monospace">#shadow-root</text>
<line x1="30" y1="50" x2="30" y2="63" stroke="#7b1fa2" stroke-width="2" stroke-opacity="0.4" stroke-linecap="round" />
<line x1="30" y1="425" x2="30" y2="441" stroke="#7b1fa2" stroke-width="2" stroke-opacity="0.4" stroke-linecap="round" />
<line x1="30" y1="958" x2="30" y2="1014" stroke="#7b1fa2" stroke-width="2" stroke-opacity="0.4" stroke-linecap="round" />
<rect x="22" y="34" width="80" height="16" fill="#7b1fa2" rx="3" />
<path d="M5 0.5 L9.5 5 L5 9.5 L0.5 5 Z" fill="none" stroke="#ffffff" stroke-width="1.2" stroke-linecap="round" stroke-linejoin="round" transform="translate(28,37) scale(1)" />
<text x="69" y="45.15" font-size="9" fill="#ffffff" font-family="monospace" text-anchor="middle">when theme</text>
<rect x="34" y="51" width="64" height="12" fill="#fafafa" stroke="#bdbdbd" stroke-width="1" rx="3" />
<text x="38" y="60" font-size="9" fill="#424242" font-weight="normal"><tspan>&lt;</tspan><tspan font-weight="bold">ch-theme</tspan><tspan>&gt;</tspan></text>
<rect x="22" y="75" width="246" height="322" fill="#fafafa" stroke="#bdbdbd" stroke-width="1" rx="4" />
<rect x="32" y="69" width="91" height="12" fill="#fafafa" stroke="#bdbdbd" stroke-width="1" rx="3" />
<text x="36" y="78" font-size="9" fill="#424242" font-weight="normal"><tspan>&lt;</tspan><tspan font-weight="bold">ch-smart-grid</tspan><tspan>&gt;</tspan></text>
<rect x="24" y="91" width="242" height="104" fill="none" stroke="#9e9e9e" stroke-width="1.5" stroke-dasharray="6 3" rx="3" />
<rect x="28" y="85" width="66" height="12" fill="#ffffff" rx="2" />
<text x="32" y="93" font-size="8" fill="#9e9e9e" font-family="monospace">#shadow-root</text>
<rect x="32" y="198" width="182.6" height="16" fill="#0277bd" rx="3" />
<path d="M10.817 8.664H3.642a.613.613 0 0 1-.457-.19.647.647 0 0 1-.185-.47c0-.187.062-.343.185-.47a.613.613 0 0 1 .457-.19h7.175l-3.146-3.23a.613.613 0 0 1-.185-.462.668.668 0 0 1 .65-.651.58.58 0 0 1 .45.189l4.237 4.353c.065.066.11.137.137.214a.75.75 0 0 1 .04.247.75.75 0 0 1-.04.248.581.581 0 0 1-.137.214l-4.237 4.353a.59.59 0 0 1-.442.181.645.645 0 0 1-.457-.181.65.65 0 0 1-.193-.47.65.65 0 0 1 .193-.47l3.13-3.215Z" fill="#ffffff" transform="translate(38,201) scale(0.625)" />
<text x="130.3" y="209.15" font-size="9" fill="#ffffff" font-family="monospace" text-anchor="middle">projected content (light DOM)</text>
<rect x="34" y="105" width="222" height="66" fill="#f3f0ff" stroke="#bdbdbd" stroke-width="1" rx="4" />
<rect x="44" y="99" width="202" height="12" fill="#f3f0ff" stroke="#bdbdbd" stroke-width="1" rx="3" />
<text x="48" y="108" font-size="9" fill="#424242" font-weight="normal"><tspan>&lt;</tspan><tspan font-weight="bold">ch-infinite-scroll</tspan><tspan> position=&quot;top&quot;</tspan><tspan>&gt;</tspan></text>
<rect x="36" y="121" width="218" height="48" fill="none" stroke="#9e9e9e" stroke-width="1.5" stroke-dasharray="6 3" rx="3" />
<rect x="40" y="115" width="66" height="12" fill="#ffffff" rx="2" />
<text x="44" y="123" font-size="8" fill="#9e9e9e" font-family="monospace">#shadow-root</text>
<line x1="54" y1="145" x2="54" y2="161" stroke="#7b1fa2" stroke-width="2" stroke-opacity="0.4" stroke-linecap="round" />
<rect x="46" y="129" width="193.4" height="16" fill="#7b1fa2" rx="3" />
<path d="M5 0.5 L9.5 5 L5 9.5 L0.5 5 Z" fill="none" stroke="#ffffff" stroke-width="1.2" stroke-linecap="round" stroke-linejoin="round" transform="translate(52,132) scale(1)" />
<text x="149.7" y="140.15" font-size="9" fill="#ffffff" font-family="monospace" text-anchor="middle">when loadingState === &quot;loading&quot;</text>
<rect x="58" y="146" width="64.19999999999999" height="15" fill="#fff8e1" stroke="#f57f17" stroke-width="1.5" stroke-dasharray="4 2" rx="4" />
<text x="64" y="157" font-size="9" fill="#e65100" font-weight="bold">&lt;slot /&gt;</text>
<rect x="34" y="177" width="174.7" height="15" fill="#fff8e1" stroke="#f57f17" stroke-width="1.5" stroke-dasharray="4 2" rx="4" />
<text x="40" y="188" font-size="9" fill="#e65100" font-weight="bold">&lt;slot name=&quot;grid-content&quot; /&gt;</text>
<rect x="32" y="221" width="178" height="166" fill="#f3f0ff" stroke="#bdbdbd" stroke-width="1" rx="4" />
<rect x="42" y="215" width="158" height="50" fill="#f3f0ff" stroke="#bdbdbd" stroke-width="1" rx="3" />
<text x="46" y="226" font-size="9" fill="#424242" font-weight="normal"><tspan>&lt;</tspan><tspan font-weight="bold">ch-virtual-scroller</tspan></text>
<text x="57" y="238" font-size="9" fill="#424242" font-weight="normal">slot=&quot;grid-content&quot;</text>
<text x="57" y="250" font-size="9" fill="#424242" font-weight="normal">part=&quot;messages-container&quot;</text>
<text x="46" y="262" font-size="9" fill="#424242" font-weight="normal">&gt;</text>
<rect x="34" y="275" width="174" height="26" fill="none" stroke="#9e9e9e" stroke-width="1.5" stroke-dasharray="6 3" rx="3" />
<rect x="38" y="269" width="66" height="12" fill="#ffffff" rx="2" />
<text x="42" y="277" font-size="8" fill="#9e9e9e" font-family="monospace">#shadow-root</text>
<rect x="42" y="304" width="182.6" height="16" fill="#0277bd" rx="3" />
<path d="M10.817 8.664H3.642a.613.613 0 0 1-.457-.19.647.647 0 0 1-.185-.47c0-.187.062-.343.185-.47a.613.613 0 0 1 .457-.19h7.175l-3.146-3.23a.613.613 0 0 1-.185-.462.668.668 0 0 1 .65-.651.58.58 0 0 1 .45.189l4.237 4.353c.065.066.11.137.137.214a.75.75 0 0 1 .04.247.75.75 0 0 1-.04.248.581.581 0 0 1-.137.214l-4.237 4.353a.59.59 0 0 1-.442.181.645.645 0 0 1-.457-.181.65.65 0 0 1-.193-.47.65.65 0 0 1 .193-.47l3.13-3.215Z" fill="#ffffff" transform="translate(48,307) scale(0.625)" />
<text x="140.3" y="315.15" font-size="9" fill="#ffffff" font-family="monospace" text-anchor="middle">projected content (light DOM)</text>
<rect x="44" y="283" width="64.19999999999999" height="15" fill="#fff8e1" stroke="#f57f17" stroke-width="1.5" stroke-dasharray="4 2" rx="4" />
<text x="50" y="294" font-size="9" fill="#e65100" font-weight="bold">&lt;slot /&gt;</text>
<rect x="42" y="327" width="127.8" height="50" fill="#f0f7f4" stroke="#bdbdbd" stroke-width="1" rx="4" />
<rect x="52" y="321" width="80" height="12" fill="#f0f7f4" stroke="#bdbdbd" stroke-width="1" rx="3" />
<text x="56" y="330" font-size="9" fill="#424242" font-weight="normal"><tspan>&lt;</tspan><tspan font-weight="bold">ch-chat-lit</tspan><tspan>&gt;</tspan></text>
<rect x="44" y="343" width="123.8" height="32" fill="none" stroke="#9e9e9e" stroke-width="1.5" stroke-dasharray="6 3" rx="3" />
<rect x="48" y="337" width="66" height="12" fill="#ffffff" rx="2" />
<text x="52" y="345" font-size="8" fill="#9e9e9e" font-family="monospace">#shadow-root</text>
<rect x="54" y="351" width="103.8" height="16" fill="#546e7a" rx="3" />
<text x="105.9" y="362.15" font-size="9" fill="#ffffff" font-family="monospace" text-anchor="middle">Rendered messages</text>
<rect x="22" y="409" width="166.4" height="16" fill="#7b1fa2" rx="3" />
<path d="M5 0.5 L9.5 5 L5 9.5 L0.5 5 Z" fill="none" stroke="#ffffff" stroke-width="1.2" stroke-linecap="round" stroke-linejoin="round" transform="translate(28,412) scale(1)" />
<text x="112.2" y="420.15" font-size="9" fill="#ffffff" font-family="monospace" text-anchor="middle">when showAdditionalContent</text>
<rect x="34" y="426" width="207.85" height="15" fill="#fff8e1" stroke="#f57f17" stroke-width="1.5" stroke-dasharray="4 2" rx="4" />
<text x="40" y="437" font-size="9" fill="#e65100" font-weight="bold">&lt;slot name=&quot;additional-content&quot; /&gt;</text>
<rect x="22" y="453" width="371.8" height="477" fill="#fafafa" stroke="#bdbdbd" stroke-width="1" rx="4" />
<rect x="32" y="447" width="158" height="12" fill="#fafafa" stroke="#bdbdbd" stroke-width="1" rx="3" />
<text x="36" y="456" font-size="9" fill="#424242" font-weight="normal"><tspan>&lt;</tspan><tspan font-weight="bold">div</tspan><tspan> part=&quot;send-container&quot;</tspan><tspan>&gt;</tspan></text>
<line x1="40" y1="485" x2="40" y2="534" stroke="#7b1fa2" stroke-width="2" stroke-opacity="0.4" stroke-linecap="round" />
<line x1="40" y1="871" x2="40" y2="920" stroke="#7b1fa2" stroke-width="2" stroke-opacity="0.4" stroke-linecap="round" />
<rect x="32" y="469" width="242" height="16" fill="#7b1fa2" rx="3" />
<path d="M5 0.5 L9.5 5 L5 9.5 L0.5 5 Z" fill="none" stroke="#ffffff" stroke-width="1.2" stroke-linecap="round" stroke-linejoin="round" transform="translate(38,472) scale(1)" />
<text x="160" y="480.15" font-size="9" fill="#ffffff" font-family="monospace" text-anchor="middle">when sendContainerBefore layout elements</text>
<rect x="44" y="492" width="339.8" height="42" fill="#f3f0ff" stroke="#bdbdbd" stroke-width="1" rx="4" />
<rect x="54" y="486" width="196" height="12" fill="#f3f0ff" stroke="#bdbdbd" stroke-width="1" rx="3" />
<text x="58" y="495" font-size="9" fill="#424242" font-weight="normal"><tspan>&lt;</tspan><tspan font-weight="bold">div</tspan><tspan> part=&quot;send-container-before&quot;</tspan><tspan>&gt;</tspan></text>
<rect x="54" y="508" width="319.8" height="16" fill="#546e7a" rx="3" />
<text x="213.9" y="519.15" font-size="9" fill="#ffffff" font-family="monospace" text-anchor="middle">Layout elements such as send-button, stop-response-button</text>
<rect x="32" y="546" width="282.525" height="297" fill="#f3f0ff" stroke="#bdbdbd" stroke-width="1" rx="4" />
<rect x="42" y="540" width="213" height="12" fill="#f3f0ff" stroke="#bdbdbd" stroke-width="1" rx="3" />
<text x="46" y="549" font-size="9" fill="#424242" font-weight="normal"><tspan>&lt;</tspan><tspan font-weight="bold">ch-edit</tspan><tspan> part=&quot;send-input&quot; multiline</tspan><tspan>&gt;</tspan></text>
<rect x="34" y="562" width="278.525" height="105" fill="none" stroke="#9e9e9e" stroke-width="1.5" stroke-dasharray="6 3" rx="3" />
<rect x="38" y="556" width="66" height="12" fill="#ffffff" rx="2" />
<text x="42" y="564" font-size="8" fill="#9e9e9e" font-family="monospace">#shadow-root</text>
<rect x="42" y="670" width="182.6" height="16" fill="#0277bd" rx="3" />
<path d="M10.817 8.664H3.642a.613.613 0 0 1-.457-.19.647.647 0 0 1-.185-.47c0-.187.062-.343.185-.47a.613.613 0 0 1 .457-.19h7.175l-3.146-3.23a.613.613 0 0 1-.185-.462.668.668 0 0 1 .65-.651.58.58 0 0 1 .45.189l4.237 4.353c.065.066.11.137.137.214a.75.75 0 0 1 .04.247.75.75 0 0 1-.04.248.581.581 0 0 1-.137.214l-4.237 4.353a.59.59 0 0 1-.442.181.645.645 0 0 1-.457-.181.65.65 0 0 1-.193-.47.65.65 0 0 1 .193-.47l3.13-3.215Z" fill="#ffffff" transform="translate(48,673) scale(0.625)" />
<text x="140.3" y="681.15" font-size="9" fill="#ffffff" font-family="monospace" text-anchor="middle">projected content (light DOM)</text>
<line x1="52" y1="586" x2="52" y2="602" stroke="#7b1fa2" stroke-width="2" stroke-opacity="0.4" stroke-linecap="round" />
<line x1="52" y1="648" x2="52" y2="664" stroke="#7b1fa2" stroke-width="2" stroke-opacity="0.4" stroke-linecap="round" />
<line x1="50" y1="703" x2="50" y2="754" stroke="#7b1fa2" stroke-width="2" stroke-opacity="0.4" stroke-linecap="round" />
<line x1="50" y1="782" x2="50" y2="833" stroke="#7b1fa2" stroke-width="2" stroke-opacity="0.4" stroke-linecap="round" />
<rect x="44" y="570" width="198.79999999999998" height="16" fill="#7b1fa2" rx="3" />
<path d="M5 0.5 L9.5 5 L5 9.5 L0.5 5 Z" fill="none" stroke="#ffffff" stroke-width="1.2" stroke-linecap="round" stroke-linejoin="round" transform="translate(50,573) scale(1)" />
<text x="150.39999999999998" y="581.15" font-size="9" fill="#ffffff" font-family="monospace" text-anchor="middle">when showAdditionalContentBefore</text>
<rect x="56" y="587" width="246.525" height="15" fill="#fff8e1" stroke="#f57f17" stroke-width="1.5" stroke-dasharray="4 2" rx="4" />
<text x="62" y="598" font-size="9" fill="#e65100" font-weight="bold">&lt;slot name=&quot;additional-content-before&quot; /&gt;</text>
<rect x="44" y="608" width="64" height="12" fill="#e3f2fd" stroke="#1976d2" stroke-width="1" rx="3" />
<text x="48" y="617" font-size="9" fill="#0d47a1" font-weight="normal"><tspan>&lt;</tspan><tspan font-weight="bold">textarea</tspan><tspan>&gt;</tspan></text>
<rect x="44" y="632" width="193.4" height="16" fill="#7b1fa2" rx="3" />
<path d="M5 0.5 L9.5 5 L5 9.5 L0.5 5 Z" fill="none" stroke="#ffffff" stroke-width="1.2" stroke-linecap="round" stroke-linejoin="round" transform="translate(50,635) scale(1)" />
<text x="147.7" y="643.15" font-size="9" fill="#ffffff" font-family="monospace" text-anchor="middle">when showAdditionalContentAfter</text>
<rect x="56" y="649" width="241" height="15" fill="#fff8e1" stroke="#f57f17" stroke-width="1.5" stroke-dasharray="4 2" rx="4" />
<text x="62" y="660" font-size="9" fill="#e65100" font-weight="bold">&lt;slot name=&quot;additional-content-after&quot; /&gt;</text>
<rect x="42" y="687" width="220.4" height="16" fill="#7b1fa2" rx="3" />
<path d="M5 0.5 L9.5 5 L5 9.5 L0.5 5 Z" fill="none" stroke="#ffffff" stroke-width="1.2" stroke-linecap="round" stroke-linejoin="round" transform="translate(48,690) scale(1)" />
<text x="159.2" y="698.15" font-size="9" fill="#ffffff" font-family="monospace" text-anchor="middle">when sendInputBefore layout elements</text>
<rect x="54" y="704" width="196" height="50" fill="#f0f7f4" stroke="#bdbdbd" stroke-width="1" rx="3" />
<text x="58" y="715" font-size="9" fill="#424242" font-weight="normal"><tspan>&lt;</tspan><tspan font-weight="bold">div</tspan></text>
<text x="69" y="727" font-size="9" fill="#424242" font-weight="normal">slot=&quot;additional-content-before&quot;</text>
<text x="69" y="739" font-size="9" fill="#424242" font-weight="normal">part=&quot;send-input-before&quot;</text>
<text x="58" y="751" font-size="9" fill="#424242" font-weight="normal">&gt;</text>
<rect x="42" y="766" width="215" height="16" fill="#7b1fa2" rx="3" />
<path d="M5 0.5 L9.5 5 L5 9.5 L0.5 5 Z" fill="none" stroke="#ffffff" stroke-width="1.2" stroke-linecap="round" stroke-linejoin="round" transform="translate(48,769) scale(1)" />
<text x="156.5" y="777.15" font-size="9" fill="#ffffff" font-family="monospace" text-anchor="middle">when sendInputAfter layout elements</text>
<rect x="54" y="783" width="191" height="50" fill="#f0f7f4" stroke="#bdbdbd" stroke-width="1" rx="3" />
<text x="58" y="794" font-size="9" fill="#424242" font-weight="normal"><tspan>&lt;</tspan><tspan font-weight="bold">div</tspan></text>
<text x="69" y="806" font-size="9" fill="#424242" font-weight="normal">slot=&quot;additional-content-after&quot;</text>
<text x="69" y="818" font-size="9" fill="#424242" font-weight="normal">part=&quot;send-input-after&quot;</text>
<text x="58" y="830" font-size="9" fill="#424242" font-weight="normal">&gt;</text>
<rect x="32" y="855" width="236.6" height="16" fill="#7b1fa2" rx="3" />
<path d="M5 0.5 L9.5 5 L5 9.5 L0.5 5 Z" fill="none" stroke="#ffffff" stroke-width="1.2" stroke-linecap="round" stroke-linejoin="round" transform="translate(38,858) scale(1)" />
<text x="157.3" y="866.15" font-size="9" fill="#ffffff" font-family="monospace" text-anchor="middle">when sendContainerAfter layout elements</text>
<rect x="44" y="878" width="339.8" height="42" fill="#f3f0ff" stroke="#bdbdbd" stroke-width="1" rx="4" />
<rect x="54" y="872" width="191" height="12" fill="#f3f0ff" stroke="#bdbdbd" stroke-width="1" rx="3" />
<text x="58" y="881" font-size="9" fill="#424242" font-weight="normal"><tspan>&lt;</tspan><tspan font-weight="bold">div</tspan><tspan> part=&quot;send-container-after&quot;</tspan><tspan>&gt;</tspan></text>
<rect x="54" y="894" width="319.8" height="16" fill="#546e7a" rx="3" />
<text x="213.9" y="905.15" font-size="9" fill="#ffffff" font-family="monospace" text-anchor="middle">Layout elements such as send-button, stop-response-button</text>
<rect x="22" y="942" width="96.2" height="16" fill="#7b1fa2" rx="3" />
<path d="M5 0.5 L9.5 5 L5 9.5 L0.5 5 Z" fill="none" stroke="#ffffff" stroke-width="1.2" stroke-linecap="round" stroke-linejoin="round" transform="translate(28,945) scale(1)" />
<text x="77.1" y="953.15" font-size="9" fill="#ffffff" font-family="monospace" text-anchor="middle">when liveMode</text>
<rect x="34" y="965" width="128" height="49" fill="#fafafa" stroke="#bdbdbd" stroke-width="1" rx="4" />
<rect x="44" y="959" width="108" height="12" fill="#fafafa" stroke="#bdbdbd" stroke-width="1" rx="3" />
<text x="48" y="968" font-size="9" fill="#424242" font-weight="normal"><tspan>&lt;</tspan><tspan font-weight="bold">ch-live-kit-room</tspan><tspan>&gt;</tspan></text>
<rect x="36" y="981" width="124" height="31" fill="none" stroke="#9e9e9e" stroke-width="1.5" stroke-dasharray="6 3" rx="3" />
<rect x="40" y="975" width="66" height="12" fill="#ffffff" rx="2" />
<text x="44" y="983" font-size="8" fill="#9e9e9e" font-family="monospace">#shadow-root</text>
<rect x="46" y="989" width="64.19999999999999" height="15" fill="#fff8e1" stroke="#f57f17" stroke-width="1.5" stroke-dasharray="4 2" rx="4" />
<text x="52" y="1000" font-size="9" fill="#e65100" font-weight="bold">&lt;slot /&gt;</text>
<rect x="443.8" y="10" width="231" height="206" fill="none" stroke="#bdbdbd" stroke-width="1" rx="4" />
<text x="453.8" y="24" font-size="10" fill="#424242" font-weight="bold">Legend</text>
<line x1="453.8" y1="38" x2="477.8" y2="38" stroke="#9e9e9e" stroke-width="1.5" stroke-dasharray="4 2" />
<text x="499.8" y="42" font-size="8" fill="#666">#shadow-root</text>
<rect x="453.8" y="48" width="12" height="12" fill="#7b1fa2" rx="2" />
<path d="M5 0.5 L9.5 5 L5 9.5 L0.5 5 Z" fill="none" stroke="#fff" stroke-width="1.2" stroke-linecap="round" stroke-linejoin="round" transform="translate(454.8,49) scale(1)" />
<text x="499.8" y="58" font-size="8" fill="#666">condition (when / else)</text>
<rect x="453.8" y="64" width="12" height="12" fill="#00695c" rx="2" />
<path d="M8 14.667a5.806 5.806 0 0 1-2.342-.475 6.1 6.1 0 0 1-1.9-1.284 6.097 6.097 0 0 1-1.283-1.9A5.804 5.804 0 0 1 2 8.667a5.8 5.8 0 0 1 .475-2.342 6.099 6.099 0 0 1 1.283-1.9 6.099 6.099 0 0 1 1.9-1.283A5.805 5.805 0 0 1 8 2.667h.1L7.533 2.1a.622.622 0 0 1-.183-.458.68.68 0 0 1 .183-.475.68.68 0 0 1 .475-.209.62.62 0 0 1 .475.192L10.2 2.867a.632.632 0 0 1 .183.466.632.632 0 0 1-.183.467L8.483 5.517a.62.62 0 0 1-.475.191.68.68 0 0 1-.475-.208.68.68 0 0 1-.183-.475c0-.183.061-.336.183-.458L8.1 4H8c-1.3 0-2.403.453-3.308 1.358-.906.906-1.359 2.009-1.359 3.309 0 1.3.453 2.402 1.359 3.308.905.906 2.008 1.358 3.308 1.358 1.178 0 2.206-.383 3.083-1.15.878-.766 1.395-1.733 1.55-2.9a.68.68 0 0 1 .234-.441.687.687 0 0 1 .466-.175c.178 0 .334.055.467.166a.44.44 0 0 1 .167.417c-.156 1.544-.8 2.833-1.934 3.867C10.9 14.15 9.556 14.667 8 14.667Z" fill="#fff" transform="translate(454.8,65) scale(0.625)" />
<text x="499.8" y="74" font-size="8" fill="#666">iteration (for each)</text>
<rect x="453.8" y="80" width="12" height="12" fill="#546e7a" rx="2" />
<text x="499.8" y="90" font-size="8" fill="#666">descriptive comment</text>
<rect x="453.8" y="96" width="20" height="12" fill="#fff8e1" stroke="#f57f17" stroke-width="1" stroke-dasharray="3 1.5" rx="2" />
<text x="499.8" y="106" font-size="8" fill="#666">slot</text>
<rect x="453.8" y="112" width="12" height="12" fill="#0277bd" rx="2" />
<path d="M10.817 8.664H3.642a.613.613 0 0 1-.457-.19.647.647 0 0 1-.185-.47c0-.187.062-.343.185-.47a.613.613 0 0 1 .457-.19h7.175l-3.146-3.23a.613.613 0 0 1-.185-.462.668.668 0 0 1 .65-.651.58.58 0 0 1 .45.189l4.237 4.353c.065.066.11.137.137.214a.75.75 0 0 1 .04.247.75.75 0 0 1-.04.248.581.581 0 0 1-.137.214l-4.237 4.353a.59.59 0 0 1-.442.181.645.645 0 0 1-.457-.181.65.65 0 0 1-.193-.47.65.65 0 0 1 .193-.47l3.13-3.215Z" fill="#fff" transform="translate(454.8,113) scale(0.625)" />
<text x="499.8" y="122" font-size="8" fill="#666">projected content (light DOM)</text>
<rect x="453.8" y="128" width="28" height="12" fill="#fafafa" stroke="#bdbdbd" stroke-width="1" rx="3" />
<text x="455.8" y="137" font-size="7" fill="#424242" font-weight="bold">&lt;tag&gt;</text>
<text x="499.8" y="138" font-size="8" fill="#666">tag pill (id, role, aria-*, part)</text>
<text x="453.8" y="154" font-size="9" fill="#424242">part</text>
<text x="499.8" y="154" font-size="8" fill="#666">part=&quot;name&quot;  (static)</text>
<text x="453.8" y="170" font-size="9" fill="#424242">[part]</text>
<text x="499.8" y="170" font-size="8" fill="#666">[part]  (conditional)</text>
<text x="453.8" y="186" font-size="9" fill="#424242">{part}</text>
<text x="499.8" y="186" font-size="8" fill="#666">{part}  (dynamic)</text>
<text x="453.8" y="202" font-size="9" fill="#424242">[{part}]</text>
<text x="499.8" y="202" font-size="8" fill="#666">[{part}]  (conditional dynamic)</text>

</svg>
