<?xml version="1.0" encoding="utf-8"?>
<svg width="24px" height="24px" viewBox="0 0 24 24" version="1.1" xmlns="http://www.w3.org/2000/svg">
  <title>Projects</title>
  <g id="Projects" stroke="none" stroke-width="1" fill="none" fill-rule="evenodd">
    <path d="M15.2727273,14.4545455 L9.54545455,14.4545455 L9.54545455,12.8181818 L15.2727273,12.8181818 L15.2727273,14.4545455 M17.7272727,11.1818182 L9.54545455,11.1818182 L9.54545455,9.54545455 L17.7272727,9.54545455 L17.7272727,11.1818182 M17.7272727,7.90909091 L9.54545455,7.90909091 L9.54545455,6.27272727 L17.7272727,6.27272727 L17.7272727,7.90909091 M4.63636364,6.27272727 L4.63636364,19.3636364 L17.7272727,19.3636364 L17.7272727,21 L4.63636364,21 C3.73262495,21 3,20.267375 3,19.3636364 L3,6.27272727 L4.63636364,6.27272727 M19.3636364,3 C20.267375,3 21,3.73262495 21,4.63636364 L21,16.0909091 C21,16.9990909 20.2718182,17.7272727 19.3636364,17.7272727 L7.90909091,17.7272727 C7.00535223,17.7272727 6.27272727,16.9946478 6.27272727,16.0909091 L6.27272727,4.63636364 C6.27272727,3.72818182 7.00090909,3 7.90909091,3 L19.3636364,3 M7.90909091,4.63636364 L7.90909091,16.0909091 L19.3636364,16.0909091 L19.3636364,4.63636364 L7.90909091,4.63636364 Z" id="Shape" style="fill: rgb(255, 255, 255);"/>
  </g>
</svg>