<?xml version="1.0" encoding="UTF-8"?>
<svg xmlns="http://www.w3.org/2000/svg"
     viewBox="0 0 1538 952"
     width="1538" height="952"
     font-family="monospace, Consolas">
  <style>
    text { dominant-baseline: auto; }
  </style>
  <rect x="10" y="10" width="1261" height="932" fill="#ffffff" stroke="#424242" stroke-width="1" rx="4" />
<rect x="20" y="4" width="91" height="12" fill="#ffffff" stroke="#424242" stroke-width="1" rx="3" />
<text x="24" y="13" font-size="9" fill="#212121" font-weight="normal"><tspan>&lt;</tspan><tspan font-weight="bold">ch-tab-render</tspan><tspan>&gt;</tspan></text>
<rect x="12" y="26" width="1257" height="914" fill="none" stroke="#9e9e9e" stroke-width="1.5" stroke-dasharray="6 3" rx="3" />
<rect x="16" y="20" width="66" height="12" fill="#ffffff" rx="2" />
<text x="20" y="28" font-size="8" fill="#9e9e9e" font-family="monospace">#shadow-root</text>
<line x1="30" y1="50" x2="30" y2="124" stroke="#7b1fa2" stroke-width="2" stroke-opacity="0.4" stroke-linecap="round" />
<line x1="30" y1="565" x2="30" y2="639" stroke="#7b1fa2" stroke-width="2" stroke-opacity="0.4" stroke-linecap="round" />
<line x1="30" y1="857" x2="30" y2="932" stroke="#7b1fa2" stroke-width="2" stroke-opacity="0.4" stroke-linecap="round" />
<rect x="22" y="34" width="139.39999999999998" height="16" fill="#7b1fa2" rx="3" />
<path d="M5 0.5 L9.5 5 L5 9.5 L0.5 5 Z" fill="none" stroke="#ffffff" stroke-width="1.2" stroke-linecap="round" stroke-linejoin="round" transform="translate(28,37) scale(1)" />
<text x="98.69999999999999" y="45.15" font-size="9" fill="#ffffff" font-family="monospace" text-anchor="middle">when showTabListStart</text>
<rect x="34" y="57" width="426" height="67" fill="#fafafa" stroke="#bdbdbd" stroke-width="1" rx="4" />
<rect x="44" y="51" width="406" height="38" fill="#fafafa" stroke="#bdbdbd" stroke-width="1" rx="3" />
<text x="48" y="62" font-size="9" fill="#424242" font-weight="normal"><tspan>&lt;</tspan><tspan font-weight="bold">div</tspan></text>
<text x="59" y="74" font-size="9" fill="#424242" font-weight="normal">part=&quot;tab-list-start [block | inline] [start | end] {tabListPosition}&quot;</text>
<text x="48" y="86" font-size="9" fill="#424242" font-weight="normal">&gt;</text>
<rect x="44" y="99" width="202.325" height="15" fill="#fff8e1" stroke="#f57f17" stroke-width="1.5" stroke-dasharray="4 2" rx="4" />
<text x="50" y="110" font-size="9" fill="#e65100" font-weight="bold">&lt;slot name=&quot;{tabListPosition}&quot; /&gt;</text>
<rect x="22" y="136" width="1225" height="401" fill="#fafafa" stroke="#bdbdbd" stroke-width="1" rx="4" />
<rect x="32" y="130" width="434" height="62" fill="#fafafa" stroke="#bdbdbd" stroke-width="1" rx="3" />
<text x="36" y="141" font-size="9" fill="#424242" font-weight="normal"><tspan>&lt;</tspan><tspan font-weight="bold">div</tspan></text>
<text x="47" y="153" font-size="9" fill="#424242" font-weight="normal">role=&quot;tablist&quot;</text>
<text x="47" y="165" font-size="9" fill="#424242" font-weight="normal">aria-label=&quot;{accessibleName}&quot;</text>
<text x="47" y="177" font-size="9" fill="#424242" font-weight="normal">part=&quot;tab-list [block | inline] [start | end] {tabListPosition} [dragging]&quot;</text>
<text x="36" y="189" font-size="9" fill="#424242" font-weight="normal">&gt;</text>
<line x1="40" y1="218" x2="40" y2="527" stroke="#00695c" stroke-width="2" stroke-opacity="0.4" stroke-linecap="round" />
<rect x="32" y="202" width="144.8" height="16" fill="#00695c" rx="3" />
<path d="M8 14.667a5.806 5.806 0 0 1-2.342-.475 6.1 6.1 0 0 1-1.9-1.284 6.097 6.097 0 0 1-1.283-1.9A5.804 5.804 0 0 1 2 8.667a5.8 5.8 0 0 1 .475-2.342 6.099 6.099 0 0 1 1.283-1.9 6.099 6.099 0 0 1 1.9-1.283A5.805 5.805 0 0 1 8 2.667h.1L7.533 2.1a.622.622 0 0 1-.183-.458.68.68 0 0 1 .183-.475.68.68 0 0 1 .475-.209.62.62 0 0 1 .475.192L10.2 2.867a.632.632 0 0 1 .183.466.632.632 0 0 1-.183.467L8.483 5.517a.62.62 0 0 1-.475.191.68.68 0 0 1-.475-.208.68.68 0 0 1-.183-.475c0-.183.061-.336.183-.458L8.1 4H8c-1.3 0-2.403.453-3.308 1.358-.906.906-1.359 2.009-1.359 3.309 0 1.3.453 2.402 1.359 3.308.905.906 2.008 1.358 3.308 1.358 1.178 0 2.206-.383 3.083-1.15.878-.766 1.395-1.733 1.55-2.9a.68.68 0 0 1 .234-.441.687.687 0 0 1 .466-.175c.178 0 .334.055.467.166a.44.44 0 0 1 .167.417c-.156 1.544-.8 2.833-1.934 3.867C10.9 14.15 9.556 14.667 8 14.667Z" fill="#ffffff" transform="translate(38,205) scale(0.625)" />
<text x="111.4" y="213.15" font-size="9" fill="#ffffff" font-family="monospace" text-anchor="middle">for each item in model</text>
<rect x="44" y="225" width="1193" height="302" fill="#e3f2fd" stroke="#1976d2" stroke-width="1" rx="4" />
<rect x="54" y="219" width="1097" height="86" fill="#e3f2fd" stroke="#1976d2" stroke-width="1" rx="3" />
<text x="58" y="230" font-size="9" fill="#0d47a1" font-weight="normal"><tspan>&lt;</tspan><tspan font-weight="bold">button</tspan></text>
<text x="69" y="242" font-size="9" fill="#0d47a1" font-weight="normal">id=&quot;{item.id}&quot;</text>
<text x="69" y="254" font-size="9" fill="#0d47a1" font-weight="normal">role=&quot;tab&quot;</text>
<text x="69" y="266" font-size="9" fill="#0d47a1" font-weight="normal">aria-controls=&quot;panel-{item.id}&quot;</text>
<text x="69" y="278" font-size="9" fill="#0d47a1" font-weight="normal">aria-selected=&quot;{selected}&quot;</text>
<text x="69" y="290" font-size="9" fill="#0d47a1" font-weight="normal">part=&quot;{item.id} tab {tabListPosition} [block | inline] [start | end] [closable | not-closable] [selected | not-selected] [disabled] [dragging] [dragging-over-tab-list | dragging-out-of-tab-list]&quot;</text>
<text x="58" y="302" font-size="9" fill="#0d47a1" font-weight="normal">&gt;</text>
<line x1="62" y1="331" x2="62" y2="344" stroke="#7b1fa2" stroke-width="2" stroke-opacity="0.4" stroke-linecap="round" />
<line x1="62" y1="372" x2="62" y2="450" stroke="#7b1fa2" stroke-width="2" stroke-opacity="0.4" stroke-linecap="round" />
<line x1="62" y1="478" x2="62" y2="517" stroke="#7b1fa2" stroke-width="2" stroke-opacity="0.4" stroke-linecap="round" />
<rect x="54" y="315" width="171.79999999999998" height="16" fill="#7b1fa2" rx="3" />
<path d="M5 0.5 L9.5 5 L5 9.5 L0.5 5 Z" fill="none" stroke="#ffffff" stroke-width="1.2" stroke-linecap="round" stroke-linejoin="round" transform="translate(60,318) scale(1)" />
<text x="146.89999999999998" y="326.15" font-size="9" fill="#ffffff" font-family="monospace" text-anchor="middle">when startImgType === &quot;img&quot;</text>
<rect x="66" y="332" width="213" height="12" fill="#e8f5e9" stroke="#388e3c" stroke-width="1" rx="3" />
<text x="70" y="341" font-size="9" fill="#1b5e20" font-weight="normal"><tspan>&lt;</tspan><tspan font-weight="bold">img</tspan><tspan> aria-hidden=&quot;true&quot; part=&quot;img&quot;</tspan><tspan> /&gt;</tspan></text>
<rect x="54" y="356" width="117.8" height="16" fill="#7b1fa2" rx="3" />
<path d="M5 0.5 L9.5 5 L5 9.5 L0.5 5 Z" fill="none" stroke="#ffffff" stroke-width="1.2" stroke-linecap="round" stroke-linejoin="round" transform="translate(60,359) scale(1)" />
<text x="119.9" y="367.15" font-size="9" fill="#ffffff" font-family="monospace" text-anchor="middle">when showCaptions</text>
<rect x="66" y="379" width="1161" height="71" fill="#f3f0ff" stroke="#bdbdbd" stroke-width="1" rx="4" />
<rect x="76" y="373" width="1141" height="38" fill="#f3f0ff" stroke="#bdbdbd" stroke-width="1" rx="3" />
<text x="80" y="384" font-size="9" fill="#424242" font-weight="normal"><tspan>&lt;</tspan><tspan font-weight="bold">ch-textblock</tspan></text>
<text x="91" y="396" font-size="9" fill="#424242" font-weight="normal">part=&quot;{item.id} tab-caption {tabListPosition} [block | inline] [start | end] [closable | not-closable] [selected | not-selected] [disabled] [dragging] [dragging-over-tab-list | dragging-out-of-tab-list]&quot;</text>
<text x="80" y="408" font-size="9" fill="#424242" font-weight="normal">&gt;</text>
<rect x="68" y="421" width="1157" height="27" fill="none" stroke="#9e9e9e" stroke-width="1.5" stroke-dasharray="6 3" rx="3" />
<rect x="72" y="415" width="66" height="12" fill="#ffffff" rx="2" />
<text x="76" y="423" font-size="8" fill="#9e9e9e" font-family="monospace">#shadow-root</text>
<text x="78" y="438" font-size="9" fill="#888" font-style="italic">&quot;Caption text&quot;</text>
<rect x="54" y="462" width="112.39999999999999" height="16" fill="#7b1fa2" rx="3" />
<path d="M5 0.5 L9.5 5 L5 9.5 L0.5 5 Z" fill="none" stroke="#ffffff" stroke-width="1.2" stroke-linecap="round" stroke-linejoin="round" transform="translate(60,465) scale(1)" />
<text x="117.19999999999999" y="473.15" font-size="9" fill="#ffffff" font-family="monospace" text-anchor="middle">when closeButton</text>
<rect x="66" y="479" width="1003" height="38" fill="#e3f2fd" stroke="#1976d2" stroke-width="1" rx="3" />
<text x="70" y="490" font-size="9" fill="#0d47a1" font-weight="normal"><tspan>&lt;</tspan><tspan font-weight="bold">button</tspan></text>
<text x="81" y="502" font-size="9" fill="#0d47a1" font-weight="normal">part=&quot;{item.id} close-button {tabListPosition} [block | inline] [start | end] [selected | not-selected] [disabled] [dragging] [dragging-over-tab-list | dragging-out-of-tab-list]&quot;</text>
<text x="70" y="514" font-size="9" fill="#0d47a1" font-weight="normal">&gt;</text>
<rect x="22" y="549" width="128.6" height="16" fill="#7b1fa2" rx="3" />
<path d="M5 0.5 L9.5 5 L5 9.5 L0.5 5 Z" fill="none" stroke="#ffffff" stroke-width="1.2" stroke-linecap="round" stroke-linejoin="round" transform="translate(28,552) scale(1)" />
<text x="93.3" y="560.15" font-size="9" fill="#ffffff" font-family="monospace" text-anchor="middle">when showTabListEnd</text>
<rect x="34" y="572" width="415" height="67" fill="#fafafa" stroke="#bdbdbd" stroke-width="1" rx="4" />
<rect x="44" y="566" width="395" height="38" fill="#fafafa" stroke="#bdbdbd" stroke-width="1" rx="3" />
<text x="48" y="577" font-size="9" fill="#424242" font-weight="normal"><tspan>&lt;</tspan><tspan font-weight="bold">div</tspan></text>
<text x="59" y="589" font-size="9" fill="#424242" font-weight="normal">part=&quot;tab-list-end [block | inline] [start | end] {tabListPosition}&quot;</text>
<text x="48" y="601" font-size="9" fill="#424242" font-weight="normal">&gt;</text>
<rect x="44" y="614" width="202.325" height="15" fill="#fff8e1" stroke="#f57f17" stroke-width="1.5" stroke-dasharray="4 2" rx="4" />
<text x="50" y="625" font-size="9" fill="#e65100" font-weight="bold">&lt;slot name=&quot;{tabListPosition}&quot; /&gt;</text>
<rect x="22" y="651" width="690" height="178" fill="#fafafa" stroke="#bdbdbd" stroke-width="1" rx="4" />
<rect x="32" y="645" width="561" height="38" fill="#fafafa" stroke="#bdbdbd" stroke-width="1" rx="3" />
<text x="36" y="656" font-size="9" fill="#424242" font-weight="normal"><tspan>&lt;</tspan><tspan font-weight="bold">div</tspan></text>
<text x="47" y="668" font-size="9" fill="#424242" font-weight="normal">part=&quot;tab-panel-container [block | inline] [start | end] {tabListPosition} [expanded | collapsed]&quot;</text>
<text x="36" y="680" font-size="9" fill="#424242" font-weight="normal">&gt;</text>
<line x1="40" y1="709" x2="40" y2="819" stroke="#00695c" stroke-width="2" stroke-opacity="0.4" stroke-linecap="round" />
<rect x="32" y="693" width="144.8" height="16" fill="#00695c" rx="3" />
<path d="M8 14.667a5.806 5.806 0 0 1-2.342-.475 6.1 6.1 0 0 1-1.9-1.284 6.097 6.097 0 0 1-1.283-1.9A5.804 5.804 0 0 1 2 8.667a5.8 5.8 0 0 1 .475-2.342 6.099 6.099 0 0 1 1.283-1.9 6.099 6.099 0 0 1 1.9-1.283A5.805 5.805 0 0 1 8 2.667h.1L7.533 2.1a.622.622 0 0 1-.183-.458.68.68 0 0 1 .183-.475.68.68 0 0 1 .475-.209.62.62 0 0 1 .475.192L10.2 2.867a.632.632 0 0 1 .183.466.632.632 0 0 1-.183.467L8.483 5.517a.62.62 0 0 1-.475.191.68.68 0 0 1-.475-.208.68.68 0 0 1-.183-.475c0-.183.061-.336.183-.458L8.1 4H8c-1.3 0-2.403.453-3.308 1.358-.906.906-1.359 2.009-1.359 3.309 0 1.3.453 2.402 1.359 3.308.905.906 2.008 1.358 3.308 1.358 1.178 0 2.206-.383 3.083-1.15.878-.766 1.395-1.733 1.55-2.9a.68.68 0 0 1 .234-.441.687.687 0 0 1 .466-.175c.178 0 .334.055.467.166a.44.44 0 0 1 .167.417c-.156 1.544-.8 2.833-1.934 3.867C10.9 14.15 9.556 14.667 8 14.667Z" fill="#ffffff" transform="translate(38,696) scale(0.625)" />
<text x="111.4" y="704.15" font-size="9" fill="#ffffff" font-family="monospace" text-anchor="middle">for each item in model</text>
<rect x="44" y="716" width="658" height="103" fill="#f3f0ff" stroke="#bdbdbd" stroke-width="1" rx="4" />
<rect x="54" y="710" width="638" height="74" fill="#f3f0ff" stroke="#bdbdbd" stroke-width="1" rx="3" />
<text x="58" y="721" font-size="9" fill="#424242" font-weight="normal"><tspan>&lt;</tspan><tspan font-weight="bold">div</tspan></text>
<text x="69" y="733" font-size="9" fill="#424242" font-weight="normal">id=&quot;panel-{item.id}&quot;</text>
<text x="69" y="745" font-size="9" fill="#424242" font-weight="normal">role=&quot;tabpanel&quot;</text>
<text x="69" y="757" font-size="9" fill="#424242" font-weight="normal">aria-labelledby=&quot;{item.id}&quot;</text>
<text x="69" y="769" font-size="9" fill="#424242" font-weight="normal">part=&quot;{item.id} tab-panel {tabListPosition} [block | inline] [start | end] [selected | not-selected] [disabled]&quot;</text>
<text x="58" y="781" font-size="9" fill="#424242" font-weight="normal">&gt;</text>
<rect x="54" y="794" width="158.125" height="15" fill="#fff8e1" stroke="#f57f17" stroke-width="1.5" stroke-dasharray="4 2" rx="4" />
<text x="60" y="805" font-size="9" fill="#e65100" font-weight="bold">&lt;slot name=&quot;{item.id}&quot; /&gt;</text>
<rect x="22" y="841" width="96.2" height="16" fill="#7b1fa2" rx="3" />
<path d="M5 0.5 L9.5 5 L5 9.5 L0.5 5 Z" fill="none" stroke="#ffffff" stroke-width="1.2" stroke-linecap="round" stroke-linejoin="round" transform="translate(28,844) scale(1)" />
<text x="77.1" y="852.15" font-size="9" fill="#ffffff" font-family="monospace" text-anchor="middle">when dragging</text>
<rect x="34" y="864" width="1006" height="68" fill="#e3f2fd" stroke="#1976d2" stroke-width="1" rx="4" />
<rect x="44" y="858" width="986" height="38" fill="#e3f2fd" stroke="#1976d2" stroke-width="1" rx="3" />
<text x="48" y="869" font-size="9" fill="#0d47a1" font-weight="normal"><tspan>&lt;</tspan><tspan font-weight="bold">button</tspan></text>
<text x="59" y="881" font-size="9" fill="#0d47a1" font-weight="normal">part=&quot;{item.id} tab dragging [block | inline] [start | end] [dragging-over-tab-list | dragging-out-of-tab-list] [closable | not-closable] [selected | not-selected] [disabled]&quot;</text>
<text x="48" y="893" font-size="9" fill="#0d47a1" font-weight="normal">&gt;</text>
<rect x="44" y="906" width="244.2" height="16" fill="#546e7a" rx="3" />
<text x="166.1" y="917.15" font-size="9" fill="#ffffff" font-family="monospace" text-anchor="middle">Drag preview (same structure as tab button)</text>
<rect x="1297" y="10" width="231" height="206" fill="none" stroke="#bdbdbd" stroke-width="1" rx="4" />
<text x="1307" y="24" font-size="10" fill="#424242" font-weight="bold">Legend</text>
<line x1="1307" y1="38" x2="1331" y2="38" stroke="#9e9e9e" stroke-width="1.5" stroke-dasharray="4 2" />
<text x="1353" y="42" font-size="8" fill="#666">#shadow-root</text>
<rect x="1307" y="48" width="12" height="12" fill="#7b1fa2" rx="2" />
<path d="M5 0.5 L9.5 5 L5 9.5 L0.5 5 Z" fill="none" stroke="#fff" stroke-width="1.2" stroke-linecap="round" stroke-linejoin="round" transform="translate(1308,49) scale(1)" />
<text x="1353" y="58" font-size="8" fill="#666">condition (when / else)</text>
<rect x="1307" y="64" width="12" height="12" fill="#00695c" rx="2" />
<path d="M8 14.667a5.806 5.806 0 0 1-2.342-.475 6.1 6.1 0 0 1-1.9-1.284 6.097 6.097 0 0 1-1.283-1.9A5.804 5.804 0 0 1 2 8.667a5.8 5.8 0 0 1 .475-2.342 6.099 6.099 0 0 1 1.283-1.9 6.099 6.099 0 0 1 1.9-1.283A5.805 5.805 0 0 1 8 2.667h.1L7.533 2.1a.622.622 0 0 1-.183-.458.68.68 0 0 1 .183-.475.68.68 0 0 1 .475-.209.62.62 0 0 1 .475.192L10.2 2.867a.632.632 0 0 1 .183.466.632.632 0 0 1-.183.467L8.483 5.517a.62.62 0 0 1-.475.191.68.68 0 0 1-.475-.208.68.68 0 0 1-.183-.475c0-.183.061-.336.183-.458L8.1 4H8c-1.3 0-2.403.453-3.308 1.358-.906.906-1.359 2.009-1.359 3.309 0 1.3.453 2.402 1.359 3.308.905.906 2.008 1.358 3.308 1.358 1.178 0 2.206-.383 3.083-1.15.878-.766 1.395-1.733 1.55-2.9a.68.68 0 0 1 .234-.441.687.687 0 0 1 .466-.175c.178 0 .334.055.467.166a.44.44 0 0 1 .167.417c-.156 1.544-.8 2.833-1.934 3.867C10.9 14.15 9.556 14.667 8 14.667Z" fill="#fff" transform="translate(1308,65) scale(0.625)" />
<text x="1353" y="74" font-size="8" fill="#666">iteration (for each)</text>
<rect x="1307" y="80" width="12" height="12" fill="#546e7a" rx="2" />
<text x="1353" y="90" font-size="8" fill="#666">descriptive comment</text>
<rect x="1307" y="96" width="20" height="12" fill="#fff8e1" stroke="#f57f17" stroke-width="1" stroke-dasharray="3 1.5" rx="2" />
<text x="1353" y="106" font-size="8" fill="#666">slot</text>
<rect x="1307" y="112" width="12" height="12" fill="#0277bd" rx="2" />
<path d="M10.817 8.664H3.642a.613.613 0 0 1-.457-.19.647.647 0 0 1-.185-.47c0-.187.062-.343.185-.47a.613.613 0 0 1 .457-.19h7.175l-3.146-3.23a.613.613 0 0 1-.185-.462.668.668 0 0 1 .65-.651.58.58 0 0 1 .45.189l4.237 4.353c.065.066.11.137.137.214a.75.75 0 0 1 .04.247.75.75 0 0 1-.04.248.581.581 0 0 1-.137.214l-4.237 4.353a.59.59 0 0 1-.442.181.645.645 0 0 1-.457-.181.65.65 0 0 1-.193-.47.65.65 0 0 1 .193-.47l3.13-3.215Z" fill="#fff" transform="translate(1308,113) scale(0.625)" />
<text x="1353" y="122" font-size="8" fill="#666">projected content (light DOM)</text>
<rect x="1307" y="128" width="28" height="12" fill="#fafafa" stroke="#bdbdbd" stroke-width="1" rx="3" />
<text x="1309" y="137" font-size="7" fill="#424242" font-weight="bold">&lt;tag&gt;</text>
<text x="1353" y="138" font-size="8" fill="#666">tag pill (id, role, aria-*, part)</text>
<text x="1307" y="154" font-size="9" fill="#424242">part</text>
<text x="1353" y="154" font-size="8" fill="#666">part=&quot;name&quot;  (static)</text>
<text x="1307" y="170" font-size="9" fill="#424242">[part]</text>
<text x="1353" y="170" font-size="8" fill="#666">[part]  (conditional)</text>
<text x="1307" y="186" font-size="9" fill="#424242">{part}</text>
<text x="1353" y="186" font-size="8" fill="#666">{part}  (dynamic)</text>
<text x="1307" y="202" font-size="9" fill="#424242">[{part}]</text>
<text x="1353" y="202" font-size="8" fill="#666">[{part}]  (conditional dynamic)</text>

</svg>
