<?xml version="1.0" encoding="UTF-8"?>
<svg xmlns="http://www.w3.org/2000/svg"
     viewBox="0 0 736 1214"
     width="736" height="1214"
     font-family="monospace, Consolas">
  <style>
    text { dominant-baseline: auto; }
  </style>
  <rect x="10" y="10" width="459" height="1194" fill="#ffffff" stroke="#424242" stroke-width="1" rx="4" />
<rect x="20" y="4" width="125" height="12" fill="#ffffff" stroke="#424242" stroke-width="1" rx="3" />
<text x="24" y="13" font-size="9" fill="#212121" font-weight="normal"><tspan>&lt;</tspan><tspan font-weight="bold">ch-paginator-render</tspan><tspan>&gt;</tspan></text>
<rect x="12" y="26" width="455" height="1176" fill="none" stroke="#9e9e9e" stroke-width="1.5" stroke-dasharray="6 3" rx="3" />
<rect x="16" y="20" width="66" height="12" fill="#ffffff" rx="2" />
<text x="20" y="28" font-size="8" fill="#9e9e9e" font-family="monospace">#shadow-root</text>
<line x1="30" y1="50" x2="30" y2="416" stroke="#546e7a" stroke-width="2" stroke-opacity="0.4" stroke-linecap="round" />
<line x1="30" y1="438" x2="30" y2="514" stroke="#546e7a" stroke-width="2" stroke-opacity="0.4" stroke-linecap="round" />
<line x1="30" y1="536" x2="30" y2="549" stroke="#546e7a" stroke-width="2" stroke-opacity="0.4" stroke-linecap="round" />
<line x1="30" y1="571" x2="30" y2="584" stroke="#546e7a" stroke-width="2" stroke-opacity="0.4" stroke-linecap="round" />
<line x1="30" y1="606" x2="30" y2="861" stroke="#546e7a" stroke-width="2" stroke-opacity="0.4" stroke-linecap="round" />
<line x1="30" y1="883" x2="30" y2="896" stroke="#546e7a" stroke-width="2" stroke-opacity="0.4" stroke-linecap="round" />
<line x1="30" y1="918" x2="30" y2="931" stroke="#546e7a" stroke-width="2" stroke-opacity="0.4" stroke-linecap="round" />
<line x1="30" y1="953" x2="30" y2="1029" stroke="#546e7a" stroke-width="2" stroke-opacity="0.4" stroke-linecap="round" />
<line x1="30" y1="1051" x2="30" y2="1194" stroke="#546e7a" stroke-width="2" stroke-opacity="0.4" stroke-linecap="round" />
<rect x="22" y="34" width="130.8" height="16" fill="#546e7a" rx="3" />
<text x="87.4" y="45.15" font-size="9" fill="#ffffff" font-family="monospace" text-anchor="middle">items-per-page control</text>
<rect x="34" y="57" width="423" height="359" fill="#fafafa" stroke="#bdbdbd" stroke-width="1" rx="4" />
<rect x="44" y="51" width="163" height="12" fill="#fafafa" stroke="#bdbdbd" stroke-width="1" rx="3" />
<text x="48" y="60" font-size="9" fill="#424242" font-weight="normal"><tspan>&lt;</tspan><tspan font-weight="bold">form</tspan><tspan> part=&quot;items-per-page&quot;</tspan><tspan>&gt;</tspan></text>
<rect x="44" y="79" width="227" height="37" fill="#f3f0ff" stroke="#bdbdbd" stroke-width="1" rx="4" />
<rect x="54" y="73" width="207" height="12" fill="#f3f0ff" stroke="#bdbdbd" stroke-width="1" rx="3" />
<text x="58" y="82" font-size="9" fill="#424242" font-weight="normal"><tspan>&lt;</tspan><tspan font-weight="bold">label</tspan><tspan> part=&quot;items-per-page__label&quot;</tspan><tspan>&gt;</tspan></text>
<text x="54" y="104" font-size="9" fill="#888" font-style="italic">&quot;Items per page&quot;</text>
<rect x="44" y="128" width="403" height="278" fill="#f3f0ff" stroke="#bdbdbd" stroke-width="1" rx="4" />
<rect x="54" y="122" width="307" height="12" fill="#f3f0ff" stroke="#bdbdbd" stroke-width="1" rx="3" />
<text x="58" y="131" font-size="9" fill="#424242" font-weight="normal"><tspan>&lt;</tspan><tspan font-weight="bold">ch-combo-box-render</tspan><tspan> part=&quot;items-per-page__combo-box&quot;</tspan><tspan>&gt;</tspan></text>
<rect x="46" y="144" width="399" height="260" fill="none" stroke="#9e9e9e" stroke-width="1.5" stroke-dasharray="6 3" rx="3" />
<rect x="50" y="138" width="66" height="12" fill="#ffffff" rx="2" />
<text x="54" y="146" font-size="8" fill="#9e9e9e" font-family="monospace">#shadow-root</text>
<rect x="56" y="152" width="42" height="12" fill="#f0f7f4" stroke="#bdbdbd" stroke-width="1" rx="3" />
<text x="60" y="161" font-size="9" fill="#424242" font-weight="normal"><tspan>&lt;</tspan><tspan font-weight="bold">span</tspan><tspan>&gt;</tspan></text>
<rect x="56" y="176" width="145" height="38" fill="#f0f7f4" stroke="#bdbdbd" stroke-width="1" rx="4" />
<rect x="66" y="170" width="125" height="12" fill="#f0f7f4" stroke="#bdbdbd" stroke-width="1" rx="3" />
<text x="70" y="179" font-size="9" fill="#424242" font-weight="normal"><tspan>&lt;</tspan><tspan font-weight="bold">div</tspan><tspan> role=&quot;combobox&quot;</tspan><tspan>&gt;</tspan></text>
<rect x="66" y="192" width="58" height="12" fill="#e3f2fd" stroke="#1976d2" stroke-width="1" rx="3" />
<text x="70" y="201" font-size="9" fill="#0d47a1" font-weight="normal"><tspan>&lt;</tspan><tspan font-weight="bold">input</tspan><tspan> /&gt;</tspan></text>
<rect x="56" y="226" width="379" height="170" fill="#f0f7f4" stroke="#bdbdbd" stroke-width="1" rx="4" />
<rect x="66" y="220" width="235" height="12" fill="#f0f7f4" stroke="#bdbdbd" stroke-width="1" rx="3" />
<text x="70" y="229" font-size="9" fill="#424242" font-weight="normal"><tspan>&lt;</tspan><tspan font-weight="bold">ch-popover</tspan><tspan> role=&quot;listbox&quot; part=&quot;window&quot;</tspan><tspan>&gt;</tspan></text>
<rect x="58" y="242" width="375" height="26" fill="none" stroke="#9e9e9e" stroke-width="1.5" stroke-dasharray="6 3" rx="3" />
<rect x="62" y="236" width="66" height="12" fill="#ffffff" rx="2" />
<text x="66" y="244" font-size="8" fill="#9e9e9e" font-family="monospace">#shadow-root</text>
<rect x="66" y="271" width="182.6" height="16" fill="#0277bd" rx="3" />
<path d="M10.817 8.664H3.642a.613.613 0 0 1-.457-.19.647.647 0 0 1-.185-.47c0-.187.062-.343.185-.47a.613.613 0 0 1 .457-.19h7.175l-3.146-3.23a.613.613 0 0 1-.185-.462.668.668 0 0 1 .65-.651.58.58 0 0 1 .45.189l4.237 4.353c.065.066.11.137.137.214a.75.75 0 0 1 .04.247.75.75 0 0 1-.04.248.581.581 0 0 1-.137.214l-4.237 4.353a.59.59 0 0 1-.442.181.645.645 0 0 1-.457-.181.65.65 0 0 1-.193-.47.65.65 0 0 1 .193-.47l3.13-3.215Z" fill="#ffffff" transform="translate(72,274) scale(0.625)" />
<text x="164.3" y="282.15" font-size="9" fill="#ffffff" font-family="monospace" text-anchor="middle">projected content (light DOM)</text>
<line x1="74" y1="304" x2="74" y2="386" stroke="#00695c" stroke-width="2" stroke-opacity="0.4" stroke-linecap="round" />
<rect x="68" y="250" width="64.19999999999999" height="15" fill="#fff8e1" stroke="#f57f17" stroke-width="1.5" stroke-dasharray="4 2" rx="4" />
<text x="74" y="261" font-size="9" fill="#e65100" font-weight="bold">&lt;slot /&gt;</text>
<rect x="66" y="288" width="144.8" height="16" fill="#00695c" rx="3" />
<path d="M8 14.667a5.806 5.806 0 0 1-2.342-.475 6.1 6.1 0 0 1-1.9-1.284 6.097 6.097 0 0 1-1.283-1.9A5.804 5.804 0 0 1 2 8.667a5.8 5.8 0 0 1 .475-2.342 6.099 6.099 0 0 1 1.283-1.9 6.099 6.099 0 0 1 1.9-1.283A5.805 5.805 0 0 1 8 2.667h.1L7.533 2.1a.622.622 0 0 1-.183-.458.68.68 0 0 1 .183-.475.68.68 0 0 1 .475-.209.62.62 0 0 1 .475.192L10.2 2.867a.632.632 0 0 1 .183.466.632.632 0 0 1-.183.467L8.483 5.517a.62.62 0 0 1-.475.191.68.68 0 0 1-.475-.208.68.68 0 0 1-.183-.475c0-.183.061-.336.183-.458L8.1 4H8c-1.3 0-2.403.453-3.308 1.358-.906.906-1.359 2.009-1.359 3.309 0 1.3.453 2.402 1.359 3.308.905.906 2.008 1.358 3.308 1.358 1.178 0 2.206-.383 3.083-1.15.878-.766 1.395-1.733 1.55-2.9a.68.68 0 0 1 .234-.441.687.687 0 0 1 .466-.175c.178 0 .334.055.467.166a.44.44 0 0 1 .167.417c-.156 1.544-.8 2.833-1.934 3.867C10.9 14.15 9.556 14.667 8 14.667Z" fill="#ffffff" transform="translate(72,291) scale(0.625)" />
<text x="145.4" y="299.15" font-size="9" fill="#ffffff" font-family="monospace" text-anchor="middle">for each item in model</text>
<rect x="78" y="311" width="343" height="75" fill="#e3f2fd" stroke="#1976d2" stroke-width="1" rx="4" />
<rect x="88" y="305" width="323" height="50" fill="#e3f2fd" stroke="#1976d2" stroke-width="1" rx="3" />
<text x="92" y="316" font-size="9" fill="#0d47a1" font-weight="normal"><tspan>&lt;</tspan><tspan font-weight="bold">button</tspan></text>
<text x="103" y="328" font-size="9" fill="#0d47a1" font-weight="normal">role=&quot;option&quot;</text>
<text x="103" y="340" font-size="9" fill="#0d47a1" font-weight="normal">part=&quot;{item.value} item [nested] [disabled] [selected]&quot;</text>
<text x="92" y="352" font-size="9" fill="#0d47a1" font-weight="normal">&gt;</text>
<text x="88" y="374" font-size="9" fill="#888" font-style="italic">&quot;Caption text&quot;</text>
<rect x="22" y="422" width="157.79999999999998" height="16" fill="#546e7a" rx="3" />
<text x="100.89999999999999" y="433.15" font-size="9" fill="#ffffff" font-family="monospace" text-anchor="middle">items-per-page-info control</text>
<rect x="34" y="445" width="264" height="69" fill="#fafafa" stroke="#bdbdbd" stroke-width="1" rx="4" />
<rect x="44" y="439" width="185" height="12" fill="#fafafa" stroke="#bdbdbd" stroke-width="1" rx="3" />
<text x="48" y="448" font-size="9" fill="#424242" font-weight="normal"><tspan>&lt;</tspan><tspan font-weight="bold">div</tspan><tspan> part=&quot;items-per-page-info&quot;</tspan><tspan>&gt;</tspan></text>
<rect x="44" y="467" width="244" height="37" fill="#f3f0ff" stroke="#bdbdbd" stroke-width="1" rx="4" />
<rect x="54" y="461" width="224" height="12" fill="#f3f0ff" stroke="#bdbdbd" stroke-width="1" rx="3" />
<text x="58" y="470" font-size="9" fill="#424242" font-weight="normal"><tspan>&lt;</tspan><tspan font-weight="bold">span</tspan><tspan> part=&quot;items-per-page-info__text&quot;</tspan><tspan>&gt;</tspan></text>
<text x="54" y="492" font-size="9" fill="#888" font-style="italic">&quot;Showing 1-10 of 100&quot;</text>
<rect x="22" y="520" width="76.8" height="16" fill="#546e7a" rx="3" />
<text x="60.4" y="531.15" font-size="9" fill="#ffffff" font-family="monospace" text-anchor="middle">first button</text>
<rect x="34" y="537" width="229" height="12" fill="#e3f2fd" stroke="#1976d2" stroke-width="1" rx="3" />
<text x="38" y="546" font-size="9" fill="#0d47a1" font-weight="normal"><tspan>&lt;</tspan><tspan font-weight="bold">button</tspan><tspan> part=&quot;first__button [disabled]&quot;</tspan><tspan>&gt;</tspan></text>
<rect x="22" y="555" width="71.4" height="16" fill="#546e7a" rx="3" />
<text x="57.7" y="566.15" font-size="9" fill="#ffffff" font-family="monospace" text-anchor="middle">prev button</text>
<rect x="34" y="572" width="224" height="12" fill="#e3f2fd" stroke="#1976d2" stroke-width="1" rx="3" />
<text x="38" y="581" font-size="9" fill="#0d47a1" font-weight="normal"><tspan>&lt;</tspan><tspan font-weight="bold">button</tspan><tspan> part=&quot;prev__button [disabled]&quot;</tspan><tspan>&gt;</tspan></text>
<rect x="22" y="590" width="98.39999999999999" height="16" fill="#546e7a" rx="3" />
<text x="71.19999999999999" y="601.15" font-size="9" fill="#ffffff" font-family="monospace" text-anchor="middle">pages navigation</text>
<rect x="34" y="613" width="355" height="248" fill="#fafafa" stroke="#bdbdbd" stroke-width="1" rx="4" />
<rect x="44" y="607" width="108" height="12" fill="#fafafa" stroke="#bdbdbd" stroke-width="1" rx="3" />
<text x="48" y="616" font-size="9" fill="#424242" font-weight="normal"><tspan>&lt;</tspan><tspan font-weight="bold">nav</tspan><tspan> part=&quot;pages&quot;</tspan><tspan>&gt;</tspan></text>
<rect x="44" y="635" width="335" height="216" fill="#f3f0ff" stroke="#bdbdbd" stroke-width="1" rx="4" />
<rect x="54" y="629" width="31" height="12" fill="#f3f0ff" stroke="#bdbdbd" stroke-width="1" rx="3" />
<text x="58" y="638" font-size="9" fill="#424242" font-weight="normal"><tspan>&lt;</tspan><tspan font-weight="bold">ol</tspan><tspan>&gt;</tspan></text>
<line x1="62" y1="667" x2="62" y2="743" stroke="#00695c" stroke-width="2" stroke-opacity="0.4" stroke-linecap="round" />
<line x1="62" y1="765" x2="62" y2="841" stroke="#546e7a" stroke-width="2" stroke-opacity="0.4" stroke-linecap="round" />
<rect x="54" y="651" width="171.79999999999998" height="16" fill="#00695c" rx="3" />
<path d="M8 14.667a5.806 5.806 0 0 1-2.342-.475 6.1 6.1 0 0 1-1.9-1.284 6.097 6.097 0 0 1-1.283-1.9A5.804 5.804 0 0 1 2 8.667a5.8 5.8 0 0 1 .475-2.342 6.099 6.099 0 0 1 1.283-1.9 6.099 6.099 0 0 1 1.9-1.283A5.805 5.805 0 0 1 8 2.667h.1L7.533 2.1a.622.622 0 0 1-.183-.458.68.68 0 0 1 .183-.475.68.68 0 0 1 .475-.209.62.62 0 0 1 .475.192L10.2 2.867a.632.632 0 0 1 .183.466.632.632 0 0 1-.183.467L8.483 5.517a.62.62 0 0 1-.475.191.68.68 0 0 1-.475-.208.68.68 0 0 1-.183-.475c0-.183.061-.336.183-.458L8.1 4H8c-1.3 0-2.403.453-3.308 1.358-.906.906-1.359 2.009-1.359 3.309 0 1.3.453 2.402 1.359 3.308.905.906 2.008 1.358 3.308 1.358 1.178 0 2.206-.383 3.083-1.15.878-.766 1.395-1.733 1.55-2.9a.68.68 0 0 1 .234-.441.687.687 0 0 1 .466-.175c.178 0 .334.055.467.166a.44.44 0 0 1 .167.417c-.156 1.544-.8 2.833-1.934 3.867C10.9 14.15 9.556 14.667 8 14.667Z" fill="#ffffff" transform="translate(60,654) scale(0.625)" />
<text x="146.89999999999998" y="662.15" font-size="9" fill="#ffffff" font-family="monospace" text-anchor="middle">for each page in pagesRange</text>
<rect x="66" y="674" width="303" height="69" fill="#f0f7f4" stroke="#bdbdbd" stroke-width="1" rx="4" />
<rect x="76" y="668" width="31" height="12" fill="#f0f7f4" stroke="#bdbdbd" stroke-width="1" rx="3" />
<text x="80" y="677" font-size="9" fill="#424242" font-weight="normal"><tspan>&lt;</tspan><tspan font-weight="bold">li</tspan><tspan>&gt;</tspan></text>
<rect x="76" y="696" width="283" height="37" fill="#e3f2fd" stroke="#1976d2" stroke-width="1" rx="4" />
<rect x="86" y="690" width="263" height="12" fill="#e3f2fd" stroke="#1976d2" stroke-width="1" rx="3" />
<text x="90" y="699" font-size="9" fill="#0d47a1" font-weight="normal"><tspan>&lt;</tspan><tspan font-weight="bold">button</tspan><tspan> part=&quot;page [selected | not-selected]&quot;</tspan><tspan>&gt;</tspan></text>
<text x="86" y="721" font-size="9" fill="#888" font-style="italic">&quot;1&quot;</text>
<rect x="54" y="749" width="55.199999999999996" height="16" fill="#546e7a" rx="3" />
<text x="81.6" y="760.15" font-size="9" fill="#ffffff" font-family="monospace" text-anchor="middle">Ellipsis</text>
<rect x="66" y="772" width="198" height="69" fill="#f0f7f4" stroke="#bdbdbd" stroke-width="1" rx="4" />
<rect x="76" y="766" width="31" height="12" fill="#f0f7f4" stroke="#bdbdbd" stroke-width="1" rx="3" />
<text x="80" y="775" font-size="9" fill="#424242" font-weight="normal"><tspan>&lt;</tspan><tspan font-weight="bold">li</tspan><tspan>&gt;</tspan></text>
<rect x="76" y="794" width="178" height="37" fill="#fff8f0" stroke="#bdbdbd" stroke-width="1" rx="4" />
<rect x="86" y="788" width="158" height="12" fill="#fff8f0" stroke="#bdbdbd" stroke-width="1" rx="3" />
<text x="90" y="797" font-size="9" fill="#424242" font-weight="normal"><tspan>&lt;</tspan><tspan font-weight="bold">span</tspan><tspan> part=&quot;page ellipsis&quot;</tspan><tspan>&gt;</tspan></text>
<text x="86" y="819" font-size="9" fill="#888" font-style="italic">&quot;...&quot;</text>
<rect x="22" y="867" width="71.4" height="16" fill="#546e7a" rx="3" />
<text x="57.7" y="878.15" font-size="9" fill="#ffffff" font-family="monospace" text-anchor="middle">next button</text>
<rect x="34" y="884" width="224" height="12" fill="#e3f2fd" stroke="#1976d2" stroke-width="1" rx="3" />
<text x="38" y="893" font-size="9" fill="#0d47a1" font-weight="normal"><tspan>&lt;</tspan><tspan font-weight="bold">button</tspan><tspan> part=&quot;next__button [disabled]&quot;</tspan><tspan>&gt;</tspan></text>
<rect x="22" y="902" width="71.4" height="16" fill="#546e7a" rx="3" />
<text x="57.7" y="913.15" font-size="9" fill="#ffffff" font-family="monospace" text-anchor="middle">last button</text>
<rect x="34" y="919" width="224" height="12" fill="#e3f2fd" stroke="#1976d2" stroke-width="1" rx="3" />
<text x="38" y="928" font-size="9" fill="#0d47a1" font-weight="normal"><tspan>&lt;</tspan><tspan font-weight="bold">button</tspan><tspan> part=&quot;last__button [disabled]&quot;</tspan><tspan>&gt;</tspan></text>
<rect x="22" y="937" width="136.2" height="16" fill="#546e7a" rx="3" />
<text x="90.1" y="948.15" font-size="9" fill="#ffffff" font-family="monospace" text-anchor="middle">navigation-info control</text>
<rect x="34" y="960" width="242" height="69" fill="#fafafa" stroke="#bdbdbd" stroke-width="1" rx="4" />
<rect x="44" y="954" width="163" height="12" fill="#fafafa" stroke="#bdbdbd" stroke-width="1" rx="3" />
<text x="48" y="963" font-size="9" fill="#424242" font-weight="normal"><tspan>&lt;</tspan><tspan font-weight="bold">div</tspan><tspan> part=&quot;navigation-info&quot;</tspan><tspan>&gt;</tspan></text>
<rect x="44" y="982" width="222" height="37" fill="#f3f0ff" stroke="#bdbdbd" stroke-width="1" rx="4" />
<rect x="54" y="976" width="202" height="12" fill="#f3f0ff" stroke="#bdbdbd" stroke-width="1" rx="3" />
<text x="58" y="985" font-size="9" fill="#424242" font-weight="normal"><tspan>&lt;</tspan><tspan font-weight="bold">span</tspan><tspan> part=&quot;navigation-info__text&quot;</tspan><tspan>&gt;</tspan></text>
<text x="54" y="1007" font-size="9" fill="#888" font-style="italic">&quot;Page 1 of 10&quot;</text>
<rect x="22" y="1035" width="82.2" height="16" fill="#546e7a" rx="3" />
<text x="63.1" y="1046.15" font-size="9" fill="#ffffff" font-family="monospace" text-anchor="middle">go-to control</text>
<rect x="34" y="1058" width="266" height="136" fill="#fafafa" stroke="#bdbdbd" stroke-width="1" rx="4" />
<rect x="44" y="1052" width="108" height="12" fill="#fafafa" stroke="#bdbdbd" stroke-width="1" rx="3" />
<text x="48" y="1061" font-size="9" fill="#424242" font-weight="normal"><tspan>&lt;</tspan><tspan font-weight="bold">div</tspan><tspan> part=&quot;go-to&quot;</tspan><tspan>&gt;</tspan></text>
<rect x="44" y="1080" width="178" height="37" fill="#f3f0ff" stroke="#bdbdbd" stroke-width="1" rx="4" />
<rect x="54" y="1074" width="158" height="12" fill="#f3f0ff" stroke="#bdbdbd" stroke-width="1" rx="3" />
<text x="58" y="1083" font-size="9" fill="#424242" font-weight="normal"><tspan>&lt;</tspan><tspan font-weight="bold">label</tspan><tspan> part=&quot;go-to__label&quot;</tspan><tspan>&gt;</tspan></text>
<text x="54" y="1105" font-size="9" fill="#888" font-style="italic">&quot;Go to&quot;</text>
<rect x="44" y="1123" width="246" height="12" fill="#e3f2fd" stroke="#1976d2" stroke-width="1" rx="3" />
<text x="48" y="1132" font-size="9" fill="#0d47a1" font-weight="normal"><tspan>&lt;</tspan><tspan font-weight="bold">input</tspan><tspan> part=&quot;go-to__input&quot; type=&quot;number&quot;</tspan><tspan> /&gt;</tspan></text>
<rect x="44" y="1147" width="65.5" height="37" fill="#f3f0ff" stroke="#bdbdbd" stroke-width="1" rx="4" />
<rect x="54" y="1141" width="42" height="12" fill="#f3f0ff" stroke="#bdbdbd" stroke-width="1" rx="3" />
<text x="58" y="1150" font-size="9" fill="#424242" font-weight="normal"><tspan>&lt;</tspan><tspan font-weight="bold">span</tspan><tspan>&gt;</tspan></text>
<text x="54" y="1172" font-size="9" fill="#888" font-style="italic">&quot;of 10&quot;</text>
<rect x="495" y="10" width="231" height="206" fill="none" stroke="#bdbdbd" stroke-width="1" rx="4" />
<text x="505" y="24" font-size="10" fill="#424242" font-weight="bold">Legend</text>
<line x1="505" y1="38" x2="529" y2="38" stroke="#9e9e9e" stroke-width="1.5" stroke-dasharray="4 2" />
<text x="551" y="42" font-size="8" fill="#666">#shadow-root</text>
<rect x="505" y="48" width="12" height="12" fill="#7b1fa2" rx="2" />
<path d="M5 0.5 L9.5 5 L5 9.5 L0.5 5 Z" fill="none" stroke="#fff" stroke-width="1.2" stroke-linecap="round" stroke-linejoin="round" transform="translate(506,49) scale(1)" />
<text x="551" y="58" font-size="8" fill="#666">condition (when / else)</text>
<rect x="505" y="64" width="12" height="12" fill="#00695c" rx="2" />
<path d="M8 14.667a5.806 5.806 0 0 1-2.342-.475 6.1 6.1 0 0 1-1.9-1.284 6.097 6.097 0 0 1-1.283-1.9A5.804 5.804 0 0 1 2 8.667a5.8 5.8 0 0 1 .475-2.342 6.099 6.099 0 0 1 1.283-1.9 6.099 6.099 0 0 1 1.9-1.283A5.805 5.805 0 0 1 8 2.667h.1L7.533 2.1a.622.622 0 0 1-.183-.458.68.68 0 0 1 .183-.475.68.68 0 0 1 .475-.209.62.62 0 0 1 .475.192L10.2 2.867a.632.632 0 0 1 .183.466.632.632 0 0 1-.183.467L8.483 5.517a.62.62 0 0 1-.475.191.68.68 0 0 1-.475-.208.68.68 0 0 1-.183-.475c0-.183.061-.336.183-.458L8.1 4H8c-1.3 0-2.403.453-3.308 1.358-.906.906-1.359 2.009-1.359 3.309 0 1.3.453 2.402 1.359 3.308.905.906 2.008 1.358 3.308 1.358 1.178 0 2.206-.383 3.083-1.15.878-.766 1.395-1.733 1.55-2.9a.68.68 0 0 1 .234-.441.687.687 0 0 1 .466-.175c.178 0 .334.055.467.166a.44.44 0 0 1 .167.417c-.156 1.544-.8 2.833-1.934 3.867C10.9 14.15 9.556 14.667 8 14.667Z" fill="#fff" transform="translate(506,65) scale(0.625)" />
<text x="551" y="74" font-size="8" fill="#666">iteration (for each)</text>
<rect x="505" y="80" width="12" height="12" fill="#546e7a" rx="2" />
<text x="551" y="90" font-size="8" fill="#666">descriptive comment</text>
<rect x="505" y="96" width="20" height="12" fill="#fff8e1" stroke="#f57f17" stroke-width="1" stroke-dasharray="3 1.5" rx="2" />
<text x="551" y="106" font-size="8" fill="#666">slot</text>
<rect x="505" y="112" width="12" height="12" fill="#0277bd" rx="2" />
<path d="M10.817 8.664H3.642a.613.613 0 0 1-.457-.19.647.647 0 0 1-.185-.47c0-.187.062-.343.185-.47a.613.613 0 0 1 .457-.19h7.175l-3.146-3.23a.613.613 0 0 1-.185-.462.668.668 0 0 1 .65-.651.58.58 0 0 1 .45.189l4.237 4.353c.065.066.11.137.137.214a.75.75 0 0 1 .04.247.75.75 0 0 1-.04.248.581.581 0 0 1-.137.214l-4.237 4.353a.59.59 0 0 1-.442.181.645.645 0 0 1-.457-.181.65.65 0 0 1-.193-.47.65.65 0 0 1 .193-.47l3.13-3.215Z" fill="#fff" transform="translate(506,113) scale(0.625)" />
<text x="551" y="122" font-size="8" fill="#666">projected content (light DOM)</text>
<rect x="505" y="128" width="28" height="12" fill="#fafafa" stroke="#bdbdbd" stroke-width="1" rx="3" />
<text x="507" y="137" font-size="7" fill="#424242" font-weight="bold">&lt;tag&gt;</text>
<text x="551" y="138" font-size="8" fill="#666">tag pill (id, role, aria-*, part)</text>
<text x="505" y="154" font-size="9" fill="#424242">part</text>
<text x="551" y="154" font-size="8" fill="#666">part=&quot;name&quot;  (static)</text>
<text x="505" y="170" font-size="9" fill="#424242">[part]</text>
<text x="551" y="170" font-size="8" fill="#666">[part]  (conditional)</text>
<text x="505" y="186" font-size="9" fill="#424242">{part}</text>
<text x="551" y="186" font-size="8" fill="#666">{part}  (dynamic)</text>
<text x="505" y="202" font-size="9" fill="#424242">[{part}]</text>
<text x="551" y="202" font-size="8" fill="#666">[{part}]  (conditional dynamic)</text>

</svg>
