<?xml version="1.0" encoding="UTF-8"?>
<svg xmlns="http://www.w3.org/2000/svg"
     viewBox="0 0 630.575 1635"
     width="630.575" height="1635"
     font-family="monospace, Consolas">
  <style>
    text { dominant-baseline: auto; }
  </style>
  <rect x="10" y="10" width="373.575" height="1615" fill="#ffffff" stroke="#424242" stroke-width="1" rx="4" />
<rect x="20" y="4" width="125" height="12" fill="#ffffff" stroke="#424242" stroke-width="1" rx="3" />
<text x="24" y="13" font-size="9" fill="#212121" font-weight="bold">&lt;ch-paginator-render&gt;</text>
<rect x="12" y="30" width="369.575" height="1590" fill="none" stroke="#9e9e9e" stroke-width="1.5" stroke-dasharray="6 3" rx="3" />
<rect x="16" y="24" width="66" height="12" fill="#ffffff" rx="2" />
<text x="20" y="32" font-size="8" fill="#9e9e9e" font-family="monospace">#shadow-root</text>
<line x1="30" y1="50" x2="30" y2="528" stroke="#546e7a" stroke-width="2" stroke-opacity="0.4" stroke-linecap="round" />
<line x1="30" y1="550" x2="30" y2="659" stroke="#546e7a" stroke-width="2" stroke-opacity="0.4" stroke-linecap="round" />
<line x1="30" y1="681" x2="30" y2="730" stroke="#546e7a" stroke-width="2" stroke-opacity="0.4" stroke-linecap="round" />
<line x1="30" y1="752" x2="30" y2="801" stroke="#546e7a" stroke-width="2" stroke-opacity="0.4" stroke-linecap="round" />
<line x1="30" y1="823" x2="30" y2="1122" stroke="#546e7a" stroke-width="2" stroke-opacity="0.4" stroke-linecap="round" />
<line x1="30" y1="1144" x2="30" y2="1193" stroke="#546e7a" stroke-width="2" stroke-opacity="0.4" stroke-linecap="round" />
<line x1="30" y1="1215" x2="30" y2="1264" stroke="#546e7a" stroke-width="2" stroke-opacity="0.4" stroke-linecap="round" />
<line x1="30" y1="1286" x2="30" y2="1395" stroke="#546e7a" stroke-width="2" stroke-opacity="0.4" stroke-linecap="round" />
<line x1="30" y1="1417" x2="30" y2="1615" stroke="#546e7a" stroke-width="2" stroke-opacity="0.4" stroke-linecap="round" />
<rect x="22" y="34" width="130.8" height="16" fill="#546e7a" rx="3" />
<text x="87.4" y="45.15" font-size="9" fill="#ffffff" font-family="monospace" text-anchor="middle">items-per-page control</text>
<rect x="34" y="57" width="337.575" height="471" fill="#fafafa" stroke="#bdbdbd" stroke-width="1" rx="4" />
<rect x="44" y="51" width="42" height="12" fill="#fafafa" stroke="#bdbdbd" stroke-width="1" rx="3" />
<text x="48" y="60" font-size="9" fill="#424242" font-weight="bold">&lt;form&gt;</text>
<text x="44" y="76" font-size="9" fill="#666">items-per-page</text>
<rect x="44" y="94" width="156.5" height="55" fill="#f3f0ff" stroke="#bdbdbd" stroke-width="1" rx="4" />
<rect x="54" y="88" width="47" height="12" fill="#f3f0ff" stroke="#bdbdbd" stroke-width="1" rx="3" />
<text x="58" y="97" font-size="9" fill="#424242" font-weight="bold">&lt;label&gt;</text>
<text x="54" y="113" font-size="9" fill="#666">items-per-page__label</text>
<text x="54" y="139" font-size="9" fill="#888" font-style="italic">&quot;Items per page&quot;</text>
<rect x="44" y="161" width="317.575" height="357" fill="#f3f0ff" stroke="#bdbdbd" stroke-width="1" rx="4" />
<rect x="54" y="155" width="125" height="12" fill="#f3f0ff" stroke="#bdbdbd" stroke-width="1" rx="3" />
<text x="58" y="164" font-size="9" fill="#424242" font-weight="bold">&lt;ch-combo-box-render&gt;</text>
<rect x="46" y="192" width="313.575" height="321" fill="none" stroke="#9e9e9e" stroke-width="1.5" stroke-dasharray="6 3" rx="3" />
<rect x="50" y="186" width="66" height="12" fill="#ffffff" rx="2" />
<text x="54" y="194" font-size="8" fill="#9e9e9e" font-family="monospace">#shadow-root</text>
<text x="54" y="180" font-size="9" fill="#666">items-per-page__combo-box</text>
<rect x="56" y="212" width="62" height="24" fill="#f0f7f4" stroke="#bdbdbd" stroke-width="1" rx="4" />
<rect x="66" y="206" width="42" height="12" fill="#f0f7f4" stroke="#bdbdbd" stroke-width="1" rx="3" />
<text x="70" y="215" font-size="9" fill="#424242" font-weight="bold">&lt;span&gt;</text>
<rect x="56" y="248" width="87" height="50" fill="#f0f7f4" stroke="#bdbdbd" stroke-width="1" rx="4" />
<rect x="66" y="242" width="36" height="12" fill="#f0f7f4" stroke="#bdbdbd" stroke-width="1" rx="3" />
<text x="70" y="251" font-size="9" fill="#424242" font-weight="bold">&lt;div&gt;</text>
<rect x="66" y="264" width="67" height="24" fill="#e3f2fd" stroke="#1976d2" stroke-width="1" rx="4" />
<rect x="76" y="258" width="47" height="12" fill="#e3f2fd" stroke="#1976d2" stroke-width="1" rx="3" />
<text x="80" y="267" font-size="9" fill="#0d47a1" font-weight="bold">&lt;input&gt;</text>
<rect x="56" y="310" width="293.575" height="198" fill="#f0f7f4" stroke="#bdbdbd" stroke-width="1" rx="4" />
<rect x="66" y="304" width="75" height="12" fill="#f0f7f4" stroke="#bdbdbd" stroke-width="1" rx="3" />
<text x="70" y="313" font-size="9" fill="#424242" font-weight="bold">&lt;ch-popover&gt;</text>
<rect x="58" y="341" width="289.575" height="48" fill="none" stroke="#9e9e9e" stroke-width="1.5" stroke-dasharray="6 3" rx="3" />
<rect x="62" y="335" width="66" height="12" fill="#ffffff" rx="2" />
<text x="66" y="343" font-size="8" fill="#9e9e9e" font-family="monospace">#shadow-root</text>
<rect x="66" y="392" width="182.6" height="16" fill="#0277bd" rx="3" />
<path d="M10.817 8.664H3.642a.613.613 0 0 1-.457-.19.647.647 0 0 1-.185-.47c0-.187.062-.343.185-.47a.613.613 0 0 1 .457-.19h7.175l-3.146-3.23a.613.613 0 0 1-.185-.462.668.668 0 0 1 .65-.651.58.58 0 0 1 .45.189l4.237 4.353c.065.066.11.137.137.214a.75.75 0 0 1 .04.247.75.75 0 0 1-.04.248.581.581 0 0 1-.137.214l-4.237 4.353a.59.59 0 0 1-.442.181.645.645 0 0 1-.457-.181.65.65 0 0 1-.193-.47.65.65 0 0 1 .193-.47l3.13-3.215Z" fill="#ffffff" transform="translate(72,395) scale(0.625)" />
<text x="164.3" y="403.15" font-size="9" fill="#ffffff" font-family="monospace" text-anchor="middle">projected content (light DOM)</text>
<text x="66" y="329" font-size="9" fill="#666">window</text>
<line x1="74" y1="425" x2="74" y2="498" stroke="#00695c" stroke-width="2" stroke-opacity="0.4" stroke-linecap="round" />
<rect x="68" y="355" width="53.15" height="31" fill="#fff8e1" stroke="#f57f17" stroke-width="1.5" stroke-dasharray="4 2" rx="4" />
<text x="74" y="374" font-size="9" fill="#e65100" font-weight="bold">&lt;slot&gt;</text>
<rect x="66" y="409" width="144.8" height="16" fill="#00695c" rx="3" />
<path d="M8 14.667a5.806 5.806 0 0 1-2.342-.475 6.1 6.1 0 0 1-1.9-1.284 6.097 6.097 0 0 1-1.283-1.9A5.804 5.804 0 0 1 2 8.667a5.8 5.8 0 0 1 .475-2.342 6.099 6.099 0 0 1 1.283-1.9 6.099 6.099 0 0 1 1.9-1.283A5.805 5.805 0 0 1 8 2.667h.1L7.533 2.1a.622.622 0 0 1-.183-.458.68.68 0 0 1 .183-.475.68.68 0 0 1 .475-.209.62.62 0 0 1 .475.192L10.2 2.867a.632.632 0 0 1 .183.466.632.632 0 0 1-.183.467L8.483 5.517a.62.62 0 0 1-.475.191.68.68 0 0 1-.475-.208.68.68 0 0 1-.183-.475c0-.183.061-.336.183-.458L8.1 4H8c-1.3 0-2.403.453-3.308 1.358-.906.906-1.359 2.009-1.359 3.309 0 1.3.453 2.402 1.359 3.308.905.906 2.008 1.358 3.308 1.358 1.178 0 2.206-.383 3.083-1.15.878-.766 1.395-1.733 1.55-2.9a.68.68 0 0 1 .234-.441.687.687 0 0 1 .466-.175c.178 0 .334.055.467.166a.44.44 0 0 1 .167.417c-.156 1.544-.8 2.833-1.934 3.867C10.9 14.15 9.556 14.667 8 14.667Z" fill="#ffffff" transform="translate(72,412) scale(0.625)" />
<text x="145.4" y="420.15" font-size="9" fill="#ffffff" font-family="monospace" text-anchor="middle">for each item in model</text>
<rect x="78" y="432" width="257.575" height="66" fill="#e3f2fd" stroke="#1976d2" stroke-width="1" rx="4" />
<rect x="88" y="426" width="53" height="12" fill="#e3f2fd" stroke="#1976d2" stroke-width="1" rx="3" />
<text x="92" y="435" font-size="9" fill="#0d47a1" font-weight="bold">&lt;button&gt;</text>
<text x="88" y="451" font-size="9" fill="#666">item</text>
<text x="88" y="462" font-size="9" fill="#666" font-style="italic">{item.value} [nested] [disabled] [selected]</text>
<text x="88" y="488" font-size="9" fill="#888" font-style="italic">&quot;Caption text&quot;</text>
<rect x="22" y="534" width="157.79999999999998" height="16" fill="#546e7a" rx="3" />
<text x="100.89999999999999" y="545.15" font-size="9" fill="#ffffff" font-family="monospace" text-anchor="middle">items-per-page-info control</text>
<rect x="34" y="557" width="202.5" height="102" fill="#fafafa" stroke="#bdbdbd" stroke-width="1" rx="4" />
<rect x="44" y="551" width="36" height="12" fill="#fafafa" stroke="#bdbdbd" stroke-width="1" rx="3" />
<text x="48" y="560" font-size="9" fill="#424242" font-weight="bold">&lt;div&gt;</text>
<text x="44" y="576" font-size="9" fill="#666">items-per-page-info</text>
<rect x="44" y="594" width="182.5" height="55" fill="#f3f0ff" stroke="#bdbdbd" stroke-width="1" rx="4" />
<rect x="54" y="588" width="42" height="12" fill="#f3f0ff" stroke="#bdbdbd" stroke-width="1" rx="3" />
<text x="58" y="597" font-size="9" fill="#424242" font-weight="bold">&lt;span&gt;</text>
<text x="54" y="613" font-size="9" fill="#666">items-per-page-info__text</text>
<text x="54" y="639" font-size="9" fill="#888" font-style="italic">&quot;Showing 1-10 of 100&quot;</text>
<rect x="22" y="665" width="76.8" height="16" fill="#546e7a" rx="3" />
<text x="60.4" y="676.15" font-size="9" fill="#ffffff" font-family="monospace" text-anchor="middle">first button</text>
<rect x="34" y="688" width="104.5" height="42" fill="#e3f2fd" stroke="#1976d2" stroke-width="1" rx="4" />
<rect x="44" y="682" width="53" height="12" fill="#e3f2fd" stroke="#1976d2" stroke-width="1" rx="3" />
<text x="48" y="691" font-size="9" fill="#0d47a1" font-weight="bold">&lt;button&gt;</text>
<text x="44" y="707" font-size="9" fill="#666">first__button</text>
<text x="44" y="718" font-size="9" fill="#666" font-style="italic">[disabled]</text>
<rect x="22" y="736" width="71.4" height="16" fill="#546e7a" rx="3" />
<text x="57.7" y="747.15" font-size="9" fill="#ffffff" font-family="monospace" text-anchor="middle">prev button</text>
<rect x="34" y="759" width="98" height="42" fill="#e3f2fd" stroke="#1976d2" stroke-width="1" rx="4" />
<rect x="44" y="753" width="53" height="12" fill="#e3f2fd" stroke="#1976d2" stroke-width="1" rx="3" />
<text x="48" y="762" font-size="9" fill="#0d47a1" font-weight="bold">&lt;button&gt;</text>
<text x="44" y="778" font-size="9" fill="#666">prev__button</text>
<text x="44" y="789" font-size="9" fill="#666" font-style="italic">[disabled]</text>
<rect x="22" y="807" width="98.39999999999999" height="16" fill="#546e7a" rx="3" />
<text x="71.19999999999999" y="818.15" font-size="9" fill="#ffffff" font-family="monospace" text-anchor="middle">pages navigation</text>
<rect x="34" y="830" width="219.075" height="292" fill="#fafafa" stroke="#bdbdbd" stroke-width="1" rx="4" />
<rect x="44" y="824" width="36" height="12" fill="#fafafa" stroke="#bdbdbd" stroke-width="1" rx="3" />
<text x="48" y="833" font-size="9" fill="#424242" font-weight="bold">&lt;nav&gt;</text>
<text x="44" y="849" font-size="9" fill="#666">pages</text>
<rect x="44" y="867" width="199.075" height="245" fill="#f3f0ff" stroke="#bdbdbd" stroke-width="1" rx="4" />
<rect x="54" y="861" width="31" height="12" fill="#f3f0ff" stroke="#bdbdbd" stroke-width="1" rx="3" />
<text x="58" y="870" font-size="9" fill="#424242" font-weight="bold">&lt;ol&gt;</text>
<line x1="62" y1="893" x2="62" y2="992" stroke="#00695c" stroke-width="2" stroke-opacity="0.4" stroke-linecap="round" />
<line x1="62" y1="1014" x2="62" y2="1102" stroke="#546e7a" stroke-width="2" stroke-opacity="0.4" stroke-linecap="round" />
<rect x="54" y="877" width="171.79999999999998" height="16" fill="#00695c" rx="3" />
<path d="M8 14.667a5.806 5.806 0 0 1-2.342-.475 6.1 6.1 0 0 1-1.9-1.284 6.097 6.097 0 0 1-1.283-1.9A5.804 5.804 0 0 1 2 8.667a5.8 5.8 0 0 1 .475-2.342 6.099 6.099 0 0 1 1.283-1.9 6.099 6.099 0 0 1 1.9-1.283A5.805 5.805 0 0 1 8 2.667h.1L7.533 2.1a.622.622 0 0 1-.183-.458.68.68 0 0 1 .183-.475.68.68 0 0 1 .475-.209.62.62 0 0 1 .475.192L10.2 2.867a.632.632 0 0 1 .183.466.632.632 0 0 1-.183.467L8.483 5.517a.62.62 0 0 1-.475.191.68.68 0 0 1-.475-.208.68.68 0 0 1-.183-.475c0-.183.061-.336.183-.458L8.1 4H8c-1.3 0-2.403.453-3.308 1.358-.906.906-1.359 2.009-1.359 3.309 0 1.3.453 2.402 1.359 3.308.905.906 2.008 1.358 3.308 1.358 1.178 0 2.206-.383 3.083-1.15.878-.766 1.395-1.733 1.55-2.9a.68.68 0 0 1 .234-.441.687.687 0 0 1 .466-.175c.178 0 .334.055.467.166a.44.44 0 0 1 .167.417c-.156 1.544-.8 2.833-1.934 3.867C10.9 14.15 9.556 14.667 8 14.667Z" fill="#ffffff" transform="translate(60,880) scale(0.625)" />
<text x="146.89999999999998" y="888.15" font-size="9" fill="#ffffff" font-family="monospace" text-anchor="middle">for each page in pagesRange</text>
<rect x="66" y="900" width="167.075" height="92" fill="#f0f7f4" stroke="#bdbdbd" stroke-width="1" rx="4" />
<rect x="76" y="894" width="31" height="12" fill="#f0f7f4" stroke="#bdbdbd" stroke-width="1" rx="3" />
<text x="80" y="903" font-size="9" fill="#424242" font-weight="bold">&lt;li&gt;</text>
<rect x="76" y="916" width="147.075" height="66" fill="#e3f2fd" stroke="#1976d2" stroke-width="1" rx="4" />
<rect x="86" y="910" width="53" height="12" fill="#e3f2fd" stroke="#1976d2" stroke-width="1" rx="3" />
<text x="90" y="919" font-size="9" fill="#0d47a1" font-weight="bold">&lt;button&gt;</text>
<text x="86" y="935" font-size="9" fill="#666">page</text>
<text x="86" y="946" font-size="9" fill="#666" font-style="italic">[selected|not-selected]</text>
<text x="86" y="972" font-size="9" fill="#888" font-style="italic">&quot;1&quot;</text>
<rect x="54" y="998" width="55.199999999999996" height="16" fill="#546e7a" rx="3" />
<text x="81.6" y="1009.15" font-size="9" fill="#ffffff" font-family="monospace" text-anchor="middle">Ellipsis</text>
<rect x="66" y="1021" width="124.5" height="81" fill="#f0f7f4" stroke="#bdbdbd" stroke-width="1" rx="4" />
<rect x="76" y="1015" width="31" height="12" fill="#f0f7f4" stroke="#bdbdbd" stroke-width="1" rx="3" />
<text x="80" y="1024" font-size="9" fill="#424242" font-weight="bold">&lt;li&gt;</text>
<rect x="76" y="1037" width="104.5" height="55" fill="#fff8f0" stroke="#bdbdbd" stroke-width="1" rx="4" />
<rect x="86" y="1031" width="42" height="12" fill="#fff8f0" stroke="#bdbdbd" stroke-width="1" rx="3" />
<text x="90" y="1040" font-size="9" fill="#424242" font-weight="bold">&lt;span&gt;</text>
<text x="86" y="1056" font-size="9" fill="#666">page ellipsis</text>
<text x="86" y="1082" font-size="9" fill="#888" font-style="italic">&quot;...&quot;</text>
<rect x="22" y="1128" width="71.4" height="16" fill="#546e7a" rx="3" />
<text x="57.7" y="1139.15" font-size="9" fill="#ffffff" font-family="monospace" text-anchor="middle">next button</text>
<rect x="34" y="1151" width="98" height="42" fill="#e3f2fd" stroke="#1976d2" stroke-width="1" rx="4" />
<rect x="44" y="1145" width="53" height="12" fill="#e3f2fd" stroke="#1976d2" stroke-width="1" rx="3" />
<text x="48" y="1154" font-size="9" fill="#0d47a1" font-weight="bold">&lt;button&gt;</text>
<text x="44" y="1170" font-size="9" fill="#666">next__button</text>
<text x="44" y="1181" font-size="9" fill="#666" font-style="italic">[disabled]</text>
<rect x="22" y="1199" width="71.4" height="16" fill="#546e7a" rx="3" />
<text x="57.7" y="1210.15" font-size="9" fill="#ffffff" font-family="monospace" text-anchor="middle">last button</text>
<rect x="34" y="1222" width="98" height="42" fill="#e3f2fd" stroke="#1976d2" stroke-width="1" rx="4" />
<rect x="44" y="1216" width="53" height="12" fill="#e3f2fd" stroke="#1976d2" stroke-width="1" rx="3" />
<text x="48" y="1225" font-size="9" fill="#0d47a1" font-weight="bold">&lt;button&gt;</text>
<text x="44" y="1241" font-size="9" fill="#666">last__button</text>
<text x="44" y="1252" font-size="9" fill="#666" font-style="italic">[disabled]</text>
<rect x="22" y="1270" width="136.2" height="16" fill="#546e7a" rx="3" />
<text x="90.1" y="1281.15" font-size="9" fill="#ffffff" font-family="monospace" text-anchor="middle">navigation-info control</text>
<rect x="34" y="1293" width="176.5" height="102" fill="#fafafa" stroke="#bdbdbd" stroke-width="1" rx="4" />
<rect x="44" y="1287" width="36" height="12" fill="#fafafa" stroke="#bdbdbd" stroke-width="1" rx="3" />
<text x="48" y="1296" font-size="9" fill="#424242" font-weight="bold">&lt;div&gt;</text>
<text x="44" y="1312" font-size="9" fill="#666">navigation-info</text>
<rect x="44" y="1330" width="156.5" height="55" fill="#f3f0ff" stroke="#bdbdbd" stroke-width="1" rx="4" />
<rect x="54" y="1324" width="42" height="12" fill="#f3f0ff" stroke="#bdbdbd" stroke-width="1" rx="3" />
<text x="58" y="1333" font-size="9" fill="#424242" font-weight="bold">&lt;span&gt;</text>
<text x="54" y="1349" font-size="9" fill="#666">navigation-info__text</text>
<text x="54" y="1375" font-size="9" fill="#888" font-style="italic">&quot;Page 1 of 10&quot;</text>
<rect x="22" y="1401" width="82.2" height="16" fill="#546e7a" rx="3" />
<text x="63.1" y="1412.15" font-size="9" fill="#ffffff" font-family="monospace" text-anchor="middle">go-to control</text>
<rect x="34" y="1424" width="118" height="191" fill="#fafafa" stroke="#bdbdbd" stroke-width="1" rx="4" />
<rect x="44" y="1418" width="36" height="12" fill="#fafafa" stroke="#bdbdbd" stroke-width="1" rx="3" />
<text x="48" y="1427" font-size="9" fill="#424242" font-weight="bold">&lt;div&gt;</text>
<text x="44" y="1443" font-size="9" fill="#666">go-to</text>
<rect x="44" y="1461" width="98" height="55" fill="#f3f0ff" stroke="#bdbdbd" stroke-width="1" rx="4" />
<rect x="54" y="1455" width="47" height="12" fill="#f3f0ff" stroke="#bdbdbd" stroke-width="1" rx="3" />
<text x="58" y="1464" font-size="9" fill="#424242" font-weight="bold">&lt;label&gt;</text>
<text x="54" y="1480" font-size="9" fill="#666">go-to__label</text>
<text x="54" y="1506" font-size="9" fill="#888" font-style="italic">&quot;Go to&quot;</text>
<rect x="44" y="1528" width="98" height="31" fill="#e3f2fd" stroke="#1976d2" stroke-width="1" rx="4" />
<rect x="54" y="1522" width="47" height="12" fill="#e3f2fd" stroke="#1976d2" stroke-width="1" rx="3" />
<text x="58" y="1531" font-size="9" fill="#0d47a1" font-weight="bold">&lt;input&gt;</text>
<text x="54" y="1547" font-size="9" fill="#666">go-to__input</text>
<rect x="44" y="1571" width="65.5" height="34" fill="#f3f0ff" stroke="#bdbdbd" stroke-width="1" rx="4" />
<rect x="54" y="1565" width="42" height="12" fill="#f3f0ff" stroke="#bdbdbd" stroke-width="1" rx="3" />
<text x="58" y="1574" font-size="9" fill="#424242" font-weight="bold">&lt;span&gt;</text>
<text x="54" y="1595" font-size="9" fill="#888" font-style="italic">&quot;of 10&quot;</text>
<rect x="409.575" y="10" width="211" height="190" fill="none" stroke="#bdbdbd" stroke-width="1" rx="4" />
<text x="419.575" y="24" font-size="10" fill="#424242" font-weight="bold">Legend</text>
<line x1="419.575" y1="38" x2="443.575" y2="38" stroke="#9e9e9e" stroke-width="1.5" stroke-dasharray="4 2" />
<text x="465.575" y="42" font-size="8" fill="#666">#shadow-root</text>
<rect x="419.575" y="48" width="12" height="12" fill="#7b1fa2" rx="2" />
<path d="M5 0.5 L9.5 5 L5 9.5 L0.5 5 Z" fill="none" stroke="#fff" stroke-width="1.2" stroke-linecap="round" stroke-linejoin="round" transform="translate(420.575,49) scale(1)" />
<text x="465.575" y="58" font-size="8" fill="#666">condition (when / else)</text>
<rect x="419.575" y="64" width="12" height="12" fill="#00695c" rx="2" />
<path d="M8 14.667a5.806 5.806 0 0 1-2.342-.475 6.1 6.1 0 0 1-1.9-1.284 6.097 6.097 0 0 1-1.283-1.9A5.804 5.804 0 0 1 2 8.667a5.8 5.8 0 0 1 .475-2.342 6.099 6.099 0 0 1 1.283-1.9 6.099 6.099 0 0 1 1.9-1.283A5.805 5.805 0 0 1 8 2.667h.1L7.533 2.1a.622.622 0 0 1-.183-.458.68.68 0 0 1 .183-.475.68.68 0 0 1 .475-.209.62.62 0 0 1 .475.192L10.2 2.867a.632.632 0 0 1 .183.466.632.632 0 0 1-.183.467L8.483 5.517a.62.62 0 0 1-.475.191.68.68 0 0 1-.475-.208.68.68 0 0 1-.183-.475c0-.183.061-.336.183-.458L8.1 4H8c-1.3 0-2.403.453-3.308 1.358-.906.906-1.359 2.009-1.359 3.309 0 1.3.453 2.402 1.359 3.308.905.906 2.008 1.358 3.308 1.358 1.178 0 2.206-.383 3.083-1.15.878-.766 1.395-1.733 1.55-2.9a.68.68 0 0 1 .234-.441.687.687 0 0 1 .466-.175c.178 0 .334.055.467.166a.44.44 0 0 1 .167.417c-.156 1.544-.8 2.833-1.934 3.867C10.9 14.15 9.556 14.667 8 14.667Z" fill="#fff" transform="translate(420.575,65) scale(0.625)" />
<text x="465.575" y="74" font-size="8" fill="#666">iteration (for each)</text>
<rect x="419.575" y="80" width="12" height="12" fill="#546e7a" rx="2" />
<text x="465.575" y="90" font-size="8" fill="#666">descriptive comment</text>
<rect x="419.575" y="96" width="20" height="12" fill="#fff8e1" stroke="#f57f17" stroke-width="1" stroke-dasharray="3 1.5" rx="2" />
<text x="465.575" y="106" font-size="8" fill="#666">slot</text>
<rect x="419.575" y="112" width="12" height="12" fill="#0277bd" rx="2" />
<path d="M10.817 8.664H3.642a.613.613 0 0 1-.457-.19.647.647 0 0 1-.185-.47c0-.187.062-.343.185-.47a.613.613 0 0 1 .457-.19h7.175l-3.146-3.23a.613.613 0 0 1-.185-.462.668.668 0 0 1 .65-.651.58.58 0 0 1 .45.189l4.237 4.353c.065.066.11.137.137.214a.75.75 0 0 1 .04.247.75.75 0 0 1-.04.248.581.581 0 0 1-.137.214l-4.237 4.353a.59.59 0 0 1-.442.181.645.645 0 0 1-.457-.181.65.65 0 0 1-.193-.47.65.65 0 0 1 .193-.47l3.13-3.215Z" fill="#fff" transform="translate(420.575,113) scale(0.625)" />
<text x="465.575" y="122" font-size="8" fill="#666">projected content (light DOM)</text>
<text x="419.575" y="138" font-size="9" fill="#666">part</text>
<text x="465.575" y="138" font-size="8" fill="#666">static part</text>
<text x="419.575" y="154" font-size="9" fill="#666" font-style="italic">[part]</text>
<text x="465.575" y="154" font-size="8" fill="#666">conditional part</text>
<text x="419.575" y="170" font-size="9" fill="#666" font-style="italic">{part}</text>
<text x="465.575" y="170" font-size="8" fill="#666">dynamic part</text>
<text x="419.575" y="186" font-size="9" fill="#666" font-style="italic">[{part}]</text>
<text x="465.575" y="186" font-size="8" fill="#666">conditional dynamic part</text>

</svg>
