<svg width="24" height="24" viewBox="0 0 24 24" fill="none" xmlns="http://www.w3.org/2000/svg"><path fill-rule="evenodd" clip-rule="evenodd" d="M13.8618 4C14.0488 4.00176 14.2082 4.13602 14.2418 4.32L14.5218 6.32C14.9752 6.51092 15.4021 6.75965 15.7918 7.06L17.6818 6.31C17.8536 6.24067 18.0501 6.30904 18.1418 6.47L19.6518 9.08C19.7466 9.23989 19.7081 9.44533 19.5618 9.56L17.9618 10.8L18.0218 11.56L17.9618 12.32L19.5418 13.56C19.6881 13.6747 19.7266 13.8801 19.6318 14.04L18.1218 16.66C18.0301 16.821 17.8336 16.8893 17.6618 16.82L15.7718 16.07C15.3821 16.3704 14.9552 16.6191 14.5018 16.81L14.2218 18.81C14.1882 18.994 14.0288 19.1282 13.8418 19.13H10.8418C10.6548 19.1282 10.4954 18.994 10.4618 18.81L10.1818 16.81C9.72294 16.6195 9.29229 16.3672 8.9018 16.06L7.0218 16.82C6.84992 16.8807 6.6589 16.8143 6.5618 16.66L5.0518 14.04C4.95695 13.8801 4.99548 13.6747 5.1418 13.56L6.7318 12.29V10.8L5.1418 9.56C5.00089 9.44643 4.96282 9.24759 5.0518 9.09L6.5618 6.47C6.65347 6.30904 6.85003 6.24067 7.0218 6.31L8.9218 7.06C9.31503 6.75956 9.74522 6.51085 10.2018 6.32L10.4818 4.32C10.5154 4.13602 10.6748 4.00176 10.8618 4H13.8618ZM12.3518 8.56C10.6949 8.56 9.3518 9.90315 9.3518 11.56C9.3518 13.2169 10.6949 14.56 12.3518 14.56C14.0087 14.56 15.3518 13.2169 15.3518 11.56C15.3518 9.90315 14.0087 8.56 12.3518 8.56Z" fill="#121212"/></svg>
