<svg width="24" height="24" viewBox="0 0 24 24" fill="none" xmlns="http://www.w3.org/2000/svg"><path fill-rule="evenodd" clip-rule="evenodd" d="M14.22 14.9C16.12 14.9 19.92 15.85 19.92 17.75V19.89H8.52V17.75C8.52 15.85 12.32 14.9 14.22 14.9ZM10.1934 10.6609L10.44 10.67C10.3964 10.8908 10.373 11.115 10.37 11.34C10.3718 12.4531 10.8616 13.5094 11.71 14.23C10.6073 14.4658 9.56966 14.9402 8.67 15.62H4V13.48C4 11.57 7.8 10.63 9.7 10.67L9.94662 10.6609H10.1934ZM14.22 8.49C15.794 8.49 17.07 9.76599 17.07 11.34C17.07 12.914 15.794 14.19 14.22 14.19C12.646 14.19 11.37 12.914 11.37 11.34C11.37 9.76599 12.646 8.49 14.22 8.49ZM10.8116 4.43565C11.8755 4.88625 12.5622 5.93463 12.55 7.09C12.549 7.40024 12.4948 7.70801 12.39 8C11.6627 8.37726 11.0743 8.97615 10.71 9.71C10.3921 9.83843 10.0529 9.90627 9.71 9.91H9.7C8.54457 9.90994 7.50351 9.21227 7.0642 8.14361C6.62489 7.07495 6.87427 5.84679 7.69559 5.03411C8.51692 4.22143 9.74764 3.98506 10.8116 4.43565Z" fill="#121212"/></svg>
