<svg width="24" height="24" viewBox="0 0 24 24" fill="none" xmlns="http://www.w3.org/2000/svg"><path fill-rule="evenodd" clip-rule="evenodd" d="M4.6 9.38H7.6L11.32 5.7C11.4369 5.58524 11.6119 5.55332 11.7617 5.61943C11.9116 5.68554 12.006 5.83632 12 6V18C11.9955 18.1542 11.9006 18.2913 11.7578 18.3497C11.6151 18.4081 11.4513 18.3769 11.34 18.27L7.64 14.58H4.81C4.47625 14.578 4.19483 14.3307 4.15 14V9.83C4.15 9.58147 4.35147 9.38 4.6 9.38ZM13.5 5.07C16.9657 5.54562 19.5483 8.50678 19.5483 12.005C19.5483 15.5032 16.9657 18.4644 13.5 18.94V17.43C16.2589 17.1161 18.3428 14.7817 18.3428 12.005C18.3428 9.22835 16.2589 6.89389 13.5 6.58V5.07ZM13.5 8.53C15.1835 8.8307 16.4093 10.2949 16.4093 12.005C16.4093 13.7151 15.1835 15.1793 13.5 15.48V13.94C14.3802 13.7099 14.9943 12.9148 14.9943 12.005C14.9943 11.0952 14.3802 10.3001 13.5 10.07V8.53Z" fill="#121212"/></svg>
