<svg width="24" height="24" viewBox="0 0 24 24" fill="none" xmlns="http://www.w3.org/2000/svg"><path fill-rule="evenodd" clip-rule="evenodd" d="M18.73 11.92V18.15C18.73 18.969 18.069 19.6345 17.25 19.64H6.62001C5.80102 19.6345 5.14001 18.969 5.14001 18.15V11.92H18.73ZM17.24 13.42H6.64001V18.16H17.24V13.42ZM8.86001 4V6.05H15V4H16.51V6.05H17.25C18.0674 6.05 18.73 6.71262 18.73 7.53V10.42H5.14001V7.53C5.14001 6.71262 5.80263 6.05 6.62001 6.05H7.36001V4H8.86001ZM8.86001 7.48H7.36001V9H8.86001V7.48ZM16.5 7.48H15V9H16.51L16.5 7.48Z" fill="#121212"/></svg>
