<svg width="24" height="24" viewBox="0 0 24 24" fill="none" xmlns="http://www.w3.org/2000/svg"><path fill-rule="evenodd" clip-rule="evenodd" d="M15.4189 12.6153L16.0082 13.2033C16.4645 13.6596 16.4645 14.3994 16.0082 14.8557C15.5519 15.3121 14.8121 15.3121 14.3557 14.8557L13.7663 14.2678L9.17157 18.864C8.19526 19.8403 6.61235 19.8403 5.63604 18.864C4.65973 17.8876 4.65973 16.3047 5.63604 15.3284L10.2308 10.7322L9.64426 10.1443C9.18794 9.68793 9.18794 8.9481 9.64426 8.49178C10.1006 8.03546 10.8404 8.03546 11.2967 8.49178L11.8833 9.07972L14.8284 6.13603C15.8047 5.15972 17.3876 5.15972 18.364 6.13603C19.3403 7.11235 19.3403 8.69526 18.364 9.67157L15.4189 12.6153ZM10.9379 11.4393L6.34314 16.0355C5.75736 16.6213 5.75736 17.5711 6.34314 18.1569C6.89447 18.7082 7.7682 18.7406 8.35746 18.2541L8.46446 18.1569L13.0592 13.5607L10.9379 11.4393Z" fill="#121212"/></svg>
