<svg width="24" height="24" viewBox="0 0 24 24" fill="none" xmlns="http://www.w3.org/2000/svg"><path fill-rule="evenodd" clip-rule="evenodd" d="M12 4.74529C14.2091 4.74529 16 6.53615 16 8.74529L15.999 9.74529C17.1046 9.74529 18 10.6407 18 11.7453V16.7453C18 17.8499 17.1046 18.7453 16 18.7453H8C6.89543 18.7453 6 17.8499 6 16.7453V11.7453C6 10.6411 6.89489 9.74583 7.999 9.74529L8 8.74529C8 6.53615 9.79086 4.74529 12 4.74529ZM12 6.24529C10.6193 6.24529 9.5 7.36457 9.5 8.74529L9.499 9.74529H14.499L14.5 8.74529C14.5 7.36457 13.3807 6.24529 12 6.24529Z" fill="#121212"/></svg>
