<svg width="24" height="24" viewBox="0 0 24 24" fill="none" xmlns="http://www.w3.org/2000/svg"><path fill-rule="evenodd" clip-rule="evenodd" d="M11.4146 3.25C14.0738 3.25 15.6539 4.66522 15.9375 7.37939L15.937 10H16C17.1046 10 18 10.8954 18 12V17C18 18.1046 17.1046 19 16 19H8C6.89543 19 6 18.1046 6 17V12C6 10.8954 6.89543 10 8 10H14.439L14.4417 7.4585C14.2506 5.657 13.3763 4.81347 11.621 4.75346L11.4146 4.75C9.55067 4.75 8.75 5.54243 8.75 7.37939H7.25C7.25 4.7105 8.7257 3.25 11.4146 3.25Z" fill="#121212"/></svg>
