<svg width="24" height="24" viewBox="0 0 24 24" fill="none" xmlns="http://www.w3.org/2000/svg"><path d="M17.3636 18.5455H9.36364V8.36364H17.3636M17.3636 6.90909H9.36364C8.97787 6.90909 8.6079 7.06234 8.33512 7.33512C8.06234 7.6079 7.90909 7.97787 7.90909 8.36364V18.5455C7.90909 18.9312 8.06234 19.3012 8.33512 19.574C8.6079 19.8468 8.97787 20 9.36364 20H17.3636C17.7494 20 18.1194 19.8468 18.3922 19.574C18.6649 19.3012 18.8182 18.9312 18.8182 18.5455V8.36364C18.8182 7.97787 18.6649 7.6079 18.3922 7.33512C18.1194 7.06234 17.7494 6.90909 17.3636 6.90909ZM15.1818 4H6.45455C6.06878 4 5.69881 4.15325 5.42603 4.42603C5.15325 4.69881 5 5.06878 5 5.45455V15.6364H6.45455V5.45455H15.1818V4Z" fill="#121212"/></svg>
