<svg width="24" height="24" viewBox="0 0 24 24" fill="none" xmlns="http://www.w3.org/2000/svg"><path fill-rule="evenodd" clip-rule="evenodd" d="M9.37029 12.45C11.2518 12.45 14.9999 13.395 14.9999 15.3V17.4H3.74072V15.2625C3.74072 13.3575 7.48883 12.45 9.37029 12.45ZM18.3489 7.54835L19.3965 8.60901L17.8252 10.2L19.3965 11.791L18.3489 12.8517L16.7776 11.2607L15.2063 12.8517L14.1587 11.791L15.7301 10.2L14.1587 8.60901L15.2063 7.54835L16.7776 9.13934L18.3489 7.54835ZM9.37029 6C10.9249 6 12.1851 7.27599 12.1851 8.85C12.1851 10.424 10.9249 11.7 9.37029 11.7C7.81573 11.7 6.55551 10.424 6.55551 8.85C6.55551 7.27599 7.81573 6 9.37029 6Z" fill="#121212"/></svg>
