<svg width="24" height="24" viewBox="0 0 24 24" fill="none" xmlns="http://www.w3.org/2000/svg"><path fill-rule="evenodd" clip-rule="evenodd" d="M18.2222 4.77778H14.5067C14.1333 3.74667 13.1556 3 12 3C10.8444 3 9.86667 3.74667 9.49333 4.77778H5.77778C5.65333 4.77778 5.53778 4.78667 5.42222 4.81333C5.07556 4.88444 4.76444 5.06222 4.52444 5.30222C4.36444 5.46222 4.23111 5.65778 4.14222 5.87111C4.05333 6.07556 4 6.30667 4 6.55556V19C4 19.24 4.05333 19.48 4.14222 19.6933C4.23111 19.9067 4.36444 20.0933 4.52444 20.2622C4.76444 20.5022 5.07556 20.68 5.42222 20.7511C5.53778 20.7689 5.65333 20.7778 5.77778 20.7778H18.2222C19.2 20.7778 20 19.9778 20 19V6.55556C20 5.57778 19.2 4.77778 18.2222 4.77778ZM11.1111 14.7067L9.85778 15.9689L6.66667 12.7778L9.85778 9.58667L11.1111 10.8489L9.18222 12.7778L11.1111 14.7067ZM12 5.88889C11.6356 5.88889 11.3333 5.58667 11.3333 5.22222C11.3333 4.85778 11.6356 4.55556 12 4.55556C12.3644 4.55556 12.6667 4.85778 12.6667 5.22222C12.6667 5.58667 12.3644 5.88889 12 5.88889ZM14.1422 15.9689L12.8889 14.7067L14.8178 12.7778L12.8889 10.8489L14.1422 9.58667L17.3333 12.7778L14.1422 15.9689Z" fill="#121212"/></svg>
