<svg width="24" height="24" viewBox="0 0 24 24" fill="none" xmlns="http://www.w3.org/2000/svg"><path d="M17.0909 13.7273V5H20V13.7273H17.0909ZM14.1818 5C14.5676 5 14.9376 5.15325 15.2103 5.42603C15.4831 5.69881 15.6364 6.06878 15.6364 6.45455V13.7273C15.6364 14.1273 15.4764 14.4909 15.2073 14.7527L10.4218 19.5455L9.65091 18.7745C9.45455 18.5782 9.33091 18.3091 9.33091 18.0036L9.35273 17.7782L10.0436 14.4545H5.45455C4.64727 14.4545 4 13.8 4 13V11.5455C4 11.3564 4.03636 11.1818 4.10182 11.0145L6.29818 5.88727C6.51636 5.36364 7.03273 5 7.63636 5H14.1818ZM14.1818 6.45455H7.61455L5.45455 11.5455V13H11.84L11.0182 16.8691L14.1818 13.7055V6.45455Z" fill="#121212"/></svg>
