<svg width="24" height="24" viewBox="0 0 24 24" fill="none" xmlns="http://www.w3.org/2000/svg"><path fill-rule="evenodd" clip-rule="evenodd" d="M6 20V17.7143H8.28571V20H6ZM10.5714 20V17.7143H12.8571V20H10.5714ZM15.1429 20V17.7143H17.4286V20H15.1429ZM6 15.4286V13.1429H8.28571V15.4286H6ZM10.5714 15.4286V13.1429H12.8571V15.4286H10.5714ZM15.1429 15.4286V13.1429H17.4286V15.4286H15.1429ZM6 10.8571V8.57143H8.28571V10.8571H6ZM10.5714 10.8571V8.57143H12.8571V10.8571H10.5714ZM15.1429 10.8571V8.57143H17.4286V10.8571H15.1429ZM6 6.28571V4H8.28571V6.28571H6ZM10.5714 6.28571V4H12.8571V6.28571H10.5714ZM15.1429 6.28571V4H17.4286V6.28571H15.1429Z" fill="#121212"/></svg>
