<svg width="24" height="24" viewBox="0 0 24 24" fill="none" xmlns="http://www.w3.org/2000/svg"><path fill-rule="evenodd" clip-rule="evenodd" d="M16.15 4C16.7316 4 17.2888 4.23427 17.6953 4.65022C18.1018 5.06618 18.3235 5.62852 18.31 6.21V7.21H18.47C19.2448 7.2155 19.87 7.84517 19.87 8.62V18.48C19.8727 18.853 19.7263 19.2117 19.4635 19.4764C19.2007 19.7411 18.843 19.89 18.47 19.89H8.6C7.82127 19.89 7.18999 19.2587 7.18999 18.48V18.22H6.27999C5.09258 18.22 4.12999 17.2574 4.12999 16.07V6.2C4.11928 5.62196 4.34074 5.06376 4.74482 4.65028C5.1489 4.23681 5.70186 4.00258 6.27999 4H16.15ZM14.28 10H12.78V12.8H9.99999V14.3H12.78V17.09H14.28V14.3H17.07V12.8H14.28V10ZM16.15 5.54H6.27999C6.10586 5.54 5.93899 5.60983 5.8168 5.7339C5.69461 5.85797 5.62732 6.02588 5.62992 6.2V16.07C5.62992 16.429 5.92101 16.72 6.27999 16.72H7.18999V8.62C7.18733 8.24432 7.33471 7.8831 7.59942 7.61651C7.86414 7.34992 8.2243 7.19999 8.6 7.2H16.81V6.2C16.8046 5.83774 16.5123 5.54537 16.15 5.54Z" fill="#121212"/></svg>
