<svg width="24" height="24" viewBox="0 0 24 24" fill="none" xmlns="http://www.w3.org/2000/svg"><path fill-rule="evenodd" clip-rule="evenodd" d="M9.59 11.88L12.06 14.36L6.65 19.77C6.4167 19.9987 6.04331 19.9987 5.81 19.77L4.17 18.13C3.94132 17.8967 3.94132 17.5233 4.17 17.29L9.59 11.88ZM17.89 10.84L18.38 11.84L19.49 12L18.69 12.78L18.88 13.88L17.88 13.36L16.88 13.88L17.07 12.78L16.27 12L17.37 11.88L17.89 10.84ZM14.02 7.69C14.1787 7.69 14.3305 7.75506 14.44 7.87L16.08 9.5C16.2954 9.71743 16.3127 10.0622 16.12 10.3L13.12 13.3L10.65 10.87L13.6 7.87C13.7095 7.75506 13.8613 7.69 14.02 7.69ZM17.87 4.54L18.49 5.8L19.87 6L18.87 7L19.09 8.38L17.86 7.73L16.62 8.38L16.86 7L15.86 6L17.25 5.8L17.87 4.54ZM11.55 4.54L12.05 5.54L13.15 5.7L12.35 6.48L12.54 7.58L11.54 7.06L10.54 7.58L10.73 6.48L10 5.71L11.11 5.55L11.55 4.54Z" fill="#121212"/></svg>
