<svg width="24" height="24" viewBox="0 0 24 24" fill="none" xmlns="http://www.w3.org/2000/svg"><path fill-rule="evenodd" clip-rule="evenodd" d="M11.92 4.64L14.14 9.63L19.83 10.1L15.51 13.7L16.81 19L11.9 16.18L7 19L8.31 13.67L4 10.1L9.68 9.64L11.91 4.64H11.92ZM11.92 8.33H11.91L11.05 10.24L10.69 11.05L9.8 11.13L7.8 11.29L9.28 12.51L10 13.11L9.77 14L9.31 15.92L11.17 14.85L11.92 14.42L12.66 14.85L14.52 15.92L14.05 14.02L13.83 13.11L14.56 12.51L16.02 11.29L14.02 11.13L13.13 11.05L12.77 10.24L11.92 8.33Z" fill="#121212"/></svg>
