<svg width="24" height="24" viewBox="0 0 24 24" fill="none" xmlns="http://www.w3.org/2000/svg"><path fill-rule="evenodd" clip-rule="evenodd" d="M15.1713 4.99817C15.0604 5.31147 15 5.64868 15 6C15 7.33066 15.8663 8.45898 17.0657 8.85168L13.94 12.87V20.26C13.9419 20.5235 13.7891 20.7636 13.5497 20.8736C13.3103 20.9836 13.0287 20.943 12.83 20.77L10.23 18.55C10.0878 18.4263 10.0043 18.2484 9.99999 18.06V12.87L4.63999 6.11C4.49775 5.88927 4.48695 5.60861 4.61182 5.37761C4.73669 5.14661 4.97741 5.0019 5.23999 5L15.1713 4.99817ZM18 4C19.1046 4 20 4.89543 20 6C20 7.10457 19.1046 8 18 8C16.8954 8 16 7.10457 16 6C16 4.89543 16.8954 4 18 4Z" fill="#121212"/></svg>
