<svg width="24" height="24" viewBox="0 0 24 24" fill="none" xmlns="http://www.w3.org/2000/svg"><path fill-rule="evenodd" clip-rule="evenodd" d="M14.5199 19.74C14.1732 20.0867 13.6133 20.0867 13.2667 19.74L9.70274 16.1761C9.49833 15.9717 9.40945 15.6962 9.445 15.4384V10.8879L5.18782 5.4398C4.88564 5.05763 4.95674 4.49771 5.33891 4.19553C5.50777 4.0711 5.69441 4 5.88994 4H18.3327C18.5282 4 18.7148 4.0711 18.8837 4.19553C19.2659 4.49771 19.337 5.05763 19.0348 5.4398L14.7776 10.8879V19.0024C14.8131 19.269 14.7243 19.5534 14.5199 19.74ZM7.70302 5.77753L11.2225 10.2747V15.1807L13.0001 16.9582V10.2658L16.5196 5.77753H7.70302Z" fill="#121212"/></svg>
