<svg width="24" height="24" viewBox="0 0 24 24" fill="none" xmlns="http://www.w3.org/2000/svg"><path fill-rule="evenodd" clip-rule="evenodd" d="M16.49 5H3.23999C2.97741 5.0019 2.73669 5.14661 2.61182 5.37761C2.48695 5.60861 2.49775 5.88927 2.63999 6.11L7.99999 12.87V18.06C8.00433 18.2484 8.08782 18.4263 8.22999 18.55L10.83 20.77C11.0287 20.943 11.3103 20.9836 11.5497 20.8736C11.7891 20.7636 11.9419 20.5235 11.94 20.26V12.87L17.16 6.16C17.3153 5.92312 17.3239 5.61894 17.1822 5.37366C17.0406 5.12838 16.7728 4.98384 16.49 5ZM22.84 8V6.76H21.56C21.4067 6.76 21.2317 6.76833 21.035 6.785C20.8383 6.80167 20.66 6.82 20.5 6.84C20.76 6.57333 21.0117 6.30167 21.255 6.025C21.4983 5.74833 21.715 5.47167 21.905 5.195C22.095 4.91833 22.2467 4.64167 22.36 4.365C22.4733 4.08833 22.53 3.81667 22.53 3.55C22.53 3.24333 22.48 2.96667 22.38 2.72C22.28 2.47333 22.1367 2.26167 21.95 2.085C21.7633 1.90833 21.5417 1.77167 21.285 1.675C21.0283 1.57833 20.7433 1.53 20.43 1.53C19.9767 1.53 19.5867 1.615 19.26 1.785C18.9333 1.955 18.6133 2.20667 18.3 2.54L19.1 3.33C19.26 3.15667 19.43 3.005 19.61 2.875C19.79 2.745 19.9967 2.68 20.23 2.68C20.51 2.68 20.73 2.76167 20.89 2.925C21.05 3.08833 21.13 3.32667 21.13 3.64C21.13 3.86667 21.0617 4.105 20.925 4.355C20.7883 4.605 20.5983 4.875 20.355 5.165C20.1117 5.455 19.8217 5.765 19.485 6.095C19.1483 6.425 18.7767 6.78 18.37 7.16V8H22.84Z" fill="#121212"/></svg>
