<svg xmlns="http://www.w3.org/2000/svg" width="229" height="23" viewBox="0 0 229 23"><path d="M96.1689 4.68112H96.5075L96.3323 1.94922H95.8887L95.1065 4.19078L94.3593 1.94922H93.9157L93.7289 4.68112H94.0674L94.1959 2.29946L94.9897 4.66945H95.2583L96.0872 2.29946L96.1922 4.68112H96.1689ZM92.3045 4.68112H92.6665V2.25276H93.4837V1.94922H91.4873V2.25276H92.3162V4.68112H92.3045Z" /><path d="M23.7848 10.2275H19.1616C18.9515 10.2275 18.8814 10.0641 18.9515 9.86558C19.5586 8.11437 21.4499 6.50324 23.3295 7.51895C24.2051 8.02097 24.1818 9.1184 24.0884 9.95898C24.0767 10.0991 23.9483 10.2158 23.8082 10.2158M24.427 4.91547C21.9285 4.00484 19.1266 4.7637 17.4221 6.80679C16.6515 7.84584 16.1028 9.03667 15.846 10.2976C15.4957 11.7919 15.1572 13.8233 15.6709 15.3294C16.348 17.3258 18.3444 18.3181 20.3641 18.3181H24.6721C24.9523 18.2948 25.1625 18.0613 25.1741 17.7811C25.1975 16.6253 24.2752 15.668 23.1194 15.6446C23.0844 15.6446 23.0493 15.6446 23.0026 15.6446H21.1814C20.5159 15.6913 19.8621 15.5979 19.2317 15.3644C18.2743 14.9091 18.2393 13.8233 18.3327 12.901C18.3444 12.7376 18.4845 12.6208 18.6479 12.6208H25.8046C26.2716 12.6092 26.6685 12.2472 26.7269 11.7803C26.8787 11.1615 26.9721 10.5427 27.0304 9.91228C27.2289 7.85752 26.47 5.70936 24.4153 4.89212L24.427 4.91547ZM65.6973 16.9989L62.0665 9.30519L68.3826 1.45973C68.6744 1.19121 68.6861 0.747568 68.4293 0.455698C68.2775 0.292251 68.0557 0.210528 67.8338 0.233877H66.6197C66.2811 0.233877 65.9659 0.397325 65.7674 0.65417L59.2879 8.63973L60.3269 6.07128C60.3853 5.93118 60.3853 5.76773 60.3269 5.62763L58.0854 0.689194C57.9686 0.38565 57.6768 0.187178 57.3615 0.187178H45.5233C52.283 0.689195 54.9449 1.42471 56.6961 4.44848C57.525 5.94285 58.1905 7.4956 58.8909 9.03667L52.4581 16.8938C52.2713 17.0806 52.1546 17.3258 52.1312 17.5943C52.1079 17.9679 52.3881 18.3065 52.7617 18.3415H54.3028C54.6763 18.3415 55.0149 18.143 55.2251 17.8395L60.1635 11.7336L62.8254 17.4192C63.0588 17.9212 63.269 18.3415 63.8177 18.3415H64.9502C65.3238 18.3765 65.674 18.1547 65.8024 17.8044C65.8958 17.5359 65.8608 17.2324 65.709 16.9872L65.6973 16.9989ZM88.5566 4.72867C86.0232 4.36676 82.8009 4.12158 80.9913 6.3398C79.9172 7.83417 80.2558 9.49199 81.2832 10.7062C82.4273 12.0604 84.2953 12.4924 85.4861 13.7883C85.8947 14.3137 85.7897 15.0609 85.276 15.4578C85.241 15.4928 85.1943 15.5162 85.1592 15.5395C84.0735 16.2634 81.5984 15.9015 80.4309 15.6796C79.8355 15.6096 79.2751 15.5862 79.0183 16.135C78.8549 16.5436 78.7848 16.9755 78.8081 17.4192C78.8665 17.9562 79.4619 18.1547 79.9056 18.2364C80.8746 18.4232 81.8669 18.5166 82.8593 18.5166C85.1009 18.5166 87.3541 18.073 88.4398 15.8781C88.8018 14.7807 88.8952 13.4731 88.2297 12.4691C87.5642 11.465 86.3968 10.8346 85.3694 10.1691C84.7506 9.76051 83.6999 9.28184 83.373 8.59303C83.2562 8.23111 83.373 7.83417 83.6649 7.60067C84.6572 6.72506 87.5292 7.27378 88.7084 7.36718C89.0936 7.41388 89.4556 7.21541 89.6307 6.86516C89.7825 6.47989 89.8525 6.07128 89.8408 5.66266C89.8759 4.95049 89.3505 4.82207 88.5683 4.717L88.5566 4.72867ZM35.8099 4.69365H30.6496C29.9958 4.69365 29.7156 5.12562 29.6222 5.68601C28.9801 9.58539 28.303 13.4614 27.6025 17.3375C27.5091 17.7928 27.801 18.2247 28.2563 18.3181C28.303 18.3181 28.3497 18.3298 28.3964 18.3298H29.6573C30.1943 18.3298 30.4745 17.8278 30.5445 17.3608L32.2374 7.67072C32.2374 7.51895 32.3775 7.4022 32.5293 7.41388H35.3779C36.6738 7.41388 36.9073 8.25446 36.7088 9.36357L35.3429 17.3491C35.2495 17.7928 35.5414 18.2364 35.985 18.3298C36.0317 18.3298 36.0784 18.3415 36.1251 18.3415H37.3977C37.923 18.3415 38.2032 17.8395 38.2849 17.3842L39.5575 10.3326C39.826 8.90825 39.8027 7.27378 38.8804 6.07128C38.1332 5.16064 37.0007 4.64695 35.8216 4.68197L35.8099 4.69365ZM14.1064 0.105455H8.9345C6.70462 0.0704303 4.56813 0.992739 3.06208 2.63889C2.0814 3.72464 1.35756 5.03222 0.972292 6.44487C0.587024 7.88087 0.318504 9.34022 0.155057 10.8112C-0.0434146 12.3056 -0.171837 13.9518 0.552 15.3294C1.49766 17.2324 3.45902 18.4232 5.59551 18.3765H11.5847C12.2618 18.3765 12.507 17.9212 12.6121 17.3842L14.0481 9.81888C14.1298 9.22347 13.8963 8.65141 13.2308 8.65141H8.42081C8.14062 8.62806 7.90712 8.8382 7.88377 9.1184C7.88377 9.13007 7.88377 9.14175 7.88377 9.15342C7.94215 10.1925 8.71268 11.0447 9.74006 11.2199C10.6624 11.36 10.5923 11.7919 10.5339 12.364L10.0319 15.3994C10.0086 15.5279 9.88016 15.6213 9.75174 15.6096C5.75896 15.6096 2.49002 16.2283 3.22553 10.7996C3.77424 7.83417 3.76257 4.9038 6.91476 3.45612C8.56091 2.69726 10.6974 2.9541 12.472 2.9541C12.939 2.97745 13.4059 2.84903 13.8029 2.59219C14.3399 2.16022 14.7019 1.54145 14.7952 0.864316C14.8886 0.350625 14.5851 0.128804 14.1298 0.128804L14.1064 0.105455ZM70.7759 18.3648H75.9361C76.5899 18.3648 76.8701 17.9329 76.9635 17.3725C77.6173 13.4848 78.2828 9.60874 78.9833 5.72103C79.0767 5.26571 78.7731 4.82207 78.3178 4.74035C78.2711 4.74035 78.2361 4.72867 78.1894 4.72867H76.9168C76.3915 4.72867 76.0996 5.25404 76.0295 5.69768L74.3484 15.3994C74.3367 15.5512 74.2083 15.6563 74.0565 15.6563H71.2079C69.9119 15.6563 69.6785 14.8157 69.8769 13.7066L71.2429 5.72103C71.3363 5.27739 71.0561 4.83375 70.6124 4.74035C70.5657 4.74035 70.5074 4.72867 70.4607 4.717H69.1881C68.6628 4.717 68.3826 5.21902 68.3008 5.67433L67.0516 12.7142C66.7948 14.1386 66.8065 15.773 67.7288 16.9755C68.476 17.8862 69.5967 18.3999 70.7759 18.3648ZM49.2476 10.2275H44.601C44.3909 10.2275 44.3208 10.0641 44.3909 9.86558C44.9979 8.11437 46.8893 6.50324 48.7572 7.51895C49.6328 8.02097 49.6095 9.1184 49.5044 9.95898C49.5044 10.0991 49.3877 10.2042 49.2476 10.2158V10.2275ZM49.878 4.92715C47.3796 4.02819 44.5893 4.78705 42.8965 6.83014C42.1259 7.86919 41.5772 9.06002 41.3204 10.3209C40.9701 11.8153 40.6432 13.8467 41.1569 15.3527C41.8341 17.3491 43.8305 18.3415 45.8502 18.3415H50.1699C50.4617 18.3415 50.6836 18.0963 50.6952 17.8044C50.7186 16.6486 49.7963 15.6913 48.6288 15.668C48.5938 15.668 48.5588 15.668 48.5237 15.668H46.6674C46.002 15.7147 45.3482 15.6213 44.7178 15.3878C43.7604 14.9324 43.7254 13.8467 43.8188 12.9244C43.8305 12.7609 43.9706 12.6442 44.134 12.6442H51.2907C51.7576 12.6208 52.1429 12.2589 52.213 11.7919C52.3531 11.1732 52.4581 10.5544 52.5165 9.92396C52.6916 7.86919 51.9328 5.72103 49.878 4.9038V4.92715Z" /><path d="M102.516 4.68085L101.934 8.03097H109.335C109.597 8.03097 109.775 8.14977 109.727 8.51805L109.585 9.4328C109.537 9.69415 109.418 9.91987 109.003 9.91987H101.601L100.901 13.9709C100.829 14.3629 100.782 14.6718 100.782 14.9569C100.782 16.038 101.388 16.4775 103.407 16.4775H107.993C108.23 16.4775 108.325 16.5251 108.278 16.7627L108.064 17.9388C108.04 18.0813 108.017 18.2239 107.779 18.2714C107.078 18.3427 104.476 18.4377 103.051 18.4377C100.307 18.4377 98.6196 17.3091 98.6196 14.9688C98.6196 14.6599 98.6434 14.3154 98.7147 13.959L100.33 4.68085C100.96 1.14066 102.884 0.202148 106.258 0.202148C108.979 0.202148 110.286 0.297187 110.939 0.415986C111.105 0.439746 111.177 0.511025 111.129 0.748622L110.915 1.87721C110.892 2.11481 110.773 2.16232 110.606 2.16232H105.949C103.395 2.16232 102.837 2.83948 102.528 4.66897L102.516 4.68085Z" /><path d="M122.236 9.85949L120.834 17.7952C120.787 18.0566 120.525 18.2823 120.252 18.2823H119.1C118.815 18.2823 118.66 18.0447 118.708 17.7952L120.11 9.85949C120.181 9.39618 120.228 8.92098 120.228 8.52895C120.228 7.3766 119.741 6.69945 117.983 6.69945C117.068 6.69945 116.13 6.88953 114.585 7.6142L112.804 17.7834C112.756 18.021 112.495 18.2704 112.221 18.2704H111.045C110.76 18.2704 110.641 18.0091 110.689 17.7834L112.839 5.4877C112.887 5.22635 113.029 5.00063 113.469 5.00063H114.479C114.859 5.00063 114.989 5.14319 114.942 5.4877L114.871 5.99854C116.023 5.34515 117.116 4.84619 118.755 4.84619C121.333 4.84619 122.367 6.48561 122.367 8.55271C122.367 8.95662 122.319 9.4437 122.248 9.85949H122.236Z" /><path d="M131.74 5.01276C132.025 5.01276 132.18 5.15532 132.132 5.49983L131.99 6.31954C131.918 6.7591 131.705 6.80662 131.431 6.80662H128.83L127.333 15.2651C127.285 15.5502 127.262 15.7759 127.262 15.966C127.262 16.6669 127.594 16.7382 128.366 16.7382H129.84C130.101 16.7382 130.22 16.8095 130.172 17.0708L130.03 17.9143C129.982 18.1281 129.863 18.2707 129.519 18.3301C129.032 18.4014 128.461 18.4489 127.998 18.4489C126.359 18.4489 125.099 17.8192 125.099 16.1561C125.099 15.8472 125.123 15.5977 125.194 15.2176L126.691 6.80662L124.399 6.54526C124.161 6.5215 123.959 6.35518 124.006 6.1057L124.125 5.45231C124.197 5.11968 124.387 5.01276 124.66 5.01276H127L127.392 2.64867C127.44 2.41107 127.654 2.20911 127.927 2.16159L129.21 1.97151C129.543 1.92399 129.626 2.13783 129.566 2.37543L129.127 5.00088H131.728L131.74 5.01276Z" /><path d="M143.406 10.7742L143.216 11.784C143.145 12.0929 143.05 12.3186 142.682 12.3186H134.556L134.508 12.6037C134.413 13.1621 134.366 13.6373 134.366 14.0768C134.366 15.8826 135.495 16.6548 137.36 16.6548C138.761 16.6548 140.401 16.4884 141.529 16.3221C141.886 16.2746 142.04 16.3459 141.993 16.6548L141.85 17.4745C141.803 17.8071 141.684 17.9616 141.268 18.0328C139.843 18.2942 138.666 18.4367 137.051 18.4367C134.663 18.4367 132.299 17.2369 132.299 13.9818C132.299 13.5185 132.346 13.0195 132.441 12.4849L132.75 10.798C133.475 6.96081 135.72 4.84619 139.142 4.84619C142.135 4.84619 143.549 6.79449 143.549 9.3249C143.549 9.78821 143.502 10.2634 143.406 10.7742ZM138.821 6.69945C136.73 6.69945 135.328 8.36263 134.889 10.5842L134.865 10.703H141.256L141.28 10.5842C141.375 10.0971 141.423 9.64565 141.423 9.25362C141.423 7.54292 140.532 6.69945 138.821 6.69945Z" /><path d="M146.758 17.7956C146.71 18.0569 146.449 18.2826 146.176 18.2826H145C144.738 18.2826 144.596 18.045 144.643 17.7956L146.794 5.49991C146.841 5.23855 147.079 5.01284 147.352 5.01284H148.481C148.766 5.01284 148.896 5.25043 148.837 5.49991L148.742 6.05826C150.049 5.04848 151.201 4.8584 152.306 4.8584H152.353C152.769 4.8584 152.84 5.02472 152.793 5.29795L152.627 6.30774C152.579 6.5691 152.389 6.71166 152.044 6.71166H151.973C150.595 6.71166 149.704 6.94925 148.528 7.69768L146.77 17.7956H146.758Z" /><path d="M163.924 10.798L163.615 12.5325C162.866 16.631 161.013 18.4367 157.319 18.4367C156.57 18.4367 155.442 18.3417 154.551 18.1754L153.778 22.5353C153.731 22.7729 153.493 22.9986 153.22 22.9986H151.984C151.771 22.9986 151.652 22.8561 151.652 22.6422V22.5472L154.574 5.9629C154.622 5.63026 154.741 5.49958 155.18 5.40454C156.511 5.09567 158.245 4.84619 159.718 4.84619C162.664 4.84619 164.078 6.62817 164.078 9.25362C164.078 9.74069 164.031 10.2634 163.936 10.798H163.924ZM159.386 6.62817C158.376 6.62817 157.188 6.74697 156.511 6.86577L154.848 16.4172C155.62 16.5597 156.843 16.6548 157.616 16.6548C159.837 16.6548 161.013 15.0153 161.476 12.5325L161.785 10.798C161.904 10.1684 161.952 9.62189 161.952 9.13482C161.952 7.4954 161.251 6.62817 159.374 6.62817H159.386Z" /><path d="M167.274 17.7956C167.227 18.0569 166.965 18.2826 166.692 18.2826H165.516C165.254 18.2826 165.112 18.045 165.159 17.7956L167.31 5.49991C167.357 5.23855 167.595 5.01284 167.868 5.01284H168.997C169.282 5.01284 169.412 5.25043 169.353 5.49991L169.258 6.05826C170.565 5.04848 171.717 4.8584 172.822 4.8584H172.869C173.285 4.8584 173.357 5.02472 173.309 5.29795L173.143 6.30774C173.095 6.5691 172.905 6.71166 172.561 6.71166H172.489C171.111 6.71166 170.22 6.94925 169.044 7.69768L167.286 17.7956H167.274Z" /><path d="M177.158 5.0133C177.443 5.0133 177.609 5.10834 177.538 5.50037L175.388 17.796C175.34 18.0574 175.221 18.2831 174.805 18.2831H173.653C173.32 18.2831 173.214 18.0455 173.273 17.796L175.423 5.50037C175.494 5.06082 175.732 5.0133 176.005 5.0133H177.158ZM178.096 0C178.429 0 178.536 0.142558 178.488 0.487074L178.156 2.41161C178.084 2.74425 177.965 2.89868 177.573 2.89868H176.338C175.982 2.89868 175.898 2.66109 175.958 2.41161L176.29 0.487074C176.338 0.225717 176.504 0 176.873 0H178.108L178.096 0Z" /><path d="M188.313 5.15539C188.669 5.22667 188.717 5.29795 188.669 5.64247L188.551 6.43842C188.503 6.72354 188.361 6.90173 187.992 6.85421C187.173 6.75917 185.795 6.66414 184.452 6.66414C183.347 6.66414 181.922 6.97301 181.922 8.37484C181.922 8.98071 182.409 9.43214 183.228 9.96674L185.379 11.3923C187.042 12.4971 187.529 13.3406 187.529 14.6236C187.529 17.4629 184.999 18.4608 182.349 18.4608C181.34 18.4608 179.653 18.3658 178.583 18.1044C178.346 18.0569 178.12 17.8906 178.18 17.6174L178.322 16.7739C178.393 16.465 178.512 16.37 178.928 16.4175C180.057 16.5601 181.803 16.6789 182.67 16.6789C184.096 16.6789 185.391 16.168 185.391 14.6236C185.391 14.0653 185.105 13.6376 183.989 12.9129L181.815 11.4874C180.484 10.6201 179.783 9.65786 179.783 8.35108C179.783 5.67811 182.361 4.8584 184.773 4.8584C186.626 4.8584 187.28 4.95344 188.313 5.16727V5.15539Z" /><path d="M200.929 10.7742L200.739 11.784C200.668 12.0929 200.573 12.3186 200.205 12.3186H192.079L192.031 12.6037C191.936 13.1621 191.889 13.6373 191.889 14.0768C191.889 15.8826 193.017 16.6548 194.883 16.6548C196.284 16.6548 197.924 16.4884 199.052 16.3221C199.409 16.2746 199.563 16.3459 199.516 16.6548L199.373 17.4745C199.326 17.8071 199.207 17.9616 198.791 18.0328C197.365 18.2942 196.189 18.4367 194.574 18.4367C192.186 18.4367 189.822 17.2369 189.822 13.9818C189.822 13.5185 189.869 13.0195 189.964 12.4849L190.273 10.798C190.998 6.96081 193.243 4.84619 196.665 4.84619C199.658 4.84619 201.072 6.79449 201.072 9.3249C201.072 9.78821 201.024 10.2634 200.929 10.7742ZM196.344 6.69945C194.241 6.69945 192.851 8.36263 192.412 10.5842L192.388 10.703H198.779L198.803 10.5842C198.898 10.0971 198.945 9.64565 198.945 9.25362C198.945 7.54292 198.055 6.69945 196.344 6.69945Z" /><path d="M220.84 18.2714H219.39C219.177 18.2714 219.082 18.1051 219.058 17.915L218.452 12.3671H212.203L209.696 17.915C209.625 18.1051 209.483 18.2714 209.186 18.2714H207.713C207.499 18.2714 207.38 18.1526 207.38 17.9625C207.38 17.8912 207.38 17.82 207.427 17.7249L214.662 2.03165C215.339 0.558544 216.373 0.202148 217.43 0.202148C218.416 0.202148 219.379 0.534784 219.557 2.00789L221.244 17.7249V17.82C221.244 18.0813 221.125 18.2833 220.84 18.2833V18.2714ZM217.537 2.5306C217.513 2.26924 217.395 2.09105 217.145 2.09105C216.884 2.09105 216.706 2.25736 216.587 2.5306L212.999 10.4663H218.333L217.537 2.5306Z" /><path d="M228.526 0.356445C228.835 0.356445 228.93 0.499004 228.883 0.80788L225.889 17.7842C225.841 18.1168 225.699 18.2713 225.354 18.2713H224.024C223.715 18.2713 223.632 18.0337 223.691 17.7842L226.685 0.80788C226.732 0.570283 226.828 0.356445 227.196 0.356445H228.526Z" /></svg>