<svg xmlns="http://www.w3.org/2000/svg" width="115" height="35" viewBox="0 0 115 35" fill="none"><path fill-rule="evenodd" clip-rule="evenodd" d="M10.8856 6H17.1729C17.7361 6 18.1032 6.29203 17.9741 6.86945C17.7579 7.8202 17.3757 8.53036 16.7589 8.95015C16.3348 9.23886 15.8018 9.38985 15.1347 9.38985C14.7021 9.38985 14.2516 9.37706 13.7916 9.36399H13.7916H13.7916H13.7915H13.7915C11.956 9.31188 9.96958 9.25547 8.36793 9.9905C5.07101 11.4894 4.61953 14.3186 4.13486 17.3557L4.13486 17.3557C4.05673 17.8453 3.97774 18.3403 3.88582 18.836C3.08026 24.7618 6.28537 24.7141 10.4801 24.6516C10.9201 24.6451 11.371 24.6384 11.8292 24.6384C12.0136 24.6384 12.1326 24.5421 12.1779 24.3812L12.793 20.7242L12.7975 20.6895C12.8828 20.0199 12.9466 19.5183 11.8393 19.3503C10.6676 19.1363 9.58316 18.1042 9.58316 16.8598C9.58316 16.5163 9.84464 16.2591 10.2335 16.2591H16.0851C16.9014 16.2591 17.1913 16.9577 17.0857 17.6761L15.366 26.802C15.2453 27.4458 14.9318 28 14.1139 28H6.80573C4.04338 28 1.8962 26.6162 0.674262 24.3297C-0.212438 22.6672 -0.0498481 20.7076 0.186493 18.8824C0.41613 17.1502 0.702757 15.3183 1.18717 13.6309C1.69673 11.8638 2.56667 10.2975 3.72994 9.0497C5.50501 7.1565 7.96397 6 10.8856 6ZM109 9.3298H109.822V12H110.174V9.3298H111V9H109V9.3298ZM114.333 9L113.498 11.4599L112.688 9H112.203L112 12H112.363L112.497 9.3888L113.321 11.9818H113.61L114.499 9.3888L114.625 12H115V11.9773L114.818 9H114.333ZM36.5477 12H42.5116C43.8707 12 45.2283 12.5407 46.0504 13.6236C47.1132 15.0389 47.1339 16.9514 46.8328 18.6234L45.3812 26.8719C45.2904 27.3932 44.967 28 44.3519 28H42.8813C42.2949 28 41.8759 27.4335 41.9778 26.8332L43.5664 17.4953C43.7895 16.1913 43.5186 15.2068 42.0177 15.2068H38.729C38.5394 15.2068 38.4231 15.3198 38.3896 15.5021L36.4378 26.8654C36.347 27.3916 36.0203 28 35.4021 28H33.9267C33.3339 28 32.9133 27.4125 33.0153 26.8267C33.8311 22.2836 34.6118 17.7325 35.3591 13.1749C35.4658 12.51 35.7972 11.9968 36.5477 12ZM28.4016 18.274C28.3834 18.4382 28.2495 18.5752 28.0709 18.5752H22.5047C22.2533 18.5752 22.1607 18.3856 22.2467 18.164C22.9776 16.1429 25.2216 14.2797 27.5004 15.4496C28.5471 16.0154 28.5256 17.2937 28.4016 18.274ZM28.8216 12.4451C25.9244 11.3596 22.3327 12.3224 20.4145 14.6495C19.4603 15.8034 18.875 17.2348 18.5178 18.7235C18.0994 20.4784 17.7009 22.7943 18.3193 24.5428C19.1346 26.8444 21.5241 28 23.9566 28H29.1325C29.4715 28 29.7625 27.7051 29.7625 27.3816C29.7625 25.92 28.6 24.9126 27.158 24.9126H24.9356C24.1534 24.9126 23.2753 24.8919 22.6006 24.5827C21.4563 24.0567 21.372 22.7991 21.5191 21.736C21.5423 21.5447 21.6895 21.414 21.8912 21.414H30.4885C31.0854 21.4028 31.4526 20.9996 31.5997 20.429C31.7767 19.7181 31.8924 18.996 31.9635 18.2692C32.2017 15.8768 31.2872 13.3935 28.8216 12.4451ZM74.0848 17.0215L81.7384 7.53091C82.286 6.85217 81.9321 6.04336 81.0657 6.04336H79.6001C79.1861 6.04336 78.8205 6.24515 78.5651 6.55866L70.7212 16.2044L71.9865 13.0875C72.0583 12.9074 72.0533 12.7173 71.9715 12.5439L69.2138 6.60202C69.0436 6.23514 68.7397 6 68.3274 6H54C62.1895 6.60202 65.4229 7.50756 67.5345 11.1647C68.3013 12.5197 68.9443 13.9418 69.5864 15.3619C69.7915 15.8155 69.9965 16.2688 70.2054 16.7197L62.4132 26.2387C62.2079 26.4905 62.0176 26.7573 62.0176 27.0942C62.0176 27.5228 62.308 27.9997 62.7804 27.9997H64.6467C65.089 28.0097 65.463 27.7662 65.7668 27.3977L71.7545 19.9933L74.9762 26.874C75.2566 27.4744 75.5053 27.9997 76.1964 27.9997H77.5736C78.0477 27.9997 78.4283 27.8096 78.6085 27.3543C78.7421 26.9608 78.6453 26.7189 78.48 26.3637L74.0848 17.0215ZM59.0698 18.5752C59.2467 18.5752 59.3823 18.4382 59.4021 18.274C59.5228 17.2937 59.546 16.0154 58.4993 15.4496C56.2223 14.2797 53.9784 16.1429 53.2475 18.164C53.1615 18.3856 53.2541 18.5752 53.5055 18.5752H59.0698ZM59.8221 12.4451C62.2876 13.3935 63.2004 15.8768 62.9639 18.2692C62.8912 18.996 62.7771 19.7181 62.5985 20.429C62.4513 20.9996 62.0859 21.4028 61.4873 21.414H52.892C52.6902 21.414 52.5414 21.5447 52.5183 21.736C52.3711 22.7991 52.4571 24.0567 53.6014 24.5827C54.2744 24.8919 55.1541 24.9126 55.9362 24.9126H58.157C59.5989 24.9126 60.7614 25.92 60.7614 27.3816C60.7614 27.7051 60.472 28 60.133 28H54.9556C52.5232 28 50.1355 26.8444 49.3186 24.5428C48.7018 22.7943 49.0987 20.4784 49.517 18.7235C49.8742 17.2348 50.4612 15.8034 51.4137 14.6495C53.3318 12.3224 56.9251 11.3596 59.8221 12.4451ZM105.487 11.2854C102.513 10.8484 98.713 10.5532 96.5903 13.2317C95.3274 15.0546 95.7306 17.0576 96.94 18.5202C97.6317 19.3558 98.5464 19.9037 99.4606 20.4513C100.329 20.9715 101.197 21.4915 101.873 22.2578C102.437 22.9015 102.163 23.9589 101.482 24.3842C100.201 25.2598 97.3027 24.8162 95.9216 24.556C95.2254 24.4659 94.56 24.4393 94.2637 25.108C94.0872 25.5066 93.9641 26.2455 94.0095 26.6641C94.0791 27.3112 94.7737 27.548 95.295 27.6564C96.4203 27.8883 97.6152 28 98.7664 28C101.396 28 104.04 27.468 105.327 24.8128C105.759 23.4819 105.865 21.9009 105.076 20.6817C104.377 19.6316 103.339 18.9523 102.316 18.2831L102.316 18.283C102.116 18.1519 101.916 18.0212 101.72 17.8882C101.56 17.7802 101.375 17.6678 101.182 17.5494C100.489 17.1266 99.6731 16.6283 99.3897 15.9885C99.2246 15.5416 99.4011 15.0679 99.7362 14.7627C100.707 13.8781 103.194 14.1851 104.803 14.3836C105.133 14.4243 105.425 14.4604 105.661 14.4808C106.162 14.5275 106.488 14.3041 106.749 13.8788C106.956 13.4051 106.988 12.9148 107 12.4144C107.019 11.5739 106.399 11.4188 105.487 11.2854ZM91.5969 12H93.0724C93.6668 12 94.0891 12.5875 93.9839 13.1717C93.1712 17.7164 92.3872 22.2691 91.6447 26.8251C91.5347 27.4884 91.2033 28.0032 90.4527 28H84.4883C83.1307 28 81.7715 27.4593 80.9508 26.3748C79.888 24.9594 79.8657 23.047 80.1668 21.3766L81.6201 13.1281C81.7093 12.6052 82.0312 12 82.6463 12H84.1171C84.7067 12 85.1289 12.5487 85.0222 13.1668L83.4319 22.5031C83.212 23.8087 83.4813 24.7916 84.9823 24.7916H88.2713C88.4609 24.7916 88.5772 24.6786 88.6091 24.4979L90.5643 13.1329C90.6503 12.6197 90.9818 12 91.5969 12Z" fill="white"/></svg>