<svg width="24" height="24" viewBox="0 0 24 24" fill="none" xmlns="http://www.w3.org/2000/svg"><path fill-rule="evenodd" clip-rule="evenodd" d="M5.71 7.35V17.71C5.71537 18.0723 6.00774 18.3646 6.37 18.37H17.14V19.87H6.37C5.17706 19.87 4.21 18.9029 4.21 17.71V7.35H5.71ZM19.08 4.13C19.3193 4.11623 19.5536 4.20177 19.7278 4.36644C19.9019 4.53112 20.0004 4.76033 20 5V15.93C20 16.1598 19.908 16.3801 19.7446 16.5417C19.5811 16.7032 19.3598 16.7927 19.13 16.7901H8.15C7.92109 16.7927 7.70077 16.703 7.5389 16.5411C7.37703 16.3792 7.28729 16.1589 7.28994 15.93V5C7.28733 4.77019 7.37675 4.54886 7.53832 4.38541C7.6999 4.22196 7.92017 4.12998 8.15 4.13H19.08ZM18.45 5.63H8.79V15.29H18.45V5.63ZM15.06 10.0275C15.1784 10.0275 15.2882 10.089 15.35 10.19L17.9 14.19C17.9678 14.2895 17.9779 14.4175 17.9265 14.5265C17.8751 14.6354 17.7699 14.709 17.65 14.72H9.65C9.52252 14.7186 9.40589 14.6479 9.34558 14.5356C9.28526 14.4233 9.29078 14.2871 9.36 14.18L11.42 11.06C11.4851 10.9637 11.5937 10.906 11.71 10.906C11.8262 10.906 11.9349 10.9637 12 11.06L13.12 12.76L14.77 10.19C14.8318 10.089 14.9416 10.0275 15.06 10.0275ZM11.71 6.34C12.4666 6.34 13.08 6.95337 13.08 7.71C13.084 8.26996 12.7493 8.77684 12.2327 8.993C11.7162 9.20916 11.1202 9.09173 10.7242 8.69577C10.3283 8.29981 10.2108 7.70383 10.427 7.18726C10.6432 6.67069 11.15 6.33596 11.71 6.34Z" fill="#121212"/></svg>
