<svg width="24" height="24" viewBox="0 0 24 24" fill="none" xmlns="http://www.w3.org/2000/svg"><path fill-rule="evenodd" clip-rule="evenodd" d="M19.37 4C19.7179 4 20 4.28206 20 4.63V19.37C20 19.7179 19.7179 20 19.37 20H4.63C4.28206 20 4 19.7179 4 19.37V4.63C4 4.28206 4.28206 4 4.63 4H19.37ZM18.5 5.5H5.5V18.5H18.5V5.5ZM13.82 11.346C13.9362 11.346 14.0449 11.4037 14.11 11.5L17.5 16.85C17.5711 16.9554 17.5774 17.0917 17.5164 17.2033C17.4553 17.3149 17.3371 17.383 17.21 17.38H6.82C6.69252 17.3786 6.5759 17.3079 6.51558 17.1956C6.45526 17.0833 6.46078 16.9471 6.53 16.84L9.3 12.64C9.36509 12.5437 9.47375 12.486 9.59 12.486C9.70625 12.486 9.81491 12.5437 9.88 12.64L11.3699 14.908L13.53 11.5C13.5821 11.4229 13.662 11.3706 13.7514 11.3527L13.82 11.346ZM9.59 6.78997C10.5471 6.7955 11.32 7.57292 11.32 8.53C11.32 9.23467 10.895 9.86976 10.2435 10.1385C9.59212 10.4072 8.84293 10.2565 8.34609 9.75679C7.84925 9.25707 7.70286 8.50703 7.97534 7.85717C8.24781 7.20731 8.88534 6.78595 9.59 6.78997Z" fill="#121212"/></svg>
