<svg width="24" height="24" viewBox="0 0 24 24" fill="none" xmlns="http://www.w3.org/2000/svg"><path fill-rule="evenodd" clip-rule="evenodd" d="M12 4C7.58172 4 4 7.58172 4 12C4 16.4183 7.58172 20 12 20C16.4183 20 20 16.4183 20 12C19.9948 7.58388 16.4161 4.0052 12 4ZM18.8079 11.4168H15.0718C15.0651 10.4418 14.9598 9.46995 14.7573 8.51616C14.5267 7.42592 14.1596 6.36911 13.6645 5.37076C16.4914 6.0855 18.5556 8.51197 18.8079 11.4168ZM12.2145 5.17072C12.5291 5.67398 13.2349 6.95038 13.6274 8.81938C13.8046 9.67359 13.8969 10.5432 13.903 11.4156H9.96619C9.97247 10.5432 10.065 9.67356 10.2424 8.81938C10.6336 6.95541 11.3363 5.68027 11.6521 5.17449C11.7672 5.16883 11.8836 5.16568 12 5.16568C12.0717 5.16694 12.1434 5.1682 12.2145 5.17072ZM10.1857 5.41165C9.70214 6.39824 9.34292 7.44105 9.1163 8.51616C8.91345 9.4699 8.80807 10.4418 8.80176 11.4168H5.19525C5.4434 8.57016 7.43254 6.17657 10.1857 5.41165ZM5.19525 12.5838H8.83322C8.95211 14.3502 9.38995 16.3954 10.3933 18.6418C7.54108 17.9457 5.45003 15.5087 5.19525 12.5838ZM11.7742 18.8293C10.6267 16.4923 10.1386 14.3798 10.0071 12.5838H13.869C13.7381 14.3811 13.2487 16.4941 12.1 18.8318H12.0031C11.9264 18.8331 11.8471 18.8318 11.771 18.8293H11.7742ZM13.4645 18.6758C14.4786 16.4161 14.9202 14.359 15.0372 12.5838H18.8085C18.5482 15.5645 16.3831 18.0311 13.4614 18.6758H13.4645Z" fill="#121212"/></svg>
