<svg width="24" height="24" viewBox="0 0 24 24" fill="none" xmlns="http://www.w3.org/2000/svg"><path fill-rule="evenodd" clip-rule="evenodd" d="M10.2634 4.93055C10.2249 4.85073 10.2249 4.7577 10.2634 4.67788L11.7289 2.16387C11.7876 2.06245 11.8959 2 12.0131 2C12.1303 2 12.2387 2.06245 12.2974 2.16387L13.7502 4.69052C13.7752 4.76425 13.7752 4.84418 13.7502 4.91791C13.2017 4.77292 12.6373 4.69654 12.07 4.69052C11.46 4.69328 10.8529 4.77395 10.2634 4.93055ZM10.2634 19.1429C10.2535 19.1887 10.2535 19.2361 10.2634 19.2819L11.7163 21.8086C11.775 21.91 11.8833 21.9724 12.0005 21.9724C12.1177 21.9724 12.226 21.91 12.2848 21.8086L13.7376 19.2819C13.7376 19.2819 13.7376 19.2061 13.7376 19.1682C13.1803 19.311 12.6073 19.3832 12.0321 19.383C11.4265 19.3771 10.824 19.2965 10.2382 19.1429H10.2634ZM4.73008 12.0178C4.73191 11.4036 4.81258 10.7922 4.97011 10.1986C4.88561 10.1613 4.78931 10.1613 4.70481 10.1986L2.17816 11.6388C2.0692 11.6916 2 11.802 2 11.923C2 12.0441 2.0692 12.1545 2.17816 12.2073L4.70481 13.6601C4.77854 13.6851 4.85848 13.6851 4.93221 13.6601C4.80429 13.1218 4.7365 12.571 4.73008 12.0178ZM21.8228 11.6641L19.2962 10.2239C19.2472 10.2065 19.1936 10.2065 19.1446 10.2239C19.3083 10.8083 19.3974 11.411 19.4099 12.0178C19.4073 12.5879 19.3395 13.1559 19.2078 13.7106C19.2448 13.7223 19.2845 13.7223 19.3215 13.7106L21.8481 12.2578C21.9471 12.1947 22.0049 12.0836 21.9997 11.9663C21.9945 11.849 21.927 11.7434 21.8228 11.6893V11.6641ZM5.8039 8.22782C6.42595 7.19098 7.29371 6.32323 8.33055 5.70118C8.28905 5.61794 8.21643 5.5544 8.12842 5.52431L5.32384 4.76632C5.20978 4.7347 5.08754 4.7669 5.00385 4.85059C4.92016 4.93428 4.88796 5.05652 4.91958 5.17058L5.63967 8.03832C5.66294 8.12308 5.72332 8.19275 5.8039 8.22782ZM18.3487 15.8078C17.7313 16.8482 16.8625 17.717 15.8221 18.3344C15.8513 18.3402 15.8813 18.3402 15.9105 18.3344L18.7151 19.0798C18.8291 19.1114 18.9514 19.0792 19.0351 18.9955C19.1188 18.9118 19.1509 18.7896 19.1193 18.6755L18.3613 15.8836C18.3613 15.8836 18.374 15.8078 18.3487 15.8078ZM5.74074 15.8078C5.68209 15.8505 5.64153 15.9136 5.62704 15.9846L4.86904 18.7766C4.83743 18.8906 4.86962 19.0129 4.95331 19.0966C5.03701 19.1803 5.15925 19.2125 5.27331 19.1808L8.07789 18.3344C8.12821 18.3409 8.17916 18.3409 8.22948 18.3344C7.20932 17.7039 6.35574 16.8373 5.74074 15.8078ZM18.753 4.89265L15.9484 5.65064C15.8768 5.63584 15.8024 5.65444 15.7463 5.70118C16.7821 6.32445 17.6496 7.19194 18.2729 8.22782C18.3167 8.18711 18.3475 8.13437 18.3613 8.07622L19.1193 5.27165C19.1627 5.16051 19.1423 5.03464 19.0662 4.94279C18.9901 4.85095 18.8702 4.80758 18.753 4.82948V4.89265ZM5.99339 12.0178C5.98829 14.4767 7.46556 16.6963 9.73581 17.6408C12.0061 18.5854 14.6218 18.0686 16.3623 16.3317C18.1028 14.5948 18.625 11.9802 17.6852 9.70795C16.7454 7.43573 14.5289 5.95384 12.07 5.95384C8.71891 5.95384 6.00037 8.66672 5.99339 12.0178Z" fill="#121212"/></svg>
