<svg width="24" height="24" viewBox="0 0 24 24" fill="none" xmlns="http://www.w3.org/2000/svg"><path d="M6.90909 10.8182V19.5455H4V10.8182H6.90909ZM9.81818 19.5455C9.43241 19.5455 9.06244 19.3922 8.78966 19.1194C8.51688 18.8466 8.36364 18.4767 8.36364 18.0909V10.8182C8.36364 10.4182 8.52364 10.0545 8.79273 9.79273L13.5782 5L14.3491 5.77091C14.5455 5.96727 14.6691 6.23636 14.6691 6.53455L14.6473 6.76727L13.9564 10.0909H18.5455C19.3527 10.0909 20 10.7455 20 11.5455V13C20 13.1891 19.9636 13.3636 19.8982 13.5309L17.7018 18.6582C17.4836 19.1818 16.9673 19.5455 16.3636 19.5455H9.81818ZM9.81818 18.0909H16.3855L18.5455 13V11.5455H12.1527L12.9745 7.67636L9.81818 10.84V18.0909Z" fill="#121212"/></svg>
