<svg width="24" height="24" viewBox="0 0 24 24" fill="none" xmlns="http://www.w3.org/2000/svg"><path fill-rule="evenodd" clip-rule="evenodd" d="M16.9535 4.01199C15.6388 2.71838 13.8533 1.99418 11.9934 2.00004C10.1376 1.99668 8.35678 2.72005 7.04452 4.01031C5.73227 5.30058 4.99658 7.05153 5.00001 8.87624C5.18285 10.675 5.76177 12.4131 6.69656 13.9697C7.83622 15.9816 11.6437 21.8009 11.6437 21.8009C11.7184 21.9243 11.8537 22 11.9999 22C12.146 22 12.2813 21.9243 12.356 21.8009C12.356 21.8009 16.1635 16.0325 17.3031 14.0206C18.2379 12.464 18.8169 10.7259 18.9997 8.92717C19.0175 7.0849 18.28 5.3132 16.9535 4.01199ZM9.18306 8.72343C9.1761 7.22183 10.4059 5.99765 11.9331 5.98605C13.4603 5.97445 14.7092 7.17979 14.7258 8.68133C14.7424 10.1829 13.5204 11.4146 11.9934 11.4357C11.2618 11.4357 10.5601 11.1499 10.0428 10.6413C9.52551 10.1326 9.23489 9.44277 9.23489 8.72343H9.18306Z" fill="#121212"/></svg>
