<svg width="24" height="24" viewBox="0 0 24 24" fill="none" xmlns="http://www.w3.org/2000/svg"><path fill-rule="evenodd" clip-rule="evenodd" d="M6.4304 7.98H4.5204C4.38342 7.98269 4.25111 7.93014 4.15329 7.83421C4.05548 7.73827 4.0004 7.60701 4.0004 7.47V5.57C4.0004 5.43299 4.05548 5.30173 4.15329 5.20579C4.25111 5.10986 4.38342 5.05731 4.5204 5.06H6.4304C6.56566 5.06 6.69538 5.11373 6.79103 5.20938C6.88667 5.30502 6.9404 5.43474 6.9404 5.57V7.47C6.9404 7.60526 6.88667 7.73498 6.79103 7.83062C6.69538 7.92627 6.56566 7.98 6.4304 7.98ZM6.4304 13.98H4.5004C4.36425 13.9801 4.23395 13.9247 4.13958 13.8266C4.04522 13.7284 3.99495 13.596 4.0004 13.46V11.55C4.00035 11.2722 4.22265 11.0454 4.5004 11.04H6.4004C6.68207 11.04 6.9104 11.2683 6.9104 11.55V13.46C6.9104 13.5944 6.85638 13.7231 6.76044 13.8171C6.66449 13.9112 6.53473 13.9627 6.4004 13.96L6.4304 13.98ZM6.4304 19.98H4.5304C4.39343 19.9854 4.26005 19.9354 4.16034 19.8414C4.06063 19.7473 4.00298 19.6171 4.0004 19.48V17.58C4.0004 17.2983 4.22874 17.07 4.5104 17.07H6.4404C6.57476 17.07 6.70348 17.124 6.79754 17.22C6.8916 17.3159 6.94309 17.4457 6.9404 17.58V19.48C6.94309 19.6143 6.8916 19.7441 6.79754 19.84C6.70348 19.936 6.57476 19.99 6.4404 19.99L6.4304 19.98ZM8.6504 5H19.9104V8H8.6504V5ZM8.6504 14H19.9104V11H8.6504V14ZM8.6504 20H19.9104V17H8.6504V20Z" fill="#121212"/></svg>
