<svg width="24" height="24" viewBox="0 0 24 24" fill="none" xmlns="http://www.w3.org/2000/svg"><path fill-rule="evenodd" clip-rule="evenodd" d="M12 4C14.1217 4 16.1566 4.84285 17.6569 6.34315C19.1571 7.84344 20 9.87827 20 12C20 14.1217 19.1571 16.1566 17.6569 17.6569C16.1566 19.1571 14.1217 20 12 20C9.87827 20 7.84344 19.1571 6.34315 17.6569C4.84285 16.1566 4 14.1217 4 12C4 7.58172 7.58172 4 12 4ZM12 5.6C8.472 5.6 5.6 8.472 5.6 12C5.6 15.528 8.472 18.4 12 18.4C15.528 18.4 18.4 15.528 18.4 12C18.4 8.472 15.528 5.6 12 5.6ZM12.8 11.2V16H11.2V11.2H12.8ZM12.8 8V9.6H11.2V8H12.8Z" fill="#121212"/></svg>
