<svg width="24" height="24" viewBox="0 0 24 24" fill="none" xmlns="http://www.w3.org/2000/svg"><path fill-rule="evenodd" clip-rule="evenodd" d="M10.1 18.5385H13.23C13.2771 19.1275 12.9896 19.6931 12.4859 20.002C11.9822 20.3109 11.3478 20.3109 10.8441 20.002C10.3404 19.6931 10.0529 19.1275 10.1 18.5385ZM16.73 14.7685V10.7685C16.7316 8.41832 15.1239 6.37258 12.84 5.81851V5.28851C12.8812 4.84285 12.6666 4.41225 12.2861 4.17668C11.9055 3.94111 11.4245 3.94111 11.0439 4.17668C10.6634 4.41225 10.4488 4.84285 10.49 5.28851V5.81851C8.17372 6.36164 6.54464 8.43955 6.57 10.8185V14.8185L5 16.3285V17.1085H18.32V16.3185" fill="#121212"/></svg>
