<svg width="24" height="24" viewBox="0 0 24 24" fill="none" xmlns="http://www.w3.org/2000/svg"><g clip-path="url(#c)"><path fill-rule="evenodd" clip-rule="evenodd" d="M24 0V24H2C0.89543 24 0 23.1046 0 22V2C0 0.89543 0.89543 0 2 0H24ZM16.8716 6.75H15.3716L15.3717 15.0096L13.164 12.5604L12.0498 13.5646L15.3717 17.2496L15.3716 17.4375L15.5407 17.4376L16.2291 18.2016L20.1787 13.5478L19.0351 12.5772L16.8717 15.1276L16.8716 6.75ZM10.04 12.784H6.504V13.776H8.592L6.288 17.288V18H10.064V17.008H7.736L10.04 13.496V12.784ZM9 6.784H7.584L5.952 12H7.152L7.472 10.76H9.064L9.384 12H10.632L9 6.784ZM8.28 7.68C8.34933 7.952 8.41867 8.23466 8.488 8.528C8.55733 8.82133 8.62933 9.09867 8.704 9.36L8.824 9.84H7.712L7.84 9.36C7.91467 9.09867 7.98533 8.82267 8.052 8.532C8.11867 8.24133 8.184 7.95733 8.248 7.68H8.28Z" fill="#121212"/></g><defs><clipPath id="c"><rect width="24" height="24" fill="white"/></clipPath></defs></svg>
