<svg width="24" height="24" viewBox="0 0 24 24" fill="none" xmlns="http://www.w3.org/2000/svg"><g clip-path="url(#c)"><path fill-rule="evenodd" clip-rule="evenodd" d="M23 0C24.1046 0 25 0.89543 25 2V22C25 23.1046 24.1046 24 23 24H0V0H23ZM15.7709 6.79843L11.8213 11.4522L12.9649 12.4228L15.1283 9.87243L15.1284 18.25H16.6284L16.6283 9.99043L18.836 12.4396L19.9502 11.4354L16.6283 7.75043L16.6284 7.5625L16.4593 7.56243L15.7709 6.79843ZM9 12.784H7.584L5.952 18H7.152L7.472 16.76H9.064L9.384 18H10.632L9 12.784ZM8.28 13.68C8.34933 13.952 8.41867 14.2347 8.488 14.528C8.55733 14.8213 8.62933 15.0987 8.704 15.36L8.824 15.84H7.712L7.84 15.36C7.91467 15.0987 7.98533 14.8227 8.052 14.532C8.11867 14.2413 8.184 13.9573 8.248 13.68H8.28ZM10.04 6.784H6.504V7.776H8.592L6.288 11.288V12H10.064V11.008H7.736L10.04 7.496V6.784Z" fill="#121212"/></g><defs><clipPath id="c"><rect width="24" height="24" fill="white"/></clipPath></defs></svg>
