<svg width="24" height="24" viewBox="0 0 24 24" fill="none" xmlns="http://www.w3.org/2000/svg"><path fill-rule="evenodd" clip-rule="evenodd" d="M19.7306 4.25083C20.065 4.58569 20.065 5.12817 19.7306 5.46303L5.64167 19.6777C5.4817 19.8397 5.26322 19.9304 5.03558 19.9293C4.68891 19.929 4.37651 19.7201 4.24389 19.3998C4.11127 19.0795 4.1845 18.7108 4.42948 18.4656L18.5184 4.25083C18.8533 3.91639 19.3957 3.91639 19.7306 4.25083ZM17.747 9.104L18.1589 9.38794C19.2025 10.1307 20.1595 10.9891 21.0114 11.9471C21.0114 11.9471 16.9746 16.7044 11.9886 16.7044C11.4534 16.686 10.9212 16.6171 10.399 16.4986L11.3253 15.5609C11.5437 15.6047 11.7658 15.6276 11.9886 15.6295C12.9711 15.6386 13.9166 15.2547 14.6146 14.5631C15.3126 13.8716 15.7052 12.9297 15.7052 11.9471C15.7056 11.7016 15.6826 11.4565 15.6366 11.2152L17.747 9.104ZM11.9886 7.1441C12.6002 7.14913 13.2096 7.21812 13.8068 7.34994L12.8005 8.35629C12.534 8.29641 12.2617 8.26573 11.9886 8.2648C9.96827 8.28363 8.34044 9.92676 8.34053 11.9471C8.34586 12.232 8.38035 12.5156 8.44345 12.7934L6.43074 14.8175V14.829C5.16463 14.011 4.01122 13.0306 3 11.9128C3 11.9128 7.03684 7.1441 11.9886 7.1441ZM14.5159 12.336C14.3441 13.402 13.5111 14.2396 12.446 14.4173L14.5159 12.336ZM11.7598 9.44269L9.47267 11.7299C9.57903 10.5135 10.5434 9.54906 11.7598 9.44269Z" fill="#121212"/></svg>
