<svg width="24" height="24" viewBox="0 0 24 24" fill="none" xmlns="http://www.w3.org/2000/svg"><path fill-rule="evenodd" clip-rule="evenodd" d="M12.5 7C17.7497 7 22 11.988 22 11.988V12.024C22 12.024 17.7376 17 12.5 17C7.26236 17 3 11.988 3 11.988C3 11.988 7.25032 7 12.5 7ZM9.73369 9.28969C8.62237 10.3998 8.29261 12.0676 8.89837 13.5144C9.50412 14.9612 10.9259 15.9017 12.5 15.8969C14.6432 15.8903 16.3771 14.1583 16.3771 12.024C16.3771 10.4564 15.4282 9.0435 13.9735 8.44475C12.5187 7.84601 10.845 8.17956 9.73369 9.28969ZM12.5 9.3741C13.9669 9.38067 15.1544 10.5632 15.161 12.024C15.161 13.4875 13.9696 14.6739 12.5 14.6739C11.0304 14.6739 9.83904 13.4875 9.83904 12.024C9.83904 10.5605 11.0304 9.3741 12.5 9.3741Z" fill="#121212"/></svg>
