<svg width="24" height="24" viewBox="0 0 24 24" fill="none" xmlns="http://www.w3.org/2000/svg"><path fill-rule="evenodd" clip-rule="evenodd" d="M15.58 6.58991C15.7453 6.58727 15.9045 6.65171 16.0214 6.76858C16.1383 6.88545 16.2027 7.04474 16.2 7.21V8.14H19.38C19.7224 8.14 20 8.41758 20 8.76V18C20 18.3441 19.724 18.6245 19.38 18.63H4.62C4.27597 18.6245 4 18.3441 4 18V8.76C4 8.41758 4.27758 8.14 4.62 8.14H7.8V7.21C7.79727 7.04474 7.86171 6.88545 7.97858 6.76858C8.09545 6.65171 8.25474 6.58727 8.42 6.58991H15.58ZM12 9.21C9.79086 9.21 8 11.0009 8 13.21C8 15.4191 9.79086 17.21 12 17.21C13.0609 17.21 14.0783 16.7886 14.8284 16.0384C15.5786 15.2883 16 14.2709 16 13.21C16 11.0009 14.2091 9.21 12 9.21ZM12 10.75C13.3586 10.75 14.46 11.8514 14.46 13.21C14.46 14.5686 13.3586 15.67 12 15.67C10.6414 15.67 9.54 14.5686 9.54 13.21C9.54 11.8514 10.6414 10.75 12 10.75Z" fill="#121212"/></svg>
