<svg width="24" height="24" viewBox="0 0 24 24" fill="none" xmlns="http://www.w3.org/2000/svg"><path fill-rule="evenodd" clip-rule="evenodd" d="M18.92 7.35028H17.06V5.63028C17.0383 4.72363 16.2969 4 15.39 4.00028H8.39C7.47145 3.98352 6.71185 4.71184 6.69 5.63028V7.35028H4.84C4.37608 7.35028 4 7.72636 4 8.19028V14.5803C4.0054 15.0419 4.37834 15.4149 4.84 15.4203H6.69V18.3703C6.71172 19.2769 7.45308 20.0005 8.36 20.0003H15.36C16.2823 20.0003 17.03 19.2526 17.03 18.3303V15.4203H18.92C19.3817 15.4149 19.7546 15.0419 19.76 14.5803V8.19028C19.76 7.72636 19.3839 7.35028 18.92 7.35028ZM8.19 5.63028C8.19497 5.53853 8.26825 5.46525 8.36 5.46028H15.36C15.4518 5.46525 15.525 5.53853 15.53 5.63028V7.35028H8.19V5.63028ZM15.56 18.3703C15.555 18.462 15.4818 18.5353 15.39 18.5403H8.39C8.29825 18.5353 8.22497 18.462 8.22 18.3703V13.4503C8.22497 13.3585 8.29825 13.2853 8.39 13.2803H15.39C15.4818 13.2853 15.555 13.3585 15.56 13.4503V18.3703ZM9.12 16.3703H14.32V17.3703H9.12V16.3703ZM9.12 14.3703H14.32V15.3703H9.12V14.3703Z" fill="#121212"/></svg>
