<svg width="24" height="24" viewBox="0 0 24 24" fill="none" xmlns="http://www.w3.org/2000/svg"><path fill-rule="evenodd" clip-rule="evenodd" d="M9.13 17.88H4.87C4.64112 17.8854 4.41975 17.7982 4.25599 17.6382C4.09223 17.4782 4 17.2589 4 17.03V4.86C4.00261 4.6328 4.09608 4.4161 4.25954 4.25827C4.423 4.10045 4.64284 4.01464 4.87 4.02H10.45V10.02L12 8.29L13.5 10V4H19C19.4656 4 19.8445 4.37447 19.85 4.84V9.53L19.08 8.76C18.7034 8.37205 18.1857 8.15312 17.645 8.15312C17.1043 8.15312 16.5866 8.37205 16.21 8.76L10.52 14.48C10.38 14.62 9.57 15.39 9.52 15.75L9.13 17.88ZM15.44 17.88H19C19.4694 17.88 19.85 17.4994 19.85 17.03V13.44L15.44 17.88ZM9.89 19.27L13.23 18.67L10.49 15.93L9.89 19.27ZM19.69 12.21L19.33 12.57L16.59 9.83L17 9.47C17.1888 9.27127 17.4509 9.15875 17.725 9.15875C17.9991 9.15875 18.2612 9.27127 18.45 9.47L19.74 10.76C19.9324 10.9556 20.036 11.2216 20.0265 11.4957C20.0171 11.7699 19.8954 12.0282 19.69 12.21ZM15.85 10.56L18.6 13.35L14 17.94L11.22 15.19L15.85 10.56Z" fill="#121212"/></svg>
