<svg width="24" height="24" viewBox="0 0 24 24" fill="none" xmlns="http://www.w3.org/2000/svg"><path fill-rule="evenodd" clip-rule="evenodd" d="M5.5 7.23V17.59C5.50537 17.9523 5.79774 18.2446 6.16 18.25H16.93V19.75H6.16C4.96706 19.75 4 18.7829 4 17.59V7.23H5.5ZM18.34 4C19.1187 4 19.75 4.63128 19.75 5.41V15.27C19.75 16.0487 19.1187 16.68 18.34 16.68H8.48C8.10604 16.68 7.74741 16.5314 7.48298 16.267C7.21855 16.0026 7.07 15.644 7.07 15.27V5.41C7.07 5.03604 7.21855 4.67741 7.48298 4.41298C7.74741 4.14855 8.10604 4 8.48 4H18.34ZM13.41 12.59H9.89V14.09H13.41V12.59ZM16.93 9.59H9.93V11.09H16.93V9.59ZM16.93 6.59H9.93V8.09H16.93V6.59Z" fill="#121212"/></svg>
