<svg width="24" height="24" viewBox="0 0 24 24" fill="none" xmlns="http://www.w3.org/2000/svg"><path fill-rule="evenodd" clip-rule="evenodd" d="M5.855 8.535L7.12625 9.75C6.8432 10.3959 6.69395 11.0924 6.6875 11.7975C6.67852 13.2306 7.24075 14.6082 8.24988 15.6258C9.25901 16.6433 10.6319 17.217 12.065 17.22V15.105L15.6313 17.9625L12.065 20.8312V18.9075C8.16568 18.9013 5.00619 15.7418 5 11.8425C5.0069 10.6862 5.30068 9.54976 5.855 8.535ZM11.1425 3V4.78875C11.4498 4.77163 11.7577 4.77163 12.065 4.78875C14.5962 4.76055 16.9466 6.09729 18.2163 8.28722C19.486 10.4771 19.4783 13.1811 18.1963 15.3638L16.9363 14.0925C17.2689 13.389 17.4417 12.6207 17.4425 11.8425C17.4363 8.87698 15.0305 6.47624 12.065 6.47625C11.7554 6.47779 11.4466 6.50791 11.1425 6.56625V8.715L7.565 5.8575L11.1425 3Z" fill="#121212"/></svg>
