<svg width="24" height="24" viewBox="0 0 24 24" fill="none" xmlns="http://www.w3.org/2000/svg"><path d="M12 5.33333C12.3536 5.33333 12.6928 5.4738 12.9428 5.72385C13.1929 5.9739 13.3333 6.31304 13.3333 6.66666C13.3333 7.15999 13.0667 7.59333 12.6667 7.81999V8.66666H13.3333C14.571 8.66666 15.758 9.15833 16.6332 10.0335C17.5083 10.9087 18 12.0957 18 13.3333H18.6667C18.8435 13.3333 19.0131 13.4036 19.1381 13.5286C19.2631 13.6536 19.3333 13.8232 19.3333 14V16C19.3333 16.1768 19.2631 16.3464 19.1381 16.4714C19.0131 16.5964 18.8435 16.6667 18.6667 16.6667H18V17.3333C18 17.687 17.8595 18.0261 17.6095 18.2761C17.3594 18.5262 17.0203 18.6667 16.6667 18.6667H7.33334C6.97972 18.6667 6.64058 18.5262 6.39053 18.2761C6.14048 18.0261 6.00001 17.687 6.00001 17.3333V16.6667H5.33334C5.15653 16.6667 4.98696 16.5964 4.86193 16.4714C4.73691 16.3464 4.66667 16.1768 4.66667 16V14C4.66667 13.8232 4.73691 13.6536 4.86193 13.5286C4.98696 13.4036 5.15653 13.3333 5.33334 13.3333H6.00001C6.00001 12.0957 6.49167 10.9087 7.36684 10.0335C8.24201 9.15833 9.429 8.66666 10.6667 8.66666H11.3333V7.81999C10.9333 7.59333 10.6667 7.15999 10.6667 6.66666C10.6667 6.31304 10.8071 5.9739 11.0572 5.72385C11.3072 5.4738 11.6464 5.33333 12 5.33333ZM9.00001 12.6667C8.55798 12.6667 8.13405 12.8423 7.82149 13.1548C7.50893 13.4674 7.33334 13.8913 7.33334 14.3333C7.33334 14.7754 7.50893 15.1993 7.82149 15.5118C8.13405 15.8244 8.55798 16 9.00001 16C9.44203 16 9.86596 15.8244 10.1785 15.5118C10.4911 15.1993 10.6667 14.7754 10.6667 14.3333C10.6667 13.8913 10.4911 13.4674 10.1785 13.1548C9.86596 12.8423 9.44203 12.6667 9.00001 12.6667ZM15 12.6667C14.558 12.6667 14.1341 12.8423 13.8215 13.1548C13.5089 13.4674 13.3333 13.8913 13.3333 14.3333C13.3333 14.7754 13.5089 15.1993 13.8215 15.5118C14.1341 15.8244 14.558 16 15 16C15.442 16 15.866 15.8244 16.1785 15.5118C16.4911 15.1993 16.6667 14.7754 16.6667 14.3333C16.6667 13.8913 16.4911 13.4674 16.1785 13.1548C15.866 12.8423 15.442 12.6667 15 12.6667Z" fill="#121212"/></svg>
