<svg width="24" height="24" viewBox="0 0 24 24" fill="none" xmlns="http://www.w3.org/2000/svg"><path fill-rule="evenodd" clip-rule="evenodd" d="M5.70821 5.7366C7.38669 4.04663 9.91889 3.53619 12.121 4.44391C14.3231 5.35163 15.7601 7.49817 15.7602 9.88004C15.7629 11.0874 15.3889 12.2655 14.6902 13.25L19.0402 17.59C19.3007 17.8188 19.3318 18.2134 19.1102 18.48L18.2402 19.35C17.9874 19.5978 17.5829 19.5978 17.3302 19.35L12.9202 14.94C12.0145 15.4838 10.9765 15.7675 9.92017 15.76C7.53836 15.7762 5.38205 14.3539 4.45932 12.1581C3.53659 9.9622 4.02974 7.42658 5.70821 5.7366ZM9.88024 5.50014C7.46515 5.50563 5.51017 7.46495 5.51017 9.88004C5.51017 11.0469 5.97572 12.1655 6.80363 12.9878C7.63154 13.8101 8.75333 14.268 9.92017 14.26C12.3352 14.2435 14.2811 12.2752 14.2702 9.86018C14.2591 7.44511 12.2953 5.49468 9.88024 5.50014Z" fill="#121212"/></svg>
