<svg width="24" height="24" viewBox="0 0 24 24" fill="none" xmlns="http://www.w3.org/2000/svg"><path fill-rule="evenodd" clip-rule="evenodd" d="M12.37 4C13.537 4 14.6561 4.46357 15.4813 5.28873C16.3064 6.11389 16.77 7.23305 16.77 8.4V10.59H17.22C17.3994 10.5873 17.5724 10.6567 17.7003 10.7827C17.8281 10.9086 17.9001 11.0806 17.9001 11.26V19.32C17.9027 19.5012 17.832 19.6757 17.7038 19.8038C17.5757 19.932 17.4012 20.0027 17.22 20.0001H6.35001C5.97446 20.0001 5.67001 19.6956 5.67001 19.32V11.26C5.67548 10.8884 5.97833 10.59 6.35001 10.59H6.80001V8.4C6.80001 5.96995 8.76996 4 11.2 4H12.37ZM11.79 13.31C11.1935 13.31 10.71 13.7935 10.71 14.39C10.7107 14.6109 10.7845 14.8254 10.92 15V17.14C10.9172 17.2204 10.9479 17.2984 11.0048 17.3552C11.0617 17.4121 11.1396 17.4428 11.22 17.44H12.36C12.5257 17.44 12.66 17.3057 12.66 17.14V15C12.79 14.8225 12.8632 14.6099 12.87 14.39C12.87 13.7935 12.3865 13.31 11.79 13.31ZM12.37 5.5H11.2C10.4257 5.49199 9.68034 5.79398 9.12998 6.33871C8.57962 6.88344 8.27001 7.62565 8.27001 8.4V10.59H15.27V8.4C15.27 6.79837 13.9716 5.5 12.37 5.5Z" fill="#121212"/></svg>
