<svg width="24" height="24" viewBox="0 0 24 24" fill="none" xmlns="http://www.w3.org/2000/svg"><path d="M12.5 13.5C13.3284 13.5 14 12.8284 14 12C14 11.1716 13.3284 10.5 12.5 10.5C11.6716 10.5 11 11.1716 11 12C11 12.8284 11.6716 13.5 12.5 13.5Z" fill="#121212"/><path d="M12.5 18.9C13.3284 18.9 14 18.2284 14 17.4C14 16.5716 13.3284 15.9 12.5 15.9C11.6716 15.9 11 16.5716 11 17.4C11 18.2284 11.6716 18.9 12.5 18.9Z" fill="#121212"/><path d="M12.5 8.10001C13.3284 8.10001 14 7.42843 14 6.60001C14 5.77158 13.3284 5.10001 12.5 5.10001C11.6716 5.10001 11 5.77158 11 6.60001C11 7.42843 11.6716 8.10001 12.5 8.10001Z" fill="#121212"/></svg>
