<svg width="24" height="24" viewBox="0 0 24 24" fill="none" xmlns="http://www.w3.org/2000/svg"><path fill-rule="evenodd" clip-rule="evenodd" d="M17.75 3.99996C18.4436 4.01093 19 4.57634 19 5.27V8.9L17.53 7.4V5.5H5.53V18.5H17.53L17.5 16.59L19 15.09V18.73C19 19.4237 18.4436 19.9891 17.75 20H5.28C4.94145 20.0027 4.61584 19.87 4.3755 19.6316C4.13516 19.3931 4 19.0686 4 18.73V5.27C4 4.93144 4.13516 4.60688 4.3755 4.36842C4.61584 4.12996 4.94145 3.99734 5.28 3.99996H17.75ZM14.2 6.21L20 12L14.2 17.79V14.48H9.2V9.48H14.2V6.21Z" fill="#121212"/></svg>
