<svg width="24" height="24" viewBox="0 0 24 24" fill="none" xmlns="http://www.w3.org/2000/svg"><path fill-rule="evenodd" clip-rule="evenodd" d="M12 3C7.58588 3 4 6.58588 4 11C4 15.4141 7.58588 19 12 19H12.4706V21.8235C17.0447 19.6212 20 15.2353 20 11C20 6.58588 16.4141 3 12 3ZM12.9412 16.6471H11.0588V14.7647H12.9412V16.6471ZM12.9412 13.3529H11.0588C11.0588 10.2941 13.8824 10.5294 13.8824 8.64706C13.8824 7.61176 13.0353 6.76471 12 6.76471C10.9647 6.76471 10.1176 7.61176 10.1176 8.64706H8.23529C8.23529 6.56706 9.92 4.88235 12 4.88235C14.08 4.88235 15.7647 6.56706 15.7647 8.64706C15.7647 11 12.9412 11.2353 12.9412 13.3529Z" fill="#121212"/></svg>
