<svg width="24" height="24" viewBox="0 0 24 24" fill="none" xmlns="http://www.w3.org/2000/svg"><path fill-rule="evenodd" clip-rule="evenodd" d="M17.2701 5.00004H7.41007C7.0353 4.99738 6.6751 5.14507 6.41009 5.41009C6.14507 5.6751 5.99738 6.0353 6.00004 6.41007V18.2701C6.00004 19.0488 6.63135 19.6801 7.41007 19.6801H17.2701C17.644 19.6801 18.0027 19.5315 18.2671 19.2671C18.5315 19.0027 18.6801 18.644 18.6801 18.2701V6.41007C18.6801 6.03612 18.5315 5.67748 18.2671 5.41305C18.0027 5.14862 17.644 5.00004 17.2701 5.00004ZM9.27007 15.0901H7.76007V13.5901H9.26007L9.27007 15.0901ZM9.27007 12.0901H7.76007V10.5901H9.26007L9.27007 12.0901ZM9.27007 9.09007H7.76007V7.59007H9.26007L9.27007 9.09007ZM16.9301 15.0901H11.1401V13.5901H16.9201L16.9301 15.0901ZM16.9301 12.0901H11.1401V10.5901H16.9201L16.9301 12.0901ZM16.9301 9.09007H11.1401V7.59007H16.9201L16.9301 9.09007Z" fill="#121212"/></svg>
