<svg width="24" height="24" viewBox="0 0 24 24" fill="none" xmlns="http://www.w3.org/2000/svg"><path fill-rule="evenodd" clip-rule="evenodd" d="M8.83057 16.4C8.87246 16.1831 8.98498 15.9862 9.15057 15.84L9.84057 15.14L10.8406 14.14H10.1406V12.63H12.3306L13.8306 11.13H10.1506V9.63H15.3306L15.5506 9.41C15.9312 9.027 16.4506 8.8142 16.9906 8.82C17.2193 8.81912 17.4463 8.85978 17.6606 8.94V5.45C17.6713 5.07261 17.5303 4.70667 17.269 4.43413C17.0077 4.16158 16.6481 4.0052 16.2706 4H6.41057C6.02958 3.99985 5.66474 4.15388 5.39913 4.42702C5.13353 4.70016 4.98976 5.06916 5.00057 5.45V16.31C5.00057 17.0887 5.63185 17.72 6.41057 17.72H8.60057L8.83057 16.4ZM10.1506 6.63H15.9206V8.13H10.1506V6.63ZM8.27057 14.13H6.77057V12.63H8.27057V14.13ZM8.27057 11.13H6.77057V9.63H8.27057V11.13ZM6.77057 8.13V6.63H8.27057V8.13H6.77057ZM17.6806 15.62V16.31C17.6833 16.6848 17.5356 17.045 17.2706 17.31C17.0055 17.575 16.6453 17.7227 16.2706 17.72H15.5806L17.6806 15.62ZM9.82057 16.62L12.5606 19.36L9.22057 19.96L9.82057 16.62ZM19.0206 11.45L17.7306 10.12C17.5418 9.92127 17.2797 9.80875 17.0056 9.80875C16.7315 9.80875 16.4694 9.92127 16.2806 10.12L15.9206 10.48L18.6606 13.22L19.0206 12.86C19.2193 12.6712 19.3318 12.4091 19.3318 12.135C19.3318 11.8609 19.2193 11.5988 19.0206 11.41V11.45ZM10.5506 15.84L13.3306 18.59L17.9306 14L15.1806 11.21L10.5506 15.84Z" fill="#121212"/></svg>
