<svg width="24" height="24" viewBox="0 0 24 24" fill="none" xmlns="http://www.w3.org/2000/svg"><path d="M10.6 12.5C10.6 13.3284 11.2716 14 12.1 14C12.9284 14 13.6 13.3284 13.6 12.5C13.6 11.6716 12.9284 11 12.1 11C11.2716 11 10.6 11.6716 10.6 12.5Z" fill="#121212"/><path d="M5.2 12.5C5.2 13.3284 5.87157 14 6.7 14C7.52842 14 8.2 13.3284 8.2 12.5C8.2 11.6716 7.52842 11 6.7 11C5.87157 11 5.2 11.6716 5.2 12.5Z" fill="#121212"/><path d="M16 12.5C16 13.3284 16.6716 14 17.5 14C18.3284 14 19 13.3284 19 12.5C19 11.6716 18.3284 11 17.5 11C16.6716 11 16 11.6716 16 12.5Z" fill="#121212"/></svg>
