<?xml version="1.0" encoding="UTF-8"?>
<svg xmlns="http://www.w3.org/2000/svg"
     viewBox="0 0 720 305"
     width="720" height="305"
     font-family="monospace, Consolas">
  <style>
    text { dominant-baseline: auto; }
  </style>
  <rect x="10" y="10" width="443" height="285" fill="#ffffff" stroke="#424242" stroke-width="1" rx="4" />
<rect x="20" y="4" width="80" height="12" fill="#ffffff" stroke="#424242" stroke-width="1" rx="3" />
<text x="24" y="13" font-size="9" fill="#212121" font-weight="normal"><tspan>&lt;</tspan><tspan font-weight="bold">ch-checkbox</tspan><tspan>&gt;</tspan></text>
<rect x="12" y="26" width="439" height="267" fill="none" stroke="#9e9e9e" stroke-width="1.5" stroke-dasharray="6 3" rx="3" />
<rect x="16" y="20" width="66" height="12" fill="#ffffff" rx="2" />
<text x="20" y="28" font-size="8" fill="#9e9e9e" font-family="monospace">#shadow-root</text>
<rect x="22" y="40" width="419" height="245" fill="#fafafa" stroke="#bdbdbd" stroke-width="1" rx="4" />
<rect x="32" y="34" width="357" height="38" fill="#fafafa" stroke="#bdbdbd" stroke-width="1" rx="3" />
<text x="36" y="45" font-size="9" fill="#424242" font-weight="normal"><tspan>&lt;</tspan><tspan font-weight="bold">label</tspan></text>
<text x="47" y="57" font-size="9" fill="#424242" font-weight="normal">part=&quot;label [checked | unchecked] [indeterminate] [disabled]&quot;</text>
<text x="36" y="69" font-size="9" fill="#424242" font-weight="normal">&gt;</text>
<rect x="32" y="88" width="399" height="170" fill="#f3f0ff" stroke="#bdbdbd" stroke-width="1" rx="4" />
<rect x="42" y="82" width="379" height="38" fill="#f3f0ff" stroke="#bdbdbd" stroke-width="1" rx="3" />
<text x="46" y="93" font-size="9" fill="#424242" font-weight="normal"><tspan>&lt;</tspan><tspan font-weight="bold">div</tspan></text>
<text x="57" y="105" font-size="9" fill="#424242" font-weight="normal">part=&quot;container [checked | unchecked] [indeterminate] [disabled]&quot;</text>
<text x="46" y="117" font-size="9" fill="#424242" font-weight="normal">&gt;</text>
<rect x="42" y="130" width="180" height="62" fill="#e3f2fd" stroke="#1976d2" stroke-width="1" rx="3" />
<text x="46" y="141" font-size="9" fill="#0d47a1" font-weight="normal"><tspan>&lt;</tspan><tspan font-weight="bold">input</tspan></text>
<text x="57" y="153" font-size="9" fill="#0d47a1" font-weight="normal">aria-label=&quot;{accessibleName}&quot;</text>
<text x="57" y="165" font-size="9" fill="#0d47a1" font-weight="normal">part=&quot;input&quot;</text>
<text x="57" y="177" font-size="9" fill="#0d47a1" font-weight="normal">type=&quot;checkbox&quot;</text>
<text x="46" y="189" font-size="9" fill="#0d47a1" font-weight="normal"> /&gt;</text>
<rect x="42" y="198" width="362" height="50" fill="#f0f7f4" stroke="#bdbdbd" stroke-width="1" rx="3" />
<text x="46" y="209" font-size="9" fill="#424242" font-weight="normal"><tspan>&lt;</tspan><tspan font-weight="bold">div</tspan></text>
<text x="57" y="221" font-size="9" fill="#424242" font-weight="normal">aria-hidden=&quot;true&quot;</text>
<text x="57" y="233" font-size="9" fill="#424242" font-weight="normal">part=&quot;option [checked | unchecked] [indeterminate] [disabled]&quot;</text>
<text x="46" y="245" font-size="9" fill="#424242" font-weight="normal">&gt;</text>
<text x="32" y="273" font-size="9" fill="#888" font-style="italic">&quot;Caption text&quot;</text>
<rect x="479" y="10" width="231" height="206" fill="none" stroke="#bdbdbd" stroke-width="1" rx="4" />
<text x="489" y="24" font-size="10" fill="#424242" font-weight="bold">Legend</text>
<line x1="489" y1="38" x2="513" y2="38" stroke="#9e9e9e" stroke-width="1.5" stroke-dasharray="4 2" />
<text x="535" y="42" font-size="8" fill="#666">#shadow-root</text>
<rect x="489" y="48" width="12" height="12" fill="#7b1fa2" rx="2" />
<path d="M5 0.5 L9.5 5 L5 9.5 L0.5 5 Z" fill="none" stroke="#fff" stroke-width="1.2" stroke-linecap="round" stroke-linejoin="round" transform="translate(490,49) scale(1)" />
<text x="535" y="58" font-size="8" fill="#666">condition (when / else)</text>
<rect x="489" y="64" width="12" height="12" fill="#00695c" rx="2" />
<path d="M8 14.667a5.806 5.806 0 0 1-2.342-.475 6.1 6.1 0 0 1-1.9-1.284 6.097 6.097 0 0 1-1.283-1.9A5.804 5.804 0 0 1 2 8.667a5.8 5.8 0 0 1 .475-2.342 6.099 6.099 0 0 1 1.283-1.9 6.099 6.099 0 0 1 1.9-1.283A5.805 5.805 0 0 1 8 2.667h.1L7.533 2.1a.622.622 0 0 1-.183-.458.68.68 0 0 1 .183-.475.68.68 0 0 1 .475-.209.62.62 0 0 1 .475.192L10.2 2.867a.632.632 0 0 1 .183.466.632.632 0 0 1-.183.467L8.483 5.517a.62.62 0 0 1-.475.191.68.68 0 0 1-.475-.208.68.68 0 0 1-.183-.475c0-.183.061-.336.183-.458L8.1 4H8c-1.3 0-2.403.453-3.308 1.358-.906.906-1.359 2.009-1.359 3.309 0 1.3.453 2.402 1.359 3.308.905.906 2.008 1.358 3.308 1.358 1.178 0 2.206-.383 3.083-1.15.878-.766 1.395-1.733 1.55-2.9a.68.68 0 0 1 .234-.441.687.687 0 0 1 .466-.175c.178 0 .334.055.467.166a.44.44 0 0 1 .167.417c-.156 1.544-.8 2.833-1.934 3.867C10.9 14.15 9.556 14.667 8 14.667Z" fill="#fff" transform="translate(490,65) scale(0.625)" />
<text x="535" y="74" font-size="8" fill="#666">iteration (for each)</text>
<rect x="489" y="80" width="12" height="12" fill="#546e7a" rx="2" />
<text x="535" y="90" font-size="8" fill="#666">descriptive comment</text>
<rect x="489" y="96" width="20" height="12" fill="#fff8e1" stroke="#f57f17" stroke-width="1" stroke-dasharray="3 1.5" rx="2" />
<text x="535" y="106" font-size="8" fill="#666">slot</text>
<rect x="489" y="112" width="12" height="12" fill="#0277bd" rx="2" />
<path d="M10.817 8.664H3.642a.613.613 0 0 1-.457-.19.647.647 0 0 1-.185-.47c0-.187.062-.343.185-.47a.613.613 0 0 1 .457-.19h7.175l-3.146-3.23a.613.613 0 0 1-.185-.462.668.668 0 0 1 .65-.651.58.58 0 0 1 .45.189l4.237 4.353c.065.066.11.137.137.214a.75.75 0 0 1 .04.247.75.75 0 0 1-.04.248.581.581 0 0 1-.137.214l-4.237 4.353a.59.59 0 0 1-.442.181.645.645 0 0 1-.457-.181.65.65 0 0 1-.193-.47.65.65 0 0 1 .193-.47l3.13-3.215Z" fill="#fff" transform="translate(490,113) scale(0.625)" />
<text x="535" y="122" font-size="8" fill="#666">projected content (light DOM)</text>
<rect x="489" y="128" width="28" height="12" fill="#fafafa" stroke="#bdbdbd" stroke-width="1" rx="3" />
<text x="491" y="137" font-size="7" fill="#424242" font-weight="bold">&lt;tag&gt;</text>
<text x="535" y="138" font-size="8" fill="#666">tag pill (id, role, aria-*, part)</text>
<text x="489" y="154" font-size="9" fill="#424242">part</text>
<text x="535" y="154" font-size="8" fill="#666">part=&quot;name&quot;  (static)</text>
<text x="489" y="170" font-size="9" fill="#424242">[part]</text>
<text x="535" y="170" font-size="8" fill="#666">[part]  (conditional)</text>
<text x="489" y="186" font-size="9" fill="#424242">{part}</text>
<text x="535" y="186" font-size="8" fill="#666">{part}  (dynamic)</text>
<text x="489" y="202" font-size="9" fill="#424242">[{part}]</text>
<text x="535" y="202" font-size="8" fill="#666">[{part}]  (conditional dynamic)</text>

</svg>
