<?xml version="1.0" encoding="UTF-8"?>
<svg xmlns="http://www.w3.org/2000/svg"
     viewBox="0 0 1363 1079"
     width="1363" height="1079"
     font-family="monospace, Consolas">
  <style>
    text { dominant-baseline: auto; }
  </style>
  <rect x="10" y="10" width="1086" height="1059" fill="#ffffff" stroke="#424242" stroke-width="1" rx="4" />
<rect x="20" y="4" width="235" height="38" fill="#ffffff" stroke="#424242" stroke-width="1" rx="3" />
<text x="24" y="15" font-size="9" fill="#212121" font-weight="normal"><tspan>&lt;</tspan><tspan font-weight="bold">ch-tree-view-render</tspan></text>
<text x="35" y="27" font-size="9" fill="#212121" font-weight="normal">aria-multiselectable=&quot;{multiSelection}&quot;</text>
<text x="24" y="39" font-size="9" fill="#212121" font-weight="normal">&gt;</text>
<rect x="12" y="52" width="1082" height="1015" fill="none" stroke="#9e9e9e" stroke-width="1.5" stroke-dasharray="6 3" rx="3" />
<rect x="16" y="46" width="66" height="12" fill="#ffffff" rx="2" />
<text x="20" y="54" font-size="8" fill="#9e9e9e" font-family="monospace">#shadow-root</text>
<rect x="22" y="66" width="1062" height="993" fill="#fafafa" stroke="#bdbdbd" stroke-width="1" rx="4" />
<rect x="32" y="60" width="86" height="12" fill="#fafafa" stroke="#bdbdbd" stroke-width="1" rx="3" />
<text x="36" y="69" font-size="9" fill="#424242" font-weight="normal"><tspan>&lt;</tspan><tspan font-weight="bold">ch-tree-view</tspan><tspan>&gt;</tspan></text>
<rect x="24" y="82" width="1058" height="44" fill="none" stroke="#9e9e9e" stroke-width="1.5" stroke-dasharray="6 3" rx="3" />
<rect x="28" y="76" width="66" height="12" fill="#ffffff" rx="2" />
<text x="32" y="84" font-size="8" fill="#9e9e9e" font-family="monospace">#shadow-root</text>
<rect x="32" y="129" width="182.6" height="16" fill="#0277bd" rx="3" />
<path d="M10.817 8.664H3.642a.613.613 0 0 1-.457-.19.647.647 0 0 1-.185-.47c0-.187.062-.343.185-.47a.613.613 0 0 1 .457-.19h7.175l-3.146-3.23a.613.613 0 0 1-.185-.462.668.668 0 0 1 .65-.651.58.58 0 0 1 .45.189l4.237 4.353c.065.066.11.137.137.214a.75.75 0 0 1 .04.247.75.75 0 0 1-.04.248.581.581 0 0 1-.137.214l-4.237 4.353a.59.59 0 0 1-.442.181.645.645 0 0 1-.457-.181.65.65 0 0 1-.193-.47.65.65 0 0 1 .193-.47l3.13-3.215Z" fill="#ffffff" transform="translate(38,132) scale(0.625)" />
<text x="130.3" y="140.15" font-size="9" fill="#ffffff" font-family="monospace" text-anchor="middle">projected content (light DOM)</text>
<line x1="40" y1="162" x2="40" y2="1049" stroke="#00695c" stroke-width="2" stroke-opacity="0.4" stroke-linecap="round" />
<rect x="34" y="90" width="147" height="12" fill="#f3f0ff" stroke="#bdbdbd" stroke-width="1" rx="3" />
<text x="38" y="99" font-size="9" fill="#424242" font-weight="normal"><tspan>&lt;</tspan><tspan font-weight="bold">div</tspan><tspan> part=&quot;drag-preview&quot;</tspan><tspan>&gt;</tspan></text>
<rect x="34" y="108" width="64.19999999999999" height="15" fill="#fff8e1" stroke="#f57f17" stroke-width="1.5" stroke-dasharray="4 2" rx="4" />
<text x="40" y="119" font-size="9" fill="#e65100" font-weight="bold">&lt;slot /&gt;</text>
<rect x="32" y="146" width="144.8" height="16" fill="#00695c" rx="3" />
<path d="M8 14.667a5.806 5.806 0 0 1-2.342-.475 6.1 6.1 0 0 1-1.9-1.284 6.097 6.097 0 0 1-1.283-1.9A5.804 5.804 0 0 1 2 8.667a5.8 5.8 0 0 1 .475-2.342 6.099 6.099 0 0 1 1.283-1.9 6.099 6.099 0 0 1 1.9-1.283A5.805 5.805 0 0 1 8 2.667h.1L7.533 2.1a.622.622 0 0 1-.183-.458.68.68 0 0 1 .183-.475.68.68 0 0 1 .475-.209.62.62 0 0 1 .475.192L10.2 2.867a.632.632 0 0 1 .183.466.632.632 0 0 1-.183.467L8.483 5.517a.62.62 0 0 1-.475.191.68.68 0 0 1-.475-.208.68.68 0 0 1-.183-.475c0-.183.061-.336.183-.458L8.1 4H8c-1.3 0-2.403.453-3.308 1.358-.906.906-1.359 2.009-1.359 3.309 0 1.3.453 2.402 1.359 3.308.905.906 2.008 1.358 3.308 1.358 1.178 0 2.206-.383 3.083-1.15.878-.766 1.395-1.733 1.55-2.9a.68.68 0 0 1 .234-.441.687.687 0 0 1 .466-.175c.178 0 .334.055.467.166a.44.44 0 0 1 .167.417c-.156 1.544-.8 2.833-1.934 3.867C10.9 14.15 9.556 14.667 8 14.667Z" fill="#ffffff" transform="translate(38,149) scale(0.625)" />
<text x="111.4" y="157.15" font-size="9" fill="#ffffff" font-family="monospace" text-anchor="middle">for each item in model</text>
<rect x="44" y="169" width="1026" height="880" fill="#f3f0ff" stroke="#bdbdbd" stroke-width="1" rx="4" />
<rect x="54" y="163" width="163" height="74" fill="#f3f0ff" stroke="#bdbdbd" stroke-width="1" rx="3" />
<text x="58" y="174" font-size="9" fill="#424242" font-weight="normal"><tspan>&lt;</tspan><tspan font-weight="bold">ch-tree-view-item</tspan></text>
<text x="69" y="186" font-size="9" fill="#424242" font-weight="normal">role=&quot;treeitem&quot;</text>
<text x="69" y="198" font-size="9" fill="#424242" font-weight="normal">aria-level=&quot;{level}&quot;</text>
<text x="69" y="210" font-size="9" fill="#424242" font-weight="normal">aria-selected=&quot;{selected}&quot;</text>
<text x="69" y="222" font-size="9" fill="#424242" font-weight="normal">part=&quot;item [drag-enter]&quot;</text>
<text x="58" y="234" font-size="9" fill="#424242" font-weight="normal">&gt;</text>
<rect x="46" y="247" width="1022" height="800" fill="none" stroke="#9e9e9e" stroke-width="1.5" stroke-dasharray="6 3" rx="3" />
<rect x="50" y="241" width="66" height="12" fill="#ffffff" rx="2" />
<text x="54" y="249" font-size="8" fill="#9e9e9e" font-family="monospace">#shadow-root</text>
<line x1="64" y1="929" x2="64" y2="1039" stroke="#7b1fa2" stroke-width="2" stroke-opacity="0.4" stroke-linecap="round" />
<rect x="56" y="261" width="990" height="640" fill="#e3f2fd" stroke="#1976d2" stroke-width="1" rx="4" />
<rect x="66" y="255" width="970" height="62" fill="#e3f2fd" stroke="#1976d2" stroke-width="1" rx="3" />
<text x="70" y="266" font-size="9" fill="#0d47a1" font-weight="normal"><tspan>&lt;</tspan><tspan font-weight="bold">button</tspan></text>
<text x="81" y="278" font-size="9" fill="#0d47a1" font-weight="normal">aria-controls=&quot;expandable&quot;</text>
<text x="81" y="290" font-size="9" fill="#0d47a1" font-weight="normal">aria-expanded=&quot;{expanded}&quot;</text>
<text x="81" y="302" font-size="9" fill="#0d47a1" font-weight="normal">part=&quot;item__header [disabled] [drag-enter] [selected | not-selected] [expand-button] [editing | not-editing] [level-0-leaf] [even-level | odd-level] [expanded | collapsed]&quot;</text>
<text x="70" y="314" font-size="9" fill="#0d47a1" font-weight="normal">&gt;</text>
<line x1="74" y1="343" x2="74" y2="382" stroke="#7b1fa2" stroke-width="2" stroke-opacity="0.4" stroke-linecap="round" />
<line x1="74" y1="410" x2="74" y2="539" stroke="#7b1fa2" stroke-width="2" stroke-opacity="0.4" stroke-linecap="round" />
<line x1="74" y1="567" x2="74" y2="588" stroke="#7b1fa2" stroke-width="2" stroke-opacity="0.4" stroke-linecap="round" />
<line x1="74" y1="605" x2="74" y2="809" stroke="#ad1457" stroke-width="2" stroke-opacity="0.4" stroke-linecap="round" />
<line x1="74" y1="837" x2="74" y2="850" stroke="#7b1fa2" stroke-width="2" stroke-opacity="0.4" stroke-linecap="round" />
<line x1="74" y1="878" x2="74" y2="891" stroke="#7b1fa2" stroke-width="2" stroke-opacity="0.4" stroke-linecap="round" />
<rect x="66" y="327" width="258.2" height="16" fill="#7b1fa2" rx="3" />
<path d="M5 0.5 L9.5 5 L5 9.5 L0.5 5 Z" fill="none" stroke="#ffffff" stroke-width="1.2" stroke-linecap="round" stroke-linejoin="round" transform="translate(72,330) scale(1)" />
<text x="202.1" y="338.15" font-size="9" fill="#ffffff" font-family="monospace" text-anchor="middle">when expandableButton === &quot;action&quot; &amp;&amp; !leaf</text>
<rect x="78" y="344" width="373" height="38" fill="#e3f2fd" stroke="#1976d2" stroke-width="1" rx="3" />
<text x="82" y="355" font-size="9" fill="#0d47a1" font-weight="normal"><tspan>&lt;</tspan><tspan font-weight="bold">button</tspan></text>
<text x="93" y="367" font-size="9" fill="#0d47a1" font-weight="normal">part=&quot;item__expandable-button [disabled] [expanded | collapsed]&quot;</text>
<text x="82" y="379" font-size="9" fill="#0d47a1" font-weight="normal">&gt;</text>
<rect x="66" y="394" width="96.2" height="16" fill="#7b1fa2" rx="3" />
<path d="M5 0.5 L9.5 5 L5 9.5 L0.5 5 Z" fill="none" stroke="#ffffff" stroke-width="1.2" stroke-linecap="round" stroke-linejoin="round" transform="translate(72,397) scale(1)" />
<text x="121.1" y="405.15" font-size="9" fill="#ffffff" font-family="monospace" text-anchor="middle">when checkbox</text>
<rect x="78" y="417" width="426" height="122" fill="#f0f7f4" stroke="#bdbdbd" stroke-width="1" rx="4" />
<rect x="88" y="411" width="406" height="38" fill="#f0f7f4" stroke="#bdbdbd" stroke-width="1" rx="3" />
<text x="92" y="422" font-size="9" fill="#424242" font-weight="normal"><tspan>&lt;</tspan><tspan font-weight="bold">ch-checkbox</tspan></text>
<text x="103" y="434" font-size="9" fill="#424242" font-weight="normal">part=&quot;item__checkbox [checked | unchecked | indeterminate] [disabled]&quot;</text>
<text x="92" y="446" font-size="9" fill="#424242" font-weight="normal">&gt;</text>
<rect x="80" y="459" width="422" height="78" fill="none" stroke="#9e9e9e" stroke-width="1.5" stroke-dasharray="6 3" rx="3" />
<rect x="84" y="453" width="66" height="12" fill="#ffffff" rx="2" />
<text x="88" y="461" font-size="8" fill="#9e9e9e" font-family="monospace">#shadow-root</text>
<rect x="90" y="473" width="321" height="56" fill="#fff8f0" stroke="#bdbdbd" stroke-width="1" rx="4" />
<rect x="100" y="467" width="213" height="12" fill="#fff8f0" stroke="#bdbdbd" stroke-width="1" rx="3" />
<text x="104" y="476" font-size="9" fill="#424242" font-weight="normal"><tspan>&lt;</tspan><tspan font-weight="bold">div</tspan><tspan> part=&quot;item__checkbox-container&quot;</tspan><tspan>&gt;</tspan></text>
<rect x="100" y="489" width="301" height="12" fill="#e3f2fd" stroke="#1976d2" stroke-width="1" rx="3" />
<text x="104" y="498" font-size="9" fill="#0d47a1" font-weight="normal"><tspan>&lt;</tspan><tspan font-weight="bold">input</tspan><tspan> part=&quot;item__checkbox-input&quot; type=&quot;checkbox&quot;</tspan><tspan> /&gt;</tspan></text>
<rect x="100" y="507" width="196" height="12" fill="#fafafa" stroke="#bdbdbd" stroke-width="1" rx="3" />
<text x="104" y="516" font-size="9" fill="#424242" font-weight="normal"><tspan>&lt;</tspan><tspan font-weight="bold">div</tspan><tspan> part=&quot;item__checkbox-option&quot;</tspan><tspan>&gt;</tspan></text>
<rect x="66" y="551" width="231.2" height="16" fill="#7b1fa2" rx="3" />
<path d="M5 0.5 L9.5 5 L5 9.5 L0.5 5 Z" fill="none" stroke="#ffffff" stroke-width="1.2" stroke-linecap="round" stroke-linejoin="round" transform="translate(72,554) scale(1)" />
<text x="188.6" y="562.15" font-size="9" fill="#ffffff" font-family="monospace" text-anchor="middle">when customRender: custom content slot</text>
<rect x="78" y="568" width="185.75" height="15" fill="#fff8e1" stroke="#f57f17" stroke-width="1.5" stroke-dasharray="4 2" rx="4" />
<text x="84" y="579" font-size="9" fill="#e65100" font-weight="bold">&lt;slot name=&quot;custom-content&quot; /&gt;</text>
<rect x="66" y="589" width="139.39999999999998" height="16" fill="#ad1457" rx="3" />
<path d="M5 0.5 L9.5 5 L5 9.5 L0.5 5 Z" fill="none" stroke="#ffffff" stroke-width="1.2" stroke-linecap="round" stroke-linejoin="round" transform="translate(72,592) scale(1)" />
<text x="142.7" y="600.15" font-size="9" fill="#ffffff" font-family="monospace" text-anchor="middle">else (default action)</text>
<rect x="78" y="612" width="404" height="197" fill="#f0f7f4" stroke="#bdbdbd" stroke-width="1" rx="4" />
<rect x="88" y="606" width="384" height="38" fill="#f0f7f4" stroke="#bdbdbd" stroke-width="1" rx="3" />
<text x="92" y="617" font-size="9" fill="#424242" font-weight="normal"><tspan>&lt;</tspan><tspan font-weight="bold">div</tspan></text>
<text x="103" y="629" font-size="9" fill="#424242" font-weight="normal">part=&quot;item__action [editing | not-editing] [expanded | collapsed]&quot;</text>
<text x="92" y="641" font-size="9" fill="#424242" font-weight="normal">&gt;</text>
<line x1="96" y1="670" x2="96" y2="683" stroke="#7b1fa2" stroke-width="2" stroke-opacity="0.4" stroke-linecap="round" />
<line x1="96" y1="711" x2="96" y2="729" stroke="#7b1fa2" stroke-width="2" stroke-opacity="0.4" stroke-linecap="round" />
<line x1="96" y1="746" x2="96" y2="758" stroke="#ad1457" stroke-width="2" stroke-opacity="0.4" stroke-linecap="round" />
<line x1="96" y1="786" x2="96" y2="799" stroke="#7b1fa2" stroke-width="2" stroke-opacity="0.4" stroke-linecap="round" />
<rect x="88" y="654" width="112.39999999999999" height="16" fill="#7b1fa2" rx="3" />
<path d="M5 0.5 L9.5 5 L5 9.5 L0.5 5 Z" fill="none" stroke="#ffffff" stroke-width="1.2" stroke-linecap="round" stroke-linejoin="round" transform="translate(94,657) scale(1)" />
<text x="151.2" y="665.15" font-size="9" fill="#ffffff" font-family="monospace" text-anchor="middle">when startImgSrc</text>
<rect x="100" y="671" width="185" height="12" fill="#fff8f0" stroke="#bdbdbd" stroke-width="1" rx="3" />
<text x="104" y="680" font-size="9" fill="#424242" font-weight="normal"><tspan>&lt;</tspan><tspan font-weight="bold">div</tspan><tspan> part=&quot;item__img start-img&quot;</tspan><tspan>&gt;</tspan></text>
<rect x="88" y="695" width="90.8" height="16" fill="#7b1fa2" rx="3" />
<path d="M5 0.5 L9.5 5 L5 9.5 L0.5 5 Z" fill="none" stroke="#ffffff" stroke-width="1.2" stroke-linecap="round" stroke-linejoin="round" transform="translate(94,698) scale(1)" />
<text x="140.4" y="706.15" font-size="9" fill="#ffffff" font-family="monospace" text-anchor="middle">when editing</text>
<rect x="100" y="712" width="202" height="12" fill="#e3f2fd" stroke="#1976d2" stroke-width="1" rx="3" />
<text x="104" y="721" font-size="9" fill="#0d47a1" font-weight="normal"><tspan>&lt;</tspan><tspan font-weight="bold">input</tspan><tspan> part=&quot;item__edit-caption&quot;</tspan><tspan> /&gt;</tspan></text>
<rect x="88" y="730" width="47.599999999999994" height="16" fill="#ad1457" rx="3" />
<path d="M5 0.5 L9.5 5 L5 9.5 L0.5 5 Z" fill="none" stroke="#ffffff" stroke-width="1.2" stroke-linecap="round" stroke-linejoin="round" transform="translate(94,733) scale(1)" />
<text x="118.8" y="741.15" font-size="9" fill="#ffffff" font-family="monospace" text-anchor="middle">else</text>
<text x="100" y="756" font-size="9" fill="#888" font-style="italic">&quot;Caption text&quot;</text>
<rect x="88" y="770" width="101.6" height="16" fill="#7b1fa2" rx="3" />
<path d="M5 0.5 L9.5 5 L5 9.5 L0.5 5 Z" fill="none" stroke="#ffffff" stroke-width="1.2" stroke-linecap="round" stroke-linejoin="round" transform="translate(94,773) scale(1)" />
<text x="145.8" y="781.15" font-size="9" fill="#ffffff" font-family="monospace" text-anchor="middle">when endImgSrc</text>
<rect x="100" y="787" width="174" height="12" fill="#fff8f0" stroke="#bdbdbd" stroke-width="1" rx="3" />
<text x="104" y="796" font-size="9" fill="#424242" font-weight="normal"><tspan>&lt;</tspan><tspan font-weight="bold">div</tspan><tspan> part=&quot;item__img end-img&quot;</tspan><tspan>&gt;</tspan></text>
<rect x="66" y="821" width="161" height="16" fill="#7b1fa2" rx="3" />
<path d="M5 0.5 L9.5 5 L5 9.5 L0.5 5 Z" fill="none" stroke="#ffffff" stroke-width="1.2" stroke-linecap="round" stroke-linejoin="round" transform="translate(72,824) scale(1)" />
<text x="153.5" y="832.15" font-size="9" fill="#ffffff" font-family="monospace" text-anchor="middle">when downloading &amp;&amp; !leaf</text>
<rect x="78" y="838" width="174" height="12" fill="#f0f7f4" stroke="#bdbdbd" stroke-width="1" rx="3" />
<text x="82" y="847" font-size="9" fill="#424242" font-weight="normal"><tspan>&lt;</tspan><tspan font-weight="bold">div</tspan><tspan> part=&quot;item__downloading&quot;</tspan><tspan>&gt;</tspan></text>
<rect x="66" y="862" width="101.6" height="16" fill="#7b1fa2" rx="3" />
<path d="M5 0.5 L9.5 5 L5 9.5 L0.5 5 Z" fill="none" stroke="#ffffff" stroke-width="1.2" stroke-linecap="round" stroke-linejoin="round" transform="translate(72,865) scale(1)" />
<text x="123.8" y="873.15" font-size="9" fill="#ffffff" font-family="monospace" text-anchor="middle">when showLines</text>
<rect x="78" y="879" width="202" height="12" fill="#f0f7f4" stroke="#bdbdbd" stroke-width="1" rx="3" />
<text x="82" y="888" font-size="9" fill="#424242" font-weight="normal"><tspan>&lt;</tspan><tspan font-weight="bold">div</tspan><tspan> part=&quot;item__line [last-line]&quot;</tspan><tspan>&gt;</tspan></text>
<rect x="56" y="913" width="161" height="16" fill="#7b1fa2" rx="3" />
<path d="M5 0.5 L9.5 5 L5 9.5 L0.5 5 Z" fill="none" stroke="#ffffff" stroke-width="1.2" stroke-linecap="round" stroke-linejoin="round" transform="translate(62,916) scale(1)" />
<text x="143.5" y="924.15" font-size="9" fill="#ffffff" font-family="monospace" text-anchor="middle">when !leaf (has children)</text>
<rect x="68" y="936" width="482" height="103" fill="#f0f7f4" stroke="#bdbdbd" stroke-width="1" rx="4" />
<rect x="78" y="930" width="462" height="74" fill="#f0f7f4" stroke="#bdbdbd" stroke-width="1" rx="3" />
<text x="82" y="941" font-size="9" fill="#424242" font-weight="normal"><tspan>&lt;</tspan><tspan font-weight="bold">div</tspan></text>
<text x="93" y="953" font-size="9" fill="#424242" font-weight="normal">id=&quot;expandable&quot;</text>
<text x="93" y="965" font-size="9" fill="#424242" font-weight="normal">role=&quot;group&quot;</text>
<text x="93" y="977" font-size="9" fill="#424242" font-weight="normal">aria-busy=&quot;{downloading}&quot;</text>
<text x="93" y="989" font-size="9" fill="#424242" font-weight="normal">part=&quot;item__group [expanded | collapsed] [even-level | odd-level] [lazy-loaded]&quot;</text>
<text x="82" y="1001" font-size="9" fill="#424242" font-weight="normal">&gt;</text>
<rect x="78" y="1014" width="64.19999999999999" height="15" fill="#fff8e1" stroke="#f57f17" stroke-width="1.5" stroke-dasharray="4 2" rx="4" />
<text x="84" y="1025" font-size="9" fill="#e65100" font-weight="bold">&lt;slot /&gt;</text>
<rect x="1122" y="10" width="231" height="206" fill="none" stroke="#bdbdbd" stroke-width="1" rx="4" />
<text x="1132" y="24" font-size="10" fill="#424242" font-weight="bold">Legend</text>
<line x1="1132" y1="38" x2="1156" y2="38" stroke="#9e9e9e" stroke-width="1.5" stroke-dasharray="4 2" />
<text x="1178" y="42" font-size="8" fill="#666">#shadow-root</text>
<rect x="1132" y="48" width="12" height="12" fill="#7b1fa2" rx="2" />
<path d="M5 0.5 L9.5 5 L5 9.5 L0.5 5 Z" fill="none" stroke="#fff" stroke-width="1.2" stroke-linecap="round" stroke-linejoin="round" transform="translate(1133,49) scale(1)" />
<text x="1178" y="58" font-size="8" fill="#666">condition (when / else)</text>
<rect x="1132" y="64" width="12" height="12" fill="#00695c" rx="2" />
<path d="M8 14.667a5.806 5.806 0 0 1-2.342-.475 6.1 6.1 0 0 1-1.9-1.284 6.097 6.097 0 0 1-1.283-1.9A5.804 5.804 0 0 1 2 8.667a5.8 5.8 0 0 1 .475-2.342 6.099 6.099 0 0 1 1.283-1.9 6.099 6.099 0 0 1 1.9-1.283A5.805 5.805 0 0 1 8 2.667h.1L7.533 2.1a.622.622 0 0 1-.183-.458.68.68 0 0 1 .183-.475.68.68 0 0 1 .475-.209.62.62 0 0 1 .475.192L10.2 2.867a.632.632 0 0 1 .183.466.632.632 0 0 1-.183.467L8.483 5.517a.62.62 0 0 1-.475.191.68.68 0 0 1-.475-.208.68.68 0 0 1-.183-.475c0-.183.061-.336.183-.458L8.1 4H8c-1.3 0-2.403.453-3.308 1.358-.906.906-1.359 2.009-1.359 3.309 0 1.3.453 2.402 1.359 3.308.905.906 2.008 1.358 3.308 1.358 1.178 0 2.206-.383 3.083-1.15.878-.766 1.395-1.733 1.55-2.9a.68.68 0 0 1 .234-.441.687.687 0 0 1 .466-.175c.178 0 .334.055.467.166a.44.44 0 0 1 .167.417c-.156 1.544-.8 2.833-1.934 3.867C10.9 14.15 9.556 14.667 8 14.667Z" fill="#fff" transform="translate(1133,65) scale(0.625)" />
<text x="1178" y="74" font-size="8" fill="#666">iteration (for each)</text>
<rect x="1132" y="80" width="12" height="12" fill="#546e7a" rx="2" />
<text x="1178" y="90" font-size="8" fill="#666">descriptive comment</text>
<rect x="1132" y="96" width="20" height="12" fill="#fff8e1" stroke="#f57f17" stroke-width="1" stroke-dasharray="3 1.5" rx="2" />
<text x="1178" y="106" font-size="8" fill="#666">slot</text>
<rect x="1132" y="112" width="12" height="12" fill="#0277bd" rx="2" />
<path d="M10.817 8.664H3.642a.613.613 0 0 1-.457-.19.647.647 0 0 1-.185-.47c0-.187.062-.343.185-.47a.613.613 0 0 1 .457-.19h7.175l-3.146-3.23a.613.613 0 0 1-.185-.462.668.668 0 0 1 .65-.651.58.58 0 0 1 .45.189l4.237 4.353c.065.066.11.137.137.214a.75.75 0 0 1 .04.247.75.75 0 0 1-.04.248.581.581 0 0 1-.137.214l-4.237 4.353a.59.59 0 0 1-.442.181.645.645 0 0 1-.457-.181.65.65 0 0 1-.193-.47.65.65 0 0 1 .193-.47l3.13-3.215Z" fill="#fff" transform="translate(1133,113) scale(0.625)" />
<text x="1178" y="122" font-size="8" fill="#666">projected content (light DOM)</text>
<rect x="1132" y="128" width="28" height="12" fill="#fafafa" stroke="#bdbdbd" stroke-width="1" rx="3" />
<text x="1134" y="137" font-size="7" fill="#424242" font-weight="bold">&lt;tag&gt;</text>
<text x="1178" y="138" font-size="8" fill="#666">tag pill (id, role, aria-*, part)</text>
<text x="1132" y="154" font-size="9" fill="#424242">part</text>
<text x="1178" y="154" font-size="8" fill="#666">part=&quot;name&quot;  (static)</text>
<text x="1132" y="170" font-size="9" fill="#424242">[part]</text>
<text x="1178" y="170" font-size="8" fill="#666">[part]  (conditional)</text>
<text x="1132" y="186" font-size="9" fill="#424242">{part}</text>
<text x="1178" y="186" font-size="8" fill="#666">{part}  (dynamic)</text>
<text x="1132" y="202" font-size="9" fill="#424242">[{part}]</text>
<text x="1178" y="202" font-size="8" fill="#666">[{part}]  (conditional dynamic)</text>

</svg>
