<?xml version="1.0" encoding="UTF-8"?>
<svg xmlns="http://www.w3.org/2000/svg"
     viewBox="0 0 775 1800"
     width="775" height="1800"
     font-family="monospace, Consolas">
  <style>
    text { dominant-baseline: auto; }
  </style>
  <rect x="10" y="10" width="498" height="1780" fill="#ffffff" stroke="#424242" stroke-width="1" rx="4" />
<rect x="20" y="4" width="141" height="12" fill="#ffffff" stroke="#424242" stroke-width="1" rx="3" />
<text x="24" y="13" font-size="9" fill="#212121" font-weight="normal"><tspan>&lt;</tspan><tspan font-weight="bold">ch-action-group-render</tspan><tspan>&gt;</tspan></text>
<rect x="12" y="26" width="494" height="1762" fill="none" stroke="#9e9e9e" stroke-width="1.5" stroke-dasharray="6 3" rx="3" />
<rect x="16" y="20" width="66" height="12" fill="#ffffff" rx="2" />
<text x="20" y="28" font-size="8" fill="#9e9e9e" font-family="monospace">#shadow-root</text>
<line x1="30" y1="50" x2="30" y2="866" stroke="#7b1fa2" stroke-width="2" stroke-opacity="0.4" stroke-linecap="round" />
<line x1="30" y1="911" x2="30" y2="1707" stroke="#546e7a" stroke-width="2" stroke-opacity="0.4" stroke-linecap="round" />
<line x1="30" y1="1729" x2="30" y2="1742" stroke="#546e7a" stroke-width="2" stroke-opacity="0.4" stroke-linecap="round" />
<line x1="30" y1="1764" x2="30" y2="1780" stroke="#546e7a" stroke-width="2" stroke-opacity="0.4" stroke-linecap="round" />
<rect x="22" y="34" width="274.4" height="16" fill="#7b1fa2" rx="3" />
<path d="M5 0.5 L9.5 5 L5 9.5 L0.5 5 Z" fill="none" stroke="#ffffff" stroke-width="1.2" stroke-linecap="round" stroke-linejoin="round" transform="translate(28,37) scale(1)" />
<text x="166.2" y="45.15" font-size="9" fill="#ffffff" font-family="monospace" text-anchor="middle">when responsive collapse &amp;&amp; collapsedItems &gt; 0</text>
<rect x="34" y="57" width="462" height="809" fill="#fafafa" stroke="#bdbdbd" stroke-width="1" rx="4" />
<rect x="44" y="51" width="136" height="12" fill="#fafafa" stroke="#bdbdbd" stroke-width="1" rx="3" />
<text x="48" y="60" font-size="9" fill="#424242" font-weight="normal"><tspan>&lt;</tspan><tspan font-weight="bold">ch-action-menu-render</tspan><tspan>&gt;</tspan></text>
<rect x="36" y="73" width="458" height="731" fill="none" stroke="#9e9e9e" stroke-width="1.5" stroke-dasharray="6 3" rx="3" />
<rect x="40" y="67" width="66" height="12" fill="#ffffff" rx="2" />
<text x="44" y="75" font-size="8" fill="#9e9e9e" font-family="monospace">#shadow-root</text>
<rect x="44" y="807" width="182.6" height="16" fill="#0277bd" rx="3" />
<path d="M10.817 8.664H3.642a.613.613 0 0 1-.457-.19.647.647 0 0 1-.185-.47c0-.187.062-.343.185-.47a.613.613 0 0 1 .457-.19h7.175l-3.146-3.23a.613.613 0 0 1-.185-.462.668.668 0 0 1 .65-.651.58.58 0 0 1 .45.189l4.237 4.353c.065.066.11.137.137.214a.75.75 0 0 1 .04.247.75.75 0 0 1-.04.248.581.581 0 0 1-.137.214l-4.237 4.353a.59.59 0 0 1-.442.181.645.645 0 0 1-.457-.181.65.65 0 0 1-.193-.47.65.65 0 0 1 .193-.47l3.13-3.215Z" fill="#ffffff" transform="translate(50,810) scale(0.625)" />
<text x="142.3" y="818.15" font-size="9" fill="#ffffff" font-family="monospace" text-anchor="middle">projected content (light DOM)</text>
<line x1="54" y1="182" x2="54" y2="801" stroke="#7b1fa2" stroke-width="2" stroke-opacity="0.4" stroke-linecap="round" />
<line x1="52" y1="840" x2="52" y2="856" stroke="#00695c" stroke-width="2" stroke-opacity="0.4" stroke-linecap="round" />
<rect x="46" y="87" width="360" height="67" fill="#e3f2fd" stroke="#1976d2" stroke-width="1" rx="4" />
<rect x="56" y="81" width="340" height="38" fill="#e3f2fd" stroke="#1976d2" stroke-width="1" rx="3" />
<text x="60" y="92" font-size="9" fill="#0d47a1" font-weight="normal"><tspan>&lt;</tspan><tspan font-weight="bold">button</tspan></text>
<text x="71" y="104" font-size="9" fill="#0d47a1" font-weight="normal">part=&quot;expandable-button [expanded | collapsed] [disabled]&quot;</text>
<text x="60" y="116" font-size="9" fill="#0d47a1" font-weight="normal">&gt;</text>
<rect x="56" y="129" width="64.19999999999999" height="15" fill="#fff8e1" stroke="#f57f17" stroke-width="1.5" stroke-dasharray="4 2" rx="4" />
<text x="62" y="140" font-size="9" fill="#e65100" font-weight="bold">&lt;slot /&gt;</text>
<rect x="46" y="166" width="96.2" height="16" fill="#7b1fa2" rx="3" />
<path d="M5 0.5 L9.5 5 L5 9.5 L0.5 5 Z" fill="none" stroke="#ffffff" stroke-width="1.2" stroke-linecap="round" stroke-linejoin="round" transform="translate(52,169) scale(1)" />
<text x="101.1" y="177.15" font-size="9" fill="#ffffff" font-family="monospace" text-anchor="middle">when expanded</text>
<rect x="58" y="189" width="426" height="612" fill="#f3f0ff" stroke="#bdbdbd" stroke-width="1" rx="4" />
<rect x="68" y="183" width="152" height="12" fill="#f3f0ff" stroke="#bdbdbd" stroke-width="1" rx="3" />
<text x="72" y="192" font-size="9" fill="#424242" font-weight="normal"><tspan>&lt;</tspan><tspan font-weight="bold">ch-popover</tspan><tspan> part=&quot;window&quot;</tspan><tspan>&gt;</tspan></text>
<rect x="60" y="205" width="422" height="26" fill="none" stroke="#9e9e9e" stroke-width="1.5" stroke-dasharray="6 3" rx="3" />
<rect x="64" y="199" width="66" height="12" fill="#ffffff" rx="2" />
<text x="68" y="207" font-size="8" fill="#9e9e9e" font-family="monospace">#shadow-root</text>
<rect x="68" y="234" width="182.6" height="16" fill="#0277bd" rx="3" />
<path d="M10.817 8.664H3.642a.613.613 0 0 1-.457-.19.647.647 0 0 1-.185-.47c0-.187.062-.343.185-.47a.613.613 0 0 1 .457-.19h7.175l-3.146-3.23a.613.613 0 0 1-.185-.462.668.668 0 0 1 .65-.651.58.58 0 0 1 .45.189l4.237 4.353c.065.066.11.137.137.214a.75.75 0 0 1 .04.247.75.75 0 0 1-.04.248.581.581 0 0 1-.137.214l-4.237 4.353a.59.59 0 0 1-.442.181.645.645 0 0 1-.457-.181.65.65 0 0 1-.193-.47.65.65 0 0 1 .193-.47l3.13-3.215Z" fill="#ffffff" transform="translate(74,237) scale(0.625)" />
<text x="166.3" y="245.15" font-size="9" fill="#ffffff" font-family="monospace" text-anchor="middle">projected content (light DOM)</text>
<line x1="76" y1="267" x2="76" y2="791" stroke="#00695c" stroke-width="2" stroke-opacity="0.4" stroke-linecap="round" />
<rect x="70" y="213" width="64.19999999999999" height="15" fill="#fff8e1" stroke="#f57f17" stroke-width="1.5" stroke-dasharray="4 2" rx="4" />
<text x="76" y="224" font-size="9" fill="#e65100" font-weight="bold">&lt;slot /&gt;</text>
<rect x="68" y="251" width="242" height="16" fill="#00695c" rx="3" />
<path d="M8 14.667a5.806 5.806 0 0 1-2.342-.475 6.1 6.1 0 0 1-1.9-1.284 6.097 6.097 0 0 1-1.283-1.9A5.804 5.804 0 0 1 2 8.667a5.8 5.8 0 0 1 .475-2.342 6.099 6.099 0 0 1 1.283-1.9 6.099 6.099 0 0 1 1.9-1.283A5.805 5.805 0 0 1 8 2.667h.1L7.533 2.1a.622.622 0 0 1-.183-.458.68.68 0 0 1 .183-.475.68.68 0 0 1 .475-.209.62.62 0 0 1 .475.192L10.2 2.867a.632.632 0 0 1 .183.466.632.632 0 0 1-.183.467L8.483 5.517a.62.62 0 0 1-.475.191.68.68 0 0 1-.475-.208.68.68 0 0 1-.183-.475c0-.183.061-.336.183-.458L8.1 4H8c-1.3 0-2.403.453-3.308 1.358-.906.906-1.359 2.009-1.359 3.309 0 1.3.453 2.402 1.359 3.308.905.906 2.008 1.358 3.308 1.358 1.178 0 2.206-.383 3.083-1.15.878-.766 1.395-1.733 1.55-2.9a.68.68 0 0 1 .234-.441.687.687 0 0 1 .466-.175c.178 0 .334.055.467.166a.44.44 0 0 1 .167.417c-.156 1.544-.8 2.833-1.934 3.867C10.9 14.15 9.556 14.667 8 14.667Z" fill="#ffffff" transform="translate(74,254) scale(0.625)" />
<text x="196" y="262.15" font-size="9" fill="#ffffff" font-family="monospace" text-anchor="middle">for each collapsedItem in collapsedItems</text>
<rect x="80" y="274" width="390" height="517" fill="#f0f7f4" stroke="#bdbdbd" stroke-width="1" rx="4" />
<rect x="90" y="268" width="185" height="12" fill="#f0f7f4" stroke="#bdbdbd" stroke-width="1" rx="3" />
<text x="94" y="277" font-size="9" fill="#424242" font-weight="normal"><tspan>&lt;</tspan><tspan font-weight="bold">ch-action-menu</tspan><tspan> role=&quot;listitem&quot;</tspan><tspan>&gt;</tspan></text>
<rect x="82" y="290" width="386" height="499" fill="none" stroke="#9e9e9e" stroke-width="1.5" stroke-dasharray="6 3" rx="3" />
<rect x="86" y="284" width="66" height="12" fill="#ffffff" rx="2" />
<text x="90" y="292" font-size="8" fill="#9e9e9e" font-family="monospace">#shadow-root</text>
<line x1="100" y1="314" x2="100" y2="493" stroke="#546e7a" stroke-width="2" stroke-opacity="0.4" stroke-linecap="round" />
<line x1="100" y1="510" x2="100" y2="658" stroke="#ad1457" stroke-width="2" stroke-opacity="0.4" stroke-linecap="round" />
<line x1="100" y1="686" x2="100" y2="781" stroke="#7b1fa2" stroke-width="2" stroke-opacity="0.4" stroke-linecap="round" />
<rect x="92" y="298" width="125.39999999999999" height="16" fill="#546e7a" rx="3" />
<text x="154.7" y="309.15" font-size="9" fill="#ffffff" font-family="monospace" text-anchor="middle">Button item (no link)</text>
<rect x="104" y="321" width="354" height="167" fill="#e3f2fd" stroke="#1976d2" stroke-width="1" rx="4" />
<rect x="114" y="315" width="334" height="38" fill="#e3f2fd" stroke="#1976d2" stroke-width="1" rx="3" />
<text x="118" y="326" font-size="9" fill="#0d47a1" font-weight="normal"><tspan>&lt;</tspan><tspan font-weight="bold">button</tspan></text>
<text x="129" y="338" font-size="9" fill="#0d47a1" font-weight="normal">part=&quot;button [disabled] [expanded | collapsed] [{parts}]&quot;</text>
<text x="118" y="350" font-size="9" fill="#0d47a1" font-weight="normal">&gt;</text>
<line x1="122" y1="434" x2="122" y2="478" stroke="#7b1fa2" stroke-width="2" stroke-opacity="0.4" stroke-linecap="round" />
<rect x="114" y="369" width="200" height="37" fill="#fff8f0" stroke="#bdbdbd" stroke-width="1" rx="4" />
<rect x="124" y="363" width="180" height="12" fill="#fff8f0" stroke="#bdbdbd" stroke-width="1" rx="3" />
<text x="128" y="372" font-size="9" fill="#424242" font-weight="normal"><tspan>&lt;</tspan><tspan font-weight="bold">span</tspan><tspan> part=&quot;content [{parts}]&quot;</tspan><tspan>&gt;</tspan></text>
<text x="124" y="394" font-size="9" fill="#888" font-style="italic">&quot;Caption text&quot;</text>
<rect x="114" y="418" width="96.2" height="16" fill="#7b1fa2" rx="3" />
<path d="M5 0.5 L9.5 5 L5 9.5 L0.5 5 Z" fill="none" stroke="#ffffff" stroke-width="1.2" stroke-linecap="round" stroke-linejoin="round" transform="translate(120,421) scale(1)" />
<text x="169.1" y="429.15" font-size="9" fill="#ffffff" font-family="monospace" text-anchor="middle">when shortcut</text>
<rect x="126" y="441" width="205" height="37" fill="#fff8f0" stroke="#bdbdbd" stroke-width="1" rx="4" />
<rect x="136" y="435" width="185" height="12" fill="#fff8f0" stroke="#bdbdbd" stroke-width="1" rx="3" />
<text x="140" y="444" font-size="9" fill="#424242" font-weight="normal"><tspan>&lt;</tspan><tspan font-weight="bold">span</tspan><tspan> part=&quot;shortcut [{parts}]&quot;</tspan><tspan>&gt;</tspan></text>
<text x="136" y="466" font-size="9" fill="#888" font-style="italic">&quot;Ctrl+S&quot;</text>
<rect x="92" y="494" width="112.39999999999999" height="16" fill="#ad1457" rx="3" />
<path d="M5 0.5 L9.5 5 L5 9.5 L0.5 5 Z" fill="none" stroke="#ffffff" stroke-width="1.2" stroke-linecap="round" stroke-linejoin="round" transform="translate(98,497) scale(1)" />
<text x="155.2" y="505.15" font-size="9" fill="#ffffff" font-family="monospace" text-anchor="middle">else (link item)</text>
<rect x="104" y="517" width="354" height="141" fill="#e3f2fd" stroke="#1976d2" stroke-width="1" rx="4" />
<rect x="114" y="511" width="334" height="12" fill="#e3f2fd" stroke="#1976d2" stroke-width="1" rx="3" />
<text x="118" y="520" font-size="9" fill="#0d47a1" font-weight="normal"><tspan>&lt;</tspan><tspan font-weight="bold">a</tspan><tspan> part=&quot;link [disabled] [expanded | collapsed] [{parts}]&quot;</tspan><tspan>&gt;</tspan></text>
<line x1="122" y1="604" x2="122" y2="648" stroke="#7b1fa2" stroke-width="2" stroke-opacity="0.4" stroke-linecap="round" />
<rect x="114" y="539" width="200" height="37" fill="#fff8f0" stroke="#bdbdbd" stroke-width="1" rx="4" />
<rect x="124" y="533" width="180" height="12" fill="#fff8f0" stroke="#bdbdbd" stroke-width="1" rx="3" />
<text x="128" y="542" font-size="9" fill="#424242" font-weight="normal"><tspan>&lt;</tspan><tspan font-weight="bold">span</tspan><tspan> part=&quot;content [{parts}]&quot;</tspan><tspan>&gt;</tspan></text>
<text x="124" y="564" font-size="9" fill="#888" font-style="italic">&quot;Caption text&quot;</text>
<rect x="114" y="588" width="96.2" height="16" fill="#7b1fa2" rx="3" />
<path d="M5 0.5 L9.5 5 L5 9.5 L0.5 5 Z" fill="none" stroke="#ffffff" stroke-width="1.2" stroke-linecap="round" stroke-linejoin="round" transform="translate(120,591) scale(1)" />
<text x="169.1" y="599.15" font-size="9" fill="#ffffff" font-family="monospace" text-anchor="middle">when shortcut</text>
<rect x="126" y="611" width="205" height="37" fill="#fff8f0" stroke="#bdbdbd" stroke-width="1" rx="4" />
<rect x="136" y="605" width="185" height="12" fill="#fff8f0" stroke="#bdbdbd" stroke-width="1" rx="3" />
<text x="140" y="614" font-size="9" fill="#424242" font-weight="normal"><tspan>&lt;</tspan><tspan font-weight="bold">span</tspan><tspan> part=&quot;shortcut [{parts}]&quot;</tspan><tspan>&gt;</tspan></text>
<text x="136" y="636" font-size="9" fill="#888" font-style="italic">&quot;Ctrl+S&quot;</text>
<rect x="92" y="670" width="231.2" height="16" fill="#7b1fa2" rx="3" />
<path d="M5 0.5 L9.5 5 L5 9.5 L0.5 5 Z" fill="none" stroke="#ffffff" stroke-width="1.2" stroke-linecap="round" stroke-linejoin="round" transform="translate(98,673) scale(1)" />
<text x="214.6" y="681.15" font-size="9" fill="#ffffff" font-family="monospace" text-anchor="middle">when expandable &amp;&amp; expanded (sub-menu)</text>
<rect x="104" y="693" width="294" height="88" fill="#fff8f0" stroke="#bdbdbd" stroke-width="1" rx="4" />
<rect x="114" y="687" width="274" height="12" fill="#fff8f0" stroke="#bdbdbd" stroke-width="1" rx="3" />
<text x="118" y="696" font-size="9" fill="#424242" font-weight="normal"><tspan>&lt;</tspan><tspan font-weight="bold">ch-popover</tspan><tspan> role=&quot;list&quot; part=&quot;window [{parts}]&quot;</tspan><tspan>&gt;</tspan></text>
<rect x="106" y="709" width="290" height="26" fill="none" stroke="#9e9e9e" stroke-width="1.5" stroke-dasharray="6 3" rx="3" />
<rect x="110" y="703" width="66" height="12" fill="#ffffff" rx="2" />
<text x="114" y="711" font-size="8" fill="#9e9e9e" font-family="monospace">#shadow-root</text>
<rect x="114" y="738" width="182.6" height="16" fill="#0277bd" rx="3" />
<path d="M10.817 8.664H3.642a.613.613 0 0 1-.457-.19.647.647 0 0 1-.185-.47c0-.187.062-.343.185-.47a.613.613 0 0 1 .457-.19h7.175l-3.146-3.23a.613.613 0 0 1-.185-.462.668.668 0 0 1 .65-.651.58.58 0 0 1 .45.189l4.237 4.353c.065.066.11.137.137.214a.75.75 0 0 1 .04.247.75.75 0 0 1-.04.248.581.581 0 0 1-.137.214l-4.237 4.353a.59.59 0 0 1-.442.181.645.645 0 0 1-.457-.181.65.65 0 0 1-.193-.47.65.65 0 0 1 .193-.47l3.13-3.215Z" fill="#ffffff" transform="translate(120,741) scale(0.625)" />
<text x="212.3" y="749.15" font-size="9" fill="#ffffff" font-family="monospace" text-anchor="middle">projected content (light DOM)</text>
<rect x="116" y="717" width="64.19999999999999" height="15" fill="#fff8e1" stroke="#f57f17" stroke-width="1.5" stroke-dasharray="4 2" rx="4" />
<text x="122" y="728" font-size="9" fill="#e65100" font-weight="bold">&lt;slot /&gt;</text>
<rect x="114" y="755" width="190.2" height="16" fill="#546e7a" rx="3" />
<text x="209.1" y="766.15" font-size="9" fill="#ffffff" font-family="monospace" text-anchor="middle">Nested ch-action-menu (recursive)</text>
<rect x="44" y="824" width="215" height="16" fill="#00695c" rx="3" />
<path d="M8 14.667a5.806 5.806 0 0 1-2.342-.475 6.1 6.1 0 0 1-1.9-1.284 6.097 6.097 0 0 1-1.283-1.9A5.804 5.804 0 0 1 2 8.667a5.8 5.8 0 0 1 .475-2.342 6.099 6.099 0 0 1 1.283-1.9 6.099 6.099 0 0 1 1.9-1.283A5.805 5.805 0 0 1 8 2.667h.1L7.533 2.1a.622.622 0 0 1-.183-.458.68.68 0 0 1 .183-.475.68.68 0 0 1 .475-.209.62.62 0 0 1 .475.192L10.2 2.867a.632.632 0 0 1 .183.466.632.632 0 0 1-.183.467L8.483 5.517a.62.62 0 0 1-.475.191.68.68 0 0 1-.475-.208.68.68 0 0 1-.183-.475c0-.183.061-.336.183-.458L8.1 4H8c-1.3 0-2.403.453-3.308 1.358-.906.906-1.359 2.009-1.359 3.309 0 1.3.453 2.402 1.359 3.308.905.906 2.008 1.358 3.308 1.358 1.178 0 2.206-.383 3.083-1.15.878-.766 1.395-1.733 1.55-2.9a.68.68 0 0 1 .234-.441.687.687 0 0 1 .466-.175c.178 0 .334.055.467.166a.44.44 0 0 1 .167.417c-.156 1.544-.8 2.833-1.934 3.867C10.9 14.15 9.556 14.667 8 14.667Z" fill="#ffffff" transform="translate(50,827) scale(0.625)" />
<text x="158.5" y="835.15" font-size="9" fill="#ffffff" font-family="monospace" text-anchor="middle">for each slotItem in collapsedItems</text>
<rect x="56" y="841" width="158.125" height="15" fill="#fff8e1" stroke="#f57f17" stroke-width="1.5" stroke-dasharray="4 2" rx="4" />
<text x="62" y="852" font-size="9" fill="#e65100" font-weight="bold">&lt;slot name=&quot;{item.id}&quot; /&gt;</text>
<rect x="22" y="878" width="144.8" height="16" fill="#00695c" rx="3" />
<path d="M8 14.667a5.806 5.806 0 0 1-2.342-.475 6.1 6.1 0 0 1-1.9-1.284 6.097 6.097 0 0 1-1.283-1.9A5.804 5.804 0 0 1 2 8.667a5.8 5.8 0 0 1 .475-2.342 6.099 6.099 0 0 1 1.283-1.9 6.099 6.099 0 0 1 1.9-1.283A5.805 5.805 0 0 1 8 2.667h.1L7.533 2.1a.622.622 0 0 1-.183-.458.68.68 0 0 1 .183-.475.68.68 0 0 1 .475-.209.62.62 0 0 1 .475.192L10.2 2.867a.632.632 0 0 1 .183.466.632.632 0 0 1-.183.467L8.483 5.517a.62.62 0 0 1-.475.191.68.68 0 0 1-.475-.208.68.68 0 0 1-.183-.475c0-.183.061-.336.183-.458L8.1 4H8c-1.3 0-2.403.453-3.308 1.358-.906.906-1.359 2.009-1.359 3.309 0 1.3.453 2.402 1.359 3.308.905.906 2.008 1.358 3.308 1.358 1.178 0 2.206-.383 3.083-1.15.878-.766 1.395-1.733 1.55-2.9a.68.68 0 0 1 .234-.441.687.687 0 0 1 .466-.175c.178 0 .334.055.467.166a.44.44 0 0 1 .167.417c-.156 1.544-.8 2.833-1.934 3.867C10.9 14.15 9.556 14.667 8 14.667Z" fill="#ffffff" transform="translate(28,881) scale(0.625)" />
<text x="101.4" y="889.15" font-size="9" fill="#ffffff" font-family="monospace" text-anchor="middle">for each item in model</text>
<rect x="22" y="895" width="93" height="16" fill="#546e7a" rx="3" />
<text x="68.5" y="906.15" font-size="9" fill="#ffffff" font-family="monospace" text-anchor="middle">Actionable item</text>
<rect x="34" y="918" width="462" height="789" fill="#fafafa" stroke="#bdbdbd" stroke-width="1" rx="4" />
<rect x="44" y="912" width="224" height="12" fill="#fafafa" stroke="#bdbdbd" stroke-width="1" rx="3" />
<text x="48" y="921" font-size="9" fill="#424242" font-weight="normal"><tspan>&lt;</tspan><tspan font-weight="bold">ch-action-menu-render</tspan><tspan> role=&quot;listitem&quot;</tspan><tspan>&gt;</tspan></text>
<rect x="36" y="934" width="458" height="771" fill="none" stroke="#9e9e9e" stroke-width="1.5" stroke-dasharray="6 3" rx="3" />
<rect x="40" y="928" width="66" height="12" fill="#ffffff" rx="2" />
<text x="44" y="936" font-size="8" fill="#9e9e9e" font-family="monospace">#shadow-root</text>
<line x1="54" y1="1043" x2="54" y2="1697" stroke="#7b1fa2" stroke-width="2" stroke-opacity="0.4" stroke-linecap="round" />
<rect x="46" y="948" width="360" height="67" fill="#e3f2fd" stroke="#1976d2" stroke-width="1" rx="4" />
<rect x="56" y="942" width="340" height="38" fill="#e3f2fd" stroke="#1976d2" stroke-width="1" rx="3" />
<text x="60" y="953" font-size="9" fill="#0d47a1" font-weight="normal"><tspan>&lt;</tspan><tspan font-weight="bold">button</tspan></text>
<text x="71" y="965" font-size="9" fill="#0d47a1" font-weight="normal">part=&quot;expandable-button [expanded | collapsed] [disabled]&quot;</text>
<text x="60" y="977" font-size="9" fill="#0d47a1" font-weight="normal">&gt;</text>
<rect x="56" y="990" width="64.19999999999999" height="15" fill="#fff8e1" stroke="#f57f17" stroke-width="1.5" stroke-dasharray="4 2" rx="4" />
<text x="62" y="1001" font-size="9" fill="#e65100" font-weight="bold">&lt;slot /&gt;</text>
<rect x="46" y="1027" width="96.2" height="16" fill="#7b1fa2" rx="3" />
<path d="M5 0.5 L9.5 5 L5 9.5 L0.5 5 Z" fill="none" stroke="#ffffff" stroke-width="1.2" stroke-linecap="round" stroke-linejoin="round" transform="translate(52,1030) scale(1)" />
<text x="101.1" y="1038.15" font-size="9" fill="#ffffff" font-family="monospace" text-anchor="middle">when expanded</text>
<rect x="58" y="1050" width="426" height="647" fill="#f3f0ff" stroke="#bdbdbd" stroke-width="1" rx="4" />
<rect x="68" y="1044" width="218" height="12" fill="#f3f0ff" stroke="#bdbdbd" stroke-width="1" rx="3" />
<text x="72" y="1053" font-size="9" fill="#424242" font-weight="normal"><tspan>&lt;</tspan><tspan font-weight="bold">ch-popover</tspan><tspan> role=&quot;list&quot; part=&quot;window&quot;</tspan><tspan>&gt;</tspan></text>
<rect x="60" y="1066" width="422" height="26" fill="none" stroke="#9e9e9e" stroke-width="1.5" stroke-dasharray="6 3" rx="3" />
<rect x="64" y="1060" width="66" height="12" fill="#ffffff" rx="2" />
<text x="68" y="1068" font-size="8" fill="#9e9e9e" font-family="monospace">#shadow-root</text>
<rect x="68" y="1095" width="182.6" height="16" fill="#0277bd" rx="3" />
<path d="M10.817 8.664H3.642a.613.613 0 0 1-.457-.19.647.647 0 0 1-.185-.47c0-.187.062-.343.185-.47a.613.613 0 0 1 .457-.19h7.175l-3.146-3.23a.613.613 0 0 1-.185-.462.668.668 0 0 1 .65-.651.58.58 0 0 1 .45.189l4.237 4.353c.065.066.11.137.137.214a.75.75 0 0 1 .04.247.75.75 0 0 1-.04.248.581.581 0 0 1-.137.214l-4.237 4.353a.59.59 0 0 1-.442.181.645.645 0 0 1-.457-.181.65.65 0 0 1-.193-.47.65.65 0 0 1 .193-.47l3.13-3.215Z" fill="#ffffff" transform="translate(74,1098) scale(0.625)" />
<text x="166.3" y="1106.15" font-size="9" fill="#ffffff" font-family="monospace" text-anchor="middle">projected content (light DOM)</text>
<line x1="76" y1="1128" x2="76" y2="1652" stroke="#00695c" stroke-width="2" stroke-opacity="0.4" stroke-linecap="round" />
<line x1="76" y1="1674" x2="76" y2="1687" stroke="#546e7a" stroke-width="2" stroke-opacity="0.4" stroke-linecap="round" />
<rect x="70" y="1074" width="64.19999999999999" height="15" fill="#fff8e1" stroke="#f57f17" stroke-width="1.5" stroke-dasharray="4 2" rx="4" />
<text x="76" y="1085" font-size="9" fill="#e65100" font-weight="bold">&lt;slot /&gt;</text>
<rect x="68" y="1112" width="144.8" height="16" fill="#00695c" rx="3" />
<path d="M8 14.667a5.806 5.806 0 0 1-2.342-.475 6.1 6.1 0 0 1-1.9-1.284 6.097 6.097 0 0 1-1.283-1.9A5.804 5.804 0 0 1 2 8.667a5.8 5.8 0 0 1 .475-2.342 6.099 6.099 0 0 1 1.283-1.9 6.099 6.099 0 0 1 1.9-1.283A5.805 5.805 0 0 1 8 2.667h.1L7.533 2.1a.622.622 0 0 1-.183-.458.68.68 0 0 1 .183-.475.68.68 0 0 1 .475-.209.62.62 0 0 1 .475.192L10.2 2.867a.632.632 0 0 1 .183.466.632.632 0 0 1-.183.467L8.483 5.517a.62.62 0 0 1-.475.191.68.68 0 0 1-.475-.208.68.68 0 0 1-.183-.475c0-.183.061-.336.183-.458L8.1 4H8c-1.3 0-2.403.453-3.308 1.358-.906.906-1.359 2.009-1.359 3.309 0 1.3.453 2.402 1.359 3.308.905.906 2.008 1.358 3.308 1.358 1.178 0 2.206-.383 3.083-1.15.878-.766 1.395-1.733 1.55-2.9a.68.68 0 0 1 .234-.441.687.687 0 0 1 .466-.175c.178 0 .334.055.467.166a.44.44 0 0 1 .167.417c-.156 1.544-.8 2.833-1.934 3.867C10.9 14.15 9.556 14.667 8 14.667Z" fill="#ffffff" transform="translate(74,1115) scale(0.625)" />
<text x="147.4" y="1123.15" font-size="9" fill="#ffffff" font-family="monospace" text-anchor="middle">for each item in model</text>
<rect x="80" y="1135" width="390" height="517" fill="#f0f7f4" stroke="#bdbdbd" stroke-width="1" rx="4" />
<rect x="90" y="1129" width="185" height="12" fill="#f0f7f4" stroke="#bdbdbd" stroke-width="1" rx="3" />
<text x="94" y="1138" font-size="9" fill="#424242" font-weight="normal"><tspan>&lt;</tspan><tspan font-weight="bold">ch-action-menu</tspan><tspan> role=&quot;listitem&quot;</tspan><tspan>&gt;</tspan></text>
<rect x="82" y="1151" width="386" height="499" fill="none" stroke="#9e9e9e" stroke-width="1.5" stroke-dasharray="6 3" rx="3" />
<rect x="86" y="1145" width="66" height="12" fill="#ffffff" rx="2" />
<text x="90" y="1153" font-size="8" fill="#9e9e9e" font-family="monospace">#shadow-root</text>
<line x1="100" y1="1175" x2="100" y2="1354" stroke="#546e7a" stroke-width="2" stroke-opacity="0.4" stroke-linecap="round" />
<line x1="100" y1="1371" x2="100" y2="1519" stroke="#ad1457" stroke-width="2" stroke-opacity="0.4" stroke-linecap="round" />
<line x1="100" y1="1547" x2="100" y2="1642" stroke="#7b1fa2" stroke-width="2" stroke-opacity="0.4" stroke-linecap="round" />
<rect x="92" y="1159" width="125.39999999999999" height="16" fill="#546e7a" rx="3" />
<text x="154.7" y="1170.15" font-size="9" fill="#ffffff" font-family="monospace" text-anchor="middle">Button item (no link)</text>
<rect x="104" y="1182" width="354" height="167" fill="#e3f2fd" stroke="#1976d2" stroke-width="1" rx="4" />
<rect x="114" y="1176" width="334" height="38" fill="#e3f2fd" stroke="#1976d2" stroke-width="1" rx="3" />
<text x="118" y="1187" font-size="9" fill="#0d47a1" font-weight="normal"><tspan>&lt;</tspan><tspan font-weight="bold">button</tspan></text>
<text x="129" y="1199" font-size="9" fill="#0d47a1" font-weight="normal">part=&quot;button [disabled] [expanded | collapsed] [{parts}]&quot;</text>
<text x="118" y="1211" font-size="9" fill="#0d47a1" font-weight="normal">&gt;</text>
<line x1="122" y1="1295" x2="122" y2="1339" stroke="#7b1fa2" stroke-width="2" stroke-opacity="0.4" stroke-linecap="round" />
<rect x="114" y="1230" width="200" height="37" fill="#fff8f0" stroke="#bdbdbd" stroke-width="1" rx="4" />
<rect x="124" y="1224" width="180" height="12" fill="#fff8f0" stroke="#bdbdbd" stroke-width="1" rx="3" />
<text x="128" y="1233" font-size="9" fill="#424242" font-weight="normal"><tspan>&lt;</tspan><tspan font-weight="bold">span</tspan><tspan> part=&quot;content [{parts}]&quot;</tspan><tspan>&gt;</tspan></text>
<text x="124" y="1255" font-size="9" fill="#888" font-style="italic">&quot;Caption text&quot;</text>
<rect x="114" y="1279" width="96.2" height="16" fill="#7b1fa2" rx="3" />
<path d="M5 0.5 L9.5 5 L5 9.5 L0.5 5 Z" fill="none" stroke="#ffffff" stroke-width="1.2" stroke-linecap="round" stroke-linejoin="round" transform="translate(120,1282) scale(1)" />
<text x="169.1" y="1290.15" font-size="9" fill="#ffffff" font-family="monospace" text-anchor="middle">when shortcut</text>
<rect x="126" y="1302" width="205" height="37" fill="#fff8f0" stroke="#bdbdbd" stroke-width="1" rx="4" />
<rect x="136" y="1296" width="185" height="12" fill="#fff8f0" stroke="#bdbdbd" stroke-width="1" rx="3" />
<text x="140" y="1305" font-size="9" fill="#424242" font-weight="normal"><tspan>&lt;</tspan><tspan font-weight="bold">span</tspan><tspan> part=&quot;shortcut [{parts}]&quot;</tspan><tspan>&gt;</tspan></text>
<text x="136" y="1327" font-size="9" fill="#888" font-style="italic">&quot;Ctrl+S&quot;</text>
<rect x="92" y="1355" width="112.39999999999999" height="16" fill="#ad1457" rx="3" />
<path d="M5 0.5 L9.5 5 L5 9.5 L0.5 5 Z" fill="none" stroke="#ffffff" stroke-width="1.2" stroke-linecap="round" stroke-linejoin="round" transform="translate(98,1358) scale(1)" />
<text x="155.2" y="1366.15" font-size="9" fill="#ffffff" font-family="monospace" text-anchor="middle">else (link item)</text>
<rect x="104" y="1378" width="354" height="141" fill="#e3f2fd" stroke="#1976d2" stroke-width="1" rx="4" />
<rect x="114" y="1372" width="334" height="12" fill="#e3f2fd" stroke="#1976d2" stroke-width="1" rx="3" />
<text x="118" y="1381" font-size="9" fill="#0d47a1" font-weight="normal"><tspan>&lt;</tspan><tspan font-weight="bold">a</tspan><tspan> part=&quot;link [disabled] [expanded | collapsed] [{parts}]&quot;</tspan><tspan>&gt;</tspan></text>
<line x1="122" y1="1465" x2="122" y2="1509" stroke="#7b1fa2" stroke-width="2" stroke-opacity="0.4" stroke-linecap="round" />
<rect x="114" y="1400" width="200" height="37" fill="#fff8f0" stroke="#bdbdbd" stroke-width="1" rx="4" />
<rect x="124" y="1394" width="180" height="12" fill="#fff8f0" stroke="#bdbdbd" stroke-width="1" rx="3" />
<text x="128" y="1403" font-size="9" fill="#424242" font-weight="normal"><tspan>&lt;</tspan><tspan font-weight="bold">span</tspan><tspan> part=&quot;content [{parts}]&quot;</tspan><tspan>&gt;</tspan></text>
<text x="124" y="1425" font-size="9" fill="#888" font-style="italic">&quot;Caption text&quot;</text>
<rect x="114" y="1449" width="96.2" height="16" fill="#7b1fa2" rx="3" />
<path d="M5 0.5 L9.5 5 L5 9.5 L0.5 5 Z" fill="none" stroke="#ffffff" stroke-width="1.2" stroke-linecap="round" stroke-linejoin="round" transform="translate(120,1452) scale(1)" />
<text x="169.1" y="1460.15" font-size="9" fill="#ffffff" font-family="monospace" text-anchor="middle">when shortcut</text>
<rect x="126" y="1472" width="205" height="37" fill="#fff8f0" stroke="#bdbdbd" stroke-width="1" rx="4" />
<rect x="136" y="1466" width="185" height="12" fill="#fff8f0" stroke="#bdbdbd" stroke-width="1" rx="3" />
<text x="140" y="1475" font-size="9" fill="#424242" font-weight="normal"><tspan>&lt;</tspan><tspan font-weight="bold">span</tspan><tspan> part=&quot;shortcut [{parts}]&quot;</tspan><tspan>&gt;</tspan></text>
<text x="136" y="1497" font-size="9" fill="#888" font-style="italic">&quot;Ctrl+S&quot;</text>
<rect x="92" y="1531" width="231.2" height="16" fill="#7b1fa2" rx="3" />
<path d="M5 0.5 L9.5 5 L5 9.5 L0.5 5 Z" fill="none" stroke="#ffffff" stroke-width="1.2" stroke-linecap="round" stroke-linejoin="round" transform="translate(98,1534) scale(1)" />
<text x="214.6" y="1542.15" font-size="9" fill="#ffffff" font-family="monospace" text-anchor="middle">when expandable &amp;&amp; expanded (sub-menu)</text>
<rect x="104" y="1554" width="294" height="88" fill="#fff8f0" stroke="#bdbdbd" stroke-width="1" rx="4" />
<rect x="114" y="1548" width="274" height="12" fill="#fff8f0" stroke="#bdbdbd" stroke-width="1" rx="3" />
<text x="118" y="1557" font-size="9" fill="#424242" font-weight="normal"><tspan>&lt;</tspan><tspan font-weight="bold">ch-popover</tspan><tspan> role=&quot;list&quot; part=&quot;window [{parts}]&quot;</tspan><tspan>&gt;</tspan></text>
<rect x="106" y="1570" width="290" height="26" fill="none" stroke="#9e9e9e" stroke-width="1.5" stroke-dasharray="6 3" rx="3" />
<rect x="110" y="1564" width="66" height="12" fill="#ffffff" rx="2" />
<text x="114" y="1572" font-size="8" fill="#9e9e9e" font-family="monospace">#shadow-root</text>
<rect x="114" y="1599" width="182.6" height="16" fill="#0277bd" rx="3" />
<path d="M10.817 8.664H3.642a.613.613 0 0 1-.457-.19.647.647 0 0 1-.185-.47c0-.187.062-.343.185-.47a.613.613 0 0 1 .457-.19h7.175l-3.146-3.23a.613.613 0 0 1-.185-.462.668.668 0 0 1 .65-.651.58.58 0 0 1 .45.189l4.237 4.353c.065.066.11.137.137.214a.75.75 0 0 1 .04.247.75.75 0 0 1-.04.248.581.581 0 0 1-.137.214l-4.237 4.353a.59.59 0 0 1-.442.181.645.645 0 0 1-.457-.181.65.65 0 0 1-.193-.47.65.65 0 0 1 .193-.47l3.13-3.215Z" fill="#ffffff" transform="translate(120,1602) scale(0.625)" />
<text x="212.3" y="1610.15" font-size="9" fill="#ffffff" font-family="monospace" text-anchor="middle">projected content (light DOM)</text>
<rect x="116" y="1578" width="64.19999999999999" height="15" fill="#fff8e1" stroke="#f57f17" stroke-width="1.5" stroke-dasharray="4 2" rx="4" />
<text x="122" y="1589" font-size="9" fill="#e65100" font-weight="bold">&lt;slot /&gt;</text>
<rect x="114" y="1616" width="190.2" height="16" fill="#546e7a" rx="3" />
<text x="209.1" y="1627.15" font-size="9" fill="#ffffff" font-family="monospace" text-anchor="middle">Nested ch-action-menu (recursive)</text>
<rect x="68" y="1658" width="147" height="16" fill="#546e7a" rx="3" />
<text x="141.5" y="1669.15" font-size="9" fill="#ffffff" font-family="monospace" text-anchor="middle">Separator (between items)</text>
<rect x="80" y="1675" width="279" height="12" fill="#e8f5e9" stroke="#388e3c" stroke-width="1" rx="3" />
<text x="84" y="1684" font-size="9" fill="#1b5e20" font-weight="normal"><tspan>&lt;</tspan><tspan font-weight="bold">hr</tspan><tspan> role=&quot;listitem&quot; part=&quot;separator [{parts}]&quot;</tspan><tspan> /&gt;</tspan></text>
<rect x="22" y="1713" width="60.6" height="16" fill="#546e7a" rx="3" />
<text x="52.3" y="1724.15" font-size="9" fill="#ffffff" font-family="monospace" text-anchor="middle">Separator</text>
<rect x="34" y="1730" width="334" height="12" fill="#e8f5e9" stroke="#388e3c" stroke-width="1" rx="3" />
<text x="38" y="1739" font-size="9" fill="#1b5e20" font-weight="normal"><tspan>&lt;</tspan><tspan font-weight="bold">hr</tspan><tspan> part=&quot;[{item.id}] separator vertical [{item.parts}]&quot;</tspan><tspan> /&gt;</tspan></text>
<rect x="22" y="1748" width="60.6" height="16" fill="#546e7a" rx="3" />
<text x="52.3" y="1759.15" font-size="9" fill="#ffffff" font-family="monospace" text-anchor="middle">Slot item</text>
<rect x="34" y="1765" width="158.125" height="15" fill="#fff8e1" stroke="#f57f17" stroke-width="1.5" stroke-dasharray="4 2" rx="4" />
<text x="40" y="1776" font-size="9" fill="#e65100" font-weight="bold">&lt;slot name=&quot;{item.id}&quot; /&gt;</text>
<rect x="534" y="10" width="231" height="206" fill="none" stroke="#bdbdbd" stroke-width="1" rx="4" />
<text x="544" y="24" font-size="10" fill="#424242" font-weight="bold">Legend</text>
<line x1="544" y1="38" x2="568" y2="38" stroke="#9e9e9e" stroke-width="1.5" stroke-dasharray="4 2" />
<text x="590" y="42" font-size="8" fill="#666">#shadow-root</text>
<rect x="544" y="48" width="12" height="12" fill="#7b1fa2" rx="2" />
<path d="M5 0.5 L9.5 5 L5 9.5 L0.5 5 Z" fill="none" stroke="#fff" stroke-width="1.2" stroke-linecap="round" stroke-linejoin="round" transform="translate(545,49) scale(1)" />
<text x="590" y="58" font-size="8" fill="#666">condition (when / else)</text>
<rect x="544" y="64" width="12" height="12" fill="#00695c" rx="2" />
<path d="M8 14.667a5.806 5.806 0 0 1-2.342-.475 6.1 6.1 0 0 1-1.9-1.284 6.097 6.097 0 0 1-1.283-1.9A5.804 5.804 0 0 1 2 8.667a5.8 5.8 0 0 1 .475-2.342 6.099 6.099 0 0 1 1.283-1.9 6.099 6.099 0 0 1 1.9-1.283A5.805 5.805 0 0 1 8 2.667h.1L7.533 2.1a.622.622 0 0 1-.183-.458.68.68 0 0 1 .183-.475.68.68 0 0 1 .475-.209.62.62 0 0 1 .475.192L10.2 2.867a.632.632 0 0 1 .183.466.632.632 0 0 1-.183.467L8.483 5.517a.62.62 0 0 1-.475.191.68.68 0 0 1-.475-.208.68.68 0 0 1-.183-.475c0-.183.061-.336.183-.458L8.1 4H8c-1.3 0-2.403.453-3.308 1.358-.906.906-1.359 2.009-1.359 3.309 0 1.3.453 2.402 1.359 3.308.905.906 2.008 1.358 3.308 1.358 1.178 0 2.206-.383 3.083-1.15.878-.766 1.395-1.733 1.55-2.9a.68.68 0 0 1 .234-.441.687.687 0 0 1 .466-.175c.178 0 .334.055.467.166a.44.44 0 0 1 .167.417c-.156 1.544-.8 2.833-1.934 3.867C10.9 14.15 9.556 14.667 8 14.667Z" fill="#fff" transform="translate(545,65) scale(0.625)" />
<text x="590" y="74" font-size="8" fill="#666">iteration (for each)</text>
<rect x="544" y="80" width="12" height="12" fill="#546e7a" rx="2" />
<text x="590" y="90" font-size="8" fill="#666">descriptive comment</text>
<rect x="544" y="96" width="20" height="12" fill="#fff8e1" stroke="#f57f17" stroke-width="1" stroke-dasharray="3 1.5" rx="2" />
<text x="590" y="106" font-size="8" fill="#666">slot</text>
<rect x="544" y="112" width="12" height="12" fill="#0277bd" rx="2" />
<path d="M10.817 8.664H3.642a.613.613 0 0 1-.457-.19.647.647 0 0 1-.185-.47c0-.187.062-.343.185-.47a.613.613 0 0 1 .457-.19h7.175l-3.146-3.23a.613.613 0 0 1-.185-.462.668.668 0 0 1 .65-.651.58.58 0 0 1 .45.189l4.237 4.353c.065.066.11.137.137.214a.75.75 0 0 1 .04.247.75.75 0 0 1-.04.248.581.581 0 0 1-.137.214l-4.237 4.353a.59.59 0 0 1-.442.181.645.645 0 0 1-.457-.181.65.65 0 0 1-.193-.47.65.65 0 0 1 .193-.47l3.13-3.215Z" fill="#fff" transform="translate(545,113) scale(0.625)" />
<text x="590" y="122" font-size="8" fill="#666">projected content (light DOM)</text>
<rect x="544" y="128" width="28" height="12" fill="#fafafa" stroke="#bdbdbd" stroke-width="1" rx="3" />
<text x="546" y="137" font-size="7" fill="#424242" font-weight="bold">&lt;tag&gt;</text>
<text x="590" y="138" font-size="8" fill="#666">tag pill (id, role, aria-*, part)</text>
<text x="544" y="154" font-size="9" fill="#424242">part</text>
<text x="590" y="154" font-size="8" fill="#666">part=&quot;name&quot;  (static)</text>
<text x="544" y="170" font-size="9" fill="#424242">[part]</text>
<text x="590" y="170" font-size="8" fill="#666">[part]  (conditional)</text>
<text x="544" y="186" font-size="9" fill="#424242">{part}</text>
<text x="590" y="186" font-size="8" fill="#666">{part}  (dynamic)</text>
<text x="544" y="202" font-size="9" fill="#424242">[{part}]</text>
<text x="590" y="202" font-size="8" fill="#666">[{part}]  (conditional dynamic)</text>

</svg>
