<?xml version="1.0" encoding="UTF-8"?>
<svg xmlns="http://www.w3.org/2000/svg"
     viewBox="0 0 647.525 2390"
     width="647.525" height="2390"
     font-family="monospace, Consolas">
  <style>
    text { dominant-baseline: auto; }
  </style>
  <rect x="10" y="10" width="390.525" height="2370" fill="#ffffff" stroke="#424242" stroke-width="1" rx="4" />
<rect x="20" y="4" width="141" height="12" fill="#ffffff" stroke="#424242" stroke-width="1" rx="3" />
<text x="24" y="13" font-size="9" fill="#212121" font-weight="bold">&lt;ch-action-group-render&gt;</text>
<rect x="12" y="30" width="386.525" height="2345" fill="none" stroke="#9e9e9e" stroke-width="1.5" stroke-dasharray="6 3" rx="3" />
<rect x="16" y="24" width="66" height="12" fill="#ffffff" rx="2" />
<text x="20" y="32" font-size="8" fill="#9e9e9e" font-family="monospace">#shadow-root</text>
<line x1="30" y1="50" x2="30" y2="1125" stroke="#7b1fa2" stroke-width="2" stroke-opacity="0.4" stroke-linecap="round" />
<line x1="30" y1="1170" x2="30" y2="2245" stroke="#546e7a" stroke-width="2" stroke-opacity="0.4" stroke-linecap="round" />
<line x1="30" y1="2267" x2="30" y2="2316" stroke="#546e7a" stroke-width="2" stroke-opacity="0.4" stroke-linecap="round" />
<line x1="30" y1="2338" x2="30" y2="2370" stroke="#546e7a" stroke-width="2" stroke-opacity="0.4" stroke-linecap="round" />
<rect x="22" y="34" width="274.4" height="16" fill="#7b1fa2" rx="3" />
<path d="M5 0.5 L9.5 5 L5 9.5 L0.5 5 Z" fill="none" stroke="#ffffff" stroke-width="1.2" stroke-linecap="round" stroke-linejoin="round" transform="translate(28,37) scale(1)" />
<text x="166.2" y="45.15" font-size="9" fill="#ffffff" font-family="monospace" text-anchor="middle">when responsive collapse &amp;&amp; collapsedItems &gt; 0</text>
<rect x="34" y="57" width="354.525" height="1068" fill="#fafafa" stroke="#bdbdbd" stroke-width="1" rx="4" />
<rect x="44" y="51" width="136" height="12" fill="#fafafa" stroke="#bdbdbd" stroke-width="1" rx="3" />
<text x="48" y="60" font-size="9" fill="#424242" font-weight="bold">&lt;ch-action-menu-render&gt;</text>
<rect x="36" y="77" width="350.525" height="970" fill="none" stroke="#9e9e9e" stroke-width="1.5" stroke-dasharray="6 3" rx="3" />
<rect x="40" y="71" width="66" height="12" fill="#ffffff" rx="2" />
<text x="44" y="79" font-size="8" fill="#9e9e9e" font-family="monospace">#shadow-root</text>
<rect x="44" y="1050" width="182.6" height="16" fill="#0277bd" rx="3" />
<path d="M10.817 8.664H3.642a.613.613 0 0 1-.457-.19.647.647 0 0 1-.185-.47c0-.187.062-.343.185-.47a.613.613 0 0 1 .457-.19h7.175l-3.146-3.23a.613.613 0 0 1-.185-.462.668.668 0 0 1 .65-.651.58.58 0 0 1 .45.189l4.237 4.353c.065.066.11.137.137.214a.75.75 0 0 1 .04.247.75.75 0 0 1-.04.248.581.581 0 0 1-.137.214l-4.237 4.353a.59.59 0 0 1-.442.181.645.645 0 0 1-.457-.181.65.65 0 0 1-.193-.47.65.65 0 0 1 .193-.47l3.13-3.215Z" fill="#ffffff" transform="translate(50,1053) scale(0.625)" />
<text x="142.3" y="1061.15" font-size="9" fill="#ffffff" font-family="monospace" text-anchor="middle">projected content (light DOM)</text>
<line x1="54" y1="198" x2="54" y2="1044" stroke="#7b1fa2" stroke-width="2" stroke-opacity="0.4" stroke-linecap="round" />
<line x1="52" y1="1083" x2="52" y2="1115" stroke="#00695c" stroke-width="2" stroke-opacity="0.4" stroke-linecap="round" />
<rect x="46" y="87" width="191.275" height="83" fill="#e3f2fd" stroke="#1976d2" stroke-width="1" rx="4" />
<rect x="56" y="81" width="53" height="12" fill="#e3f2fd" stroke="#1976d2" stroke-width="1" rx="3" />
<text x="60" y="90" font-size="9" fill="#0d47a1" font-weight="bold">&lt;button&gt;</text>
<text x="56" y="106" font-size="9" fill="#666">expandable-button</text>
<text x="56" y="117" font-size="9" fill="#666" font-style="italic">[expanded|collapsed] [disabled]</text>
<rect x="56" y="129" width="53.15" height="31" fill="#fff8e1" stroke="#f57f17" stroke-width="1.5" stroke-dasharray="4 2" rx="4" />
<text x="62" y="148" font-size="9" fill="#e65100" font-weight="bold">&lt;slot&gt;</text>
<rect x="46" y="182" width="96.2" height="16" fill="#7b1fa2" rx="3" />
<path d="M5 0.5 L9.5 5 L5 9.5 L0.5 5 Z" fill="none" stroke="#ffffff" stroke-width="1.2" stroke-linecap="round" stroke-linejoin="round" transform="translate(52,185) scale(1)" />
<text x="101.1" y="193.15" font-size="9" fill="#ffffff" font-family="monospace" text-anchor="middle">when expanded</text>
<rect x="58" y="205" width="318.525" height="839" fill="#f3f0ff" stroke="#bdbdbd" stroke-width="1" rx="4" />
<rect x="68" y="199" width="75" height="12" fill="#f3f0ff" stroke="#bdbdbd" stroke-width="1" rx="3" />
<text x="72" y="208" font-size="9" fill="#424242" font-weight="bold">&lt;ch-popover&gt;</text>
<rect x="60" y="236" width="314.525" height="48" fill="none" stroke="#9e9e9e" stroke-width="1.5" stroke-dasharray="6 3" rx="3" />
<rect x="64" y="230" width="66" height="12" fill="#ffffff" rx="2" />
<text x="68" y="238" font-size="8" fill="#9e9e9e" font-family="monospace">#shadow-root</text>
<rect x="68" y="287" width="182.6" height="16" fill="#0277bd" rx="3" />
<path d="M10.817 8.664H3.642a.613.613 0 0 1-.457-.19.647.647 0 0 1-.185-.47c0-.187.062-.343.185-.47a.613.613 0 0 1 .457-.19h7.175l-3.146-3.23a.613.613 0 0 1-.185-.462.668.668 0 0 1 .65-.651.58.58 0 0 1 .45.189l4.237 4.353c.065.066.11.137.137.214a.75.75 0 0 1 .04.247.75.75 0 0 1-.04.248.581.581 0 0 1-.137.214l-4.237 4.353a.59.59 0 0 1-.442.181.645.645 0 0 1-.457-.181.65.65 0 0 1-.193-.47.65.65 0 0 1 .193-.47l3.13-3.215Z" fill="#ffffff" transform="translate(74,290) scale(0.625)" />
<text x="166.3" y="298.15" font-size="9" fill="#ffffff" font-family="monospace" text-anchor="middle">projected content (light DOM)</text>
<text x="68" y="224" font-size="9" fill="#666">window</text>
<line x1="76" y1="320" x2="76" y2="1034" stroke="#00695c" stroke-width="2" stroke-opacity="0.4" stroke-linecap="round" />
<rect x="70" y="250" width="53.15" height="31" fill="#fff8e1" stroke="#f57f17" stroke-width="1.5" stroke-dasharray="4 2" rx="4" />
<text x="76" y="269" font-size="9" fill="#e65100" font-weight="bold">&lt;slot&gt;</text>
<rect x="68" y="304" width="242" height="16" fill="#00695c" rx="3" />
<path d="M8 14.667a5.806 5.806 0 0 1-2.342-.475 6.1 6.1 0 0 1-1.9-1.284 6.097 6.097 0 0 1-1.283-1.9A5.804 5.804 0 0 1 2 8.667a5.8 5.8 0 0 1 .475-2.342 6.099 6.099 0 0 1 1.283-1.9 6.099 6.099 0 0 1 1.9-1.283A5.805 5.805 0 0 1 8 2.667h.1L7.533 2.1a.622.622 0 0 1-.183-.458.68.68 0 0 1 .183-.475.68.68 0 0 1 .475-.209.62.62 0 0 1 .475.192L10.2 2.867a.632.632 0 0 1 .183.466.632.632 0 0 1-.183.467L8.483 5.517a.62.62 0 0 1-.475.191.68.68 0 0 1-.475-.208.68.68 0 0 1-.183-.475c0-.183.061-.336.183-.458L8.1 4H8c-1.3 0-2.403.453-3.308 1.358-.906.906-1.359 2.009-1.359 3.309 0 1.3.453 2.402 1.359 3.308.905.906 2.008 1.358 3.308 1.358 1.178 0 2.206-.383 3.083-1.15.878-.766 1.395-1.733 1.55-2.9a.68.68 0 0 1 .234-.441.687.687 0 0 1 .466-.175c.178 0 .334.055.467.166a.44.44 0 0 1 .167.417c-.156 1.544-.8 2.833-1.934 3.867C10.9 14.15 9.556 14.667 8 14.667Z" fill="#ffffff" transform="translate(74,307) scale(0.625)" />
<text x="196" y="315.15" font-size="9" fill="#ffffff" font-family="monospace" text-anchor="middle">for each collapsedItem in collapsedItems</text>
<rect x="80" y="327" width="282.525" height="707" fill="#f0f7f4" stroke="#bdbdbd" stroke-width="1" rx="4" />
<rect x="90" y="321" width="97" height="12" fill="#f0f7f4" stroke="#bdbdbd" stroke-width="1" rx="3" />
<text x="94" y="330" font-size="9" fill="#424242" font-weight="bold">&lt;ch-action-menu&gt;</text>
<rect x="82" y="347" width="278.525" height="682" fill="none" stroke="#9e9e9e" stroke-width="1.5" stroke-dasharray="6 3" rx="3" />
<rect x="86" y="341" width="66" height="12" fill="#ffffff" rx="2" />
<text x="90" y="349" font-size="8" fill="#9e9e9e" font-family="monospace">#shadow-root</text>
<line x1="100" y1="367" x2="100" y2="604" stroke="#546e7a" stroke-width="2" stroke-opacity="0.4" stroke-linecap="round" />
<line x1="100" y1="621" x2="100" y2="853" stroke="#ad1457" stroke-width="2" stroke-opacity="0.4" stroke-linecap="round" />
<line x1="100" y1="881" x2="100" y2="1024" stroke="#7b1fa2" stroke-width="2" stroke-opacity="0.4" stroke-linecap="round" />
<rect x="92" y="351" width="125.39999999999999" height="16" fill="#546e7a" rx="3" />
<text x="154.7" y="362.15" font-size="9" fill="#ffffff" font-family="monospace" text-anchor="middle">Button item (no link)</text>
<rect x="104" y="374" width="246.525" height="225" fill="#e3f2fd" stroke="#1976d2" stroke-width="1" rx="4" />
<rect x="114" y="368" width="53" height="12" fill="#e3f2fd" stroke="#1976d2" stroke-width="1" rx="3" />
<text x="118" y="377" font-size="9" fill="#0d47a1" font-weight="bold">&lt;button&gt;</text>
<text x="114" y="393" font-size="9" fill="#666">button</text>
<text x="114" y="404" font-size="9" fill="#666" font-style="italic">[disabled] [expanded|collapsed] [{parts}]</text>
<line x1="122" y1="516" x2="122" y2="589" stroke="#7b1fa2" stroke-width="2" stroke-opacity="0.4" stroke-linecap="round" />
<rect x="114" y="422" width="111" height="66" fill="#fff8f0" stroke="#bdbdbd" stroke-width="1" rx="4" />
<rect x="124" y="416" width="42" height="12" fill="#fff8f0" stroke="#bdbdbd" stroke-width="1" rx="3" />
<text x="128" y="425" font-size="9" fill="#424242" font-weight="bold">&lt;span&gt;</text>
<text x="124" y="441" font-size="9" fill="#666">content</text>
<text x="124" y="452" font-size="9" fill="#666" font-style="italic">[{parts}]</text>
<text x="124" y="478" font-size="9" fill="#888" font-style="italic">&quot;Caption text&quot;</text>
<rect x="114" y="500" width="96.2" height="16" fill="#7b1fa2" rx="3" />
<path d="M5 0.5 L9.5 5 L5 9.5 L0.5 5 Z" fill="none" stroke="#ffffff" stroke-width="1.2" stroke-linecap="round" stroke-linejoin="round" transform="translate(120,503) scale(1)" />
<text x="169.1" y="511.15" font-size="9" fill="#ffffff" font-family="monospace" text-anchor="middle">when shortcut</text>
<rect x="126" y="523" width="72" height="66" fill="#fff8f0" stroke="#bdbdbd" stroke-width="1" rx="4" />
<rect x="136" y="517" width="42" height="12" fill="#fff8f0" stroke="#bdbdbd" stroke-width="1" rx="3" />
<text x="140" y="526" font-size="9" fill="#424242" font-weight="bold">&lt;span&gt;</text>
<text x="136" y="542" font-size="9" fill="#666">shortcut</text>
<text x="136" y="553" font-size="9" fill="#666" font-style="italic">[{parts}]</text>
<text x="136" y="579" font-size="9" fill="#888" font-style="italic">&quot;Ctrl+S&quot;</text>
<rect x="92" y="605" width="112.39999999999999" height="16" fill="#ad1457" rx="3" />
<path d="M5 0.5 L9.5 5 L5 9.5 L0.5 5 Z" fill="none" stroke="#ffffff" stroke-width="1.2" stroke-linecap="round" stroke-linejoin="round" transform="translate(98,608) scale(1)" />
<text x="155.2" y="616.15" font-size="9" fill="#ffffff" font-family="monospace" text-anchor="middle">else (link item)</text>
<rect x="104" y="628" width="246.525" height="225" fill="#e3f2fd" stroke="#1976d2" stroke-width="1" rx="4" />
<rect x="114" y="622" width="25" height="12" fill="#e3f2fd" stroke="#1976d2" stroke-width="1" rx="3" />
<text x="118" y="631" font-size="9" fill="#0d47a1" font-weight="bold">&lt;a&gt;</text>
<text x="114" y="647" font-size="9" fill="#666">link</text>
<text x="114" y="658" font-size="9" fill="#666" font-style="italic">[disabled] [expanded|collapsed] [{parts}]</text>
<line x1="122" y1="770" x2="122" y2="843" stroke="#7b1fa2" stroke-width="2" stroke-opacity="0.4" stroke-linecap="round" />
<rect x="114" y="676" width="111" height="66" fill="#fff8f0" stroke="#bdbdbd" stroke-width="1" rx="4" />
<rect x="124" y="670" width="42" height="12" fill="#fff8f0" stroke="#bdbdbd" stroke-width="1" rx="3" />
<text x="128" y="679" font-size="9" fill="#424242" font-weight="bold">&lt;span&gt;</text>
<text x="124" y="695" font-size="9" fill="#666">content</text>
<text x="124" y="706" font-size="9" fill="#666" font-style="italic">[{parts}]</text>
<text x="124" y="732" font-size="9" fill="#888" font-style="italic">&quot;Caption text&quot;</text>
<rect x="114" y="754" width="96.2" height="16" fill="#7b1fa2" rx="3" />
<path d="M5 0.5 L9.5 5 L5 9.5 L0.5 5 Z" fill="none" stroke="#ffffff" stroke-width="1.2" stroke-linecap="round" stroke-linejoin="round" transform="translate(120,757) scale(1)" />
<text x="169.1" y="765.15" font-size="9" fill="#ffffff" font-family="monospace" text-anchor="middle">when shortcut</text>
<rect x="126" y="777" width="72" height="66" fill="#fff8f0" stroke="#bdbdbd" stroke-width="1" rx="4" />
<rect x="136" y="771" width="42" height="12" fill="#fff8f0" stroke="#bdbdbd" stroke-width="1" rx="3" />
<text x="140" y="780" font-size="9" fill="#424242" font-weight="bold">&lt;span&gt;</text>
<text x="136" y="796" font-size="9" fill="#666">shortcut</text>
<text x="136" y="807" font-size="9" fill="#666" font-style="italic">[{parts}]</text>
<text x="136" y="833" font-size="9" fill="#888" font-style="italic">&quot;Ctrl+S&quot;</text>
<rect x="92" y="865" width="231.2" height="16" fill="#7b1fa2" rx="3" />
<path d="M5 0.5 L9.5 5 L5 9.5 L0.5 5 Z" fill="none" stroke="#ffffff" stroke-width="1.2" stroke-linecap="round" stroke-linejoin="round" transform="translate(98,868) scale(1)" />
<text x="214.6" y="876.15" font-size="9" fill="#ffffff" font-family="monospace" text-anchor="middle">when expandable &amp;&amp; expanded (sub-menu)</text>
<rect x="104" y="888" width="214.2" height="136" fill="#fff8f0" stroke="#bdbdbd" stroke-width="1" rx="4" />
<rect x="114" y="882" width="75" height="12" fill="#fff8f0" stroke="#bdbdbd" stroke-width="1" rx="3" />
<text x="118" y="891" font-size="9" fill="#424242" font-weight="bold">&lt;ch-popover&gt;</text>
<rect x="106" y="930" width="210.2" height="48" fill="none" stroke="#9e9e9e" stroke-width="1.5" stroke-dasharray="6 3" rx="3" />
<rect x="110" y="924" width="66" height="12" fill="#ffffff" rx="2" />
<text x="114" y="932" font-size="8" fill="#9e9e9e" font-family="monospace">#shadow-root</text>
<rect x="114" y="981" width="182.6" height="16" fill="#0277bd" rx="3" />
<path d="M10.817 8.664H3.642a.613.613 0 0 1-.457-.19.647.647 0 0 1-.185-.47c0-.187.062-.343.185-.47a.613.613 0 0 1 .457-.19h7.175l-3.146-3.23a.613.613 0 0 1-.185-.462.668.668 0 0 1 .65-.651.58.58 0 0 1 .45.189l4.237 4.353c.065.066.11.137.137.214a.75.75 0 0 1 .04.247.75.75 0 0 1-.04.248.581.581 0 0 1-.137.214l-4.237 4.353a.59.59 0 0 1-.442.181.645.645 0 0 1-.457-.181.65.65 0 0 1-.193-.47.65.65 0 0 1 .193-.47l3.13-3.215Z" fill="#ffffff" transform="translate(120,984) scale(0.625)" />
<text x="212.3" y="992.15" font-size="9" fill="#ffffff" font-family="monospace" text-anchor="middle">projected content (light DOM)</text>
<text x="114" y="907" font-size="9" fill="#666">window</text>
<text x="114" y="918" font-size="9" fill="#666" font-style="italic">[{parts}]</text>
<rect x="116" y="944" width="53.15" height="31" fill="#fff8e1" stroke="#f57f17" stroke-width="1.5" stroke-dasharray="4 2" rx="4" />
<text x="122" y="963" font-size="9" fill="#e65100" font-weight="bold">&lt;slot&gt;</text>
<rect x="114" y="998" width="190.2" height="16" fill="#546e7a" rx="3" />
<text x="209.1" y="1009.15" font-size="9" fill="#ffffff" font-family="monospace" text-anchor="middle">Nested ch-action-menu (recursive)</text>
<rect x="44" y="1067" width="215" height="16" fill="#00695c" rx="3" />
<path d="M8 14.667a5.806 5.806 0 0 1-2.342-.475 6.1 6.1 0 0 1-1.9-1.284 6.097 6.097 0 0 1-1.283-1.9A5.804 5.804 0 0 1 2 8.667a5.8 5.8 0 0 1 .475-2.342 6.099 6.099 0 0 1 1.283-1.9 6.099 6.099 0 0 1 1.9-1.283A5.805 5.805 0 0 1 8 2.667h.1L7.533 2.1a.622.622 0 0 1-.183-.458.68.68 0 0 1 .183-.475.68.68 0 0 1 .475-.209.62.62 0 0 1 .475.192L10.2 2.867a.632.632 0 0 1 .183.466.632.632 0 0 1-.183.467L8.483 5.517a.62.62 0 0 1-.475.191.68.68 0 0 1-.475-.208.68.68 0 0 1-.183-.475c0-.183.061-.336.183-.458L8.1 4H8c-1.3 0-2.403.453-3.308 1.358-.906.906-1.359 2.009-1.359 3.309 0 1.3.453 2.402 1.359 3.308.905.906 2.008 1.358 3.308 1.358 1.178 0 2.206-.383 3.083-1.15.878-.766 1.395-1.733 1.55-2.9a.68.68 0 0 1 .234-.441.687.687 0 0 1 .466-.175c.178 0 .334.055.467.166a.44.44 0 0 1 .167.417c-.156 1.544-.8 2.833-1.934 3.867C10.9 14.15 9.556 14.667 8 14.667Z" fill="#ffffff" transform="translate(50,1070) scale(0.625)" />
<text x="158.5" y="1078.15" font-size="9" fill="#ffffff" font-family="monospace" text-anchor="middle">for each slotItem in collapsedItems</text>
<rect x="56" y="1084" width="147.075" height="31" fill="#fff8e1" stroke="#f57f17" stroke-width="1.5" stroke-dasharray="4 2" rx="4" />
<text x="62" y="1103" font-size="9" fill="#e65100" font-weight="bold">&lt;slot name=&quot;{item.id}&quot;&gt;</text>
<rect x="22" y="1137" width="144.8" height="16" fill="#00695c" rx="3" />
<path d="M8 14.667a5.806 5.806 0 0 1-2.342-.475 6.1 6.1 0 0 1-1.9-1.284 6.097 6.097 0 0 1-1.283-1.9A5.804 5.804 0 0 1 2 8.667a5.8 5.8 0 0 1 .475-2.342 6.099 6.099 0 0 1 1.283-1.9 6.099 6.099 0 0 1 1.9-1.283A5.805 5.805 0 0 1 8 2.667h.1L7.533 2.1a.622.622 0 0 1-.183-.458.68.68 0 0 1 .183-.475.68.68 0 0 1 .475-.209.62.62 0 0 1 .475.192L10.2 2.867a.632.632 0 0 1 .183.466.632.632 0 0 1-.183.467L8.483 5.517a.62.62 0 0 1-.475.191.68.68 0 0 1-.475-.208.68.68 0 0 1-.183-.475c0-.183.061-.336.183-.458L8.1 4H8c-1.3 0-2.403.453-3.308 1.358-.906.906-1.359 2.009-1.359 3.309 0 1.3.453 2.402 1.359 3.308.905.906 2.008 1.358 3.308 1.358 1.178 0 2.206-.383 3.083-1.15.878-.766 1.395-1.733 1.55-2.9a.68.68 0 0 1 .234-.441.687.687 0 0 1 .466-.175c.178 0 .334.055.467.166a.44.44 0 0 1 .167.417c-.156 1.544-.8 2.833-1.934 3.867C10.9 14.15 9.556 14.667 8 14.667Z" fill="#ffffff" transform="translate(28,1140) scale(0.625)" />
<text x="101.4" y="1148.15" font-size="9" fill="#ffffff" font-family="monospace" text-anchor="middle">for each item in model</text>
<rect x="22" y="1154" width="93" height="16" fill="#546e7a" rx="3" />
<text x="68.5" y="1165.15" font-size="9" fill="#ffffff" font-family="monospace" text-anchor="middle">Actionable item</text>
<rect x="34" y="1177" width="354.525" height="1068" fill="#fafafa" stroke="#bdbdbd" stroke-width="1" rx="4" />
<rect x="44" y="1171" width="136" height="12" fill="#fafafa" stroke="#bdbdbd" stroke-width="1" rx="3" />
<text x="48" y="1180" font-size="9" fill="#424242" font-weight="bold">&lt;ch-action-menu-render&gt;</text>
<rect x="36" y="1197" width="350.525" height="1043" fill="none" stroke="#9e9e9e" stroke-width="1.5" stroke-dasharray="6 3" rx="3" />
<rect x="40" y="1191" width="66" height="12" fill="#ffffff" rx="2" />
<text x="44" y="1199" font-size="8" fill="#9e9e9e" font-family="monospace">#shadow-root</text>
<line x1="54" y1="1318" x2="54" y2="2235" stroke="#7b1fa2" stroke-width="2" stroke-opacity="0.4" stroke-linecap="round" />
<rect x="46" y="1207" width="191.275" height="83" fill="#e3f2fd" stroke="#1976d2" stroke-width="1" rx="4" />
<rect x="56" y="1201" width="53" height="12" fill="#e3f2fd" stroke="#1976d2" stroke-width="1" rx="3" />
<text x="60" y="1210" font-size="9" fill="#0d47a1" font-weight="bold">&lt;button&gt;</text>
<text x="56" y="1226" font-size="9" fill="#666">expandable-button</text>
<text x="56" y="1237" font-size="9" fill="#666" font-style="italic">[expanded|collapsed] [disabled]</text>
<rect x="56" y="1249" width="53.15" height="31" fill="#fff8e1" stroke="#f57f17" stroke-width="1.5" stroke-dasharray="4 2" rx="4" />
<text x="62" y="1268" font-size="9" fill="#e65100" font-weight="bold">&lt;slot&gt;</text>
<rect x="46" y="1302" width="96.2" height="16" fill="#7b1fa2" rx="3" />
<path d="M5 0.5 L9.5 5 L5 9.5 L0.5 5 Z" fill="none" stroke="#ffffff" stroke-width="1.2" stroke-linecap="round" stroke-linejoin="round" transform="translate(52,1305) scale(1)" />
<text x="101.1" y="1313.15" font-size="9" fill="#ffffff" font-family="monospace" text-anchor="middle">when expanded</text>
<rect x="58" y="1325" width="318.525" height="910" fill="#f3f0ff" stroke="#bdbdbd" stroke-width="1" rx="4" />
<rect x="68" y="1319" width="75" height="12" fill="#f3f0ff" stroke="#bdbdbd" stroke-width="1" rx="3" />
<text x="72" y="1328" font-size="9" fill="#424242" font-weight="bold">&lt;ch-popover&gt;</text>
<rect x="60" y="1356" width="314.525" height="48" fill="none" stroke="#9e9e9e" stroke-width="1.5" stroke-dasharray="6 3" rx="3" />
<rect x="64" y="1350" width="66" height="12" fill="#ffffff" rx="2" />
<text x="68" y="1358" font-size="8" fill="#9e9e9e" font-family="monospace">#shadow-root</text>
<rect x="68" y="1407" width="182.6" height="16" fill="#0277bd" rx="3" />
<path d="M10.817 8.664H3.642a.613.613 0 0 1-.457-.19.647.647 0 0 1-.185-.47c0-.187.062-.343.185-.47a.613.613 0 0 1 .457-.19h7.175l-3.146-3.23a.613.613 0 0 1-.185-.462.668.668 0 0 1 .65-.651.58.58 0 0 1 .45.189l4.237 4.353c.065.066.11.137.137.214a.75.75 0 0 1 .04.247.75.75 0 0 1-.04.248.581.581 0 0 1-.137.214l-4.237 4.353a.59.59 0 0 1-.442.181.645.645 0 0 1-.457-.181.65.65 0 0 1-.193-.47.65.65 0 0 1 .193-.47l3.13-3.215Z" fill="#ffffff" transform="translate(74,1410) scale(0.625)" />
<text x="166.3" y="1418.15" font-size="9" fill="#ffffff" font-family="monospace" text-anchor="middle">projected content (light DOM)</text>
<text x="68" y="1344" font-size="9" fill="#666">window</text>
<line x1="76" y1="1440" x2="76" y2="2154" stroke="#00695c" stroke-width="2" stroke-opacity="0.4" stroke-linecap="round" />
<line x1="76" y1="2176" x2="76" y2="2225" stroke="#546e7a" stroke-width="2" stroke-opacity="0.4" stroke-linecap="round" />
<rect x="70" y="1370" width="53.15" height="31" fill="#fff8e1" stroke="#f57f17" stroke-width="1.5" stroke-dasharray="4 2" rx="4" />
<text x="76" y="1389" font-size="9" fill="#e65100" font-weight="bold">&lt;slot&gt;</text>
<rect x="68" y="1424" width="144.8" height="16" fill="#00695c" rx="3" />
<path d="M8 14.667a5.806 5.806 0 0 1-2.342-.475 6.1 6.1 0 0 1-1.9-1.284 6.097 6.097 0 0 1-1.283-1.9A5.804 5.804 0 0 1 2 8.667a5.8 5.8 0 0 1 .475-2.342 6.099 6.099 0 0 1 1.283-1.9 6.099 6.099 0 0 1 1.9-1.283A5.805 5.805 0 0 1 8 2.667h.1L7.533 2.1a.622.622 0 0 1-.183-.458.68.68 0 0 1 .183-.475.68.68 0 0 1 .475-.209.62.62 0 0 1 .475.192L10.2 2.867a.632.632 0 0 1 .183.466.632.632 0 0 1-.183.467L8.483 5.517a.62.62 0 0 1-.475.191.68.68 0 0 1-.475-.208.68.68 0 0 1-.183-.475c0-.183.061-.336.183-.458L8.1 4H8c-1.3 0-2.403.453-3.308 1.358-.906.906-1.359 2.009-1.359 3.309 0 1.3.453 2.402 1.359 3.308.905.906 2.008 1.358 3.308 1.358 1.178 0 2.206-.383 3.083-1.15.878-.766 1.395-1.733 1.55-2.9a.68.68 0 0 1 .234-.441.687.687 0 0 1 .466-.175c.178 0 .334.055.467.166a.44.44 0 0 1 .167.417c-.156 1.544-.8 2.833-1.934 3.867C10.9 14.15 9.556 14.667 8 14.667Z" fill="#ffffff" transform="translate(74,1427) scale(0.625)" />
<text x="147.4" y="1435.15" font-size="9" fill="#ffffff" font-family="monospace" text-anchor="middle">for each item in model</text>
<rect x="80" y="1447" width="282.525" height="707" fill="#f0f7f4" stroke="#bdbdbd" stroke-width="1" rx="4" />
<rect x="90" y="1441" width="97" height="12" fill="#f0f7f4" stroke="#bdbdbd" stroke-width="1" rx="3" />
<text x="94" y="1450" font-size="9" fill="#424242" font-weight="bold">&lt;ch-action-menu&gt;</text>
<rect x="82" y="1467" width="278.525" height="682" fill="none" stroke="#9e9e9e" stroke-width="1.5" stroke-dasharray="6 3" rx="3" />
<rect x="86" y="1461" width="66" height="12" fill="#ffffff" rx="2" />
<text x="90" y="1469" font-size="8" fill="#9e9e9e" font-family="monospace">#shadow-root</text>
<line x1="100" y1="1487" x2="100" y2="1724" stroke="#546e7a" stroke-width="2" stroke-opacity="0.4" stroke-linecap="round" />
<line x1="100" y1="1741" x2="100" y2="1973" stroke="#ad1457" stroke-width="2" stroke-opacity="0.4" stroke-linecap="round" />
<line x1="100" y1="2001" x2="100" y2="2144" stroke="#7b1fa2" stroke-width="2" stroke-opacity="0.4" stroke-linecap="round" />
<rect x="92" y="1471" width="125.39999999999999" height="16" fill="#546e7a" rx="3" />
<text x="154.7" y="1482.15" font-size="9" fill="#ffffff" font-family="monospace" text-anchor="middle">Button item (no link)</text>
<rect x="104" y="1494" width="246.525" height="225" fill="#e3f2fd" stroke="#1976d2" stroke-width="1" rx="4" />
<rect x="114" y="1488" width="53" height="12" fill="#e3f2fd" stroke="#1976d2" stroke-width="1" rx="3" />
<text x="118" y="1497" font-size="9" fill="#0d47a1" font-weight="bold">&lt;button&gt;</text>
<text x="114" y="1513" font-size="9" fill="#666">button</text>
<text x="114" y="1524" font-size="9" fill="#666" font-style="italic">[disabled] [expanded|collapsed] [{parts}]</text>
<line x1="122" y1="1636" x2="122" y2="1709" stroke="#7b1fa2" stroke-width="2" stroke-opacity="0.4" stroke-linecap="round" />
<rect x="114" y="1542" width="111" height="66" fill="#fff8f0" stroke="#bdbdbd" stroke-width="1" rx="4" />
<rect x="124" y="1536" width="42" height="12" fill="#fff8f0" stroke="#bdbdbd" stroke-width="1" rx="3" />
<text x="128" y="1545" font-size="9" fill="#424242" font-weight="bold">&lt;span&gt;</text>
<text x="124" y="1561" font-size="9" fill="#666">content</text>
<text x="124" y="1572" font-size="9" fill="#666" font-style="italic">[{parts}]</text>
<text x="124" y="1598" font-size="9" fill="#888" font-style="italic">&quot;Caption text&quot;</text>
<rect x="114" y="1620" width="96.2" height="16" fill="#7b1fa2" rx="3" />
<path d="M5 0.5 L9.5 5 L5 9.5 L0.5 5 Z" fill="none" stroke="#ffffff" stroke-width="1.2" stroke-linecap="round" stroke-linejoin="round" transform="translate(120,1623) scale(1)" />
<text x="169.1" y="1631.15" font-size="9" fill="#ffffff" font-family="monospace" text-anchor="middle">when shortcut</text>
<rect x="126" y="1643" width="72" height="66" fill="#fff8f0" stroke="#bdbdbd" stroke-width="1" rx="4" />
<rect x="136" y="1637" width="42" height="12" fill="#fff8f0" stroke="#bdbdbd" stroke-width="1" rx="3" />
<text x="140" y="1646" font-size="9" fill="#424242" font-weight="bold">&lt;span&gt;</text>
<text x="136" y="1662" font-size="9" fill="#666">shortcut</text>
<text x="136" y="1673" font-size="9" fill="#666" font-style="italic">[{parts}]</text>
<text x="136" y="1699" font-size="9" fill="#888" font-style="italic">&quot;Ctrl+S&quot;</text>
<rect x="92" y="1725" width="112.39999999999999" height="16" fill="#ad1457" rx="3" />
<path d="M5 0.5 L9.5 5 L5 9.5 L0.5 5 Z" fill="none" stroke="#ffffff" stroke-width="1.2" stroke-linecap="round" stroke-linejoin="round" transform="translate(98,1728) scale(1)" />
<text x="155.2" y="1736.15" font-size="9" fill="#ffffff" font-family="monospace" text-anchor="middle">else (link item)</text>
<rect x="104" y="1748" width="246.525" height="225" fill="#e3f2fd" stroke="#1976d2" stroke-width="1" rx="4" />
<rect x="114" y="1742" width="25" height="12" fill="#e3f2fd" stroke="#1976d2" stroke-width="1" rx="3" />
<text x="118" y="1751" font-size="9" fill="#0d47a1" font-weight="bold">&lt;a&gt;</text>
<text x="114" y="1767" font-size="9" fill="#666">link</text>
<text x="114" y="1778" font-size="9" fill="#666" font-style="italic">[disabled] [expanded|collapsed] [{parts}]</text>
<line x1="122" y1="1890" x2="122" y2="1963" stroke="#7b1fa2" stroke-width="2" stroke-opacity="0.4" stroke-linecap="round" />
<rect x="114" y="1796" width="111" height="66" fill="#fff8f0" stroke="#bdbdbd" stroke-width="1" rx="4" />
<rect x="124" y="1790" width="42" height="12" fill="#fff8f0" stroke="#bdbdbd" stroke-width="1" rx="3" />
<text x="128" y="1799" font-size="9" fill="#424242" font-weight="bold">&lt;span&gt;</text>
<text x="124" y="1815" font-size="9" fill="#666">content</text>
<text x="124" y="1826" font-size="9" fill="#666" font-style="italic">[{parts}]</text>
<text x="124" y="1852" font-size="9" fill="#888" font-style="italic">&quot;Caption text&quot;</text>
<rect x="114" y="1874" width="96.2" height="16" fill="#7b1fa2" rx="3" />
<path d="M5 0.5 L9.5 5 L5 9.5 L0.5 5 Z" fill="none" stroke="#ffffff" stroke-width="1.2" stroke-linecap="round" stroke-linejoin="round" transform="translate(120,1877) scale(1)" />
<text x="169.1" y="1885.15" font-size="9" fill="#ffffff" font-family="monospace" text-anchor="middle">when shortcut</text>
<rect x="126" y="1897" width="72" height="66" fill="#fff8f0" stroke="#bdbdbd" stroke-width="1" rx="4" />
<rect x="136" y="1891" width="42" height="12" fill="#fff8f0" stroke="#bdbdbd" stroke-width="1" rx="3" />
<text x="140" y="1900" font-size="9" fill="#424242" font-weight="bold">&lt;span&gt;</text>
<text x="136" y="1916" font-size="9" fill="#666">shortcut</text>
<text x="136" y="1927" font-size="9" fill="#666" font-style="italic">[{parts}]</text>
<text x="136" y="1953" font-size="9" fill="#888" font-style="italic">&quot;Ctrl+S&quot;</text>
<rect x="92" y="1985" width="231.2" height="16" fill="#7b1fa2" rx="3" />
<path d="M5 0.5 L9.5 5 L5 9.5 L0.5 5 Z" fill="none" stroke="#ffffff" stroke-width="1.2" stroke-linecap="round" stroke-linejoin="round" transform="translate(98,1988) scale(1)" />
<text x="214.6" y="1996.15" font-size="9" fill="#ffffff" font-family="monospace" text-anchor="middle">when expandable &amp;&amp; expanded (sub-menu)</text>
<rect x="104" y="2008" width="214.2" height="136" fill="#fff8f0" stroke="#bdbdbd" stroke-width="1" rx="4" />
<rect x="114" y="2002" width="75" height="12" fill="#fff8f0" stroke="#bdbdbd" stroke-width="1" rx="3" />
<text x="118" y="2011" font-size="9" fill="#424242" font-weight="bold">&lt;ch-popover&gt;</text>
<rect x="106" y="2050" width="210.2" height="48" fill="none" stroke="#9e9e9e" stroke-width="1.5" stroke-dasharray="6 3" rx="3" />
<rect x="110" y="2044" width="66" height="12" fill="#ffffff" rx="2" />
<text x="114" y="2052" font-size="8" fill="#9e9e9e" font-family="monospace">#shadow-root</text>
<rect x="114" y="2101" width="182.6" height="16" fill="#0277bd" rx="3" />
<path d="M10.817 8.664H3.642a.613.613 0 0 1-.457-.19.647.647 0 0 1-.185-.47c0-.187.062-.343.185-.47a.613.613 0 0 1 .457-.19h7.175l-3.146-3.23a.613.613 0 0 1-.185-.462.668.668 0 0 1 .65-.651.58.58 0 0 1 .45.189l4.237 4.353c.065.066.11.137.137.214a.75.75 0 0 1 .04.247.75.75 0 0 1-.04.248.581.581 0 0 1-.137.214l-4.237 4.353a.59.59 0 0 1-.442.181.645.645 0 0 1-.457-.181.65.65 0 0 1-.193-.47.65.65 0 0 1 .193-.47l3.13-3.215Z" fill="#ffffff" transform="translate(120,2104) scale(0.625)" />
<text x="212.3" y="2112.15" font-size="9" fill="#ffffff" font-family="monospace" text-anchor="middle">projected content (light DOM)</text>
<text x="114" y="2027" font-size="9" fill="#666">window</text>
<text x="114" y="2038" font-size="9" fill="#666" font-style="italic">[{parts}]</text>
<rect x="116" y="2064" width="53.15" height="31" fill="#fff8e1" stroke="#f57f17" stroke-width="1.5" stroke-dasharray="4 2" rx="4" />
<text x="122" y="2083" font-size="9" fill="#e65100" font-weight="bold">&lt;slot&gt;</text>
<rect x="114" y="2118" width="190.2" height="16" fill="#546e7a" rx="3" />
<text x="209.1" y="2129.15" font-size="9" fill="#ffffff" font-family="monospace" text-anchor="middle">Nested ch-action-menu (recursive)</text>
<rect x="68" y="2160" width="147" height="16" fill="#546e7a" rx="3" />
<text x="141.5" y="2171.15" font-size="9" fill="#ffffff" font-family="monospace" text-anchor="middle">Separator (between items)</text>
<rect x="80" y="2183" width="78.5" height="42" fill="#e8f5e9" stroke="#388e3c" stroke-width="1" rx="4" />
<rect x="90" y="2177" width="31" height="12" fill="#e8f5e9" stroke="#388e3c" stroke-width="1" rx="3" />
<text x="94" y="2186" font-size="9" fill="#1b5e20" font-weight="bold">&lt;hr&gt;</text>
<text x="90" y="2202" font-size="9" fill="#666">separator</text>
<text x="90" y="2213" font-size="9" fill="#666" font-style="italic">[{parts}]</text>
<rect x="22" y="2251" width="60.6" height="16" fill="#546e7a" rx="3" />
<text x="52.3" y="2262.15" font-size="9" fill="#ffffff" font-family="monospace" text-anchor="middle">Separator</text>
<rect x="34" y="2274" width="163.65" height="42" fill="#e8f5e9" stroke="#388e3c" stroke-width="1" rx="4" />
<rect x="44" y="2268" width="31" height="12" fill="#e8f5e9" stroke="#388e3c" stroke-width="1" rx="3" />
<text x="48" y="2277" font-size="9" fill="#1b5e20" font-weight="bold">&lt;hr&gt;</text>
<text x="44" y="2293" font-size="9" fill="#666">separator vertical</text>
<text x="44" y="2304" font-size="9" fill="#666" font-style="italic">[{item.id}] [{item.parts}]</text>
<rect x="22" y="2322" width="60.6" height="16" fill="#546e7a" rx="3" />
<text x="52.3" y="2333.15" font-size="9" fill="#ffffff" font-family="monospace" text-anchor="middle">Slot item</text>
<rect x="34" y="2339" width="147.075" height="31" fill="#fff8e1" stroke="#f57f17" stroke-width="1.5" stroke-dasharray="4 2" rx="4" />
<text x="40" y="2358" font-size="9" fill="#e65100" font-weight="bold">&lt;slot name=&quot;{item.id}&quot;&gt;</text>
<rect x="426.525" y="10" width="211" height="190" fill="none" stroke="#bdbdbd" stroke-width="1" rx="4" />
<text x="436.525" y="24" font-size="10" fill="#424242" font-weight="bold">Legend</text>
<line x1="436.525" y1="38" x2="460.525" y2="38" stroke="#9e9e9e" stroke-width="1.5" stroke-dasharray="4 2" />
<text x="482.525" y="42" font-size="8" fill="#666">#shadow-root</text>
<rect x="436.525" y="48" width="12" height="12" fill="#7b1fa2" rx="2" />
<path d="M5 0.5 L9.5 5 L5 9.5 L0.5 5 Z" fill="none" stroke="#fff" stroke-width="1.2" stroke-linecap="round" stroke-linejoin="round" transform="translate(437.525,49) scale(1)" />
<text x="482.525" y="58" font-size="8" fill="#666">condition (when / else)</text>
<rect x="436.525" y="64" width="12" height="12" fill="#00695c" rx="2" />
<path d="M8 14.667a5.806 5.806 0 0 1-2.342-.475 6.1 6.1 0 0 1-1.9-1.284 6.097 6.097 0 0 1-1.283-1.9A5.804 5.804 0 0 1 2 8.667a5.8 5.8 0 0 1 .475-2.342 6.099 6.099 0 0 1 1.283-1.9 6.099 6.099 0 0 1 1.9-1.283A5.805 5.805 0 0 1 8 2.667h.1L7.533 2.1a.622.622 0 0 1-.183-.458.68.68 0 0 1 .183-.475.68.68 0 0 1 .475-.209.62.62 0 0 1 .475.192L10.2 2.867a.632.632 0 0 1 .183.466.632.632 0 0 1-.183.467L8.483 5.517a.62.62 0 0 1-.475.191.68.68 0 0 1-.475-.208.68.68 0 0 1-.183-.475c0-.183.061-.336.183-.458L8.1 4H8c-1.3 0-2.403.453-3.308 1.358-.906.906-1.359 2.009-1.359 3.309 0 1.3.453 2.402 1.359 3.308.905.906 2.008 1.358 3.308 1.358 1.178 0 2.206-.383 3.083-1.15.878-.766 1.395-1.733 1.55-2.9a.68.68 0 0 1 .234-.441.687.687 0 0 1 .466-.175c.178 0 .334.055.467.166a.44.44 0 0 1 .167.417c-.156 1.544-.8 2.833-1.934 3.867C10.9 14.15 9.556 14.667 8 14.667Z" fill="#fff" transform="translate(437.525,65) scale(0.625)" />
<text x="482.525" y="74" font-size="8" fill="#666">iteration (for each)</text>
<rect x="436.525" y="80" width="12" height="12" fill="#546e7a" rx="2" />
<text x="482.525" y="90" font-size="8" fill="#666">descriptive comment</text>
<rect x="436.525" y="96" width="20" height="12" fill="#fff8e1" stroke="#f57f17" stroke-width="1" stroke-dasharray="3 1.5" rx="2" />
<text x="482.525" y="106" font-size="8" fill="#666">slot</text>
<rect x="436.525" y="112" width="12" height="12" fill="#0277bd" rx="2" />
<path d="M10.817 8.664H3.642a.613.613 0 0 1-.457-.19.647.647 0 0 1-.185-.47c0-.187.062-.343.185-.47a.613.613 0 0 1 .457-.19h7.175l-3.146-3.23a.613.613 0 0 1-.185-.462.668.668 0 0 1 .65-.651.58.58 0 0 1 .45.189l4.237 4.353c.065.066.11.137.137.214a.75.75 0 0 1 .04.247.75.75 0 0 1-.04.248.581.581 0 0 1-.137.214l-4.237 4.353a.59.59 0 0 1-.442.181.645.645 0 0 1-.457-.181.65.65 0 0 1-.193-.47.65.65 0 0 1 .193-.47l3.13-3.215Z" fill="#fff" transform="translate(437.525,113) scale(0.625)" />
<text x="482.525" y="122" font-size="8" fill="#666">projected content (light DOM)</text>
<text x="436.525" y="138" font-size="9" fill="#666">part</text>
<text x="482.525" y="138" font-size="8" fill="#666">static part</text>
<text x="436.525" y="154" font-size="9" fill="#666" font-style="italic">[part]</text>
<text x="482.525" y="154" font-size="8" fill="#666">conditional part</text>
<text x="436.525" y="170" font-size="9" fill="#666" font-style="italic">{part}</text>
<text x="482.525" y="170" font-size="8" fill="#666">dynamic part</text>
<text x="436.525" y="186" font-size="9" fill="#666" font-style="italic">[{part}]</text>
<text x="482.525" y="186" font-size="8" fill="#666">conditional dynamic part</text>

</svg>
