<?xml version="1.0" encoding="UTF-8"?>
<svg xmlns="http://www.w3.org/2000/svg"
     viewBox="0 0 804.7 1178"
     width="804.7" height="1178"
     font-family="monospace, Consolas">
  <style>
    text { dominant-baseline: auto; }
  </style>
  <rect x="10" y="10" width="547.7" height="1158" fill="#ffffff" stroke="#424242" stroke-width="1" rx="4" />
<rect x="20" y="4" width="158" height="12" fill="#ffffff" stroke="#424242" stroke-width="1" rx="3" />
<text x="24" y="13" font-size="9" fill="#212121" font-weight="bold">&lt;ch-flexible-layout-render&gt;</text>
<rect x="12" y="30" width="543.7" height="1133" fill="none" stroke="#9e9e9e" stroke-width="1.5" stroke-dasharray="6 3" rx="3" />
<rect x="16" y="24" width="66" height="12" fill="#ffffff" rx="2" />
<text x="20" y="32" font-size="8" fill="#9e9e9e" font-family="monospace">#shadow-root</text>
<line x1="30" y1="50" x2="30" y2="81" stroke="#7b1fa2" stroke-width="2" stroke-opacity="0.4" stroke-linecap="round" />
<rect x="22" y="34" width="80" height="16" fill="#7b1fa2" rx="3" />
<path d="M5 0.5 L9.5 5 L5 9.5 L0.5 5 Z" fill="none" stroke="#ffffff" stroke-width="1.2" stroke-linecap="round" stroke-linejoin="round" transform="translate(28,37) scale(1)" />
<text x="69" y="45.15" font-size="9" fill="#ffffff" font-family="monospace" text-anchor="middle">when theme</text>
<rect x="34" y="57" width="84" height="24" fill="#fafafa" stroke="#bdbdbd" stroke-width="1" rx="4" />
<rect x="44" y="51" width="64" height="12" fill="#fafafa" stroke="#bdbdbd" stroke-width="1" rx="3" />
<text x="48" y="60" font-size="9" fill="#424242" font-weight="bold">&lt;ch-theme&gt;</text>
<rect x="22" y="93" width="511.7" height="1065" fill="#fafafa" stroke="#bdbdbd" stroke-width="1" rx="4" />
<rect x="32" y="87" width="119" height="12" fill="#fafafa" stroke="#bdbdbd" stroke-width="1" rx="3" />
<text x="36" y="96" font-size="9" fill="#424242" font-weight="bold">&lt;ch-flexible-layout&gt;</text>
<rect x="24" y="113" width="507.7" height="941" fill="none" stroke="#9e9e9e" stroke-width="1.5" stroke-dasharray="6 3" rx="3" />
<rect x="28" y="107" width="66" height="12" fill="#ffffff" rx="2" />
<text x="32" y="115" font-size="8" fill="#9e9e9e" font-family="monospace">#shadow-root</text>
<rect x="32" y="1057" width="182.6" height="16" fill="#0277bd" rx="3" />
<path d="M10.817 8.664H3.642a.613.613 0 0 1-.457-.19.647.647 0 0 1-.185-.47c0-.187.062-.343.185-.47a.613.613 0 0 1 .457-.19h7.175l-3.146-3.23a.613.613 0 0 1-.185-.462.668.668 0 0 1 .65-.651.58.58 0 0 1 .45.189l4.237 4.353c.065.066.11.137.137.214a.75.75 0 0 1 .04.247.75.75 0 0 1-.04.248.581.581 0 0 1-.137.214l-4.237 4.353a.59.59 0 0 1-.442.181.645.645 0 0 1-.457-.181.65.65 0 0 1-.193-.47.65.65 0 0 1 .193-.47l3.13-3.215Z" fill="#ffffff" transform="translate(38,1060) scale(0.625)" />
<text x="130.3" y="1068.15" font-size="9" fill="#ffffff" font-family="monospace" text-anchor="middle">projected content (light DOM)</text>
<line x1="40" y1="1090" x2="40" y2="1148" stroke="#00695c" stroke-width="2" stroke-opacity="0.4" stroke-linecap="round" />
<rect x="34" y="123" width="487.7" height="885" fill="#f3f0ff" stroke="#bdbdbd" stroke-width="1" rx="4" />
<rect x="44" y="117" width="119" height="12" fill="#f3f0ff" stroke="#bdbdbd" stroke-width="1" rx="3" />
<text x="48" y="126" font-size="9" fill="#424242" font-weight="bold">&lt;ch-layout-splitter&gt;</text>
<rect x="36" y="143" width="483.7" height="171" fill="none" stroke="#9e9e9e" stroke-width="1.5" stroke-dasharray="6 3" rx="3" />
<rect x="40" y="137" width="66" height="12" fill="#ffffff" rx="2" />
<text x="44" y="145" font-size="8" fill="#9e9e9e" font-family="monospace">#shadow-root</text>
<rect x="44" y="317" width="182.6" height="16" fill="#0277bd" rx="3" />
<path d="M10.817 8.664H3.642a.613.613 0 0 1-.457-.19.647.647 0 0 1-.185-.47c0-.187.062-.343.185-.47a.613.613 0 0 1 .457-.19h7.175l-3.146-3.23a.613.613 0 0 1-.185-.462.668.668 0 0 1 .65-.651.58.58 0 0 1 .45.189l4.237 4.353c.065.066.11.137.137.214a.75.75 0 0 1 .04.247.75.75 0 0 1-.04.248.581.581 0 0 1-.137.214l-4.237 4.353a.59.59 0 0 1-.442.181.645.645 0 0 1-.457-.181.65.65 0 0 1-.193-.47.65.65 0 0 1 .193-.47l3.13-3.215Z" fill="#ffffff" transform="translate(50,320) scale(0.625)" />
<text x="142.3" y="328.15" font-size="9" fill="#ffffff" font-family="monospace" text-anchor="middle">projected content (light DOM)</text>
<line x1="52" y1="350" x2="52" y2="382" stroke="#00695c" stroke-width="2" stroke-opacity="0.4" stroke-linecap="round" />
<line x1="52" y1="410" x2="52" y2="998" stroke="#00695c" stroke-width="2" stroke-opacity="0.4" stroke-linecap="round" />
<rect x="46" y="153" width="199.075" height="158" fill="#f0f7f4" stroke="#bdbdbd" stroke-width="1" rx="4" />
<rect x="56" y="147" width="36" height="12" fill="#f0f7f4" stroke="#bdbdbd" stroke-width="1" rx="3" />
<text x="60" y="156" font-size="9" fill="#424242" font-weight="bold">&lt;div&gt;</text>
<line x1="64" y1="179" x2="64" y2="258" stroke="#00695c" stroke-width="2" stroke-opacity="0.4" stroke-linecap="round" />
<rect x="56" y="163" width="182.6" height="16" fill="#00695c" rx="3" />
<path d="M8 14.667a5.806 5.806 0 0 1-2.342-.475 6.1 6.1 0 0 1-1.9-1.284 6.097 6.097 0 0 1-1.283-1.9A5.804 5.804 0 0 1 2 8.667a5.8 5.8 0 0 1 .475-2.342 6.099 6.099 0 0 1 1.283-1.9 6.099 6.099 0 0 1 1.9-1.283A5.805 5.805 0 0 1 8 2.667h.1L7.533 2.1a.622.622 0 0 1-.183-.458.68.68 0 0 1 .183-.475.68.68 0 0 1 .475-.209.62.62 0 0 1 .475.192L10.2 2.867a.632.632 0 0 1 .183.466.632.632 0 0 1-.183.467L8.483 5.517a.62.62 0 0 1-.475.191.68.68 0 0 1-.475-.208.68.68 0 0 1-.183-.475c0-.183.061-.336.183-.458L8.1 4H8c-1.3 0-2.403.453-3.308 1.358-.906.906-1.359 2.009-1.359 3.309 0 1.3.453 2.402 1.359 3.308.905.906 2.008 1.358 3.308 1.358 1.178 0 2.206-.383 3.083-1.15.878-.766 1.395-1.733 1.55-2.9a.68.68 0 0 1 .234-.441.687.687 0 0 1 .466-.175c.178 0 .334.055.467.166a.44.44 0 0 1 .167.417c-.156 1.544-.8 2.833-1.934 3.867C10.9 14.15 9.556 14.667 8 14.667Z" fill="#ffffff" transform="translate(62,166) scale(0.625)" />
<text x="154.3" y="174.15" font-size="9" fill="#ffffff" font-family="monospace" text-anchor="middle">for each item in layout.items</text>
<rect x="68" y="186" width="167.075" height="72" fill="#fff8f0" stroke="#bdbdbd" stroke-width="1" rx="4" />
<rect x="78" y="180" width="36" height="12" fill="#fff8f0" stroke="#bdbdbd" stroke-width="1" rx="3" />
<text x="82" y="189" font-size="9" fill="#424242" font-weight="bold">&lt;div&gt;</text>
<text x="78" y="205" font-size="9" fill="#666" font-style="italic">{item.id}</text>
<rect x="78" y="217" width="147.075" height="31" fill="#fff8e1" stroke="#f57f17" stroke-width="1.5" stroke-dasharray="4 2" rx="4" />
<text x="84" y="236" font-size="9" fill="#e65100" font-weight="bold">&lt;slot name=&quot;{item.id}&quot;&gt;</text>
<rect x="56" y="270" width="56" height="31" fill="#fff8f0" stroke="#bdbdbd" stroke-width="1" rx="4" />
<rect x="66" y="264" width="36" height="12" fill="#fff8f0" stroke="#bdbdbd" stroke-width="1" rx="3" />
<text x="70" y="273" font-size="9" fill="#424242" font-weight="bold">&lt;div&gt;</text>
<text x="66" y="289" font-size="9" fill="#666">bar</text>
<rect x="44" y="334" width="231.2" height="16" fill="#00695c" rx="3" />
<path d="M8 14.667a5.806 5.806 0 0 1-2.342-.475 6.1 6.1 0 0 1-1.9-1.284 6.097 6.097 0 0 1-1.283-1.9A5.804 5.804 0 0 1 2 8.667a5.8 5.8 0 0 1 .475-2.342 6.099 6.099 0 0 1 1.283-1.9 6.099 6.099 0 0 1 1.9-1.283A5.805 5.805 0 0 1 8 2.667h.1L7.533 2.1a.622.622 0 0 1-.183-.458.68.68 0 0 1 .183-.475.68.68 0 0 1 .475-.209.62.62 0 0 1 .475.192L10.2 2.867a.632.632 0 0 1 .183.466.632.632 0 0 1-.183.467L8.483 5.517a.62.62 0 0 1-.475.191.68.68 0 0 1-.475-.208.68.68 0 0 1-.183-.475c0-.183.061-.336.183-.458L8.1 4H8c-1.3 0-2.403.453-3.308 1.358-.906.906-1.359 2.009-1.359 3.309 0 1.3.453 2.402 1.359 3.308.905.906 2.008 1.358 3.308 1.358 1.178 0 2.206-.383 3.083-1.15.878-.766 1.395-1.733 1.55-2.9a.68.68 0 0 1 .234-.441.687.687 0 0 1 .466-.175c.178 0 .334.055.467.166a.44.44 0 0 1 .167.417c-.156 1.544-.8 2.833-1.934 3.867C10.9 14.15 9.556 14.667 8 14.667Z" fill="#ffffff" transform="translate(50,337) scale(0.625)" />
<text x="166.6" y="345.15" font-size="9" fill="#ffffff" font-family="monospace" text-anchor="middle">for each single-content leaf in layout</text>
<rect x="56" y="351" width="158.125" height="31" fill="#fff8e1" stroke="#f57f17" stroke-width="1.5" stroke-dasharray="4 2" rx="4" />
<text x="62" y="370" font-size="9" fill="#e65100" font-weight="bold">&lt;slot name=&quot;{widget.id}&quot;&gt;</text>
<rect x="44" y="394" width="188" height="16" fill="#00695c" rx="3" />
<path d="M8 14.667a5.806 5.806 0 0 1-2.342-.475 6.1 6.1 0 0 1-1.9-1.284 6.097 6.097 0 0 1-1.283-1.9A5.804 5.804 0 0 1 2 8.667a5.8 5.8 0 0 1 .475-2.342 6.099 6.099 0 0 1 1.283-1.9 6.099 6.099 0 0 1 1.9-1.283A5.805 5.805 0 0 1 8 2.667h.1L7.533 2.1a.622.622 0 0 1-.183-.458.68.68 0 0 1 .183-.475.68.68 0 0 1 .475-.209.62.62 0 0 1 .475.192L10.2 2.867a.632.632 0 0 1 .183.466.632.632 0 0 1-.183.467L8.483 5.517a.62.62 0 0 1-.475.191.68.68 0 0 1-.475-.208.68.68 0 0 1-.183-.475c0-.183.061-.336.183-.458L8.1 4H8c-1.3 0-2.403.453-3.308 1.358-.906.906-1.359 2.009-1.359 3.309 0 1.3.453 2.402 1.359 3.308.905.906 2.008 1.358 3.308 1.358 1.178 0 2.206-.383 3.083-1.15.878-.766 1.395-1.733 1.55-2.9a.68.68 0 0 1 .234-.441.687.687 0 0 1 .466-.175c.178 0 .334.055.467.166a.44.44 0 0 1 .167.417c-.156 1.544-.8 2.833-1.934 3.867C10.9 14.15 9.556 14.667 8 14.667Z" fill="#ffffff" transform="translate(50,397) scale(0.625)" />
<text x="145" y="405.15" font-size="9" fill="#ffffff" font-family="monospace" text-anchor="middle">for each tabbed leaf in layout</text>
<rect x="56" y="417" width="451.7" height="581" fill="#f0f7f4" stroke="#bdbdbd" stroke-width="1" rx="4" />
<rect x="66" y="411" width="185" height="12" fill="#f0f7f4" stroke="#bdbdbd" stroke-width="1" rx="3" />
<text x="70" y="420" font-size="9" fill="#424242" font-weight="bold">&lt;ch-tab-render slot=&quot;{leaf.id}&quot;&gt;</text>
<rect x="58" y="459" width="447.7" height="461" fill="none" stroke="#9e9e9e" stroke-width="1.5" stroke-dasharray="6 3" rx="3" />
<rect x="62" y="453" width="66" height="12" fill="#ffffff" rx="2" />
<text x="66" y="461" font-size="8" fill="#9e9e9e" font-family="monospace">#shadow-root</text>
<rect x="66" y="923" width="182.6" height="16" fill="#0277bd" rx="3" />
<path d="M10.817 8.664H3.642a.613.613 0 0 1-.457-.19.647.647 0 0 1-.185-.47c0-.187.062-.343.185-.47a.613.613 0 0 1 .457-.19h7.175l-3.146-3.23a.613.613 0 0 1-.185-.462.668.668 0 0 1 .65-.651.58.58 0 0 1 .45.189l4.237 4.353c.065.066.11.137.137.214a.75.75 0 0 1 .04.247.75.75 0 0 1-.04.248.581.581 0 0 1-.137.214l-4.237 4.353a.59.59 0 0 1-.442.181.645.645 0 0 1-.457-.181.65.65 0 0 1-.193-.47.65.65 0 0 1 .193-.47l3.13-3.215Z" fill="#ffffff" transform="translate(72,926) scale(0.625)" />
<text x="164.3" y="934.15" font-size="9" fill="#ffffff" font-family="monospace" text-anchor="middle">projected content (light DOM)</text>
<text x="66" y="436" font-size="9" fill="#666">leaf</text>
<text x="66" y="447" font-size="9" fill="#666" font-style="italic">{leaf.id}</text>
<line x1="74" y1="956" x2="74" y2="988" stroke="#00695c" stroke-width="2" stroke-opacity="0.4" stroke-linecap="round" />
<rect x="68" y="479" width="427.7" height="279" fill="#fff8f0" stroke="#bdbdbd" stroke-width="1" rx="4" />
<rect x="78" y="473" width="36" height="12" fill="#fff8f0" stroke="#bdbdbd" stroke-width="1" rx="3" />
<text x="82" y="482" font-size="9" fill="#424242" font-weight="bold">&lt;div&gt;</text>
<text x="78" y="498" font-size="9" fill="#666">tab-list</text>
<line x1="86" y1="526" x2="86" y2="748" stroke="#00695c" stroke-width="2" stroke-opacity="0.4" stroke-linecap="round" />
<rect x="78" y="510" width="193.4" height="16" fill="#00695c" rx="3" />
<path d="M8 14.667a5.806 5.806 0 0 1-2.342-.475 6.1 6.1 0 0 1-1.9-1.284 6.097 6.097 0 0 1-1.283-1.9A5.804 5.804 0 0 1 2 8.667a5.8 5.8 0 0 1 .475-2.342 6.099 6.099 0 0 1 1.283-1.9 6.099 6.099 0 0 1 1.9-1.283A5.805 5.805 0 0 1 8 2.667h.1L7.533 2.1a.622.622 0 0 1-.183-.458.68.68 0 0 1 .183-.475.68.68 0 0 1 .475-.209.62.62 0 0 1 .475.192L10.2 2.867a.632.632 0 0 1 .183.466.632.632 0 0 1-.183.467L8.483 5.517a.62.62 0 0 1-.475.191.68.68 0 0 1-.475-.208.68.68 0 0 1-.183-.475c0-.183.061-.336.183-.458L8.1 4H8c-1.3 0-2.403.453-3.308 1.358-.906.906-1.359 2.009-1.359 3.309 0 1.3.453 2.402 1.359 3.308.905.906 2.008 1.358 3.308 1.358 1.178 0 2.206-.383 3.083-1.15.878-.766 1.395-1.733 1.55-2.9a.68.68 0 0 1 .234-.441.687.687 0 0 1 .466-.175c.178 0 .334.055.467.166a.44.44 0 0 1 .167.417c-.156 1.544-.8 2.833-1.934 3.867C10.9 14.15 9.556 14.667 8 14.667Z" fill="#ffffff" transform="translate(84,513) scale(0.625)" />
<text x="181.7" y="521.15" font-size="9" fill="#ffffff" font-family="monospace" text-anchor="middle">for each widget in leaf.widgets</text>
<rect x="90" y="533" width="395.7" height="215" fill="#e3f2fd" stroke="#1976d2" stroke-width="1" rx="4" />
<rect x="100" y="527" width="53" height="12" fill="#e3f2fd" stroke="#1976d2" stroke-width="1" rx="3" />
<text x="104" y="536" font-size="9" fill="#0d47a1" font-weight="bold">&lt;button&gt;</text>
<text x="100" y="552" font-size="9" fill="#666">tab</text>
<text x="100" y="563" font-size="9" fill="#666" font-style="italic">{item.id} [selected|not-selected] [disabled] [closable|not-closable]</text>
<line x1="108" y1="689" x2="108" y2="738" stroke="#7b1fa2" stroke-width="2" stroke-opacity="0.4" stroke-linecap="round" />
<rect x="100" y="581" width="202.325" height="80" fill="#fafafa" stroke="#bdbdbd" stroke-width="1" rx="4" />
<rect x="110" y="575" width="86" height="12" fill="#fafafa" stroke="#bdbdbd" stroke-width="1" rx="3" />
<text x="114" y="584" font-size="9" fill="#424242" font-weight="bold">&lt;ch-textblock&gt;</text>
<rect x="102" y="623" width="198.325" height="33" fill="none" stroke="#9e9e9e" stroke-width="1.5" stroke-dasharray="6 3" rx="3" />
<rect x="106" y="617" width="66" height="12" fill="#ffffff" rx="2" />
<text x="110" y="625" font-size="8" fill="#9e9e9e" font-family="monospace">#shadow-root</text>
<text x="110" y="600" font-size="9" fill="#666">tab-caption</text>
<text x="110" y="611" font-size="9" fill="#666" font-style="italic">{item.id} [selected|not-selected]</text>
<text x="112" y="651" font-size="9" fill="#888" font-style="italic">&quot;Caption text&quot;</text>
<rect x="100" y="673" width="112.39999999999999" height="16" fill="#7b1fa2" rx="3" />
<path d="M5 0.5 L9.5 5 L5 9.5 L0.5 5 Z" fill="none" stroke="#ffffff" stroke-width="1.2" stroke-linecap="round" stroke-linejoin="round" transform="translate(106,676) scale(1)" />
<text x="163.2" y="684.15" font-size="9" fill="#ffffff" font-family="monospace" text-anchor="middle">when closeButton</text>
<rect x="112" y="696" width="263.1" height="42" fill="#e3f2fd" stroke="#1976d2" stroke-width="1" rx="4" />
<rect x="122" y="690" width="53" height="12" fill="#e3f2fd" stroke="#1976d2" stroke-width="1" rx="3" />
<text x="126" y="699" font-size="9" fill="#0d47a1" font-weight="bold">&lt;button&gt;</text>
<text x="122" y="715" font-size="9" fill="#666">close-button</text>
<text x="122" y="726" font-size="9" fill="#666" font-style="italic">{item.id} [selected|not-selected] [disabled]</text>
<rect x="68" y="770" width="295.1" height="147" fill="#fff8f0" stroke="#bdbdbd" stroke-width="1" rx="4" />
<rect x="78" y="764" width="36" height="12" fill="#fff8f0" stroke="#bdbdbd" stroke-width="1" rx="3" />
<text x="82" y="773" font-size="9" fill="#424242" font-weight="bold">&lt;div&gt;</text>
<text x="78" y="789" font-size="9" fill="#666">tab-panel-container</text>
<line x1="86" y1="817" x2="86" y2="907" stroke="#00695c" stroke-width="2" stroke-opacity="0.4" stroke-linecap="round" />
<rect x="78" y="801" width="193.4" height="16" fill="#00695c" rx="3" />
<path d="M8 14.667a5.806 5.806 0 0 1-2.342-.475 6.1 6.1 0 0 1-1.9-1.284 6.097 6.097 0 0 1-1.283-1.9A5.804 5.804 0 0 1 2 8.667a5.8 5.8 0 0 1 .475-2.342 6.099 6.099 0 0 1 1.283-1.9 6.099 6.099 0 0 1 1.9-1.283A5.805 5.805 0 0 1 8 2.667h.1L7.533 2.1a.622.622 0 0 1-.183-.458.68.68 0 0 1 .183-.475.68.68 0 0 1 .475-.209.62.62 0 0 1 .475.192L10.2 2.867a.632.632 0 0 1 .183.466.632.632 0 0 1-.183.467L8.483 5.517a.62.62 0 0 1-.475.191.68.68 0 0 1-.475-.208.68.68 0 0 1-.183-.475c0-.183.061-.336.183-.458L8.1 4H8c-1.3 0-2.403.453-3.308 1.358-.906.906-1.359 2.009-1.359 3.309 0 1.3.453 2.402 1.359 3.308.905.906 2.008 1.358 3.308 1.358 1.178 0 2.206-.383 3.083-1.15.878-.766 1.395-1.733 1.55-2.9a.68.68 0 0 1 .234-.441.687.687 0 0 1 .466-.175c.178 0 .334.055.467.166a.44.44 0 0 1 .167.417c-.156 1.544-.8 2.833-1.934 3.867C10.9 14.15 9.556 14.667 8 14.667Z" fill="#ffffff" transform="translate(84,804) scale(0.625)" />
<text x="181.7" y="812.15" font-size="9" fill="#ffffff" font-family="monospace" text-anchor="middle">for each widget in leaf.widgets</text>
<rect x="90" y="824" width="263.1" height="83" fill="#fafafa" stroke="#bdbdbd" stroke-width="1" rx="4" />
<rect x="100" y="818" width="36" height="12" fill="#fafafa" stroke="#bdbdbd" stroke-width="1" rx="3" />
<text x="104" y="827" font-size="9" fill="#424242" font-weight="bold">&lt;div&gt;</text>
<text x="100" y="843" font-size="9" fill="#666">tab-panel</text>
<text x="100" y="854" font-size="9" fill="#666" font-style="italic">{item.id} [selected|not-selected] [disabled]</text>
<rect x="100" y="866" width="158.125" height="31" fill="#fff8e1" stroke="#f57f17" stroke-width="1.5" stroke-dasharray="4 2" rx="4" />
<text x="106" y="885" font-size="9" fill="#e65100" font-weight="bold">&lt;slot name=&quot;{widget.id}&quot;&gt;</text>
<rect x="66" y="940" width="193.4" height="16" fill="#00695c" rx="3" />
<path d="M8 14.667a5.806 5.806 0 0 1-2.342-.475 6.1 6.1 0 0 1-1.9-1.284 6.097 6.097 0 0 1-1.283-1.9A5.804 5.804 0 0 1 2 8.667a5.8 5.8 0 0 1 .475-2.342 6.099 6.099 0 0 1 1.283-1.9 6.099 6.099 0 0 1 1.9-1.283A5.805 5.805 0 0 1 8 2.667h.1L7.533 2.1a.622.622 0 0 1-.183-.458.68.68 0 0 1 .183-.475.68.68 0 0 1 .475-.209.62.62 0 0 1 .475.192L10.2 2.867a.632.632 0 0 1 .183.466.632.632 0 0 1-.183.467L8.483 5.517a.62.62 0 0 1-.475.191.68.68 0 0 1-.475-.208.68.68 0 0 1-.183-.475c0-.183.061-.336.183-.458L8.1 4H8c-1.3 0-2.403.453-3.308 1.358-.906.906-1.359 2.009-1.359 3.309 0 1.3.453 2.402 1.359 3.308.905.906 2.008 1.358 3.308 1.358 1.178 0 2.206-.383 3.083-1.15.878-.766 1.395-1.733 1.55-2.9a.68.68 0 0 1 .234-.441.687.687 0 0 1 .466-.175c.178 0 .334.055.467.166a.44.44 0 0 1 .167.417c-.156 1.544-.8 2.833-1.934 3.867C10.9 14.15 9.556 14.667 8 14.667Z" fill="#ffffff" transform="translate(72,943) scale(0.625)" />
<text x="169.7" y="951.15" font-size="9" fill="#ffffff" font-family="monospace" text-anchor="middle">for each widget in leaf.widgets</text>
<rect x="78" y="957" width="158.125" height="31" fill="#fff8e1" stroke="#f57f17" stroke-width="1.5" stroke-dasharray="4 2" rx="4" />
<text x="84" y="976" font-size="9" fill="#e65100" font-weight="bold">&lt;slot name=&quot;{widget.id}&quot;&gt;</text>
<rect x="34" y="1020" width="111" height="31" fill="#f3f0ff" stroke="#bdbdbd" stroke-width="1" rx="4" />
<rect x="44" y="1014" width="36" height="12" fill="#f3f0ff" stroke="#bdbdbd" stroke-width="1" rx="3" />
<text x="48" y="1023" font-size="9" fill="#424242" font-weight="bold">&lt;div&gt;</text>
<text x="44" y="1039" font-size="9" fill="#666">droppable-area</text>
<rect x="32" y="1074" width="182.6" height="16" fill="#00695c" rx="3" />
<path d="M8 14.667a5.806 5.806 0 0 1-2.342-.475 6.1 6.1 0 0 1-1.9-1.284 6.097 6.097 0 0 1-1.283-1.9A5.804 5.804 0 0 1 2 8.667a5.8 5.8 0 0 1 .475-2.342 6.099 6.099 0 0 1 1.283-1.9 6.099 6.099 0 0 1 1.9-1.283A5.805 5.805 0 0 1 8 2.667h.1L7.533 2.1a.622.622 0 0 1-.183-.458.68.68 0 0 1 .183-.475.68.68 0 0 1 .475-.209.62.62 0 0 1 .475.192L10.2 2.867a.632.632 0 0 1 .183.466.632.632 0 0 1-.183.467L8.483 5.517a.62.62 0 0 1-.475.191.68.68 0 0 1-.475-.208.68.68 0 0 1-.183-.475c0-.183.061-.336.183-.458L8.1 4H8c-1.3 0-2.403.453-3.308 1.358-.906.906-1.359 2.009-1.359 3.309 0 1.3.453 2.402 1.359 3.308.905.906 2.008 1.358 3.308 1.358 1.178 0 2.206-.383 3.083-1.15.878-.766 1.395-1.733 1.55-2.9a.68.68 0 0 1 .234-.441.687.687 0 0 1 .466-.175c.178 0 .334.055.467.166a.44.44 0 0 1 .167.417c-.156 1.544-.8 2.833-1.934 3.867C10.9 14.15 9.556 14.667 8 14.667Z" fill="#ffffff" transform="translate(38,1077) scale(0.625)" />
<text x="130.3" y="1085.15" font-size="9" fill="#ffffff" font-family="monospace" text-anchor="middle">for each widget in allWidgets</text>
<rect x="44" y="1097" width="178.125" height="51" fill="#f3f0ff" stroke="#bdbdbd" stroke-width="1" rx="4" />
<rect x="54" y="1091" width="141" height="12" fill="#f3f0ff" stroke="#bdbdbd" stroke-width="1" rx="3" />
<text x="58" y="1100" font-size="9" fill="#424242" font-weight="bold">&lt;div slot=&quot;{widget.id}&quot;&gt;</text>
<rect x="54" y="1107" width="158.125" height="31" fill="#fff8e1" stroke="#f57f17" stroke-width="1.5" stroke-dasharray="4 2" rx="4" />
<text x="60" y="1126" font-size="9" fill="#e65100" font-weight="bold">&lt;slot name=&quot;{widget.id}&quot;&gt;</text>
<rect x="583.7" y="10" width="211" height="222" fill="none" stroke="#bdbdbd" stroke-width="1" rx="4" />
<text x="593.7" y="24" font-size="10" fill="#424242" font-weight="bold">Legend</text>
<line x1="593.7" y1="38" x2="617.7" y2="38" stroke="#9e9e9e" stroke-width="1.5" stroke-dasharray="4 2" />
<text x="639.7" y="42" font-size="8" fill="#666">#shadow-root</text>
<rect x="593.7" y="48" width="12" height="12" fill="#7b1fa2" rx="2" />
<path d="M5 0.5 L9.5 5 L5 9.5 L0.5 5 Z" fill="none" stroke="#fff" stroke-width="1.2" stroke-linecap="round" stroke-linejoin="round" transform="translate(594.7,49) scale(1)" />
<text x="639.7" y="58" font-size="8" fill="#666">condition (when / else)</text>
<rect x="593.7" y="64" width="12" height="12" fill="#00695c" rx="2" />
<path d="M8 14.667a5.806 5.806 0 0 1-2.342-.475 6.1 6.1 0 0 1-1.9-1.284 6.097 6.097 0 0 1-1.283-1.9A5.804 5.804 0 0 1 2 8.667a5.8 5.8 0 0 1 .475-2.342 6.099 6.099 0 0 1 1.283-1.9 6.099 6.099 0 0 1 1.9-1.283A5.805 5.805 0 0 1 8 2.667h.1L7.533 2.1a.622.622 0 0 1-.183-.458.68.68 0 0 1 .183-.475.68.68 0 0 1 .475-.209.62.62 0 0 1 .475.192L10.2 2.867a.632.632 0 0 1 .183.466.632.632 0 0 1-.183.467L8.483 5.517a.62.62 0 0 1-.475.191.68.68 0 0 1-.475-.208.68.68 0 0 1-.183-.475c0-.183.061-.336.183-.458L8.1 4H8c-1.3 0-2.403.453-3.308 1.358-.906.906-1.359 2.009-1.359 3.309 0 1.3.453 2.402 1.359 3.308.905.906 2.008 1.358 3.308 1.358 1.178 0 2.206-.383 3.083-1.15.878-.766 1.395-1.733 1.55-2.9a.68.68 0 0 1 .234-.441.687.687 0 0 1 .466-.175c.178 0 .334.055.467.166a.44.44 0 0 1 .167.417c-.156 1.544-.8 2.833-1.934 3.867C10.9 14.15 9.556 14.667 8 14.667Z" fill="#fff" transform="translate(594.7,65) scale(0.625)" />
<text x="639.7" y="74" font-size="8" fill="#666">iteration (for each)</text>
<rect x="593.7" y="80" width="12" height="12" fill="#546e7a" rx="2" />
<text x="639.7" y="90" font-size="8" fill="#666">descriptive comment</text>
<rect x="593.7" y="96" width="20" height="12" fill="#fff8e1" stroke="#f57f17" stroke-width="1" stroke-dasharray="3 1.5" rx="2" />
<text x="639.7" y="106" font-size="8" fill="#666">slot</text>
<rect x="593.7" y="112" width="12" height="12" fill="#0277bd" rx="2" />
<path d="M10.817 8.664H3.642a.613.613 0 0 1-.457-.19.647.647 0 0 1-.185-.47c0-.187.062-.343.185-.47a.613.613 0 0 1 .457-.19h7.175l-3.146-3.23a.613.613 0 0 1-.185-.462.668.668 0 0 1 .65-.651.58.58 0 0 1 .45.189l4.237 4.353c.065.066.11.137.137.214a.75.75 0 0 1 .04.247.75.75 0 0 1-.04.248.581.581 0 0 1-.137.214l-4.237 4.353a.59.59 0 0 1-.442.181.645.645 0 0 1-.457-.181.65.65 0 0 1-.193-.47.65.65 0 0 1 .193-.47l3.13-3.215Z" fill="#fff" transform="translate(594.7,113) scale(0.625)" />
<text x="639.7" y="122" font-size="8" fill="#666">projected content (light DOM)</text>
<text x="593.7" y="138" font-size="9" fill="#666">part</text>
<text x="639.7" y="138" font-size="8" fill="#666">static part</text>
<text x="593.7" y="154" font-size="9" fill="#666" font-style="italic">[part]</text>
<text x="639.7" y="154" font-size="8" fill="#666">conditional part</text>
<text x="593.7" y="170" font-size="9" fill="#666" font-style="italic">{part}</text>
<text x="639.7" y="170" font-size="8" fill="#666">dynamic part</text>
<text x="593.7" y="186" font-size="9" fill="#666" font-style="italic">[{part}]</text>
<text x="639.7" y="186" font-size="8" fill="#666">conditional dynamic part</text>
<rect x="593.7" y="192" width="20" height="12" fill="#fafafa" stroke="#bdbdbd" stroke-width="1" rx="3" />
<text x="595.7" y="201" font-size="7" fill="#424242" font-weight="bold">id</text>
<text x="639.7" y="202" font-size="8" fill="#666">id, role (in tag pill)</text>
<text x="593.7" y="218" font-size="9" fill="#1565c0" font-style="italic">aria-*</text>
<text x="639.7" y="218" font-size="8" fill="#666">aria-* attribute</text>

</svg>
