<?xml version="1.0" encoding="UTF-8"?>
<svg xmlns="http://www.w3.org/2000/svg"
     viewBox="0 0 642.4 410"
     width="642.4" height="410"
     font-family="monospace, Consolas">
  <style>
    text { dominant-baseline: auto; }
  </style>
  <rect x="10" y="10" width="385.4" height="390" fill="#ffffff" stroke="#424242" stroke-width="1" rx="4" />
<rect x="20" y="4" width="125" height="12" fill="#ffffff" stroke="#424242" stroke-width="1" rx="3" />
<text x="24" y="13" font-size="9" fill="#212121" font-weight="bold">&lt;ch-accordion-render&gt;</text>
<rect x="12" y="30" width="381.4" height="365" fill="none" stroke="#9e9e9e" stroke-width="1.5" stroke-dasharray="6 3" rx="3" />
<rect x="16" y="24" width="66" height="12" fill="#ffffff" rx="2" />
<text x="20" y="32" font-size="8" fill="#9e9e9e" font-family="monospace">#shadow-root</text>
<line x1="30" y1="50" x2="30" y2="390" stroke="#00695c" stroke-width="2" stroke-opacity="0.4" stroke-linecap="round" />
<rect x="22" y="34" width="144.8" height="16" fill="#00695c" rx="3" />
<path d="M8 14.667a5.806 5.806 0 0 1-2.342-.475 6.1 6.1 0 0 1-1.9-1.284 6.097 6.097 0 0 1-1.283-1.9A5.804 5.804 0 0 1 2 8.667a5.8 5.8 0 0 1 .475-2.342 6.099 6.099 0 0 1 1.283-1.9 6.099 6.099 0 0 1 1.9-1.283A5.805 5.805 0 0 1 8 2.667h.1L7.533 2.1a.622.622 0 0 1-.183-.458.68.68 0 0 1 .183-.475.68.68 0 0 1 .475-.209.62.62 0 0 1 .475.192L10.2 2.867a.632.632 0 0 1 .183.466.632.632 0 0 1-.183.467L8.483 5.517a.62.62 0 0 1-.475.191.68.68 0 0 1-.475-.208.68.68 0 0 1-.183-.475c0-.183.061-.336.183-.458L8.1 4H8c-1.3 0-2.403.453-3.308 1.358-.906.906-1.359 2.009-1.359 3.309 0 1.3.453 2.402 1.359 3.308.905.906 2.008 1.358 3.308 1.358 1.178 0 2.206-.383 3.083-1.15.878-.766 1.395-1.733 1.55-2.9a.68.68 0 0 1 .234-.441.687.687 0 0 1 .466-.175c.178 0 .334.055.467.166a.44.44 0 0 1 .167.417c-.156 1.544-.8 2.833-1.934 3.867C10.9 14.15 9.556 14.667 8 14.667Z" fill="#ffffff" transform="translate(28,37) scale(0.625)" />
<text x="101.4" y="45.15" font-size="9" fill="#ffffff" font-family="monospace" text-anchor="middle">for each item in model</text>
<rect x="34" y="57" width="349.4" height="333" fill="#fafafa" stroke="#bdbdbd" stroke-width="1" rx="4" />
<rect x="44" y="51" width="36" height="12" fill="#fafafa" stroke="#bdbdbd" stroke-width="1" rx="3" />
<text x="48" y="60" font-size="9" fill="#424242" font-weight="bold">&lt;div&gt;</text>
<text x="44" y="76" font-size="9" fill="#666">panel</text>
<text x="44" y="87" font-size="9" fill="#666" font-style="italic">{item.id} [disabled] [expanded|collapsed]</text>
<rect x="44" y="105" width="329.4" height="137" fill="#e3f2fd" stroke="#1976d2" stroke-width="1" rx="4" />
<rect x="54" y="99" width="53" height="12" fill="#e3f2fd" stroke="#1976d2" stroke-width="1" rx="3" />
<text x="58" y="108" font-size="9" fill="#0d47a1" font-weight="bold">&lt;button&gt;</text>
<text x="54" y="124" font-size="9" fill="#666">header</text>
<text x="54" y="135" font-size="9" fill="#666" font-style="italic">{item.id} [headerSlotId] [disabled] [expanded|collapsed]</text>
<line x1="62" y1="163" x2="62" y2="200" stroke="#7b1fa2" stroke-width="2" stroke-opacity="0.4" stroke-linecap="round" />
<line x1="62" y1="217" x2="62" y2="232" stroke="#ad1457" stroke-width="2" stroke-opacity="0.4" stroke-linecap="round" />
<rect x="54" y="147" width="117.8" height="16" fill="#7b1fa2" rx="3" />
<path d="M5 0.5 L9.5 5 L5 9.5 L0.5 5 Z" fill="none" stroke="#ffffff" stroke-width="1.2" stroke-linecap="round" stroke-linejoin="round" transform="translate(60,150) scale(1)" />
<text x="119.9" y="158.15" font-size="9" fill="#ffffff" font-family="monospace" text-anchor="middle">when headerSlotId</text>
<rect x="66" y="164" width="174.7" height="31" fill="#fff8e1" stroke="#f57f17" stroke-width="1.5" stroke-dasharray="4 2" rx="4" />
<text x="72" y="183" font-size="9" fill="#e65100" font-weight="bold">&lt;slot name=&quot;{headerSlotId}&quot;&gt;</text>
<rect x="54" y="201" width="47.599999999999994" height="16" fill="#ad1457" rx="3" />
<path d="M5 0.5 L9.5 5 L5 9.5 L0.5 5 Z" fill="none" stroke="#ffffff" stroke-width="1.2" stroke-linecap="round" stroke-linejoin="round" transform="translate(60,204) scale(1)" />
<text x="84.8" y="212.15" font-size="9" fill="#ffffff" font-family="monospace" text-anchor="middle">else</text>
<text x="66" y="232" font-size="9" fill="#888" font-style="italic">&quot;Caption text&quot;</text>
<rect x="44" y="254" width="278.525" height="126" fill="#f3f0ff" stroke="#bdbdbd" stroke-width="1" rx="4" />
<rect x="54" y="248" width="58" height="12" fill="#f3f0ff" stroke="#bdbdbd" stroke-width="1" rx="3" />
<text x="58" y="257" font-size="9" fill="#424242" font-weight="bold">&lt;section&gt;</text>
<line x1="62" y1="280" x2="62" y2="370" stroke="#7b1fa2" stroke-width="2" stroke-opacity="0.4" stroke-linecap="round" />
<rect x="54" y="264" width="220.4" height="16" fill="#7b1fa2" rx="3" />
<path d="M5 0.5 L9.5 5 L5 9.5 L0.5 5 Z" fill="none" stroke="#ffffff" stroke-width="1.2" stroke-linecap="round" stroke-linejoin="round" transform="translate(60,267) scale(1)" />
<text x="171.2" y="275.15" font-size="9" fill="#ffffff" font-family="monospace" text-anchor="middle">when expanded or previously rendered</text>
<rect x="66" y="287" width="246.525" height="83" fill="#f0f7f4" stroke="#bdbdbd" stroke-width="1" rx="4" />
<rect x="76" y="281" width="36" height="12" fill="#f0f7f4" stroke="#bdbdbd" stroke-width="1" rx="3" />
<text x="80" y="290" font-size="9" fill="#424242" font-weight="bold">&lt;div&gt;</text>
<text x="76" y="306" font-size="9" fill="#666">section</text>
<text x="76" y="317" font-size="9" fill="#666" font-style="italic">{item.id} [disabled] [expanded|collapsed]</text>
<rect x="76" y="329" width="147.075" height="31" fill="#fff8e1" stroke="#f57f17" stroke-width="1.5" stroke-dasharray="4 2" rx="4" />
<text x="82" y="348" font-size="9" fill="#e65100" font-weight="bold">&lt;slot name=&quot;{item.id}&quot;&gt;</text>
<rect x="421.4" y="10" width="211" height="222" fill="none" stroke="#bdbdbd" stroke-width="1" rx="4" />
<text x="431.4" y="24" font-size="10" fill="#424242" font-weight="bold">Legend</text>
<line x1="431.4" y1="38" x2="455.4" y2="38" stroke="#9e9e9e" stroke-width="1.5" stroke-dasharray="4 2" />
<text x="477.4" y="42" font-size="8" fill="#666">#shadow-root</text>
<rect x="431.4" y="48" width="12" height="12" fill="#7b1fa2" rx="2" />
<path d="M5 0.5 L9.5 5 L5 9.5 L0.5 5 Z" fill="none" stroke="#fff" stroke-width="1.2" stroke-linecap="round" stroke-linejoin="round" transform="translate(432.4,49) scale(1)" />
<text x="477.4" y="58" font-size="8" fill="#666">condition (when / else)</text>
<rect x="431.4" y="64" width="12" height="12" fill="#00695c" rx="2" />
<path d="M8 14.667a5.806 5.806 0 0 1-2.342-.475 6.1 6.1 0 0 1-1.9-1.284 6.097 6.097 0 0 1-1.283-1.9A5.804 5.804 0 0 1 2 8.667a5.8 5.8 0 0 1 .475-2.342 6.099 6.099 0 0 1 1.283-1.9 6.099 6.099 0 0 1 1.9-1.283A5.805 5.805 0 0 1 8 2.667h.1L7.533 2.1a.622.622 0 0 1-.183-.458.68.68 0 0 1 .183-.475.68.68 0 0 1 .475-.209.62.62 0 0 1 .475.192L10.2 2.867a.632.632 0 0 1 .183.466.632.632 0 0 1-.183.467L8.483 5.517a.62.62 0 0 1-.475.191.68.68 0 0 1-.475-.208.68.68 0 0 1-.183-.475c0-.183.061-.336.183-.458L8.1 4H8c-1.3 0-2.403.453-3.308 1.358-.906.906-1.359 2.009-1.359 3.309 0 1.3.453 2.402 1.359 3.308.905.906 2.008 1.358 3.308 1.358 1.178 0 2.206-.383 3.083-1.15.878-.766 1.395-1.733 1.55-2.9a.68.68 0 0 1 .234-.441.687.687 0 0 1 .466-.175c.178 0 .334.055.467.166a.44.44 0 0 1 .167.417c-.156 1.544-.8 2.833-1.934 3.867C10.9 14.15 9.556 14.667 8 14.667Z" fill="#fff" transform="translate(432.4,65) scale(0.625)" />
<text x="477.4" y="74" font-size="8" fill="#666">iteration (for each)</text>
<rect x="431.4" y="80" width="12" height="12" fill="#546e7a" rx="2" />
<text x="477.4" y="90" font-size="8" fill="#666">descriptive comment</text>
<rect x="431.4" y="96" width="20" height="12" fill="#fff8e1" stroke="#f57f17" stroke-width="1" stroke-dasharray="3 1.5" rx="2" />
<text x="477.4" y="106" font-size="8" fill="#666">slot</text>
<rect x="431.4" y="112" width="12" height="12" fill="#0277bd" rx="2" />
<path d="M10.817 8.664H3.642a.613.613 0 0 1-.457-.19.647.647 0 0 1-.185-.47c0-.187.062-.343.185-.47a.613.613 0 0 1 .457-.19h7.175l-3.146-3.23a.613.613 0 0 1-.185-.462.668.668 0 0 1 .65-.651.58.58 0 0 1 .45.189l4.237 4.353c.065.066.11.137.137.214a.75.75 0 0 1 .04.247.75.75 0 0 1-.04.248.581.581 0 0 1-.137.214l-4.237 4.353a.59.59 0 0 1-.442.181.645.645 0 0 1-.457-.181.65.65 0 0 1-.193-.47.65.65 0 0 1 .193-.47l3.13-3.215Z" fill="#fff" transform="translate(432.4,113) scale(0.625)" />
<text x="477.4" y="122" font-size="8" fill="#666">projected content (light DOM)</text>
<text x="431.4" y="138" font-size="9" fill="#666">part</text>
<text x="477.4" y="138" font-size="8" fill="#666">static part</text>
<text x="431.4" y="154" font-size="9" fill="#666" font-style="italic">[part]</text>
<text x="477.4" y="154" font-size="8" fill="#666">conditional part</text>
<text x="431.4" y="170" font-size="9" fill="#666" font-style="italic">{part}</text>
<text x="477.4" y="170" font-size="8" fill="#666">dynamic part</text>
<text x="431.4" y="186" font-size="9" fill="#666" font-style="italic">[{part}]</text>
<text x="477.4" y="186" font-size="8" fill="#666">conditional dynamic part</text>
<rect x="431.4" y="192" width="20" height="12" fill="#fafafa" stroke="#bdbdbd" stroke-width="1" rx="3" />
<text x="433.4" y="201" font-size="7" fill="#424242" font-weight="bold">id</text>
<text x="477.4" y="202" font-size="8" fill="#666">id, role (in tag pill)</text>
<text x="431.4" y="218" font-size="9" fill="#1565c0" font-style="italic">aria-*</text>
<text x="477.4" y="218" font-size="8" fill="#666">aria-* attribute</text>

</svg>
