<?xml version="1.0" encoding="UTF-8"?>
<svg xmlns="http://www.w3.org/2000/svg"
     viewBox="0 0 1040 357"
     width="1040" height="357"
     font-family="monospace, Consolas">
  <style>
    text { dominant-baseline: auto; }
  </style>
  <rect x="10" y="10" width="763" height="337" fill="#ffffff" stroke="#424242" stroke-width="1" rx="4" />
<rect x="20" y="4" width="158" height="12" fill="#ffffff" stroke="#424242" stroke-width="1" rx="3" />
<text x="24" y="13" font-size="9" fill="#212121" font-weight="normal"><tspan>&lt;</tspan><tspan font-weight="bold">ch-navigation-list-render</tspan><tspan>&gt;</tspan></text>
<rect x="12" y="26" width="759" height="319" fill="none" stroke="#9e9e9e" stroke-width="1.5" stroke-dasharray="6 3" rx="3" />
<rect x="16" y="20" width="66" height="12" fill="#ffffff" rx="2" />
<text x="20" y="28" font-size="8" fill="#9e9e9e" font-family="monospace">#shadow-root</text>
<line x1="30" y1="50" x2="30" y2="337" stroke="#00695c" stroke-width="2" stroke-opacity="0.4" stroke-linecap="round" />
<rect x="22" y="34" width="144.8" height="16" fill="#00695c" rx="3" />
<path d="M8 14.667a5.806 5.806 0 0 1-2.342-.475 6.1 6.1 0 0 1-1.9-1.284 6.097 6.097 0 0 1-1.283-1.9A5.804 5.804 0 0 1 2 8.667a5.8 5.8 0 0 1 .475-2.342 6.099 6.099 0 0 1 1.283-1.9 6.099 6.099 0 0 1 1.9-1.283A5.805 5.805 0 0 1 8 2.667h.1L7.533 2.1a.622.622 0 0 1-.183-.458.68.68 0 0 1 .183-.475.68.68 0 0 1 .475-.209.62.62 0 0 1 .475.192L10.2 2.867a.632.632 0 0 1 .183.466.632.632 0 0 1-.183.467L8.483 5.517a.62.62 0 0 1-.475.191.68.68 0 0 1-.475-.208.68.68 0 0 1-.183-.475c0-.183.061-.336.183-.458L8.1 4H8c-1.3 0-2.403.453-3.308 1.358-.906.906-1.359 2.009-1.359 3.309 0 1.3.453 2.402 1.359 3.308.905.906 2.008 1.358 3.308 1.358 1.178 0 2.206-.383 3.083-1.15.878-.766 1.395-1.733 1.55-2.9a.68.68 0 0 1 .234-.441.687.687 0 0 1 .466-.175c.178 0 .334.055.467.166a.44.44 0 0 1 .167.417c-.156 1.544-.8 2.833-1.934 3.867C10.9 14.15 9.556 14.667 8 14.667Z" fill="#ffffff" transform="translate(28,37) scale(0.625)" />
<text x="101.4" y="45.15" font-size="9" fill="#ffffff" font-family="monospace" text-anchor="middle">for each item in model</text>
<rect x="34" y="57" width="727" height="280" fill="#fafafa" stroke="#bdbdbd" stroke-width="1" rx="4" />
<rect x="44" y="51" width="147" height="12" fill="#fafafa" stroke="#bdbdbd" stroke-width="1" rx="3" />
<text x="48" y="60" font-size="9" fill="#424242" font-weight="normal"><tspan>&lt;</tspan><tspan font-weight="bold">ch-navigation-list-item</tspan><tspan>&gt;</tspan></text>
<rect x="36" y="73" width="723" height="262" fill="none" stroke="#9e9e9e" stroke-width="1.5" stroke-dasharray="6 3" rx="3" />
<rect x="40" y="67" width="66" height="12" fill="#ffffff" rx="2" />
<text x="44" y="75" font-size="8" fill="#9e9e9e" font-family="monospace">#shadow-root</text>
<rect x="46" y="87" width="703" height="240" fill="#e3f2fd" stroke="#1976d2" stroke-width="1" rx="4" />
<rect x="56" y="81" width="683" height="38" fill="#e3f2fd" stroke="#1976d2" stroke-width="1" rx="3" />
<text x="60" y="92" font-size="9" fill="#0d47a1" font-weight="normal"><tspan>&lt;</tspan><tspan font-weight="bold">button</tspan></text>
<text x="71" y="104" font-size="9" fill="#0d47a1" font-weight="normal">part=&quot;item__action item__button [selected | not-selected] [disabled] [even-level | odd-level] navigation-list-collapsed&quot;</text>
<text x="60" y="116" font-size="9" fill="#0d47a1" font-weight="normal">&gt;</text>
<line x1="64" y1="145" x2="64" y2="317" stroke="#7b1fa2" stroke-width="2" stroke-opacity="0.4" stroke-linecap="round" />
<rect x="56" y="129" width="242" height="16" fill="#7b1fa2" rx="3" />
<path d="M5 0.5 L9.5 5 L5 9.5 L0.5 5 Z" fill="none" stroke="#ffffff" stroke-width="1.2" stroke-linecap="round" stroke-linejoin="round" transform="translate(62,132) scale(1)" />
<text x="184" y="140.15" font-size="9" fill="#ffffff" font-family="monospace" text-anchor="middle">when showCaptionOnCollapse === &quot;tooltip&quot;</text>
<rect x="68" y="152" width="225" height="165" fill="#f3f0ff" stroke="#bdbdbd" stroke-width="1" rx="4" />
<rect x="78" y="146" width="75" height="12" fill="#f3f0ff" stroke="#bdbdbd" stroke-width="1" rx="3" />
<text x="82" y="155" font-size="9" fill="#424242" font-weight="normal"><tspan>&lt;</tspan><tspan font-weight="bold">ch-tooltip</tspan><tspan>&gt;</tspan></text>
<rect x="70" y="168" width="221" height="147" fill="none" stroke="#9e9e9e" stroke-width="1.5" stroke-dasharray="6 3" rx="3" />
<rect x="74" y="162" width="66" height="12" fill="#ffffff" rx="2" />
<text x="78" y="170" font-size="8" fill="#9e9e9e" font-family="monospace">#shadow-root</text>
<line x1="88" y1="251" x2="88" y2="307" stroke="#7b1fa2" stroke-width="2" stroke-opacity="0.4" stroke-linecap="round" />
<rect x="80" y="182" width="189" height="41" fill="#e3f2fd" stroke="#1976d2" stroke-width="1" rx="4" />
<rect x="90" y="176" width="169" height="12" fill="#e3f2fd" stroke="#1976d2" stroke-width="1" rx="3" />
<text x="94" y="185" font-size="9" fill="#0d47a1" font-weight="normal"><tspan>&lt;</tspan><tspan font-weight="bold">button</tspan><tspan> part=&quot;item__caption&quot;</tspan><tspan>&gt;</tspan></text>
<rect x="90" y="198" width="141.55" height="15" fill="#fff8e1" stroke="#f57f17" stroke-width="1.5" stroke-dasharray="4 2" rx="4" />
<text x="96" y="209" font-size="9" fill="#e65100" font-weight="bold">&lt;slot name=&quot;action&quot; /&gt;</text>
<rect x="80" y="235" width="90.8" height="16" fill="#7b1fa2" rx="3" />
<path d="M5 0.5 L9.5 5 L5 9.5 L0.5 5 Z" fill="none" stroke="#ffffff" stroke-width="1.2" stroke-linecap="round" stroke-linejoin="round" transform="translate(86,238) scale(1)" />
<text x="132.4" y="246.15" font-size="9" fill="#ffffff" font-family="monospace" text-anchor="middle">when visible</text>
<rect x="92" y="258" width="178" height="49" fill="#f0f7f4" stroke="#bdbdbd" stroke-width="1" rx="4" />
<rect x="102" y="252" width="158" height="12" fill="#f0f7f4" stroke="#bdbdbd" stroke-width="1" rx="3" />
<text x="106" y="261" font-size="9" fill="#424242" font-weight="normal"><tspan>&lt;</tspan><tspan font-weight="bold">ch-popover</tspan><tspan> part=&quot;tooltip&quot;</tspan><tspan>&gt;</tspan></text>
<rect x="94" y="274" width="174" height="31" fill="none" stroke="#9e9e9e" stroke-width="1.5" stroke-dasharray="6 3" rx="3" />
<rect x="98" y="268" width="66" height="12" fill="#ffffff" rx="2" />
<text x="102" y="276" font-size="8" fill="#9e9e9e" font-family="monospace">#shadow-root</text>
<rect x="104" y="282" width="64.19999999999999" height="15" fill="#fff8e1" stroke="#f57f17" stroke-width="1.5" stroke-dasharray="4 2" rx="4" />
<text x="110" y="293" font-size="9" fill="#e65100" font-weight="bold">&lt;slot /&gt;</text>
<rect x="799" y="10" width="231" height="206" fill="none" stroke="#bdbdbd" stroke-width="1" rx="4" />
<text x="809" y="24" font-size="10" fill="#424242" font-weight="bold">Legend</text>
<line x1="809" y1="38" x2="833" y2="38" stroke="#9e9e9e" stroke-width="1.5" stroke-dasharray="4 2" />
<text x="855" y="42" font-size="8" fill="#666">#shadow-root</text>
<rect x="809" y="48" width="12" height="12" fill="#7b1fa2" rx="2" />
<path d="M5 0.5 L9.5 5 L5 9.5 L0.5 5 Z" fill="none" stroke="#fff" stroke-width="1.2" stroke-linecap="round" stroke-linejoin="round" transform="translate(810,49) scale(1)" />
<text x="855" y="58" font-size="8" fill="#666">condition (when / else)</text>
<rect x="809" y="64" width="12" height="12" fill="#00695c" rx="2" />
<path d="M8 14.667a5.806 5.806 0 0 1-2.342-.475 6.1 6.1 0 0 1-1.9-1.284 6.097 6.097 0 0 1-1.283-1.9A5.804 5.804 0 0 1 2 8.667a5.8 5.8 0 0 1 .475-2.342 6.099 6.099 0 0 1 1.283-1.9 6.099 6.099 0 0 1 1.9-1.283A5.805 5.805 0 0 1 8 2.667h.1L7.533 2.1a.622.622 0 0 1-.183-.458.68.68 0 0 1 .183-.475.68.68 0 0 1 .475-.209.62.62 0 0 1 .475.192L10.2 2.867a.632.632 0 0 1 .183.466.632.632 0 0 1-.183.467L8.483 5.517a.62.62 0 0 1-.475.191.68.68 0 0 1-.475-.208.68.68 0 0 1-.183-.475c0-.183.061-.336.183-.458L8.1 4H8c-1.3 0-2.403.453-3.308 1.358-.906.906-1.359 2.009-1.359 3.309 0 1.3.453 2.402 1.359 3.308.905.906 2.008 1.358 3.308 1.358 1.178 0 2.206-.383 3.083-1.15.878-.766 1.395-1.733 1.55-2.9a.68.68 0 0 1 .234-.441.687.687 0 0 1 .466-.175c.178 0 .334.055.467.166a.44.44 0 0 1 .167.417c-.156 1.544-.8 2.833-1.934 3.867C10.9 14.15 9.556 14.667 8 14.667Z" fill="#fff" transform="translate(810,65) scale(0.625)" />
<text x="855" y="74" font-size="8" fill="#666">iteration (for each)</text>
<rect x="809" y="80" width="12" height="12" fill="#546e7a" rx="2" />
<text x="855" y="90" font-size="8" fill="#666">descriptive comment</text>
<rect x="809" y="96" width="20" height="12" fill="#fff8e1" stroke="#f57f17" stroke-width="1" stroke-dasharray="3 1.5" rx="2" />
<text x="855" y="106" font-size="8" fill="#666">slot</text>
<rect x="809" y="112" width="12" height="12" fill="#0277bd" rx="2" />
<path d="M10.817 8.664H3.642a.613.613 0 0 1-.457-.19.647.647 0 0 1-.185-.47c0-.187.062-.343.185-.47a.613.613 0 0 1 .457-.19h7.175l-3.146-3.23a.613.613 0 0 1-.185-.462.668.668 0 0 1 .65-.651.58.58 0 0 1 .45.189l4.237 4.353c.065.066.11.137.137.214a.75.75 0 0 1 .04.247.75.75 0 0 1-.04.248.581.581 0 0 1-.137.214l-4.237 4.353a.59.59 0 0 1-.442.181.645.645 0 0 1-.457-.181.65.65 0 0 1-.193-.47.65.65 0 0 1 .193-.47l3.13-3.215Z" fill="#fff" transform="translate(810,113) scale(0.625)" />
<text x="855" y="122" font-size="8" fill="#666">projected content (light DOM)</text>
<rect x="809" y="128" width="28" height="12" fill="#fafafa" stroke="#bdbdbd" stroke-width="1" rx="3" />
<text x="811" y="137" font-size="7" fill="#424242" font-weight="bold">&lt;tag&gt;</text>
<text x="855" y="138" font-size="8" fill="#666">tag pill (id, role, aria-*, part)</text>
<text x="809" y="154" font-size="9" fill="#424242">part</text>
<text x="855" y="154" font-size="8" fill="#666">part=&quot;name&quot;  (static)</text>
<text x="809" y="170" font-size="9" fill="#424242">[part]</text>
<text x="855" y="170" font-size="8" fill="#666">[part]  (conditional)</text>
<text x="809" y="186" font-size="9" fill="#424242">{part}</text>
<text x="855" y="186" font-size="8" fill="#666">{part}  (dynamic)</text>
<text x="809" y="202" font-size="9" fill="#424242">[{part}]</text>
<text x="855" y="202" font-size="8" fill="#666">[{part}]  (conditional dynamic)</text>

</svg>
