<?xml version="1.0" encoding="UTF-8"?>
<svg xmlns="http://www.w3.org/2000/svg"
     viewBox="0 0 839.775 1603"
     width="839.775" height="1603"
     font-family="monospace, Consolas">
  <style>
    text { dominant-baseline: auto; }
  </style>
  <rect x="10" y="10" width="582.775" height="1583" fill="#ffffff" stroke="#424242" stroke-width="1" rx="4" />
<rect x="20" y="4" width="136" height="12" fill="#ffffff" stroke="#424242" stroke-width="1" rx="3" />
<text x="24" y="13" font-size="9" fill="#212121" font-weight="bold">&lt;ch-action-list-render&gt;</text>
<rect x="12" y="30" width="578.775" height="1558" fill="none" stroke="#9e9e9e" stroke-width="1.5" stroke-dasharray="6 3" rx="3" />
<rect x="16" y="24" width="66" height="12" fill="#ffffff" rx="2" />
<text x="20" y="32" font-size="8" fill="#9e9e9e" font-family="monospace">#shadow-root</text>
<line x1="30" y1="67" x2="30" y2="1201" stroke="#546e7a" stroke-width="2" stroke-opacity="0.4" stroke-linecap="round" />
<line x1="30" y1="1240" x2="30" y2="1583" stroke="#00695c" stroke-width="2" stroke-opacity="0.4" stroke-linecap="round" />
<rect x="22" y="34" width="144.8" height="16" fill="#00695c" rx="3" />
<path d="M8 14.667a5.806 5.806 0 0 1-2.342-.475 6.1 6.1 0 0 1-1.9-1.284 6.097 6.097 0 0 1-1.283-1.9A5.804 5.804 0 0 1 2 8.667a5.8 5.8 0 0 1 .475-2.342 6.099 6.099 0 0 1 1.283-1.9 6.099 6.099 0 0 1 1.9-1.283A5.805 5.805 0 0 1 8 2.667h.1L7.533 2.1a.622.622 0 0 1-.183-.458.68.68 0 0 1 .183-.475.68.68 0 0 1 .475-.209.62.62 0 0 1 .475.192L10.2 2.867a.632.632 0 0 1 .183.466.632.632 0 0 1-.183.467L8.483 5.517a.62.62 0 0 1-.475.191.68.68 0 0 1-.475-.208.68.68 0 0 1-.183-.475c0-.183.061-.336.183-.458L8.1 4H8c-1.3 0-2.403.453-3.308 1.358-.906.906-1.359 2.009-1.359 3.309 0 1.3.453 2.402 1.359 3.308.905.906 2.008 1.358 3.308 1.358 1.178 0 2.206-.383 3.083-1.15.878-.766 1.395-1.733 1.55-2.9a.68.68 0 0 1 .234-.441.687.687 0 0 1 .466-.175c.178 0 .334.055.467.166a.44.44 0 0 1 .167.417c-.156 1.544-.8 2.833-1.934 3.867C10.9 14.15 9.556 14.667 8 14.667Z" fill="#ffffff" transform="translate(28,37) scale(0.625)" />
<text x="101.4" y="45.15" font-size="9" fill="#ffffff" font-family="monospace" text-anchor="middle">for each item in model</text>
<rect x="22" y="51" width="33.599999999999994" height="16" fill="#546e7a" rx="3" />
<text x="38.8" y="62.15" font-size="9" fill="#ffffff" font-family="monospace" text-anchor="middle">Item</text>
<rect x="34" y="74" width="546.775" height="1127" fill="#fafafa" stroke="#bdbdbd" stroke-width="1" rx="4" />
<rect x="44" y="68" width="125" height="12" fill="#fafafa" stroke="#bdbdbd" stroke-width="1" rx="3" />
<text x="48" y="77" font-size="9" fill="#424242" font-weight="bold">&lt;ch-action-list-item&gt;</text>
<rect x="36" y="94" width="542.775" height="1102" fill="none" stroke="#9e9e9e" stroke-width="1.5" stroke-dasharray="6 3" rx="3" />
<rect x="40" y="88" width="66" height="12" fill="#ffffff" rx="2" />
<text x="44" y="96" font-size="8" fill="#9e9e9e" font-family="monospace">#shadow-root</text>
<rect x="46" y="104" width="522.775" height="1087" fill="#e3f2fd" stroke="#1976d2" stroke-width="1" rx="4" />
<rect x="56" y="98" width="53" height="12" fill="#e3f2fd" stroke="#1976d2" stroke-width="1" rx="3" />
<text x="60" y="107" font-size="9" fill="#0d47a1" font-weight="bold">&lt;button&gt;</text>
<text x="56" y="123" font-size="9" fill="#666">item__action</text>
<text x="56" y="134" font-size="9" fill="#666" font-style="italic">[nested] [nested-expandable] [selectable|not-selectable] [selected|not-selected] [disabled]</text>
<line x1="64" y1="162" x2="64" y2="273" stroke="#7b1fa2" stroke-width="2" stroke-opacity="0.4" stroke-linecap="round" />
<line x1="64" y1="301" x2="64" y2="412" stroke="#7b1fa2" stroke-width="2" stroke-opacity="0.4" stroke-linecap="round" />
<line x1="64" y1="931" x2="64" y2="1042" stroke="#7b1fa2" stroke-width="2" stroke-opacity="0.4" stroke-linecap="round" />
<line x1="64" y1="1070" x2="64" y2="1181" stroke="#7b1fa2" stroke-width="2" stroke-opacity="0.4" stroke-linecap="round" />
<rect x="56" y="146" width="220.4" height="16" fill="#7b1fa2" rx="3" />
<path d="M5 0.5 L9.5 5 L5 9.5 L0.5 5 Z" fill="none" stroke="#ffffff" stroke-width="1.2" stroke-linecap="round" stroke-linejoin="round" transform="translate(62,149) scale(1)" />
<text x="173.2" y="157.15" font-size="9" fill="#ffffff" font-family="monospace" text-anchor="middle">when additionalInfo[&quot;stretch-start&quot;]</text>
<rect x="68" y="169" width="257.2" height="104" fill="#f3f0ff" stroke="#bdbdbd" stroke-width="1" rx="4" />
<rect x="78" y="163" width="36" height="12" fill="#f3f0ff" stroke="#bdbdbd" stroke-width="1" rx="3" />
<text x="82" y="172" font-size="9" fill="#424242" font-weight="bold">&lt;div&gt;</text>
<text x="78" y="188" font-size="9" fill="#666">item__stretch-start</text>
<rect x="78" y="206" width="237.2" height="57" fill="#f0f7f4" stroke="#bdbdbd" stroke-width="1" rx="4" />
<rect x="88" y="200" width="36" height="12" fill="#f0f7f4" stroke="#bdbdbd" stroke-width="1" rx="3" />
<text x="92" y="209" font-size="9" fill="#424242" font-weight="bold">&lt;div&gt;</text>
<text x="88" y="225" font-size="9" fill="#666">item__additional-item</text>
<rect x="88" y="237" width="217.2" height="16" fill="#546e7a" rx="3" />
<text x="196.6" y="248.15" font-size="9" fill="#ffffff" font-family="monospace" text-anchor="middle">Content depends on additionalItem type</text>
<rect x="56" y="285" width="209.6" height="16" fill="#7b1fa2" rx="3" />
<path d="M5 0.5 L9.5 5 L5 9.5 L0.5 5 Z" fill="none" stroke="#ffffff" stroke-width="1.2" stroke-linecap="round" stroke-linejoin="round" transform="translate(62,288) scale(1)" />
<text x="167.8" y="296.15" font-size="9" fill="#ffffff" font-family="monospace" text-anchor="middle">when additionalInfo[&quot;block-start&quot;]</text>
<rect x="68" y="308" width="257.2" height="104" fill="#f3f0ff" stroke="#bdbdbd" stroke-width="1" rx="4" />
<rect x="78" y="302" width="36" height="12" fill="#f3f0ff" stroke="#bdbdbd" stroke-width="1" rx="3" />
<text x="82" y="311" font-size="9" fill="#424242" font-weight="bold">&lt;div&gt;</text>
<text x="78" y="327" font-size="9" fill="#666">item__block-start</text>
<rect x="78" y="345" width="237.2" height="57" fill="#f0f7f4" stroke="#bdbdbd" stroke-width="1" rx="4" />
<rect x="88" y="339" width="36" height="12" fill="#f0f7f4" stroke="#bdbdbd" stroke-width="1" rx="3" />
<text x="92" y="348" font-size="9" fill="#424242" font-weight="bold">&lt;div&gt;</text>
<text x="88" y="364" font-size="9" fill="#666">item__additional-item</text>
<rect x="88" y="376" width="217.2" height="16" fill="#546e7a" rx="3" />
<text x="196.6" y="387.15" font-size="9" fill="#ffffff" font-family="monospace" text-anchor="middle">Content depends on additionalItem type</text>
<rect x="56" y="424" width="289.2" height="479" fill="#f3f0ff" stroke="#bdbdbd" stroke-width="1" rx="4" />
<rect x="66" y="418" width="36" height="12" fill="#f3f0ff" stroke="#bdbdbd" stroke-width="1" rx="3" />
<text x="70" y="427" font-size="9" fill="#424242" font-weight="bold">&lt;div&gt;</text>
<text x="66" y="443" font-size="9" fill="#666">item__inline-caption</text>
<text x="66" y="454" font-size="9" fill="#666" font-style="italic">[editing|not-editing]</text>
<line x1="74" y1="482" x2="74" y2="536" stroke="#7b1fa2" stroke-width="2" stroke-opacity="0.4" stroke-linecap="round" />
<line x1="74" y1="553" x2="74" y2="615" stroke="#7b1fa2" stroke-width="2" stroke-opacity="0.4" stroke-linecap="round" />
<line x1="74" y1="643" x2="74" y2="754" stroke="#7b1fa2" stroke-width="2" stroke-opacity="0.4" stroke-linecap="round" />
<line x1="74" y1="782" x2="74" y2="893" stroke="#7b1fa2" stroke-width="2" stroke-opacity="0.4" stroke-linecap="round" />
<rect x="66" y="466" width="90.8" height="16" fill="#7b1fa2" rx="3" />
<path d="M5 0.5 L9.5 5 L5 9.5 L0.5 5 Z" fill="none" stroke="#ffffff" stroke-width="1.2" stroke-linecap="round" stroke-linejoin="round" transform="translate(72,469) scale(1)" />
<text x="118.4" y="477.15" font-size="9" fill="#ffffff" font-family="monospace" text-anchor="middle">when editing</text>
<rect x="78" y="489" width="137" height="42" fill="#f0f7f4" stroke="#bdbdbd" stroke-width="1" rx="4" />
<rect x="88" y="483" width="58" height="12" fill="#f0f7f4" stroke="#bdbdbd" stroke-width="1" rx="3" />
<text x="92" y="492" font-size="9" fill="#424242" font-weight="bold">&lt;ch-edit&gt;</text>
<text x="88" y="508" font-size="9" fill="#666">item__edit-caption</text>
<text x="88" y="519" font-size="9" fill="#666" font-style="italic">[{parts}]</text>
<rect x="66" y="537" width="117.8" height="16" fill="#ad1457" rx="3" />
<path d="M5 0.5 L9.5 5 L5 9.5 L0.5 5 Z" fill="none" stroke="#ffffff" stroke-width="1.2" stroke-linecap="round" stroke-linejoin="round" transform="translate(72,540) scale(1)" />
<text x="131.9" y="548.15" font-size="9" fill="#ffffff" font-family="monospace" text-anchor="middle">else when caption</text>
<rect x="78" y="560" width="111" height="55" fill="#f0f7f4" stroke="#bdbdbd" stroke-width="1" rx="4" />
<rect x="88" y="554" width="42" height="12" fill="#f0f7f4" stroke="#bdbdbd" stroke-width="1" rx="3" />
<text x="92" y="563" font-size="9" fill="#424242" font-weight="bold">&lt;span&gt;</text>
<text x="88" y="579" font-size="9" fill="#666">item__caption</text>
<text x="88" y="605" font-size="9" fill="#888" font-style="italic">&quot;Caption text&quot;</text>
<rect x="66" y="627" width="161" height="16" fill="#7b1fa2" rx="3" />
<path d="M5 0.5 L9.5 5 L5 9.5 L0.5 5 Z" fill="none" stroke="#ffffff" stroke-width="1.2" stroke-linecap="round" stroke-linejoin="round" transform="translate(72,630) scale(1)" />
<text x="153.5" y="638.15" font-size="9" fill="#ffffff" font-family="monospace" text-anchor="middle">when inline-caption.start</text>
<rect x="78" y="650" width="257.2" height="104" fill="#f0f7f4" stroke="#bdbdbd" stroke-width="1" rx="4" />
<rect x="88" y="644" width="36" height="12" fill="#f0f7f4" stroke="#bdbdbd" stroke-width="1" rx="3" />
<text x="92" y="653" font-size="9" fill="#424242" font-weight="bold">&lt;div&gt;</text>
<text x="88" y="669" font-size="9" fill="#666">item__inline-caption start</text>
<rect x="88" y="687" width="237.2" height="57" fill="#fff8f0" stroke="#bdbdbd" stroke-width="1" rx="4" />
<rect x="98" y="681" width="36" height="12" fill="#fff8f0" stroke="#bdbdbd" stroke-width="1" rx="3" />
<text x="102" y="690" font-size="9" fill="#424242" font-weight="bold">&lt;div&gt;</text>
<text x="98" y="706" font-size="9" fill="#666">item__additional-item</text>
<rect x="98" y="718" width="217.2" height="16" fill="#546e7a" rx="3" />
<text x="206.6" y="729.15" font-size="9" fill="#ffffff" font-family="monospace" text-anchor="middle">Content depends on additionalItem type</text>
<rect x="66" y="766" width="150.2" height="16" fill="#7b1fa2" rx="3" />
<path d="M5 0.5 L9.5 5 L5 9.5 L0.5 5 Z" fill="none" stroke="#ffffff" stroke-width="1.2" stroke-linecap="round" stroke-linejoin="round" transform="translate(72,769) scale(1)" />
<text x="148.1" y="777.15" font-size="9" fill="#ffffff" font-family="monospace" text-anchor="middle">when inline-caption.end</text>
<rect x="78" y="789" width="257.2" height="104" fill="#f0f7f4" stroke="#bdbdbd" stroke-width="1" rx="4" />
<rect x="88" y="783" width="36" height="12" fill="#f0f7f4" stroke="#bdbdbd" stroke-width="1" rx="3" />
<text x="92" y="792" font-size="9" fill="#424242" font-weight="bold">&lt;div&gt;</text>
<text x="88" y="808" font-size="9" fill="#666">item__inline-caption end</text>
<rect x="88" y="826" width="237.2" height="57" fill="#fff8f0" stroke="#bdbdbd" stroke-width="1" rx="4" />
<rect x="98" y="820" width="36" height="12" fill="#fff8f0" stroke="#bdbdbd" stroke-width="1" rx="3" />
<text x="102" y="829" font-size="9" fill="#424242" font-weight="bold">&lt;div&gt;</text>
<text x="98" y="845" font-size="9" fill="#666">item__additional-item</text>
<rect x="98" y="857" width="217.2" height="16" fill="#546e7a" rx="3" />
<text x="206.6" y="868.15" font-size="9" fill="#ffffff" font-family="monospace" text-anchor="middle">Content depends on additionalItem type</text>
<rect x="56" y="915" width="198.79999999999998" height="16" fill="#7b1fa2" rx="3" />
<path d="M5 0.5 L9.5 5 L5 9.5 L0.5 5 Z" fill="none" stroke="#ffffff" stroke-width="1.2" stroke-linecap="round" stroke-linejoin="round" transform="translate(62,918) scale(1)" />
<text x="162.39999999999998" y="926.15" font-size="9" fill="#ffffff" font-family="monospace" text-anchor="middle">when additionalInfo[&quot;block-end&quot;]</text>
<rect x="68" y="938" width="257.2" height="104" fill="#f3f0ff" stroke="#bdbdbd" stroke-width="1" rx="4" />
<rect x="78" y="932" width="36" height="12" fill="#f3f0ff" stroke="#bdbdbd" stroke-width="1" rx="3" />
<text x="82" y="941" font-size="9" fill="#424242" font-weight="bold">&lt;div&gt;</text>
<text x="78" y="957" font-size="9" fill="#666">item__block-end</text>
<rect x="78" y="975" width="237.2" height="57" fill="#f0f7f4" stroke="#bdbdbd" stroke-width="1" rx="4" />
<rect x="88" y="969" width="36" height="12" fill="#f0f7f4" stroke="#bdbdbd" stroke-width="1" rx="3" />
<text x="92" y="978" font-size="9" fill="#424242" font-weight="bold">&lt;div&gt;</text>
<text x="88" y="994" font-size="9" fill="#666">item__additional-item</text>
<rect x="88" y="1006" width="217.2" height="16" fill="#546e7a" rx="3" />
<text x="196.6" y="1017.15" font-size="9" fill="#ffffff" font-family="monospace" text-anchor="middle">Content depends on additionalItem type</text>
<rect x="56" y="1054" width="209.6" height="16" fill="#7b1fa2" rx="3" />
<path d="M5 0.5 L9.5 5 L5 9.5 L0.5 5 Z" fill="none" stroke="#ffffff" stroke-width="1.2" stroke-linecap="round" stroke-linejoin="round" transform="translate(62,1057) scale(1)" />
<text x="167.8" y="1065.15" font-size="9" fill="#ffffff" font-family="monospace" text-anchor="middle">when additionalInfo[&quot;stretch-end&quot;]</text>
<rect x="68" y="1077" width="257.2" height="104" fill="#f3f0ff" stroke="#bdbdbd" stroke-width="1" rx="4" />
<rect x="78" y="1071" width="36" height="12" fill="#f3f0ff" stroke="#bdbdbd" stroke-width="1" rx="3" />
<text x="82" y="1080" font-size="9" fill="#424242" font-weight="bold">&lt;div&gt;</text>
<text x="78" y="1096" font-size="9" fill="#666">item__stretch-end</text>
<rect x="78" y="1114" width="237.2" height="57" fill="#f0f7f4" stroke="#bdbdbd" stroke-width="1" rx="4" />
<rect x="88" y="1108" width="36" height="12" fill="#f0f7f4" stroke="#bdbdbd" stroke-width="1" rx="3" />
<text x="92" y="1117" font-size="9" fill="#424242" font-weight="bold">&lt;div&gt;</text>
<text x="88" y="1133" font-size="9" fill="#666">item__additional-item</text>
<rect x="88" y="1145" width="217.2" height="16" fill="#546e7a" rx="3" />
<text x="196.6" y="1156.15" font-size="9" fill="#ffffff" font-family="monospace" text-anchor="middle">Content depends on additionalItem type</text>
<rect x="22" y="1207" width="39" height="16" fill="#546e7a" rx="3" />
<text x="41.5" y="1218.15" font-size="9" fill="#ffffff" font-family="monospace" text-anchor="middle">Group</text>
<rect x="22" y="1224" width="150.2" height="16" fill="#00695c" rx="3" />
<path d="M8 14.667a5.806 5.806 0 0 1-2.342-.475 6.1 6.1 0 0 1-1.9-1.284 6.097 6.097 0 0 1-1.283-1.9A5.804 5.804 0 0 1 2 8.667a5.8 5.8 0 0 1 .475-2.342 6.099 6.099 0 0 1 1.283-1.9 6.099 6.099 0 0 1 1.9-1.283A5.805 5.805 0 0 1 8 2.667h.1L7.533 2.1a.622.622 0 0 1-.183-.458.68.68 0 0 1 .183-.475.68.68 0 0 1 .475-.209.62.62 0 0 1 .475.192L10.2 2.867a.632.632 0 0 1 .183.466.632.632 0 0 1-.183.467L8.483 5.517a.62.62 0 0 1-.475.191.68.68 0 0 1-.475-.208.68.68 0 0 1-.183-.475c0-.183.061-.336.183-.458L8.1 4H8c-1.3 0-2.403.453-3.308 1.358-.906.906-1.359 2.009-1.359 3.309 0 1.3.453 2.402 1.359 3.308.905.906 2.008 1.358 3.308 1.358 1.178 0 2.206-.383 3.083-1.15.878-.766 1.395-1.733 1.55-2.9a.68.68 0 0 1 .234-.441.687.687 0 0 1 .466-.175c.178 0 .334.055.467.166a.44.44 0 0 1 .167.417c-.156 1.544-.8 2.833-1.934 3.867C10.9 14.15 9.556 14.667 8 14.667Z" fill="#ffffff" transform="translate(28,1227) scale(0.625)" />
<text x="104.1" y="1235.15" font-size="9" fill="#ffffff" font-family="monospace" text-anchor="middle">for each group in model</text>
<rect x="34" y="1247" width="243.85" height="336" fill="#fafafa" stroke="#bdbdbd" stroke-width="1" rx="4" />
<rect x="44" y="1241" width="130" height="12" fill="#fafafa" stroke="#bdbdbd" stroke-width="1" rx="3" />
<text x="48" y="1250" font-size="9" fill="#424242" font-weight="bold">&lt;ch-action-list-group&gt;</text>
<rect x="36" y="1267" width="239.85" height="311" fill="none" stroke="#9e9e9e" stroke-width="1.5" stroke-dasharray="6 3" rx="3" />
<rect x="40" y="1261" width="66" height="12" fill="#ffffff" rx="2" />
<text x="44" y="1269" font-size="8" fill="#9e9e9e" font-family="monospace">#shadow-root</text>
<line x1="54" y1="1287" x2="54" y2="1365" stroke="#7b1fa2" stroke-width="2" stroke-opacity="0.4" stroke-linecap="round" />
<line x1="54" y1="1382" x2="54" y2="1455" stroke="#ad1457" stroke-width="2" stroke-opacity="0.4" stroke-linecap="round" />
<line x1="54" y1="1483" x2="54" y2="1573" stroke="#7b1fa2" stroke-width="2" stroke-opacity="0.4" stroke-linecap="round" />
<rect x="46" y="1271" width="107" height="16" fill="#7b1fa2" rx="3" />
<path d="M5 0.5 L9.5 5 L5 9.5 L0.5 5 Z" fill="none" stroke="#ffffff" stroke-width="1.2" stroke-linecap="round" stroke-linejoin="round" transform="translate(52,1274) scale(1)" />
<text x="106.5" y="1282.15" font-size="9" fill="#ffffff" font-family="monospace" text-anchor="middle">when expandable</text>
<rect x="58" y="1294" width="207.85" height="66" fill="#e3f2fd" stroke="#1976d2" stroke-width="1" rx="4" />
<rect x="68" y="1288" width="53" height="12" fill="#e3f2fd" stroke="#1976d2" stroke-width="1" rx="3" />
<text x="72" y="1297" font-size="9" fill="#0d47a1" font-weight="bold">&lt;button&gt;</text>
<text x="68" y="1313" font-size="9" fill="#666">group__action</text>
<text x="68" y="1324" font-size="9" fill="#666" font-style="italic">[selected|not-selected] [disabled]</text>
<text x="68" y="1350" font-size="9" fill="#888" font-style="italic">&quot;Caption text&quot;</text>
<rect x="46" y="1366" width="139.39999999999998" height="16" fill="#ad1457" rx="3" />
<path d="M5 0.5 L9.5 5 L5 9.5 L0.5 5 Z" fill="none" stroke="#ffffff" stroke-width="1.2" stroke-linecap="round" stroke-linejoin="round" transform="translate(52,1369) scale(1)" />
<text x="122.69999999999999" y="1377.15" font-size="9" fill="#ffffff" font-family="monospace" text-anchor="middle">else (not expandable)</text>
<rect x="58" y="1389" width="111" height="66" fill="#f3f0ff" stroke="#bdbdbd" stroke-width="1" rx="4" />
<rect x="68" y="1383" width="42" height="12" fill="#f3f0ff" stroke="#bdbdbd" stroke-width="1" rx="3" />
<text x="72" y="1392" font-size="9" fill="#424242" font-weight="bold">&lt;span&gt;</text>
<text x="68" y="1408" font-size="9" fill="#666">group__caption</text>
<text x="68" y="1419" font-size="9" fill="#666" font-style="italic">[disabled]</text>
<text x="68" y="1445" font-size="9" fill="#888" font-style="italic">&quot;Caption text&quot;</text>
<rect x="46" y="1467" width="107" height="16" fill="#7b1fa2" rx="3" />
<path d="M5 0.5 L9.5 5 L5 9.5 L0.5 5 Z" fill="none" stroke="#ffffff" stroke-width="1.2" stroke-linecap="round" stroke-linejoin="round" transform="translate(52,1470) scale(1)" />
<text x="106.5" y="1478.15" font-size="9" fill="#ffffff" font-family="monospace" text-anchor="middle">when hasContent</text>
<rect x="58" y="1490" width="207.85" height="83" fill="#f3f0ff" stroke="#bdbdbd" stroke-width="1" rx="4" />
<rect x="68" y="1484" width="31" height="12" fill="#f3f0ff" stroke="#bdbdbd" stroke-width="1" rx="3" />
<text x="72" y="1493" font-size="9" fill="#424242" font-weight="bold">&lt;ul&gt;</text>
<text x="68" y="1509" font-size="9" fill="#666">group__expandable</text>
<text x="68" y="1520" font-size="9" fill="#666" font-style="italic">[expanded|collapsed] [lazy-loaded]</text>
<rect x="68" y="1532" width="53.15" height="31" fill="#fff8e1" stroke="#f57f17" stroke-width="1.5" stroke-dasharray="4 2" rx="4" />
<text x="74" y="1551" font-size="9" fill="#e65100" font-weight="bold">&lt;slot&gt;</text>
<rect x="618.775" y="10" width="211" height="190" fill="none" stroke="#bdbdbd" stroke-width="1" rx="4" />
<text x="628.775" y="24" font-size="10" fill="#424242" font-weight="bold">Legend</text>
<line x1="628.775" y1="38" x2="652.775" y2="38" stroke="#9e9e9e" stroke-width="1.5" stroke-dasharray="4 2" />
<text x="674.775" y="42" font-size="8" fill="#666">#shadow-root</text>
<rect x="628.775" y="48" width="12" height="12" fill="#7b1fa2" rx="2" />
<path d="M5 0.5 L9.5 5 L5 9.5 L0.5 5 Z" fill="none" stroke="#fff" stroke-width="1.2" stroke-linecap="round" stroke-linejoin="round" transform="translate(629.775,49) scale(1)" />
<text x="674.775" y="58" font-size="8" fill="#666">condition (when / else)</text>
<rect x="628.775" y="64" width="12" height="12" fill="#00695c" rx="2" />
<path d="M8 14.667a5.806 5.806 0 0 1-2.342-.475 6.1 6.1 0 0 1-1.9-1.284 6.097 6.097 0 0 1-1.283-1.9A5.804 5.804 0 0 1 2 8.667a5.8 5.8 0 0 1 .475-2.342 6.099 6.099 0 0 1 1.283-1.9 6.099 6.099 0 0 1 1.9-1.283A5.805 5.805 0 0 1 8 2.667h.1L7.533 2.1a.622.622 0 0 1-.183-.458.68.68 0 0 1 .183-.475.68.68 0 0 1 .475-.209.62.62 0 0 1 .475.192L10.2 2.867a.632.632 0 0 1 .183.466.632.632 0 0 1-.183.467L8.483 5.517a.62.62 0 0 1-.475.191.68.68 0 0 1-.475-.208.68.68 0 0 1-.183-.475c0-.183.061-.336.183-.458L8.1 4H8c-1.3 0-2.403.453-3.308 1.358-.906.906-1.359 2.009-1.359 3.309 0 1.3.453 2.402 1.359 3.308.905.906 2.008 1.358 3.308 1.358 1.178 0 2.206-.383 3.083-1.15.878-.766 1.395-1.733 1.55-2.9a.68.68 0 0 1 .234-.441.687.687 0 0 1 .466-.175c.178 0 .334.055.467.166a.44.44 0 0 1 .167.417c-.156 1.544-.8 2.833-1.934 3.867C10.9 14.15 9.556 14.667 8 14.667Z" fill="#fff" transform="translate(629.775,65) scale(0.625)" />
<text x="674.775" y="74" font-size="8" fill="#666">iteration (for each)</text>
<rect x="628.775" y="80" width="12" height="12" fill="#546e7a" rx="2" />
<text x="674.775" y="90" font-size="8" fill="#666">descriptive comment</text>
<rect x="628.775" y="96" width="20" height="12" fill="#fff8e1" stroke="#f57f17" stroke-width="1" stroke-dasharray="3 1.5" rx="2" />
<text x="674.775" y="106" font-size="8" fill="#666">slot</text>
<rect x="628.775" y="112" width="12" height="12" fill="#0277bd" rx="2" />
<path d="M10.817 8.664H3.642a.613.613 0 0 1-.457-.19.647.647 0 0 1-.185-.47c0-.187.062-.343.185-.47a.613.613 0 0 1 .457-.19h7.175l-3.146-3.23a.613.613 0 0 1-.185-.462.668.668 0 0 1 .65-.651.58.58 0 0 1 .45.189l4.237 4.353c.065.066.11.137.137.214a.75.75 0 0 1 .04.247.75.75 0 0 1-.04.248.581.581 0 0 1-.137.214l-4.237 4.353a.59.59 0 0 1-.442.181.645.645 0 0 1-.457-.181.65.65 0 0 1-.193-.47.65.65 0 0 1 .193-.47l3.13-3.215Z" fill="#fff" transform="translate(629.775,113) scale(0.625)" />
<text x="674.775" y="122" font-size="8" fill="#666">projected content (light DOM)</text>
<text x="628.775" y="138" font-size="9" fill="#666">part</text>
<text x="674.775" y="138" font-size="8" fill="#666">static part</text>
<text x="628.775" y="154" font-size="9" fill="#666" font-style="italic">[part]</text>
<text x="674.775" y="154" font-size="8" fill="#666">conditional part</text>
<text x="628.775" y="170" font-size="9" fill="#666" font-style="italic">{part}</text>
<text x="674.775" y="170" font-size="8" fill="#666">dynamic part</text>
<text x="628.775" y="186" font-size="9" fill="#666" font-style="italic">[{part}]</text>
<text x="674.775" y="186" font-size="8" fill="#666">conditional dynamic part</text>

</svg>
