<?xml version="1.0" encoding="UTF-8"?>
<svg xmlns="http://www.w3.org/2000/svg"
     viewBox="0 0 839.775 1667"
     width="839.775" height="1667"
     font-family="monospace, Consolas">
  <style>
    text { dominant-baseline: auto; }
  </style>
  <rect x="10" y="10" width="582.775" height="1647" fill="#ffffff" stroke="#424242" stroke-width="1" rx="4" />
<rect x="20" y="4" width="136" height="12" fill="#ffffff" stroke="#424242" stroke-width="1" rx="3" />
<text x="24" y="13" font-size="9" fill="#212121" font-weight="bold">&lt;ch-action-list-render&gt;</text>
<rect x="12" y="41" width="578.775" height="1611" fill="none" stroke="#9e9e9e" stroke-width="1.5" stroke-dasharray="6 3" rx="3" />
<rect x="16" y="35" width="66" height="12" fill="#ffffff" rx="2" />
<text x="20" y="43" font-size="8" fill="#9e9e9e" font-family="monospace">#shadow-root</text>
<text x="20" y="29" font-size="9" fill="#1565c0" font-style="italic">aria-multiselectable=&quot;{multiSelection}&quot;</text>
<line x1="30" y1="88" x2="30" y2="1243" stroke="#546e7a" stroke-width="2" stroke-opacity="0.4" stroke-linecap="round" />
<line x1="30" y1="1282" x2="30" y2="1647" stroke="#00695c" stroke-width="2" stroke-opacity="0.4" stroke-linecap="round" />
<rect x="22" y="55" width="144.8" height="16" fill="#00695c" rx="3" />
<path d="M8 14.667a5.806 5.806 0 0 1-2.342-.475 6.1 6.1 0 0 1-1.9-1.284 6.097 6.097 0 0 1-1.283-1.9A5.804 5.804 0 0 1 2 8.667a5.8 5.8 0 0 1 .475-2.342 6.099 6.099 0 0 1 1.283-1.9 6.099 6.099 0 0 1 1.9-1.283A5.805 5.805 0 0 1 8 2.667h.1L7.533 2.1a.622.622 0 0 1-.183-.458.68.68 0 0 1 .183-.475.68.68 0 0 1 .475-.209.62.62 0 0 1 .475.192L10.2 2.867a.632.632 0 0 1 .183.466.632.632 0 0 1-.183.467L8.483 5.517a.62.62 0 0 1-.475.191.68.68 0 0 1-.475-.208.68.68 0 0 1-.183-.475c0-.183.061-.336.183-.458L8.1 4H8c-1.3 0-2.403.453-3.308 1.358-.906.906-1.359 2.009-1.359 3.309 0 1.3.453 2.402 1.359 3.308.905.906 2.008 1.358 3.308 1.358 1.178 0 2.206-.383 3.083-1.15.878-.766 1.395-1.733 1.55-2.9a.68.68 0 0 1 .234-.441.687.687 0 0 1 .466-.175c.178 0 .334.055.467.166a.44.44 0 0 1 .167.417c-.156 1.544-.8 2.833-1.934 3.867C10.9 14.15 9.556 14.667 8 14.667Z" fill="#ffffff" transform="translate(28,58) scale(0.625)" />
<text x="101.4" y="66.15" font-size="9" fill="#ffffff" font-family="monospace" text-anchor="middle">for each item in model</text>
<rect x="22" y="72" width="33.599999999999994" height="16" fill="#546e7a" rx="3" />
<text x="38.8" y="83.15" font-size="9" fill="#ffffff" font-family="monospace" text-anchor="middle">Item</text>
<rect x="34" y="95" width="546.775" height="1148" fill="#fafafa" stroke="#bdbdbd" stroke-width="1" rx="4" />
<rect x="44" y="89" width="125" height="12" fill="#fafafa" stroke="#bdbdbd" stroke-width="1" rx="3" />
<text x="48" y="98" font-size="9" fill="#424242" font-weight="bold">&lt;ch-action-list-item&gt;</text>
<rect x="36" y="126" width="542.775" height="1112" fill="none" stroke="#9e9e9e" stroke-width="1.5" stroke-dasharray="6 3" rx="3" />
<rect x="40" y="120" width="66" height="12" fill="#ffffff" rx="2" />
<text x="44" y="128" font-size="8" fill="#9e9e9e" font-family="monospace">#shadow-root</text>
<text x="44" y="114" font-size="9" fill="#1565c0" font-style="italic">aria-selected=&quot;{selected}&quot;</text>
<rect x="46" y="146" width="522.775" height="1087" fill="#e3f2fd" stroke="#1976d2" stroke-width="1" rx="4" />
<rect x="56" y="140" width="53" height="12" fill="#e3f2fd" stroke="#1976d2" stroke-width="1" rx="3" />
<text x="60" y="149" font-size="9" fill="#0d47a1" font-weight="bold">&lt;button&gt;</text>
<text x="56" y="165" font-size="9" fill="#666">item__action</text>
<text x="56" y="176" font-size="9" fill="#666" font-style="italic">[nested] [nested-expandable] [selectable|not-selectable] [selected|not-selected] [disabled]</text>
<line x1="64" y1="204" x2="64" y2="315" stroke="#7b1fa2" stroke-width="2" stroke-opacity="0.4" stroke-linecap="round" />
<line x1="64" y1="343" x2="64" y2="454" stroke="#7b1fa2" stroke-width="2" stroke-opacity="0.4" stroke-linecap="round" />
<line x1="64" y1="973" x2="64" y2="1084" stroke="#7b1fa2" stroke-width="2" stroke-opacity="0.4" stroke-linecap="round" />
<line x1="64" y1="1112" x2="64" y2="1223" stroke="#7b1fa2" stroke-width="2" stroke-opacity="0.4" stroke-linecap="round" />
<rect x="56" y="188" width="220.4" height="16" fill="#7b1fa2" rx="3" />
<path d="M5 0.5 L9.5 5 L5 9.5 L0.5 5 Z" fill="none" stroke="#ffffff" stroke-width="1.2" stroke-linecap="round" stroke-linejoin="round" transform="translate(62,191) scale(1)" />
<text x="173.2" y="199.15" font-size="9" fill="#ffffff" font-family="monospace" text-anchor="middle">when additionalInfo[&quot;stretch-start&quot;]</text>
<rect x="68" y="211" width="257.2" height="104" fill="#f3f0ff" stroke="#bdbdbd" stroke-width="1" rx="4" />
<rect x="78" y="205" width="36" height="12" fill="#f3f0ff" stroke="#bdbdbd" stroke-width="1" rx="3" />
<text x="82" y="214" font-size="9" fill="#424242" font-weight="bold">&lt;div&gt;</text>
<text x="78" y="230" font-size="9" fill="#666">item__stretch-start</text>
<rect x="78" y="248" width="237.2" height="57" fill="#f0f7f4" stroke="#bdbdbd" stroke-width="1" rx="4" />
<rect x="88" y="242" width="36" height="12" fill="#f0f7f4" stroke="#bdbdbd" stroke-width="1" rx="3" />
<text x="92" y="251" font-size="9" fill="#424242" font-weight="bold">&lt;div&gt;</text>
<text x="88" y="267" font-size="9" fill="#666">item__additional-item</text>
<rect x="88" y="279" width="217.2" height="16" fill="#546e7a" rx="3" />
<text x="196.6" y="290.15" font-size="9" fill="#ffffff" font-family="monospace" text-anchor="middle">Content depends on additionalItem type</text>
<rect x="56" y="327" width="209.6" height="16" fill="#7b1fa2" rx="3" />
<path d="M5 0.5 L9.5 5 L5 9.5 L0.5 5 Z" fill="none" stroke="#ffffff" stroke-width="1.2" stroke-linecap="round" stroke-linejoin="round" transform="translate(62,330) scale(1)" />
<text x="167.8" y="338.15" font-size="9" fill="#ffffff" font-family="monospace" text-anchor="middle">when additionalInfo[&quot;block-start&quot;]</text>
<rect x="68" y="350" width="257.2" height="104" fill="#f3f0ff" stroke="#bdbdbd" stroke-width="1" rx="4" />
<rect x="78" y="344" width="36" height="12" fill="#f3f0ff" stroke="#bdbdbd" stroke-width="1" rx="3" />
<text x="82" y="353" font-size="9" fill="#424242" font-weight="bold">&lt;div&gt;</text>
<text x="78" y="369" font-size="9" fill="#666">item__block-start</text>
<rect x="78" y="387" width="237.2" height="57" fill="#f0f7f4" stroke="#bdbdbd" stroke-width="1" rx="4" />
<rect x="88" y="381" width="36" height="12" fill="#f0f7f4" stroke="#bdbdbd" stroke-width="1" rx="3" />
<text x="92" y="390" font-size="9" fill="#424242" font-weight="bold">&lt;div&gt;</text>
<text x="88" y="406" font-size="9" fill="#666">item__additional-item</text>
<rect x="88" y="418" width="217.2" height="16" fill="#546e7a" rx="3" />
<text x="196.6" y="429.15" font-size="9" fill="#ffffff" font-family="monospace" text-anchor="middle">Content depends on additionalItem type</text>
<rect x="56" y="466" width="289.2" height="479" fill="#f3f0ff" stroke="#bdbdbd" stroke-width="1" rx="4" />
<rect x="66" y="460" width="36" height="12" fill="#f3f0ff" stroke="#bdbdbd" stroke-width="1" rx="3" />
<text x="70" y="469" font-size="9" fill="#424242" font-weight="bold">&lt;div&gt;</text>
<text x="66" y="485" font-size="9" fill="#666">item__inline-caption</text>
<text x="66" y="496" font-size="9" fill="#666" font-style="italic">[editing|not-editing]</text>
<line x1="74" y1="524" x2="74" y2="578" stroke="#7b1fa2" stroke-width="2" stroke-opacity="0.4" stroke-linecap="round" />
<line x1="74" y1="595" x2="74" y2="657" stroke="#7b1fa2" stroke-width="2" stroke-opacity="0.4" stroke-linecap="round" />
<line x1="74" y1="685" x2="74" y2="796" stroke="#7b1fa2" stroke-width="2" stroke-opacity="0.4" stroke-linecap="round" />
<line x1="74" y1="824" x2="74" y2="935" stroke="#7b1fa2" stroke-width="2" stroke-opacity="0.4" stroke-linecap="round" />
<rect x="66" y="508" width="90.8" height="16" fill="#7b1fa2" rx="3" />
<path d="M5 0.5 L9.5 5 L5 9.5 L0.5 5 Z" fill="none" stroke="#ffffff" stroke-width="1.2" stroke-linecap="round" stroke-linejoin="round" transform="translate(72,511) scale(1)" />
<text x="118.4" y="519.15" font-size="9" fill="#ffffff" font-family="monospace" text-anchor="middle">when editing</text>
<rect x="78" y="531" width="137" height="42" fill="#f0f7f4" stroke="#bdbdbd" stroke-width="1" rx="4" />
<rect x="88" y="525" width="58" height="12" fill="#f0f7f4" stroke="#bdbdbd" stroke-width="1" rx="3" />
<text x="92" y="534" font-size="9" fill="#424242" font-weight="bold">&lt;ch-edit&gt;</text>
<text x="88" y="550" font-size="9" fill="#666">item__edit-caption</text>
<text x="88" y="561" font-size="9" fill="#666" font-style="italic">[{parts}]</text>
<rect x="66" y="579" width="117.8" height="16" fill="#ad1457" rx="3" />
<path d="M5 0.5 L9.5 5 L5 9.5 L0.5 5 Z" fill="none" stroke="#ffffff" stroke-width="1.2" stroke-linecap="round" stroke-linejoin="round" transform="translate(72,582) scale(1)" />
<text x="131.9" y="590.15" font-size="9" fill="#ffffff" font-family="monospace" text-anchor="middle">else when caption</text>
<rect x="78" y="602" width="111" height="55" fill="#f0f7f4" stroke="#bdbdbd" stroke-width="1" rx="4" />
<rect x="88" y="596" width="42" height="12" fill="#f0f7f4" stroke="#bdbdbd" stroke-width="1" rx="3" />
<text x="92" y="605" font-size="9" fill="#424242" font-weight="bold">&lt;span&gt;</text>
<text x="88" y="621" font-size="9" fill="#666">item__caption</text>
<text x="88" y="647" font-size="9" fill="#888" font-style="italic">&quot;Caption text&quot;</text>
<rect x="66" y="669" width="161" height="16" fill="#7b1fa2" rx="3" />
<path d="M5 0.5 L9.5 5 L5 9.5 L0.5 5 Z" fill="none" stroke="#ffffff" stroke-width="1.2" stroke-linecap="round" stroke-linejoin="round" transform="translate(72,672) scale(1)" />
<text x="153.5" y="680.15" font-size="9" fill="#ffffff" font-family="monospace" text-anchor="middle">when inline-caption.start</text>
<rect x="78" y="692" width="257.2" height="104" fill="#f0f7f4" stroke="#bdbdbd" stroke-width="1" rx="4" />
<rect x="88" y="686" width="36" height="12" fill="#f0f7f4" stroke="#bdbdbd" stroke-width="1" rx="3" />
<text x="92" y="695" font-size="9" fill="#424242" font-weight="bold">&lt;div&gt;</text>
<text x="88" y="711" font-size="9" fill="#666">item__inline-caption start</text>
<rect x="88" y="729" width="237.2" height="57" fill="#fff8f0" stroke="#bdbdbd" stroke-width="1" rx="4" />
<rect x="98" y="723" width="36" height="12" fill="#fff8f0" stroke="#bdbdbd" stroke-width="1" rx="3" />
<text x="102" y="732" font-size="9" fill="#424242" font-weight="bold">&lt;div&gt;</text>
<text x="98" y="748" font-size="9" fill="#666">item__additional-item</text>
<rect x="98" y="760" width="217.2" height="16" fill="#546e7a" rx="3" />
<text x="206.6" y="771.15" font-size="9" fill="#ffffff" font-family="monospace" text-anchor="middle">Content depends on additionalItem type</text>
<rect x="66" y="808" width="150.2" height="16" fill="#7b1fa2" rx="3" />
<path d="M5 0.5 L9.5 5 L5 9.5 L0.5 5 Z" fill="none" stroke="#ffffff" stroke-width="1.2" stroke-linecap="round" stroke-linejoin="round" transform="translate(72,811) scale(1)" />
<text x="148.1" y="819.15" font-size="9" fill="#ffffff" font-family="monospace" text-anchor="middle">when inline-caption.end</text>
<rect x="78" y="831" width="257.2" height="104" fill="#f0f7f4" stroke="#bdbdbd" stroke-width="1" rx="4" />
<rect x="88" y="825" width="36" height="12" fill="#f0f7f4" stroke="#bdbdbd" stroke-width="1" rx="3" />
<text x="92" y="834" font-size="9" fill="#424242" font-weight="bold">&lt;div&gt;</text>
<text x="88" y="850" font-size="9" fill="#666">item__inline-caption end</text>
<rect x="88" y="868" width="237.2" height="57" fill="#fff8f0" stroke="#bdbdbd" stroke-width="1" rx="4" />
<rect x="98" y="862" width="36" height="12" fill="#fff8f0" stroke="#bdbdbd" stroke-width="1" rx="3" />
<text x="102" y="871" font-size="9" fill="#424242" font-weight="bold">&lt;div&gt;</text>
<text x="98" y="887" font-size="9" fill="#666">item__additional-item</text>
<rect x="98" y="899" width="217.2" height="16" fill="#546e7a" rx="3" />
<text x="206.6" y="910.15" font-size="9" fill="#ffffff" font-family="monospace" text-anchor="middle">Content depends on additionalItem type</text>
<rect x="56" y="957" width="198.79999999999998" height="16" fill="#7b1fa2" rx="3" />
<path d="M5 0.5 L9.5 5 L5 9.5 L0.5 5 Z" fill="none" stroke="#ffffff" stroke-width="1.2" stroke-linecap="round" stroke-linejoin="round" transform="translate(62,960) scale(1)" />
<text x="162.39999999999998" y="968.15" font-size="9" fill="#ffffff" font-family="monospace" text-anchor="middle">when additionalInfo[&quot;block-end&quot;]</text>
<rect x="68" y="980" width="257.2" height="104" fill="#f3f0ff" stroke="#bdbdbd" stroke-width="1" rx="4" />
<rect x="78" y="974" width="36" height="12" fill="#f3f0ff" stroke="#bdbdbd" stroke-width="1" rx="3" />
<text x="82" y="983" font-size="9" fill="#424242" font-weight="bold">&lt;div&gt;</text>
<text x="78" y="999" font-size="9" fill="#666">item__block-end</text>
<rect x="78" y="1017" width="237.2" height="57" fill="#f0f7f4" stroke="#bdbdbd" stroke-width="1" rx="4" />
<rect x="88" y="1011" width="36" height="12" fill="#f0f7f4" stroke="#bdbdbd" stroke-width="1" rx="3" />
<text x="92" y="1020" font-size="9" fill="#424242" font-weight="bold">&lt;div&gt;</text>
<text x="88" y="1036" font-size="9" fill="#666">item__additional-item</text>
<rect x="88" y="1048" width="217.2" height="16" fill="#546e7a" rx="3" />
<text x="196.6" y="1059.15" font-size="9" fill="#ffffff" font-family="monospace" text-anchor="middle">Content depends on additionalItem type</text>
<rect x="56" y="1096" width="209.6" height="16" fill="#7b1fa2" rx="3" />
<path d="M5 0.5 L9.5 5 L5 9.5 L0.5 5 Z" fill="none" stroke="#ffffff" stroke-width="1.2" stroke-linecap="round" stroke-linejoin="round" transform="translate(62,1099) scale(1)" />
<text x="167.8" y="1107.15" font-size="9" fill="#ffffff" font-family="monospace" text-anchor="middle">when additionalInfo[&quot;stretch-end&quot;]</text>
<rect x="68" y="1119" width="257.2" height="104" fill="#f3f0ff" stroke="#bdbdbd" stroke-width="1" rx="4" />
<rect x="78" y="1113" width="36" height="12" fill="#f3f0ff" stroke="#bdbdbd" stroke-width="1" rx="3" />
<text x="82" y="1122" font-size="9" fill="#424242" font-weight="bold">&lt;div&gt;</text>
<text x="78" y="1138" font-size="9" fill="#666">item__stretch-end</text>
<rect x="78" y="1156" width="237.2" height="57" fill="#f0f7f4" stroke="#bdbdbd" stroke-width="1" rx="4" />
<rect x="88" y="1150" width="36" height="12" fill="#f0f7f4" stroke="#bdbdbd" stroke-width="1" rx="3" />
<text x="92" y="1159" font-size="9" fill="#424242" font-weight="bold">&lt;div&gt;</text>
<text x="88" y="1175" font-size="9" fill="#666">item__additional-item</text>
<rect x="88" y="1187" width="217.2" height="16" fill="#546e7a" rx="3" />
<text x="196.6" y="1198.15" font-size="9" fill="#ffffff" font-family="monospace" text-anchor="middle">Content depends on additionalItem type</text>
<rect x="22" y="1249" width="39" height="16" fill="#546e7a" rx="3" />
<text x="41.5" y="1260.15" font-size="9" fill="#ffffff" font-family="monospace" text-anchor="middle">Group</text>
<rect x="22" y="1266" width="150.2" height="16" fill="#00695c" rx="3" />
<path d="M8 14.667a5.806 5.806 0 0 1-2.342-.475 6.1 6.1 0 0 1-1.9-1.284 6.097 6.097 0 0 1-1.283-1.9A5.804 5.804 0 0 1 2 8.667a5.8 5.8 0 0 1 .475-2.342 6.099 6.099 0 0 1 1.283-1.9 6.099 6.099 0 0 1 1.9-1.283A5.805 5.805 0 0 1 8 2.667h.1L7.533 2.1a.622.622 0 0 1-.183-.458.68.68 0 0 1 .183-.475.68.68 0 0 1 .475-.209.62.62 0 0 1 .475.192L10.2 2.867a.632.632 0 0 1 .183.466.632.632 0 0 1-.183.467L8.483 5.517a.62.62 0 0 1-.475.191.68.68 0 0 1-.475-.208.68.68 0 0 1-.183-.475c0-.183.061-.336.183-.458L8.1 4H8c-1.3 0-2.403.453-3.308 1.358-.906.906-1.359 2.009-1.359 3.309 0 1.3.453 2.402 1.359 3.308.905.906 2.008 1.358 3.308 1.358 1.178 0 2.206-.383 3.083-1.15.878-.766 1.395-1.733 1.55-2.9a.68.68 0 0 1 .234-.441.687.687 0 0 1 .466-.175c.178 0 .334.055.467.166a.44.44 0 0 1 .167.417c-.156 1.544-.8 2.833-1.934 3.867C10.9 14.15 9.556 14.667 8 14.667Z" fill="#ffffff" transform="translate(28,1269) scale(0.625)" />
<text x="104.1" y="1277.15" font-size="9" fill="#ffffff" font-family="monospace" text-anchor="middle">for each group in model</text>
<rect x="34" y="1289" width="319.25" height="358" fill="#fafafa" stroke="#bdbdbd" stroke-width="1" rx="4" />
<rect x="44" y="1283" width="130" height="12" fill="#fafafa" stroke="#bdbdbd" stroke-width="1" rx="3" />
<text x="48" y="1292" font-size="9" fill="#424242" font-weight="bold">&lt;ch-action-list-group&gt;</text>
<rect x="36" y="1309" width="315.25" height="333" fill="none" stroke="#9e9e9e" stroke-width="1.5" stroke-dasharray="6 3" rx="3" />
<rect x="40" y="1303" width="66" height="12" fill="#ffffff" rx="2" />
<text x="44" y="1311" font-size="8" fill="#9e9e9e" font-family="monospace">#shadow-root</text>
<line x1="54" y1="1329" x2="54" y2="1418" stroke="#7b1fa2" stroke-width="2" stroke-opacity="0.4" stroke-linecap="round" />
<line x1="54" y1="1435" x2="54" y2="1508" stroke="#ad1457" stroke-width="2" stroke-opacity="0.4" stroke-linecap="round" />
<line x1="54" y1="1536" x2="54" y2="1637" stroke="#7b1fa2" stroke-width="2" stroke-opacity="0.4" stroke-linecap="round" />
<rect x="46" y="1313" width="107" height="16" fill="#7b1fa2" rx="3" />
<path d="M5 0.5 L9.5 5 L5 9.5 L0.5 5 Z" fill="none" stroke="#ffffff" stroke-width="1.2" stroke-linecap="round" stroke-linejoin="round" transform="translate(52,1316) scale(1)" />
<text x="106.5" y="1324.15" font-size="9" fill="#ffffff" font-family="monospace" text-anchor="middle">when expandable</text>
<rect x="58" y="1336" width="283.25" height="77" fill="#e3f2fd" stroke="#1976d2" stroke-width="1" rx="4" />
<rect x="68" y="1330" width="53" height="12" fill="#e3f2fd" stroke="#1976d2" stroke-width="1" rx="3" />
<text x="72" y="1339" font-size="9" fill="#0d47a1" font-weight="bold">&lt;button&gt;</text>
<text x="68" y="1355" font-size="9" fill="#666">group__action</text>
<text x="68" y="1366" font-size="9" fill="#666" font-style="italic">[selected|not-selected] [disabled]</text>
<text x="68" y="1377" font-size="9" fill="#1565c0" font-style="italic">aria-expanded=&quot;{expanded}&quot;  aria-controls=&quot;expandable&quot;</text>
<text x="68" y="1403" font-size="9" fill="#888" font-style="italic">&quot;Caption text&quot;</text>
<rect x="46" y="1419" width="139.39999999999998" height="16" fill="#ad1457" rx="3" />
<path d="M5 0.5 L9.5 5 L5 9.5 L0.5 5 Z" fill="none" stroke="#ffffff" stroke-width="1.2" stroke-linecap="round" stroke-linejoin="round" transform="translate(52,1422) scale(1)" />
<text x="122.69999999999999" y="1430.15" font-size="9" fill="#ffffff" font-family="monospace" text-anchor="middle">else (not expandable)</text>
<rect x="58" y="1442" width="111" height="66" fill="#f3f0ff" stroke="#bdbdbd" stroke-width="1" rx="4" />
<rect x="68" y="1436" width="42" height="12" fill="#f3f0ff" stroke="#bdbdbd" stroke-width="1" rx="3" />
<text x="72" y="1445" font-size="9" fill="#424242" font-weight="bold">&lt;span&gt;</text>
<text x="68" y="1461" font-size="9" fill="#666">group__caption</text>
<text x="68" y="1472" font-size="9" fill="#666" font-style="italic">[disabled]</text>
<text x="68" y="1498" font-size="9" fill="#888" font-style="italic">&quot;Caption text&quot;</text>
<rect x="46" y="1520" width="107" height="16" fill="#7b1fa2" rx="3" />
<path d="M5 0.5 L9.5 5 L5 9.5 L0.5 5 Z" fill="none" stroke="#ffffff" stroke-width="1.2" stroke-linecap="round" stroke-linejoin="round" transform="translate(52,1523) scale(1)" />
<text x="106.5" y="1531.15" font-size="9" fill="#ffffff" font-family="monospace" text-anchor="middle">when hasContent</text>
<rect x="58" y="1543" width="207.85" height="94" fill="#f3f0ff" stroke="#bdbdbd" stroke-width="1" rx="4" />
<rect x="68" y="1537" width="119" height="12" fill="#f3f0ff" stroke="#bdbdbd" stroke-width="1" rx="3" />
<text x="72" y="1546" font-size="9" fill="#424242" font-weight="bold">&lt;ul id=&quot;expandable&quot;&gt;</text>
<text x="68" y="1562" font-size="9" fill="#666">group__expandable</text>
<text x="68" y="1573" font-size="9" fill="#666" font-style="italic">[expanded|collapsed] [lazy-loaded]</text>
<text x="68" y="1584" font-size="9" fill="#1565c0" font-style="italic">aria-busy=&quot;{downloading}&quot;</text>
<rect x="68" y="1596" width="53.15" height="31" fill="#fff8e1" stroke="#f57f17" stroke-width="1.5" stroke-dasharray="4 2" rx="4" />
<text x="74" y="1615" font-size="9" fill="#e65100" font-weight="bold">&lt;slot&gt;</text>
<rect x="618.775" y="10" width="211" height="222" fill="none" stroke="#bdbdbd" stroke-width="1" rx="4" />
<text x="628.775" y="24" font-size="10" fill="#424242" font-weight="bold">Legend</text>
<line x1="628.775" y1="38" x2="652.775" y2="38" stroke="#9e9e9e" stroke-width="1.5" stroke-dasharray="4 2" />
<text x="674.775" y="42" font-size="8" fill="#666">#shadow-root</text>
<rect x="628.775" y="48" width="12" height="12" fill="#7b1fa2" rx="2" />
<path d="M5 0.5 L9.5 5 L5 9.5 L0.5 5 Z" fill="none" stroke="#fff" stroke-width="1.2" stroke-linecap="round" stroke-linejoin="round" transform="translate(629.775,49) scale(1)" />
<text x="674.775" y="58" font-size="8" fill="#666">condition (when / else)</text>
<rect x="628.775" y="64" width="12" height="12" fill="#00695c" rx="2" />
<path d="M8 14.667a5.806 5.806 0 0 1-2.342-.475 6.1 6.1 0 0 1-1.9-1.284 6.097 6.097 0 0 1-1.283-1.9A5.804 5.804 0 0 1 2 8.667a5.8 5.8 0 0 1 .475-2.342 6.099 6.099 0 0 1 1.283-1.9 6.099 6.099 0 0 1 1.9-1.283A5.805 5.805 0 0 1 8 2.667h.1L7.533 2.1a.622.622 0 0 1-.183-.458.68.68 0 0 1 .183-.475.68.68 0 0 1 .475-.209.62.62 0 0 1 .475.192L10.2 2.867a.632.632 0 0 1 .183.466.632.632 0 0 1-.183.467L8.483 5.517a.62.62 0 0 1-.475.191.68.68 0 0 1-.475-.208.68.68 0 0 1-.183-.475c0-.183.061-.336.183-.458L8.1 4H8c-1.3 0-2.403.453-3.308 1.358-.906.906-1.359 2.009-1.359 3.309 0 1.3.453 2.402 1.359 3.308.905.906 2.008 1.358 3.308 1.358 1.178 0 2.206-.383 3.083-1.15.878-.766 1.395-1.733 1.55-2.9a.68.68 0 0 1 .234-.441.687.687 0 0 1 .466-.175c.178 0 .334.055.467.166a.44.44 0 0 1 .167.417c-.156 1.544-.8 2.833-1.934 3.867C10.9 14.15 9.556 14.667 8 14.667Z" fill="#fff" transform="translate(629.775,65) scale(0.625)" />
<text x="674.775" y="74" font-size="8" fill="#666">iteration (for each)</text>
<rect x="628.775" y="80" width="12" height="12" fill="#546e7a" rx="2" />
<text x="674.775" y="90" font-size="8" fill="#666">descriptive comment</text>
<rect x="628.775" y="96" width="20" height="12" fill="#fff8e1" stroke="#f57f17" stroke-width="1" stroke-dasharray="3 1.5" rx="2" />
<text x="674.775" y="106" font-size="8" fill="#666">slot</text>
<rect x="628.775" y="112" width="12" height="12" fill="#0277bd" rx="2" />
<path d="M10.817 8.664H3.642a.613.613 0 0 1-.457-.19.647.647 0 0 1-.185-.47c0-.187.062-.343.185-.47a.613.613 0 0 1 .457-.19h7.175l-3.146-3.23a.613.613 0 0 1-.185-.462.668.668 0 0 1 .65-.651.58.58 0 0 1 .45.189l4.237 4.353c.065.066.11.137.137.214a.75.75 0 0 1 .04.247.75.75 0 0 1-.04.248.581.581 0 0 1-.137.214l-4.237 4.353a.59.59 0 0 1-.442.181.645.645 0 0 1-.457-.181.65.65 0 0 1-.193-.47.65.65 0 0 1 .193-.47l3.13-3.215Z" fill="#fff" transform="translate(629.775,113) scale(0.625)" />
<text x="674.775" y="122" font-size="8" fill="#666">projected content (light DOM)</text>
<text x="628.775" y="138" font-size="9" fill="#666">part</text>
<text x="674.775" y="138" font-size="8" fill="#666">static part</text>
<text x="628.775" y="154" font-size="9" fill="#666" font-style="italic">[part]</text>
<text x="674.775" y="154" font-size="8" fill="#666">conditional part</text>
<text x="628.775" y="170" font-size="9" fill="#666" font-style="italic">{part}</text>
<text x="674.775" y="170" font-size="8" fill="#666">dynamic part</text>
<text x="628.775" y="186" font-size="9" fill="#666" font-style="italic">[{part}]</text>
<text x="674.775" y="186" font-size="8" fill="#666">conditional dynamic part</text>
<rect x="628.775" y="192" width="20" height="12" fill="#fafafa" stroke="#bdbdbd" stroke-width="1" rx="3" />
<text x="630.775" y="201" font-size="7" fill="#424242" font-weight="bold">id</text>
<text x="674.775" y="202" font-size="8" fill="#666">id, role (in tag pill)</text>
<text x="628.775" y="218" font-size="9" fill="#1565c0" font-style="italic">aria-*</text>
<text x="674.775" y="218" font-size="8" fill="#666">aria-* attribute</text>

</svg>
